<svg width="1139" height="977" viewBox="0 0 1139 977" fill="none" xmlns="http://www.w3.org/2000/svg">
<path d="M575.879 657.259C599.297 768.527 489.203 794.632 489.203 794.632C489.203 794.632 429.836 843.987 391.494 805.14C353.152 766.292 389.249 748.233 392.389 743.138C395.53 738.043 450.339 711.739 461.864 651.973L575.879 657.259Z" fill="#FFAC00"/>
<path d="M426.985 821.699C414.247 821.702 401.374 817.661 390.238 806.382C377.86 793.839 371.803 781.994 372.234 771.179C372.757 758.116 382.564 749.654 387.834 745.107C389.229 743.901 390.545 742.764 390.886 742.211C391.645 740.98 393.671 739.528 398.181 736.357C413.969 725.262 450.944 699.273 460.128 651.636C460.315 650.677 461.253 650.049 462.197 650.236C463.155 650.42 463.781 651.346 463.597 652.304C454.143 701.339 416.35 727.903 400.211 739.245C397.321 741.278 394.332 743.379 393.893 744.063C393.267 745.079 391.955 746.212 390.142 747.778C384.938 752.27 376.228 759.789 375.766 771.318C375.375 781.119 381.088 792.081 392.752 803.9C429.51 841.135 487.498 793.755 488.078 793.271C488.287 793.097 488.534 792.974 488.799 792.91C489.072 792.845 516.302 786.204 540.293 766.23C572.319 739.568 583.711 703.023 574.153 657.618C573.954 656.663 574.564 655.727 575.518 655.528C576.471 655.318 577.41 655.939 577.609 656.89C600.392 765.138 497.355 794.315 490.015 796.242C486.63 798.949 457.207 821.697 426.985 821.699Z" fill="#260808"/>
<path d="M441.212 698.657C518.494 673.445 557.068 742.261 554.276 755.079C554.276 755.079 576.572 729.012 577.798 704.786C579.148 678.106 575.699 665.664 575.699 665.664L448.048 688.298L441.212 698.657Z" fill="#260808"/>
<path d="M419.6 810.85L418.422 811.041C390.697 808.242 374.855 767.513 392.389 743.136C368.844 736.757 336.657 747.398 325.356 789.106C325.389 789.113 325.389 789.113 325.389 789.113C324.516 819.68 356.305 864.83 398.991 887.664C454.244 917.182 530.9 927.192 581.491 904.086C592.121 882.756 593.844 852.454 577.874 821.9C564.754 800.998 541.658 788.046 516.158 785.988C515.001 782.704 512.955 779.282 509.658 775.826C496.99 762.456 459.884 749.535 440.69 759.873C423.933 768.895 416.552 790.458 419.6 810.85Z" fill="#FFEED1"/>
<path d="M473.409 811.303C478.487 803.104 487.291 798.584 495.759 796.657C504.292 794.551 512.886 794.109 521.185 794.992C529.482 795.847 537.503 797.991 544.915 801.217C549.417 803.154 553.998 805.076 558.14 807.724C560.07 808.958 562.226 810.705 563.874 812.375C565.763 814.29 564.752 816.993 561.177 815.616C554.066 812.95 549.238 811.83 542.11 810.721C534.976 809.641 527.87 809.379 520.989 810.019C510.604 811.041 501.951 814.607 492.838 819.342C486.985 822.381 476.464 827.503 472.822 818.825C471.752 816.29 472.077 813.485 473.409 811.303Z" fill="white"/>
<path opacity="0.6" d="M481.794 914.343C452.743 910.168 423.721 900.879 398.988 887.668C356.303 864.834 324.517 819.684 325.387 789.117C325.387 789.117 325.387 789.117 325.354 789.109C334.876 753.972 359.221 740.887 380.733 741.447C373.655 751.455 361.855 767.981 368.368 787.596C377.953 816.468 401.16 808.664 410.206 832.887C419.252 857.103 413.795 894.863 481.794 914.343Z" fill="#B870B4"/>
<path d="M325.356 789.109C324.37 789.594 306.988 798.167 309.667 813.613C312.663 830.782 322.748 883.579 387.506 916.832C469.694 956.343 562.656 950.655 575.977 938.932C589.624 929.277 588.837 911.51 581.491 904.09C530.9 927.196 454.241 917.185 398.991 887.668C356.305 864.834 324.519 819.684 325.389 789.117C325.389 789.117 325.387 789.117 325.356 789.109Z" fill="#F08C00"/>
<path d="M422.884 825.166C422.175 825.166 421.507 824.737 421.237 824.036C411.422 798.597 419.771 769.112 439.843 758.307C459.824 747.547 497.729 760.67 510.95 774.605C514.224 778.056 516.534 781.693 517.816 785.421C518.131 786.341 517.642 787.347 516.718 787.665C515.798 787.978 514.791 787.491 514.473 786.568C513.359 783.325 511.31 780.116 508.387 777.034C496.178 764.163 459.871 751.54 441.515 761.417C422.955 771.407 415.334 798.93 424.531 822.765C424.882 823.673 424.428 824.697 423.52 825.047C423.31 825.128 423.096 825.166 422.884 825.166Z" fill="#260808"/>
<path d="M581.476 905.867C581.211 905.867 580.944 905.806 580.689 905.68C579.816 905.246 579.463 904.185 579.897 903.312C591.682 879.699 590.345 849.571 576.323 822.729C564.954 804.64 545.339 792.132 522.578 788.536C496.813 784.467 469.795 792.359 448.455 810.204C447.705 810.832 446.593 810.731 445.967 809.982C445.342 809.233 445.443 808.121 446.189 807.495C468.312 788.997 496.359 780.818 523.133 785.05C546.9 788.806 567.403 801.901 579.385 820.974C594 848.94 595.35 880.266 583.06 904.888C582.747 905.506 582.124 905.867 581.476 905.867Z" fill="#260808"/>
<path d="M418.429 812.814C418.369 812.814 418.311 812.812 418.25 812.804C405.524 811.515 394.175 802.425 387.897 788.488C381.099 773.4 381.767 756.705 389.519 744.255C377.953 741.779 365.565 743.68 355.157 749.618C341.791 757.24 332.074 771.051 327.057 789.557C326.802 790.498 325.831 791.053 324.89 790.8C323.949 790.543 323.391 789.577 323.646 788.636C328.913 769.203 339.202 754.647 353.407 746.548C365.346 739.738 379.724 737.874 392.853 741.433C393.413 741.587 393.86 742.001 394.057 742.545C394.251 743.093 394.163 743.698 393.827 744.167C385.601 755.605 384.539 772.434 391.118 787.037C396.874 799.81 407.149 808.131 418.606 809.291C419.577 809.389 420.283 810.254 420.185 811.225C420.091 812.136 419.322 812.814 418.429 812.814Z" fill="#260808"/>
<path d="M525.86 948.872C486.461 948.875 431.897 940.922 386.719 918.411C342.562 895.737 316.058 860.579 307.923 813.911C304.957 796.891 323.835 787.886 324.643 787.511C325.195 787.248 325.846 787.299 326.358 787.637C326.87 787.975 327.17 788.55 327.152 789.163C326.27 820.181 359.546 864.577 399.823 886.112C457.684 917.044 533.773 923.933 580.744 902.494C581.413 902.184 582.207 902.327 582.73 902.854C586.806 906.958 588.965 913.811 588.365 920.742C587.676 928.697 583.635 935.669 576.988 940.372C571.272 945.404 551.867 948.872 525.86 948.872ZM323.631 792.119C318.947 795.032 309.497 802.377 311.399 813.305C319.335 858.824 345.211 893.129 388.31 915.259C462.712 952.335 562.252 948.65 574.799 937.606C580.729 933.396 584.246 927.34 584.843 920.434C585.313 915.004 583.862 909.69 581.027 906.234C532.322 927.799 457.374 920.881 398.153 889.222C357.417 867.442 324.754 824.562 323.631 792.119Z" fill="#260808"/>
<path d="M528.577 680.334C592.308 717.607 569.318 805.461 569.318 805.461C569.318 805.461 558.756 854.012 616.395 864.426C674.034 874.84 700.447 803.186 696.242 763.451C692.037 723.716 664.658 660.865 599.118 647.969L528.577 680.334Z" fill="#FFAC00"/>
<path d="M614.208 677.643C644.768 675.154 665.231 690.69 665.231 690.69L652.164 674.551L614.208 677.643Z" fill="#260808"/>
<path d="M627.33 867.195C623.647 867.195 619.894 866.852 616.08 866.164C596.946 862.708 583.098 854.751 574.923 842.511C563.382 825.238 567.413 805.9 567.59 805.088C567.834 804.15 589.505 718.011 527.684 681.858C526.844 681.366 526.559 680.284 527.053 679.441C527.542 678.596 528.624 678.319 529.467 678.808C593.612 716.321 571.255 805.015 571.023 805.908C571 806.022 567.168 824.583 577.881 840.586C585.507 851.976 598.571 859.412 616.705 862.691C634.814 865.967 650.877 861.23 664.443 848.627C686.687 827.96 697.185 789.186 694.481 763.638C690.927 730.047 666.35 663.001 598.773 649.704C597.817 649.518 597.194 648.589 597.38 647.634C597.569 646.675 598.498 646.037 599.454 646.241C669.052 659.934 694.343 728.779 697.993 763.267C700.747 789.312 690.768 828.986 666.845 851.212C655.484 861.77 641.988 867.195 627.33 867.195Z" fill="#260808"/>
<path d="M519.972 946.515C513.439 926.125 522.18 905.695 522.18 905.695L548.419 947.032L519.972 946.515Z" fill="#260808"/>
<path d="M683.279 768.604C739.115 740.855 808.425 782.668 808.284 833.552C803.688 827.395 797.377 822.751 789.143 820.648C764.002 814.262 703.348 826.293 673.391 909.254C652.361 956.921 565.14 962.064 526.503 895.729C515.197 860.865 524.904 813.543 569.31 805.464C563.889 827.377 594.853 858.918 621.496 841.383L623.153 840.389C617.873 833.612 604.698 814.625 609.201 799.928C616.269 776.769 656.563 760.43 683.279 768.604Z" fill="#FFEED1"/>
<path d="M676.206 782.233C681.284 774.033 690.087 769.513 698.555 767.586C707.089 765.48 715.683 765.039 723.982 765.922C732.279 766.777 740.3 768.921 747.711 772.147C752.214 774.084 756.792 776.006 760.937 778.654C762.866 779.887 765.023 781.635 766.67 783.305C768.557 785.219 767.548 787.923 763.974 786.546C756.863 783.88 752.037 782.76 744.906 781.65C737.773 780.571 730.667 780.308 723.785 780.949C713.4 781.971 704.748 785.537 695.632 790.271C689.779 793.311 679.258 798.433 675.616 789.754C674.549 787.219 674.877 784.412 676.206 782.233Z" fill="white"/>
<path d="M808.284 833.551C820.672 850.071 820.566 877.518 812.209 895.852C817.368 866.768 800.303 847.68 761.638 864.092C705.747 887.814 717.136 941.499 668.979 970.152L668.987 970.192C658.284 972.232 647.449 973.663 636.62 974.328C556.612 977.201 528.809 947.109 526.95 938.45C516.105 916.242 526.503 895.729 526.503 895.729C565.143 962.063 652.361 956.923 673.391 909.253C703.348 826.292 764.002 814.263 789.143 820.647C797.377 822.751 803.691 827.394 808.284 833.551Z" fill="#F08C00"/>
<path d="M761.638 864.093C800.301 847.678 817.365 866.769 812.209 895.853C802.213 917.64 738.847 956.87 668.989 970.195L668.982 970.155C717.136 941.498 705.747 887.815 761.638 864.093Z" fill="#F08C00"/>
<path opacity="0.75" d="M761.638 864.093C800.301 847.678 817.365 866.769 812.209 895.853C802.213 917.64 738.847 956.87 668.989 970.195L668.982 970.155C717.136 941.498 705.747 887.815 761.638 864.093Z" fill="#B870B4"/>
<path d="M526.488 897.52C525.744 897.52 525.05 897.046 524.808 896.3C517.384 873.337 519.435 847.931 530.158 829.998C538.583 815.909 552.016 806.824 568.997 803.729C569.593 803.618 570.193 803.822 570.602 804.256C571.013 804.695 571.174 805.31 571.028 805.891C568.392 816.502 574.933 830.19 586.582 838.435C597.663 846.281 610.036 846.824 620.517 839.93C621.332 839.396 622.426 839.62 622.964 840.435C623.498 841.25 623.274 842.344 622.459 842.881C610.699 850.62 596.878 850.047 584.543 841.318C572.69 832.926 565.703 819.205 567.113 807.714C552.351 811.028 540.662 819.324 533.193 831.811C522.974 848.897 521.052 873.191 528.171 895.213C528.471 896.141 527.961 897.137 527.033 897.437C526.851 897.493 526.67 897.52 526.488 897.52Z" fill="#260808"/>
<path d="M808.282 835.331H808.277C807.3 835.328 806.513 834.536 806.516 833.56C806.604 801.54 777.876 771.385 739.69 763.42C695.138 754.115 655.925 777.718 634.792 826.528C634.403 827.421 633.367 827.83 632.469 827.446C631.576 827.06 631.162 826.021 631.55 825.123C653.403 774.661 694.103 750.319 740.411 759.962C780.204 768.262 810.143 799.906 810.05 833.57C810.045 834.541 809.255 835.331 808.282 835.331Z" fill="#260808"/>
<path d="M625.226 844.745C624.734 844.745 624.242 844.538 623.894 844.137C622.986 843.095 601.717 818.35 607.501 799.418C610.951 788.121 622.421 777.452 638.184 770.884C653.713 764.409 670.765 762.931 683.799 766.924C684.732 767.209 685.257 768.195 684.969 769.128C684.684 770.062 683.695 770.589 682.762 770.299C670.493 766.543 654.333 767.981 639.541 774.143C624.739 780.312 614.026 790.149 610.878 800.449C605.664 817.515 626.351 841.584 626.561 841.824C627.199 842.558 627.123 843.673 626.387 844.313C626.051 844.601 625.637 844.745 625.226 844.745Z" fill="#260808"/>
<path d="M626.2 976.274C556.064 976.277 527.86 949.632 525.275 939.036C514.302 916.397 524.473 895.823 524.912 894.955C525.204 894.378 525.789 894.007 526.435 893.989C527.066 893.891 527.686 894.304 528.012 894.864C550.24 932.995 587.366 944.958 614.677 943.402C641.063 941.917 662.935 928.561 671.759 908.553C704.055 819.157 769.284 813.79 789.577 818.956C800.432 821.725 808.938 828.976 814.172 839.93C821.858 856.01 821.699 879.305 813.788 896.58C802.437 921.373 721.775 970.841 636.724 976.08C633.119 976.211 629.608 976.274 626.2 976.274ZM526.793 899.674C524.503 906.091 520.628 921.509 528.536 937.669C528.6 937.798 528.647 937.934 528.678 938.075C530.771 947.836 561.369 975.258 636.555 972.554C718.91 967.479 799.819 918.614 810.582 895.112C818.089 878.72 818.256 856.655 810.991 841.454C806.221 831.476 798.517 824.88 788.71 822.378C769.218 817.397 706.491 822.815 675.041 909.867C665.634 931.21 642.599 945.369 614.882 946.928C587.273 948.472 549.995 936.791 526.793 899.674Z" fill="#260808"/>
<path d="M668.997 971.929C668.397 971.929 667.809 971.621 667.478 971.066C666.979 970.226 667.254 969.144 668.094 968.645C690.135 955.527 699.64 936.673 708.835 918.445C719.518 897.261 730.564 875.353 760.952 862.462C785.055 852.234 798.172 856.507 804.929 861.892C813.453 868.681 816.649 880.851 813.925 896.153C813.753 897.114 812.83 897.737 811.876 897.581C810.915 897.41 810.277 896.491 810.449 895.53C812.933 881.565 810.191 870.596 802.727 864.651C794.234 857.884 779.889 858.257 762.329 865.71C733.131 878.094 722.86 898.464 711.985 920.031C702.564 938.713 692.822 958.031 669.897 971.679C669.615 971.848 669.305 971.929 668.997 971.929Z" fill="#260808"/>
<path opacity="0.6" d="M565.882 806.199C558.163 814.714 548.729 830.067 559.611 847.004C576.141 872.73 615.225 850.535 621.488 854.994C627.751 859.453 610.684 884.333 615.981 901.988C621.279 919.644 653.569 921.661 687.361 878.849L687.285 879.049C682.197 887.889 677.5 897.882 673.393 909.255C652.363 956.922 565.143 962.065 526.506 895.731C515.495 861.784 524.42 816.046 565.882 806.199Z" fill="#B870B4"/>
<path d="M568.604 36.4045C578.954 39.3656 569.075 60.6456 569.075 60.6456L523.918 74.1395C523.918 74.1395 548.845 36.0691 568.604 36.4045Z" fill="#FFDD4F"/>
<path d="M523.92 75.9053C523.373 75.9053 522.843 75.6481 522.505 75.1941C522.061 74.5988 522.038 73.7917 522.445 73.1712C523.479 71.5923 547.912 34.6367 568.349 34.6367C568.601 34.6367 568.854 34.6367 569.091 34.7073C571.381 35.3606 573.109 36.8411 574.088 38.985C577.458 46.36 571.384 59.8716 570.677 61.3874C570.465 61.8465 570.067 62.1895 569.583 62.3358L524.425 75.8297C524.258 75.8801 524.089 75.9053 523.92 75.9053ZM568.334 38.1678C553.577 38.1704 535.241 61.3672 528.269 70.9971L567.799 59.183C569.638 54.9557 573.031 45.1594 570.877 40.4504C570.344 39.2953 569.535 38.5638 568.334 38.1678Z" fill="#260808"/>
<path d="M571.598 38.2963C556.122 40.0846 548.144 62.7241 548.144 62.7241L535.294 66.3233C535.294 66.3233 559.795 30.0714 571.598 38.2963Z" fill="#260808"/>
<path d="M696.421 645.15C741.708 783.467 940.972 775.229 889.193 595.715L696.421 645.15Z" fill="#FFAC00"/>
<path d="M815.491 742.39C796.595 742.39 776.838 737.002 758.586 726.56C728.934 709.598 706.259 680.883 694.741 645.7C694.436 644.775 694.943 643.776 695.869 643.473C696.8 643.176 697.796 643.675 698.096 644.601C709.341 678.948 731.446 706.968 760.339 723.493C786.722 738.586 816.278 742.801 841.427 735.065C879.668 723.297 911.85 680.636 887.495 596.202C887.223 595.264 887.765 594.285 888.701 594.015C889.63 593.745 890.616 594.282 890.886 595.223C915.949 682.116 882.307 726.179 842.466 738.44C833.87 741.086 824.784 742.39 815.491 742.39Z" fill="#260808"/>
<path d="M707.011 670.08C707.011 670.08 716.256 685.246 717.996 687.612C735.959 664.317 767.601 665.144 767.601 665.144L707.011 670.08Z" fill="#260808"/>
<path d="M795.967 528.152L911.485 539.121C927.669 557.809 911.485 620.193 863.794 619.87L790.99 615.363L795.967 528.152Z" fill="#FFAC00"/>
<path d="M863.794 621.634C862.846 621.634 862.064 620.88 862.031 619.927C861.998 618.951 862.762 618.136 863.739 618.103C892.919 617.137 906.044 594.21 910.332 584.401C917.725 567.487 917.647 548.931 910.15 540.272C909.512 539.536 909.593 538.421 910.329 537.783C911.068 537.145 912.181 537.223 912.822 537.962C921.163 547.592 921.479 567.719 913.568 585.816C903.937 607.853 885.816 620.908 863.855 621.632C863.832 621.634 863.812 621.634 863.794 621.634Z" fill="#260808"/>
<path d="M802.419 662.308C628.881 676.448 455.343 690.587 281.803 704.727C271.622 705.557 262.629 697.511 261.646 686.693C250.549 564.529 239.453 442.368 228.356 320.204C227.36 309.235 234.97 299.597 245.295 298.755C421.1 284.431 596.906 270.105 772.709 255.781C783.034 254.941 792.105 263.219 792.899 274.204C801.731 396.552 810.559 518.9 819.391 641.247C820.173 652.083 812.6 661.478 802.419 662.308Z" fill="#FFAC00"/>
<path d="M233.099 372.403C233.583 371.581 234.067 370.807 234.552 370.08C244.329 355.388 253.491 359.969 253.491 359.969V346.18H230.715L233.099 372.403Z" fill="#260808"/>
<path opacity="0.5" d="M789.837 561.531C789.683 559.649 788.018 558.237 786.139 558.39L321.328 596.261C319.446 596.415 318.033 598.08 318.187 599.959L318.21 600.237C318.364 602.118 320.029 603.531 321.908 603.377L493.784 589.373L500.102 666.904C500.256 668.786 501.919 670.198 503.8 670.044L504.078 670.021C505.96 669.868 507.372 668.205 507.218 666.324L500.899 588.793L699.758 572.59L706.077 650.121C706.231 652.003 707.893 653.415 709.775 653.261L710.053 653.238C711.934 653.085 713.347 651.42 713.193 649.541L706.874 572.01L786.716 565.506C788.598 565.352 790.011 563.687 789.857 561.808L789.837 561.531Z" fill="#CFF0FF"/>
<path d="M280.38 706.551C269.932 706.553 260.904 698.028 259.888 686.855L226.598 320.366C226.061 314.441 227.887 308.504 231.61 304.08C235.094 299.938 239.904 297.424 245.154 296.995L772.568 254.021C777.805 253.595 782.971 255.298 787.08 258.819C791.469 262.582 794.234 268.143 794.663 274.078L821.151 641.119C821.999 652.868 813.66 663.161 802.563 664.067L281.947 706.485C281.422 706.531 280.9 706.551 280.38 706.551ZM774.15 257.489C773.718 257.489 773.287 257.507 772.853 257.542L245.439 300.516C241.135 300.867 237.185 302.94 234.312 306.352C231.192 310.06 229.66 315.052 230.115 320.043L263.404 686.532C264.294 696.341 272.462 703.693 281.659 702.969L802.276 660.551C811.45 659.802 818.336 651.201 817.627 641.377L791.139 274.333C790.778 269.334 788.46 264.655 784.78 261.5C781.732 258.889 777.999 257.489 774.15 257.489Z" fill="#260808"/>
<path d="M798.671 306.872L241.248 352.29C229.986 353.208 220.11 344.821 219.192 333.56L213.304 261.301L811.515 212.559L817.405 284.818C818.321 296.082 809.934 305.954 798.671 306.872Z" fill="#FFFDEE"/>
<path d="M309.167 242.533L782.935 97.9262L787.186 85.5547L285.266 239.259L309.167 242.533Z" fill="#FFFDEE"/>
<path d="M336.123 223.683C336.743 223.494 363.855 225.839 363.855 225.839L330.089 235.008L321.421 229.111L336.123 223.683Z" fill="#260808"/>
<path d="M309.167 244.299C308.41 244.299 307.709 243.809 307.479 243.048C307.194 242.114 307.719 241.128 308.652 240.843L781.558 96.4989L785.513 84.9799C785.829 84.0568 786.828 83.5625 787.758 83.8828C788.679 84.2006 789.171 85.2044 788.856 86.1276L784.605 98.499C784.421 99.0338 783.992 99.4474 783.45 99.6139L309.682 244.22C309.51 244.273 309.336 244.299 309.167 244.299Z" fill="#260808"/>
<path d="M194.568 174.699C194.568 174.699 183.199 190.044 180.699 196.912C178.202 203.78 200.056 271.833 200.056 271.833C200.056 271.833 200.056 327.397 204.428 338.011C208.799 348.624 235.147 351.873 235.147 351.873L194.568 174.699Z" fill="#FFFDEE"/>
<path d="M787.186 85.5531L213.304 261.294L192.072 191.973C188.763 181.168 194.84 169.727 205.646 166.418L740.398 2.66025C751.205 -0.648905 762.647 5.42713 765.956 16.2323L787.186 85.5531Z" fill="#FFFDEE"/>
<path d="M811.515 212.57L817.405 284.824C818.324 296.081 809.941 305.951 798.661 306.869L715.983 313.606L800.532 213.466L811.515 212.57Z" fill="black"/>
<path d="M710.683 220.785L626.137 320.94L533.195 328.514L617.742 228.359L710.683 220.785Z" fill="black"/>
<path d="M535.96 235.008L451.413 335.163L358.469 342.734L443.016 242.58L535.96 235.008Z" fill="black"/>
<path d="M690.458 115.187L574.882 53.3594L485.719 80.6624L601.295 142.49L690.458 115.187Z" fill="black"/>
<path d="M522.835 166.503L407.259 104.676L318.097 131.981L433.673 193.809L522.835 166.503Z" fill="black"/>
<path d="M765.957 16.2462L787.188 85.562L776.652 88.7879L661.073 26.9556L740.388 2.6666C751.207 -0.647599 762.642 5.42591 765.957 16.2462Z" fill="black"/>
<path d="M239.549 354.125C234.289 354.125 229.252 352.281 225.198 348.838C220.673 344.997 217.916 339.62 217.431 333.702L211.544 261.446C211.466 260.475 212.187 259.622 213.161 259.544L811.372 210.802C811.831 210.767 812.302 210.913 812.658 211.216C813.016 211.518 813.238 211.952 813.276 212.419L819.166 284.678C819.648 290.595 817.797 296.346 813.955 300.868C810.11 305.393 804.735 308.15 798.817 308.634L241.395 354.052C240.777 354.1 240.162 354.125 239.549 354.125ZM215.207 262.916L220.953 333.415C221.359 338.391 223.677 342.914 227.484 346.144C231.29 349.378 236.138 350.929 241.105 350.528L798.527 305.11C803.504 304.704 808.027 302.386 811.258 298.58C814.49 294.774 816.046 289.937 815.642 284.96L809.898 214.462L215.207 262.916Z" fill="#260808"/>
<path d="M213.302 263.06C213.017 263.06 212.732 262.989 212.475 262.853C212.061 262.633 211.751 262.258 211.614 261.811L190.383 192.493C186.793 180.775 193.407 168.322 205.127 164.733L739.879 0.975581C751.601 -2.61102 764.055 4.00224 767.642 15.718L788.873 85.0362C789.158 85.9694 788.634 86.9556 787.703 87.2406L213.819 262.981C213.65 263.034 213.476 263.06 213.302 263.06ZM746.377 3.53058C744.568 3.53058 742.729 3.79542 740.911 4.35283L206.158 168.111C196.3 171.13 190.738 181.605 193.758 191.459L214.472 259.09L784.976 84.3829L764.261 16.7521C761.802 8.71123 754.378 3.53058 746.377 3.53058Z" fill="#260808"/>
<path d="M350.859 321.239L259.471 328.685C243.072 330.022 228.694 317.812 227.357 301.412L219.399 203.757C217.678 182.646 242.674 170.312 258.384 184.517L364.642 280.596C379.832 294.335 371.273 319.577 350.859 321.239Z" fill="#260808"/>
<path d="M356.671 314.086L265.283 321.531C248.884 322.868 234.506 310.658 233.169 294.258L225.211 196.603C223.49 175.495 248.486 163.158 264.196 177.366L370.454 273.445C385.644 287.181 377.083 312.421 356.671 314.086Z" fill="#FFFDEE"/>
<path d="M262.841 323.393C246.592 323.393 232.753 310.875 231.409 294.4L223.45 196.744C222.595 186.242 227.933 176.821 237.384 172.155C246.836 167.492 257.562 168.982 265.382 176.052L371.639 272.131C379.197 278.966 381.861 289.207 378.586 298.857C375.315 308.507 366.97 315.014 356.815 315.841L265.427 323.289C264.559 323.36 263.697 323.393 262.841 323.393ZM248.632 173.018C245.378 173.018 242.081 173.777 238.948 175.323C230.823 179.331 226.235 187.43 226.972 196.459L234.93 294.115C236.184 309.513 249.714 321.017 265.142 319.768L356.53 312.32C365.257 311.609 372.429 306.015 375.242 297.722C378.054 289.426 375.766 280.623 369.268 274.749L263.01 178.67C258.884 174.942 253.813 173.018 248.632 173.018Z" fill="#260808"/>
<path d="M273.411 201.693C274.16 210.884 267.314 218.945 258.122 219.692C248.93 220.441 240.868 213.595 240.119 204.404C239.369 195.213 246.215 187.152 255.407 186.403C264.602 185.657 272.661 192.5 273.411 201.693Z" fill="#E8F9FF"/>
<path d="M256.737 221.009C252.487 221.009 248.415 219.518 245.139 216.736C241.481 213.632 239.254 209.288 238.863 204.506C238.474 199.724 239.97 195.078 243.075 191.421C246.183 187.764 250.527 185.537 255.307 185.146C260.082 184.745 264.736 186.25 268.394 189.358C272.051 192.463 274.279 196.806 274.67 201.588C275.472 211.457 268.096 220.141 258.225 220.949C257.726 220.989 257.229 221.009 256.737 221.009ZM256.79 187.607C256.366 187.607 255.94 187.625 255.511 187.66C247.025 188.351 240.686 195.815 241.378 204.299C241.711 208.408 243.628 212.144 246.771 214.812C249.914 217.481 253.912 218.782 258.019 218.431C266.504 217.74 272.846 210.275 272.152 201.79C271.819 197.681 269.902 193.946 266.759 191.277C263.944 188.889 260.443 187.607 256.79 187.607Z" fill="#260808"/>
<path d="M257.514 214.369C256.667 214.369 255.352 213.741 254.439 206.018C246.675 206.278 246.539 204.613 246.481 203.882C246.423 203.15 246.284 201.478 253.99 200.487C253.607 191.909 255.103 191.788 255.922 191.72C256.755 191.654 258.236 191.538 259.247 200.058C267.024 199.793 267.148 201.463 267.208 202.194C267.266 202.928 267.405 204.601 259.699 205.589C260.082 214.167 258.586 214.289 257.766 214.357C257.686 214.364 257.602 214.369 257.514 214.369ZM255.564 203.445C256.205 203.445 256.75 203.93 256.818 204.575C256.942 205.773 257.08 206.818 257.224 207.716C257.219 206.805 257.189 205.753 257.118 204.553C257.078 203.879 257.572 203.297 258.241 203.224C259.89 203.044 261.215 202.822 262.236 202.598C261.189 202.543 259.847 202.537 258.19 202.628C257.499 202.669 256.936 202.167 256.866 201.501C256.742 200.305 256.603 199.261 256.46 198.363C256.465 199.274 256.498 200.325 256.568 201.524C256.609 202.194 256.114 202.78 255.446 202.853C253.793 203.032 252.469 203.256 251.448 203.478C252.489 203.531 253.831 203.536 255.494 203.448C255.516 203.445 255.539 203.445 255.564 203.445Z" fill="#260808"/>
<path d="M281.018 286.148C281.768 295.341 274.922 303.4 265.73 304.149C256.538 304.898 248.476 298.053 247.726 288.862C246.977 279.671 253.823 271.61 263.015 270.861C272.21 270.112 280.269 276.957 281.018 286.148Z" fill="#E8F9FF"/>
<path d="M264.36 305.465C255.11 305.465 247.235 298.34 246.471 288.965C246.082 284.182 247.578 279.537 250.683 275.879C253.788 272.222 258.132 269.995 262.915 269.604C267.69 269.213 272.344 270.709 276.001 273.816C279.659 276.924 281.886 281.264 282.277 286.046C283.08 295.916 275.704 304.6 265.833 305.407C265.339 305.445 264.847 305.465 264.36 305.465ZM264.398 272.066C263.972 272.066 263.548 272.083 263.119 272.119C259.01 272.452 255.274 274.368 252.605 277.511C249.936 280.654 248.65 284.649 248.985 288.76C249.677 297.245 257.138 303.593 265.629 302.892C274.115 302.201 280.454 294.735 279.762 286.251C279.43 282.142 277.512 278.407 274.369 275.738C271.552 273.347 268.05 272.066 264.398 272.066Z" fill="#260808"/>
<path d="M265.122 298.83C264.274 298.83 262.963 298.197 262.047 290.479C254.303 290.752 254.149 289.077 254.089 288.343C254.031 287.609 253.892 285.939 261.598 284.946C261.215 276.368 262.71 276.247 263.53 276.178C264.363 276.105 265.843 275.997 266.855 284.517C274.612 284.257 274.755 285.922 274.813 286.653C274.874 287.39 275.005 289.059 267.304 290.048C267.687 298.626 266.192 298.747 265.372 298.815C265.294 298.823 265.21 298.83 265.122 298.83ZM263.172 287.907C263.813 287.907 264.358 288.391 264.426 289.037C264.549 290.232 264.688 291.276 264.832 292.174C264.827 291.264 264.794 290.212 264.723 289.014C264.683 288.343 265.177 287.758 265.846 287.685C267.498 287.506 268.823 287.284 269.844 287.059C268.8 287.006 267.458 287.001 265.798 287.09C265.13 287.132 264.544 286.628 264.474 285.962C264.35 284.767 264.211 283.722 264.068 282.824C264.073 283.735 264.105 284.787 264.176 285.985C264.216 286.656 263.722 287.241 263.054 287.314C261.401 287.493 260.077 287.718 259.055 287.937C260.1 287.992 261.439 287.998 263.101 287.907C263.124 287.907 263.147 287.907 263.172 287.907Z" fill="#260808"/>
<path d="M361.982 295.557C367.713 288.331 366.501 277.827 359.274 272.096C352.047 266.364 341.542 267.576 335.81 274.803C330.079 282.029 331.291 292.533 338.518 298.264C345.745 303.995 356.25 302.783 361.982 295.557Z" fill="#E8F9FF"/>
<path d="M348.859 303.123C344.608 303.123 340.537 301.632 337.26 298.85C333.603 295.745 331.375 291.402 330.984 286.62C330.596 281.84 332.092 277.192 335.197 273.535C338.304 269.877 342.646 267.65 347.428 267.259C357.279 266.455 365.984 273.83 366.791 283.702C367.18 288.484 365.684 293.13 362.579 296.787C359.473 300.444 355.13 302.671 350.347 303.062C349.847 303.103 349.353 303.123 348.859 303.123ZM348.899 269.723C348.48 269.723 348.059 269.741 347.635 269.776C343.526 270.109 339.79 272.026 337.121 275.169C334.453 278.312 333.166 282.304 333.502 286.416C333.835 290.524 335.752 294.26 338.895 296.928C342.04 299.599 346.031 300.893 350.143 300.548C354.252 300.215 357.988 298.298 360.656 295.155C363.325 292.012 364.612 288.017 364.276 283.906C363.618 275.847 356.847 269.723 348.899 269.723Z" fill="#260808"/>
<path d="M349.638 296.485C348.79 296.485 347.476 295.857 346.56 288.134C338.789 288.397 338.66 286.729 338.599 285.998C338.541 285.266 338.403 283.594 346.109 282.6C345.725 274.025 347.221 273.901 348.041 273.833C348.861 273.768 350.354 273.639 351.366 282.172C359.122 281.897 359.266 283.577 359.324 284.308C359.382 285.039 359.521 286.712 351.815 287.705C352.198 296.284 350.702 296.405 349.882 296.473C349.809 296.478 349.726 296.485 349.638 296.485ZM347.688 285.559C348.329 285.559 348.873 286.043 348.942 286.689C349.065 287.885 349.204 288.929 349.348 289.827C349.343 288.916 349.31 287.864 349.239 286.666C349.199 285.995 349.693 285.41 350.362 285.337C352.014 285.158 353.338 284.934 354.36 284.712C353.313 284.659 351.971 284.654 350.314 284.742C349.633 284.785 349.06 284.28 348.99 283.614C348.866 282.416 348.727 281.372 348.583 280.474C348.588 281.385 348.619 282.437 348.689 283.637C348.73 284.308 348.235 284.893 347.567 284.966C345.915 285.145 344.59 285.37 343.569 285.589C344.613 285.642 345.955 285.647 347.615 285.559C347.64 285.559 347.663 285.559 347.688 285.559Z" fill="#260808"/>
<path d="M271.625 574.005C270.712 574.005 269.94 573.302 269.867 572.376C269.809 571.619 263.929 496.17 258.914 434.494C258.836 433.523 259.56 432.67 260.531 432.592C261.495 432.511 262.355 433.235 262.433 434.209C267.448 495.892 273.328 571.35 273.386 572.101C273.461 573.075 272.735 573.925 271.761 574C271.718 574.003 271.673 574.005 271.625 574.005Z" fill="#260808"/>
<path d="M259.481 421.541C258.573 421.541 257.799 420.842 257.723 419.919L256.991 411.048C256.911 410.077 257.635 409.225 258.606 409.144C259.559 409.086 260.432 409.785 260.51 410.758L261.242 419.631C261.32 420.602 260.599 421.455 259.625 421.536C259.577 421.538 259.529 421.541 259.481 421.541Z" fill="#260808"/>
<path d="M256.767 388.963C255.862 388.963 255.087 388.267 255.011 387.347C252.744 360.732 252.063 354.717 251.858 353.637C251.793 353.473 251.747 353.297 251.735 353.11C251.657 352.139 252.383 351.286 253.354 351.211C255.463 351.029 255.463 351.037 258.53 387.046C258.614 388.017 257.895 388.872 256.921 388.956C256.868 388.961 256.818 388.963 256.767 388.963Z" fill="#260808"/>
<path d="M235.147 353.64C235.074 353.64 235 353.635 234.927 353.628C233.81 353.489 207.5 350.122 202.791 338.684C198.452 328.146 198.293 276.811 198.288 272.102C194.517 260.104 176.985 203.553 178.996 196.43C182.124 185.37 192.827 173.965 193.281 173.483C193.949 172.774 195.067 172.742 195.778 173.412C196.487 174.083 196.517 175.198 195.849 175.909C195.743 176.02 185.285 187.171 182.396 197.391C181.052 202.143 193.546 245.248 201.739 271.302C201.792 271.474 201.82 271.653 201.82 271.832C201.82 290.93 202.705 329.2 206.057 337.339C209.321 345.264 228.316 349.254 235.359 350.122C236.327 350.24 237.016 351.123 236.895 352.089C236.786 352.985 236.025 353.64 235.147 353.64Z" fill="#260808"/>
<path d="M580.127 507.126C579.435 507.126 578.78 506.718 578.494 506.042C578.119 505.141 578.542 504.105 579.443 503.731C587.994 500.155 593.65 488.179 592.32 476.464C590.857 463.573 581.655 454.74 567.075 452.233C566.114 452.069 565.468 451.153 565.635 450.192C565.799 449.231 566.719 448.588 567.675 448.752C590.739 452.72 595.05 469.175 595.832 476.068C597.327 489.256 590.729 502.839 580.805 506.988C580.583 507.081 580.351 507.126 580.127 507.126Z" fill="#260808"/>
<path d="M257.428 574.684C104.161 605.808 147.884 724.183 147.884 724.183C147.884 724.183 178.368 778.578 224.081 771.669C238.918 690.998 290.244 652.565 294.398 653.269L257.428 574.684Z" fill="#FFAC00"/>
<path d="M216.15 774.034C174.309 774.036 146.635 725.567 146.342 725.044C146.297 724.966 146.259 724.88 146.226 724.792C146.057 724.333 129.548 678.416 152.994 636.34C170.611 604.727 205.629 583.401 257.075 572.954C258.031 572.758 258.964 573.378 259.156 574.332C259.35 575.287 258.732 576.221 257.776 576.412C207.407 586.642 173.197 607.368 156.097 638.023C134.038 677.569 148.544 720.741 149.49 723.44C151.128 726.268 180.308 775.438 222.575 770.094C237.516 691.33 288.17 650.402 294.691 651.527C295.652 651.688 296.3 652.601 296.136 653.565C295.975 654.528 295.056 655.181 294.1 655.01C290.589 655.585 240.591 691.653 225.816 771.988C225.68 772.727 225.087 773.302 224.343 773.413C221.558 773.837 218.824 774.034 216.15 774.034Z" fill="#260808"/>
<path d="M141.565 817.32C136.189 831.425 118.118 840.85 115.295 864.307C111.766 893.62 149.258 914.905 181.173 892.919C205.003 876.479 188.062 833.553 197.955 827.16C207.823 820.771 239.203 805.559 224.076 771.668C218.511 759.271 161.677 717.453 161.677 717.453C161.677 717.453 107.791 662.171 51.736 663.977C15.2203 665.137 14.9983 698.398 23.436 717.004C-2.79796 728.742 -3.53201 758.124 12.226 771.512C14.4711 773.429 16.7918 775.182 19.1705 776.821C6.46214 789.942 7.0196 807.653 15.8408 819.969C31.228 841.461 94.8354 834.784 141.565 817.32Z" fill="#FFAC00"/>
<path d="M161.679 719.222C161.22 719.222 160.761 719.043 160.413 718.687C159.878 718.14 106.411 663.99 51.7938 665.743C39.1687 666.144 30.2038 670.467 25.1487 678.594C18.2799 689.634 20.1466 705.473 25.0478 716.276C25.4514 717.166 25.0553 718.21 24.1674 718.614C23.2795 719.012 22.2327 718.624 21.8291 717.734C16.5419 706.076 14.5895 688.874 22.1494 676.727C27.7872 667.668 38.0008 662.648 51.6803 662.215C107.839 660.341 162.398 715.663 162.943 716.223C163.624 716.919 163.609 718.039 162.91 718.717C162.567 719.053 162.123 719.222 161.679 719.222Z" fill="#260808"/>
<path d="M19.173 778.59C18.8274 778.59 18.4793 778.489 18.1716 778.277C15.5734 776.486 13.2552 774.713 11.0808 772.857C2.85998 765.87 -1.25926 754.578 0.340001 743.382C2.08053 731.18 10.2358 720.977 22.7171 715.393C38.74 708.197 69.2799 704.87 123.776 729.886C124.664 730.292 125.05 731.339 124.644 732.227C124.238 733.114 123.188 733.508 122.303 733.094C69.01 708.636 39.5195 711.721 24.1625 718.617C12.8112 723.696 5.40265 732.905 3.83618 743.882C2.40845 753.887 6.06355 763.961 13.3738 770.171C15.4573 771.952 17.6822 773.651 20.1769 775.374C20.9791 775.929 21.1809 777.026 20.6285 777.831C20.2854 778.323 19.733 778.59 19.173 778.59Z" fill="#260808"/>
<path d="M59.3591 835.1C38.3644 835.1 21.4459 830.83 14.4107 820.999C4.28034 806.852 5.71816 788.18 17.9069 775.594C28.7587 764.337 57.606 747.872 128.867 764.072C129.818 764.289 130.413 765.235 130.196 766.186C129.982 767.134 129.036 767.732 128.082 767.515C58.5141 751.693 30.7842 767.323 20.447 778.048C7.55958 791.355 9.57002 808.176 17.2838 818.946C31.5738 838.904 93.9275 833.242 140.949 815.669C141.86 815.326 142.879 815.79 143.222 816.703C143.563 817.617 143.101 818.635 142.185 818.973C115.374 828.994 84.4555 835.1 59.3591 835.1Z" fill="#260808"/>
<path d="M153.483 903.759C144.647 903.759 136.749 901.209 130.771 897.6C118.544 890.212 111.943 877.372 113.542 864.09C115.348 849.08 123.165 839.654 130.064 831.341C136.822 823.197 142.657 816.162 141.017 805.806C140.863 804.842 141.522 803.94 142.485 803.786C143.439 803.639 144.352 804.29 144.506 805.254C146.398 817.186 139.784 825.159 132.784 833.593C126.195 841.533 118.731 850.535 117.048 864.513C115.598 876.577 121.41 887.816 132.597 894.578C143.683 901.275 162.007 903.973 180.176 891.458C193.884 882.015 193.314 863.015 192.852 847.748C192.534 837.117 192.279 828.72 196.989 825.681C197.723 825.207 198.553 824.692 199.456 824.135C211.057 816.957 232.652 803.597 222.385 772.225C222.083 771.299 222.59 770.301 223.515 769.998C224.446 769.695 225.44 770.2 225.743 771.125C236.872 805.135 212.855 819.996 201.312 827.136C200.43 827.684 199.62 828.186 198.903 828.647C195.869 830.607 196.119 838.882 196.381 847.642C196.84 862.914 197.471 883.831 182.177 894.366C172.341 901.143 162.433 903.759 153.483 903.759Z" fill="#260808"/>
<path d="M755.44 504.043L786.169 485.865C790.78 482.781 792.135 471.34 788.596 455.922C785.057 440.503 779.285 430.873 773.352 430.034L737.846 427.219C729.844 429.055 727.279 447.876 732.137 469.027C736.996 490.178 747.439 505.879 755.44 504.043Z" fill="#FFDD4F"/>
<path d="M940.312 494.906C930.012 494.157 921.764 493.559 911.424 492.815C911.765 497.227 911.83 499.57 911.939 504.369C912.337 521.848 900.345 527.619 883.485 526.255C878.291 525.846 857.286 524.353 852.085 524.025C835.199 522.991 824.145 515.586 827.011 498.339C827.798 493.605 828.194 491.292 829.153 486.974C818.81 486.25 810.562 485.677 800.26 484.961C796.698 498.755 795.636 511 795.548 520.882C795.437 533.36 806.66 542.397 820.763 543.552C835.903 545.126 896.524 549.431 911.734 550.012C925.858 550.862 938.246 543.502 939.898 531.133C941.21 521.336 941.888 509.063 940.312 494.906Z" fill="#FFFDEE"/>
<path d="M903.945 522.531C907.981 531.611 908.286 549.857 908.286 549.857L899.604 549.373L903.945 522.531Z" fill="#260808"/>
<path d="M913.964 551.843C913.192 551.843 912.415 551.821 911.628 551.775C896.314 551.19 835.873 546.895 820.579 545.308C804.954 544.027 793.669 533.749 793.78 520.871C793.891 508.572 795.495 496.342 798.55 484.523C798.764 483.701 799.538 483.143 800.381 483.204L829.276 485.216C829.788 485.254 830.26 485.509 830.568 485.92C830.875 486.331 830.989 486.858 830.875 487.358C829.917 491.673 829.531 493.931 828.752 498.63C827.667 505.155 828.661 510.401 831.705 514.222C835.477 518.959 842.37 521.665 852.193 522.268C857.243 522.586 878.389 524.086 883.624 524.498C893.431 525.305 900.643 523.59 905.047 519.428C908.599 516.076 910.324 511.024 910.175 504.413C910.067 499.666 910.006 497.381 909.666 492.955C909.625 492.443 909.812 491.938 910.175 491.572C910.539 491.209 911.025 491.03 911.553 491.058L940.443 493.149C941.293 493.209 941.976 493.868 942.07 494.715C943.422 506.85 943.281 519.181 941.651 531.368C940.029 543.492 928.554 551.843 913.964 551.843ZM801.609 486.826C798.862 497.926 797.415 509.379 797.314 520.898C797.215 531.878 807.139 540.665 820.907 541.792C836.2 543.381 896.488 547.662 911.802 548.249C925.618 549.056 936.697 541.78 938.15 530.899C939.676 519.483 939.865 507.939 938.712 496.564L913.333 494.725C913.555 498.039 913.616 500.4 913.704 504.332C913.878 511.985 911.782 517.93 907.471 521.995C902.31 526.868 894.193 528.894 883.346 528.016C878.124 527.607 857.014 526.107 851.976 525.789C841.117 525.123 833.368 521.97 828.946 516.419C825.253 511.783 824.017 505.604 825.27 498.052C825.914 494.165 826.31 491.832 826.996 488.594L801.609 486.826Z" fill="#260808"/>
<path d="M1110.31 513.031C1108.08 513.541 1105.8 513.622 1103.48 513.316L1103.48 513.342L784.116 486.341C778.622 485.577 772.411 475.872 768.872 460.453C765.333 445.035 766.325 433.851 771.296 430.509L1046.91 266.936L1046.91 266.961C1048.87 265.672 1050.96 264.749 1053.18 264.239C1079.02 258.31 1112.75 309.195 1128.52 377.898C1144.3 446.599 1136.14 507.102 1110.31 513.031Z" fill="#FFDD4F"/>
<path d="M1103.48 513.315C1105.8 513.621 1108.08 513.54 1110.3 513.03C1136.14 507.101 1144.3 446.598 1128.52 377.895C1112.75 309.192 1079.02 258.304 1053.18 264.236C1050.96 264.745 1048.87 265.668 1046.91 266.957L1046.91 266.932L930.116 336.248C926.463 363.442 927.639 392.751 934.457 422.442C941.273 452.131 953 479.021 968.15 501.9L1103.48 513.341L1103.48 513.315Z" fill="#FFFDEE"/>
<path d="M1110.31 513.031C1109.42 513.205 1108.55 513.324 1107.69 513.415C1108.57 513.344 1109.44 513.228 1110.31 513.031Z" fill="white"/>
<path d="M1107.16 513.461C1107.02 513.474 1106.89 513.471 1106.75 513.481C1106.89 513.476 1107.03 513.466 1107.16 513.461Z" fill="white"/>
<path d="M754.207 505.948C745.443 505.948 735.268 490.563 730.412 469.422C728.016 458.987 727.307 448.767 728.417 440.641C729.605 431.939 732.811 426.561 737.447 425.497C737.624 425.457 737.81 425.447 737.982 425.457L771.998 428.153C772.972 428.229 773.695 429.081 773.62 430.052C773.544 431.023 772.684 431.75 771.72 431.674L738 429C735.101 429.871 732.836 434.365 731.915 441.117C730.863 448.83 731.55 458.601 733.853 468.63C738.741 489.917 748.672 503.29 754.799 502.369L784.164 484.999C785.001 484.502 786.083 484.782 786.583 485.619C787.08 486.459 786.8 487.541 785.962 488.038L756.338 505.56C756.182 505.653 756.013 505.719 755.834 505.762C755.299 505.888 754.757 505.948 754.207 505.948Z" fill="#260808"/>
<path d="M1103.49 515.108C1103.44 515.108 1103.39 515.105 1103.34 515.1L783.97 488.1C777.305 487.174 770.742 476.482 767.152 460.847C763.401 444.508 764.551 432.916 770.313 429.042L1046.01 265.415C1046.85 264.918 1047.93 265.193 1048.43 266.033C1048.93 266.873 1048.65 267.955 1047.81 268.455L772.2 432.026C768.002 434.851 767.339 445.875 770.593 460.055C774.278 476.109 780.312 484.026 784.361 484.591L1103.63 511.582C1104.6 511.662 1105.33 512.517 1105.25 513.488C1105.16 514.409 1104.39 515.108 1103.49 515.108Z" fill="#260808"/>
<path d="M1106.12 515.265C1093.96 515.265 1080.4 504.783 1067.39 485.16C1053.05 463.522 1040.92 433.192 1033.24 399.765C1017.01 329.044 1025.59 268.756 1052.79 262.513C1079.99 256.273 1114.01 306.778 1130.24 377.499C1137.92 410.928 1140.23 443.508 1136.77 469.239C1133.22 495.544 1123.96 511.706 1110.7 514.75C1109.2 515.096 1107.67 515.265 1106.12 515.265ZM1036.69 398.975C1044.27 432.001 1056.22 461.917 1070.33 483.21C1083.93 503.721 1098.36 513.958 1109.91 511.308C1121.47 508.657 1129.98 493.15 1133.27 468.765C1136.68 443.447 1134.39 411.317 1126.8 378.288C1111.27 310.645 1078.42 260.261 1053.58 265.953C1028.74 271.659 1021.16 331.332 1036.69 398.975Z" fill="#260808"/>
<path d="M1056.93 393.244C1045.43 343.16 1049.26 299.544 1065.47 295.821C1081.69 292.098 1104.15 329.682 1115.65 379.765C1127.15 429.849 1123.33 473.466 1107.11 477.189C1090.9 480.909 1068.43 443.325 1056.93 393.244Z" fill="#FFDD4F"/>
<path d="M1063.45 303.336C1079.67 299.613 1102.13 337.196 1113.63 387.28C1120.64 417.784 1121.95 445.869 1118.24 464.021C1124.23 446.784 1123.71 414.873 1115.65 379.761C1104.15 329.678 1081.69 292.094 1065.47 295.817C1059.13 297.272 1054.69 304.846 1052.32 316.499C1054.87 309.149 1058.6 304.448 1063.45 303.336Z" fill="#260808"/>
<path d="M1071.22 437.745C1081.37 430.506 1089.66 424.402 1091.09 422.735C1095.16 418.026 1098.4 407.7 1092.24 381.545C1086.86 358.726 1080.66 347.23 1075.19 345.023C1073.22 344.228 1063.09 342.836 1050.88 341.363C1052.59 357.702 1055.46 375.575 1059.51 394.052C1062.95 409.723 1066.93 424.445 1071.22 437.745Z" fill="#FFFDEE"/>
<path d="M1061.48 342.704C1049.95 350.134 1054.81 383.36 1055.47 386.505C1056.13 389.65 1046.98 348.825 1050.88 341.367C1057.45 341.367 1061.48 342.704 1061.48 342.704Z" fill="#260808"/>
<path d="M1071.22 439.513C1070.67 439.513 1070.12 439.255 1069.78 438.771C1069.21 437.979 1069.4 436.874 1070.2 436.309C1084.92 425.807 1088.96 422.505 1089.76 421.585C1095.02 415.483 1095.28 402.148 1090.52 381.953C1083.55 352.382 1076.52 347.467 1074.52 346.665C1073.64 346.309 1069.37 345.378 1050.66 343.118C1049.69 343.002 1049.01 342.122 1049.12 341.153C1049.24 340.187 1050.13 339.506 1051.09 339.612C1070.78 341.988 1074.64 342.904 1075.84 343.388C1084.26 346.781 1090.34 365.791 1093.95 381.141C1099.06 402.802 1098.56 416.785 1092.43 423.89C1091.56 424.896 1088.53 427.575 1072.24 439.182C1071.93 439.404 1071.57 439.513 1071.22 439.513Z" fill="#260808"/>
<path d="M1073.87 386.194C1070.79 372.178 1070.52 359.999 1073.27 358.992C1076.01 357.986 1080.72 368.536 1083.8 382.552C1086.87 396.571 1087.14 408.748 1084.4 409.754C1081.66 410.761 1076.94 400.21 1073.87 386.194Z" fill="#260808"/>
<path d="M1104.9 479.198C1087.85 479.198 1066.52 442.914 1055.21 393.637C1049.61 369.239 1047.42 345.568 1049.05 326.99C1050.74 307.765 1056.43 296.082 1065.08 294.097C1073.73 292.112 1083.94 300.141 1093.85 316.707C1103.42 332.715 1111.77 354.969 1117.37 379.366C1122.98 403.764 1125.16 427.432 1123.54 446.013C1121.85 465.238 1116.16 476.921 1107.51 478.906C1106.65 479.102 1105.79 479.198 1104.9 479.198ZM1058.65 392.847C1069.73 441.07 1091.74 478.938 1106.72 475.465C1113.65 473.876 1118.5 463.028 1120.01 445.708C1121.61 427.485 1119.45 404.207 1113.93 380.161C1108.41 356.114 1100.2 334.223 1090.81 318.523C1081.89 303.596 1072.79 295.964 1065.87 297.543C1058.93 299.134 1054.09 309.982 1052.57 327.302C1050.97 345.52 1053.13 368.801 1058.65 392.847Z" fill="#260808"/>
<path d="M1112.99 504.576C1112.19 504.576 1111.46 504.022 1111.27 503.207C1111.05 502.256 1111.65 501.308 1112.6 501.088C1114.01 500.765 1115.37 500.2 1116.66 499.403C1117.49 498.894 1118.58 499.146 1119.09 499.981C1119.6 500.811 1119.34 501.898 1118.52 502.41C1116.9 503.409 1115.17 504.122 1113.39 504.534C1113.26 504.561 1113.12 504.576 1112.99 504.576Z" fill="white"/>
<path d="M803.628 577.286C764.852 584.154 756.598 545.806 757.105 527.051C758.039 492.499 799.519 457.536 838.095 496.423L803.628 577.286Z" fill="#FFAC00"/>
<path d="M794.812 579.869C785.753 579.869 778.012 577.145 771.721 571.723C759.032 560.791 754.966 540.8 755.337 527.006C755.872 507.174 769.296 487.617 787.259 480.499C797.321 476.516 817.464 473.124 839.349 495.178C840.035 495.869 840.032 496.989 839.339 497.675C838.645 498.361 837.525 498.356 836.841 497.665C821.681 482.383 804.531 477.447 788.561 483.78C771.854 490.396 759.368 508.617 758.868 527.097C758.518 540.122 762.276 558.922 774.026 569.047C781.493 575.481 791.348 577.663 803.317 575.546C804.276 575.393 805.194 576.015 805.366 576.976C805.535 577.937 804.894 578.853 803.935 579.022C800.762 579.587 797.72 579.869 794.812 579.869Z" fill="#260808"/>
<path d="M876.515 495.994C821.83 455.217 785.715 510.429 791.946 552.55C798.176 594.673 839.826 592.524 859.9 572.45L876.515 495.994Z" fill="#FFAC00"/>
<path d="M826.877 588.068C822.72 588.068 818.649 587.463 814.843 586.205C801.483 581.788 792.73 569.931 790.2 552.813C786.308 526.506 798.313 497.75 818.119 485.924C835.247 475.693 856.363 478.771 877.572 494.582C878.354 495.165 878.516 496.272 877.933 497.054C877.353 497.833 876.243 497.995 875.463 497.415C849.842 478.309 831.123 482.266 819.933 488.955C801.282 500.093 790.004 527.326 793.696 552.296C796.678 572.456 807.447 580.04 815.955 582.853C829.7 587.4 847.257 582.605 858.656 571.205C859.345 570.516 860.465 570.516 861.153 571.205C861.842 571.893 861.842 573.013 861.153 573.702C851.974 582.873 839.056 588.068 826.877 588.068Z" fill="#260808"/>
<path d="M911.722 499.556C831.579 459.768 816.797 556.175 843.286 575.565C863.481 590.348 899.356 581.266 902.817 521.577C902.817 521.577 912.251 511.448 911.722 499.556Z" fill="#FFAC00"/>
<path d="M861.983 583.588C855.076 583.588 848.213 581.361 842.242 576.99C826.966 565.806 825.076 531.928 838.501 509.858C845.332 498.632 866.221 474.999 912.506 497.976C913.081 498.261 913.455 498.839 913.485 499.479C913.979 510.602 906.475 520.056 904.545 522.293C902.066 562.298 885.579 575.89 875.938 580.433C871.45 582.546 866.708 583.588 861.983 583.588ZM876.644 491.711C857.397 491.711 846.818 502.983 841.521 511.692C829.168 531.998 830.613 564.099 844.331 574.142C853.321 580.72 864.576 581.875 874.432 577.24C883.414 573.005 898.817 560.134 901.059 521.476C901.082 521.067 901.248 520.679 901.528 520.376C901.614 520.283 909.903 511.218 909.979 500.667C896.708 494.216 885.712 491.711 876.644 491.711Z" fill="#260808"/>
<path d="M781.46 578.1C838.098 581.792 829.271 537.399 822.002 528.717C814.734 520.036 793.785 515.824 760.566 528.717C731.588 539.964 710.87 591.992 774.906 614.521C785.1 618.009 801.741 620.064 801.741 620.064C801.741 620.064 804.301 652.193 786.104 666.362C786.104 666.362 812.197 679.211 828.52 655.333C844.843 631.452 815.145 586.307 815.145 586.307L781.46 578.1Z" fill="#FFAC00"/>
<path d="M784.101 669.386C783.554 669.386 783.011 669.129 782.668 668.652C782.098 667.86 782.277 666.758 783.069 666.186C798.26 655.249 799.816 628.294 799.963 621.613C795.546 621.01 782.86 619.111 774.334 616.193C737.112 603.097 731.242 581.487 731.053 569.771C730.768 551.929 743.181 533.572 759.925 527.073C795.018 513.453 816.026 518.83 823.354 527.585C827.72 532.8 832.392 549.376 825.755 562.459C821.207 571.423 809.81 581.749 781.344 579.86C780.37 579.8 779.634 578.957 779.697 577.984C779.762 577.012 780.585 576.296 781.573 576.339C802.591 577.721 816.772 572.356 822.607 560.863C828.467 549.311 824.388 534.316 820.65 529.849C813.551 521.375 792.423 518.245 761.207 530.361C745.769 536.354 734.325 553.271 734.587 569.711C734.885 588.357 749.414 603.677 775.494 612.853C785.383 616.238 801.794 618.289 801.96 618.311C802.833 618.417 803.492 619.151 803.509 620.029C803.537 621.472 803.961 655.494 785.135 669.051C784.82 669.278 784.459 669.386 784.101 669.386Z" fill="#260808"/>
<path d="M821.742 602.853C820.766 602.853 819.976 602.063 819.976 601.087C819.974 600.674 819.805 590.746 810.285 584.294C809.477 583.747 809.266 582.652 809.813 581.843C810.358 581.033 811.46 580.824 812.265 581.371C823.379 588.903 823.508 600.591 823.508 601.085C823.508 602.061 822.718 602.853 821.742 602.853Z" fill="#260808"/>
<path d="M474.303 18.2353C471.357 11.1555 459.841 16.3336 454.08 20.0514C448.321 23.7691 443.957 30.1453 447.259 35.9867L474.303 18.2353Z" fill="#FFDD4F"/>
<path d="M447.262 37.7512C446.646 37.7512 446.048 37.4284 445.723 36.8533C441.858 30.0155 446.656 22.7414 453.124 18.5672C455.026 17.3414 464.833 11.3309 471.384 13.3663C473.493 14.0221 475.067 15.4724 475.935 17.5558C476.311 18.4562 475.884 19.4903 474.984 19.8661C474.081 20.2369 473.049 19.8132 472.673 18.9152C472.202 17.7802 471.46 17.0892 470.335 16.7411C466.667 15.601 460.013 18.3276 455.041 21.5358C449.966 24.8122 446.066 30.2829 448.798 35.118C449.277 35.9655 448.979 37.045 448.129 37.5242C447.854 37.678 447.554 37.7512 447.262 37.7512Z" fill="#260808"/>
<path d="M437.613 94.6529C415.014 43.4593 485.969 -25.3469 533.649 51.0512L538.367 58.6507L437.613 94.6529Z" fill="#FFDD4F"/>
<path d="M437.616 96.4174C436.937 96.4174 436.291 96.0239 435.999 95.3656C423.078 66.0953 439.555 33.1197 463.053 20.6877C488.346 7.30982 515.296 18.3092 535.148 50.117L539.865 57.7215C540.38 58.5513 540.125 59.6384 539.295 60.1529C538.463 60.6674 537.378 60.4127 536.863 59.5829L532.149 51.9834C513.389 21.9236 488.174 11.3908 464.702 23.8077C442.61 35.4982 427.102 66.4711 439.23 93.9406C439.624 94.8335 439.22 95.8751 438.327 96.2686C438.095 96.3695 437.853 96.4174 437.616 96.4174Z" fill="#260808"/>
<path d="M471.712 83.1584C471.316 83.1584 470.918 83.0247 470.587 82.7523C458.447 72.6987 456.343 53.8325 456.002 46.1902C455.51 35.158 457.324 25.3137 460.417 22.2467C461.105 21.5607 462.225 21.5632 462.914 22.2568C463.603 22.9479 463.598 24.0678 462.904 24.7538C460.914 26.7287 459.057 35.4228 459.531 46.0313C459.852 53.2045 461.791 70.8777 472.843 80.0333C473.592 80.6538 473.698 81.7686 473.075 82.5203C472.724 82.9415 472.22 83.1584 471.712 83.1584Z" fill="#260808"/>
<path d="M568.604 36.4093C568.604 36.4093 557.137 34.6665 539.583 60.3175C502.282 114.82 475.347 96.6072 458.522 88.8943C561.886 29.6473 568.604 36.4093 568.604 36.4093Z" fill="#FFDD4F"/>
<path d="M488.007 99.973C477.537 99.9756 468.642 95.6928 461.309 92.1668C460.091 91.5816 458.915 91.0166 457.788 90.4971C457.185 90.2221 456.789 89.6319 456.759 88.9736C456.728 88.3128 457.069 87.6898 457.644 87.3619C523.1 49.8439 565.065 30.3194 569.855 35.1671C570.392 35.7068 570.521 36.5291 570.175 37.2101C569.835 37.881 569.113 38.2568 568.367 38.1609C568.122 38.1483 557.419 37.3816 541.04 61.3149C520.285 91.6396 502.615 99.973 488.007 99.973ZM462.338 88.7441C462.505 88.8248 462.671 88.9055 462.84 88.9863C479.312 96.9111 504.204 108.889 538.127 59.3199C543.651 51.2462 548.638 45.7982 552.909 42.1284C538.939 47.6142 512.352 60.1774 462.338 88.7441Z" fill="#260808"/>
<path d="M468.418 14.7301C468.781 19.9965 464.372 21.9992 464.372 21.9992L474.305 18.236C474.305 18.236 471.803 14.314 468.418 14.7301Z" fill="#260808"/>
<path d="M699.867 943.383C699.047 943.383 698.313 942.808 698.139 941.975C697.94 941.02 698.555 940.086 699.509 939.887C751.288 929.14 811.49 888.058 812.091 887.644C812.893 887.097 813.993 887.296 814.545 888.101C815.098 888.903 814.896 890.002 814.091 890.557C813.483 890.974 752.709 932.454 700.225 943.348C700.107 943.37 699.986 943.383 699.867 943.383Z" fill="#260808"/>
<path d="M717.999 910.273C717.255 910.273 716.563 909.798 716.321 909.054C716.019 908.126 716.526 907.13 717.454 906.827C761.88 892.377 806.962 866.858 807.411 866.603C808.256 866.121 809.336 866.414 809.82 867.266C810.302 868.114 810.007 869.191 809.159 869.672C808.705 869.932 763.325 895.621 718.549 910.189C718.362 910.245 718.18 910.273 717.999 910.273Z" fill="#260808"/>
<path d="M656.942 407.67C658.155 433.613 646.095 455.256 630.001 456.011C613.908 456.765 599.878 436.342 598.664 410.396C597.451 384.453 609.511 362.809 625.605 362.055C641.698 361.304 655.728 381.726 656.942 407.67Z" fill="#FFFDEE"/>
<path d="M629.157 457.796C612.505 457.796 598.137 436.866 596.901 410.479C595.645 383.602 608.485 361.091 625.524 360.294C633.924 359.88 642.031 364.713 648.31 373.854C654.412 382.734 658.105 394.715 658.708 407.588C659.31 420.462 656.753 432.735 651.506 442.148C646.11 451.831 638.502 457.382 630.087 457.775C629.775 457.788 629.464 457.796 629.157 457.796ZM626.47 363.8C626.21 363.8 625.95 363.805 625.688 363.818C610.593 364.524 599.262 385.38 600.428 410.312C601.593 435.242 614.761 454.933 629.918 454.244C637.07 453.909 643.638 449.003 648.418 440.425C653.35 431.577 655.749 419.975 655.176 407.75C654.603 395.524 651.13 384.197 645.396 375.849C640.041 368.052 633.346 363.8 626.47 363.8Z" fill="#260808"/>
<path d="M603.523 410.166C604.736 436.109 592.676 457.752 576.582 458.507C560.489 459.258 546.459 438.838 545.245 412.892C544.032 386.949 556.092 365.305 572.186 364.551C588.279 363.8 602.309 384.222 603.523 410.166Z" fill="#FFFDEE"/>
<path d="M583.476 372.413C586.37 372.29 589.175 373.2 591.796 374.903C598.46 383.249 603.018 395.911 603.636 410.264C604.494 430.175 597.532 447.485 586.98 454.794C574.534 455.284 563.66 437.298 562.681 414.577C561.7 391.83 571.01 372.951 583.476 372.413Z" fill="#260808"/>
<path d="M633.629 368.267C636.517 368.032 639.352 368.837 642.036 370.438C649.016 378.525 654.053 390.999 655.221 405.321C656.841 425.186 650.545 442.748 640.28 450.456C627.862 451.419 616.309 433.862 614.46 411.197C612.609 388.497 621.193 369.278 633.629 368.267Z" fill="#260808"/>
<path d="M575.737 460.296C559.089 460.296 544.718 439.367 543.482 412.979C542.223 386.105 555.063 363.592 572.105 362.792C589.233 361.98 604.03 383.212 605.288 410.086C606.547 436.961 593.708 459.476 576.668 460.273C576.355 460.289 576.045 460.296 575.737 460.296ZM573.056 366.3C572.794 366.3 572.534 366.306 572.269 366.318C557.174 367.024 545.843 387.883 547.009 412.813C548.174 437.742 561.357 457.403 576.499 456.747C591.594 456.041 602.925 435.182 601.757 410.253C600.614 385.757 587.82 366.3 573.056 366.3Z" fill="#260808"/>
<path d="M582.536 368.808C581.839 368.808 581.179 368.394 580.901 367.71C580.533 366.807 580.964 365.778 581.867 365.408C594.356 360.303 593.867 345.628 593.839 345.005C593.796 344.032 594.55 343.207 595.524 343.164C596.45 343.098 597.32 343.87 597.368 344.844C597.375 345.02 598.024 362.62 583.204 368.676C582.982 368.767 582.758 368.808 582.536 368.808Z" fill="#260808"/>
<path d="M575.266 366.436C574.728 366.436 574.196 366.192 573.848 365.727C573.265 364.946 573.427 363.841 574.206 363.256C581.751 357.624 579.15 345.111 579.123 344.985C578.916 344.031 579.521 343.09 580.475 342.884C581.418 342.679 582.364 343.28 582.573 344.23C582.707 344.833 585.699 359.086 576.323 366.086C576.005 366.323 575.634 366.436 575.266 366.436Z" fill="#260808"/>
<path d="M635.952 366.311C635.258 366.311 634.597 365.898 634.317 365.214C633.947 364.311 634.38 363.28 635.284 362.911C647.772 357.806 647.283 343.132 647.255 342.509C647.212 341.536 647.967 340.711 648.938 340.668C649.881 340.602 650.734 341.374 650.782 342.348C650.789 342.524 651.438 360.122 636.618 366.18C636.401 366.268 636.174 366.311 635.952 366.311Z" fill="#260808"/>
<path d="M628.685 363.935C628.147 363.935 627.615 363.691 627.269 363.224C626.687 362.445 626.846 361.337 627.628 360.755C635.203 355.102 632.572 342.61 632.544 342.484C632.335 341.533 632.937 340.59 633.891 340.383C634.849 340.168 635.785 340.779 635.992 341.73C636.126 342.332 639.118 356.586 629.739 363.585C629.424 363.822 629.053 363.935 628.685 363.935Z" fill="#260808"/>
<path d="M606.302 498.137C599.499 498.137 594.124 481.291 592.578 475.886C592.351 475.094 592.704 474.247 593.428 473.851C594.157 473.455 595.057 473.616 595.6 474.234C598.112 477.097 601.018 478.588 604.234 478.663C604.325 478.666 604.416 478.666 604.506 478.666C611.726 478.666 618.335 471.911 618.403 471.843C618.97 471.258 619.863 471.134 620.567 471.548C621.271 471.959 621.599 472.802 621.362 473.581C620.234 477.314 614.258 496.041 607.455 497.976C607.069 498.082 606.681 498.137 606.302 498.137Z" fill="#260808"/>
<path d="M275.744 704.15C268.29 681.132 283.907 659.988 283.907 659.988C283.907 659.988 262.741 678.466 261.648 686.694C263.225 692.949 273.825 703.736 275.744 704.15Z" fill="#260808"/>
<path opacity="0.6" d="M818.031 538.512C816.954 536.355 815.524 534.602 813.972 533.144C812.429 531.646 810.716 530.526 808.953 529.575C806.44 528.223 803.63 527.126 800.767 527.5C799.367 527.681 796.247 528.395 796.802 531.293C797.301 533.898 800.293 534.486 801.948 534.834C807.099 535.924 812.128 537.75 816.815 540.492C817.625 540.966 818.523 539.498 818.031 538.512Z" fill="white"/>
</svg>
