<svg width="1150" height="1005" viewBox="0 0 1150 1005" fill="none" xmlns="http://www.w3.org/2000/svg">
<path d="M250.445 416.102C264.356 476.342 327.709 499.64 350.025 471.646C361.412 486.409 378.537 555.351 324.798 576.835C268.834 599.21 176.795 560.837 182.953 486.729L250.445 416.102Z" fill="#FFAC00"/>
<path d="M309.603 482.148C321.398 551.699 265.744 578.808 255.987 578.369C297.184 591.55 327.454 572.381 327.454 572.381L324.801 486.731L309.603 482.148Z" fill="#260808"/>
<path d="M289.493 584.964C264.374 584.964 237.721 576.703 216.946 561.346C191.451 542.497 178.75 515.946 181.192 486.579C181.273 485.608 182.141 484.9 183.097 484.965C184.07 485.046 184.792 485.901 184.711 486.872C182.378 514.972 194.571 540.411 219.047 558.503C249.388 580.933 292.601 587.801 324.142 575.19C325.043 574.839 326.074 575.271 326.438 576.176C326.801 577.079 326.359 578.111 325.451 578.471C314.504 582.85 302.191 584.964 289.493 584.964Z" fill="#260808"/>
<path d="M326.087 486.799C323.923 486.799 321.65 486.632 319.292 486.292C292.752 482.478 261.12 457.967 252.009 418.502C251.789 417.551 252.382 416.603 253.331 416.383C254.271 416.171 255.227 416.756 255.447 417.705C264.205 455.626 294.445 479.154 319.793 482.796C331.965 484.549 341.331 481.356 345.45 474.036C345.929 473.186 347.006 472.886 347.854 473.363C348.704 473.839 349.006 474.916 348.53 475.766C344.496 482.937 336.497 486.799 326.087 486.799Z" fill="#260808"/>
<path d="M203.753 298.509C177.706 317.723 188.578 350.923 195.27 370.823C188.752 368.556 179.399 366.752 179.399 366.752C179.399 366.752 157.178 330.099 118.304 310.54C80.7612 291.686 45.0073 312.333 52.093 345.886C24.9888 351.803 11.7507 376.097 23.6872 399.322L23.6998 399.344C6.54428 408.16 0.555878 422.829 1.95586 436.537C4.1681 457.91 28.5934 466.748 49.9337 464.35C119.307 456.559 122.317 469.419 140.098 481.571C170.719 502.46 202.974 510.35 228.597 481.602C239.03 471.515 241.129 452.566 241.129 452.566C241.129 452.566 272.365 439.276 267.696 406.939C264.558 383.85 242.342 383.528 251.746 349.233C260.252 330.437 268.226 328.899 261.226 308.37C257.346 296.92 233.118 278.217 203.753 298.509Z" fill="#FFAC00"/>
<path d="M256.37 320.684C256.685 318.386 256.504 316.219 256.065 314.217C255.654 312.189 254.902 310.368 254.019 308.658C252.76 306.219 251.123 303.82 248.649 302.561C247.438 301.946 244.575 300.816 243.44 303.419C242.421 305.757 244.477 307.851 245.602 309.026C249.098 312.691 252.1 316.873 254.332 321.597C254.713 322.411 256.224 321.733 256.37 320.684Z" fill="white"/>
<path d="M257.122 442.637C256.678 442.637 256.231 442.47 255.891 442.135C255.192 441.454 255.177 440.337 255.856 439.638C270.968 424.119 266.223 408.143 266.014 407.472C265.983 407.379 265.961 407.278 265.951 407.179C264.795 398.677 260.999 393.539 256.981 388.099C250.626 379.493 244.058 370.597 250.044 348.78C250.069 348.692 250.097 348.603 250.137 348.52C252.47 343.357 254.72 339.544 256.708 336.181C261.829 327.508 264.402 323.157 259.564 308.936C257.707 303.476 250.697 296.255 240.897 293.014C232.845 290.353 220.036 289.402 204.75 299.962C179.583 318.518 190.445 350.909 196.935 370.262C197.149 370.9 196.98 371.606 196.501 372.078C196.024 372.552 195.318 372.716 194.68 372.491C188.371 370.3 179.144 368.504 179.053 368.486C178.564 368.39 178.137 368.093 177.878 367.666C177.658 367.303 155.447 331.2 117.504 312.127C98.2901 302.472 78.1329 302.805 64.8872 313.002C55.0848 320.551 51.0461 332.406 53.8108 345.529C54.0126 346.482 53.3998 347.42 52.4462 347.62C51.4877 347.821 50.5543 347.209 50.355 346.255C47.3002 331.755 51.8131 318.617 62.733 310.205C77.0583 299.173 98.6534 298.701 119.091 308.974C155.074 327.061 177.204 360.064 180.476 365.169C182.4 365.56 187.622 366.665 192.485 368.09C186.043 348.588 176.929 316.089 202.696 297.092C219.221 285.671 233.193 286.751 242.004 289.664C253.409 293.432 260.835 301.708 262.908 307.801C268.266 323.558 265.058 328.986 259.748 337.98C257.823 341.239 255.646 344.926 253.409 349.852C247.94 369.916 253.711 377.733 259.821 386.005C263.905 391.537 268.128 397.255 269.427 406.567C269.994 408.501 274.401 425.657 258.386 442.105C258.04 442.458 257.583 442.637 257.122 442.637Z" fill="#260808"/>
<path d="M189.804 502.098C174.667 502.101 157.735 495.742 139.102 483.023C136.481 481.234 134.19 479.441 131.973 477.708C118.992 467.551 108.736 459.526 50.1457 466.111C35.4698 467.761 20.5468 464.114 11.206 456.595C4.82404 451.457 1.01753 444.582 0.205285 436.712C-1.60839 419.18 8.30506 398.089 41.5693 391.476C88.0665 377.947 130.137 405.84 141.917 414.711C142.696 415.296 142.853 416.403 142.267 417.183C141.682 417.965 140.572 418.121 139.795 417.531C131.645 411.392 88.6417 381.453 42.4093 394.901C11.322 401.088 2.06438 420.361 3.71914 436.346C4.44562 443.358 7.7097 449.243 13.4232 453.843C22.0552 460.792 35.9795 464.151 49.7523 462.6C109.78 455.863 121.073 464.694 134.15 474.926C136.319 476.626 138.567 478.384 141.092 480.107C176.77 504.457 205.766 504.57 227.278 480.44C227.932 479.711 229.041 479.651 229.77 480.296C230.499 480.944 230.56 482.062 229.914 482.788C218.439 495.662 205.03 502.096 189.804 502.098Z" fill="#260808"/>
<path d="M23.692 401.085C23.0513 401.085 22.4333 400.735 22.1205 400.127C14.5757 385.468 16.3164 369.734 26.7746 358.041C38.2066 345.259 62.3243 336.133 95.7348 348.848C121.237 357.57 147.244 380.315 154.607 387.077C155.324 387.738 155.374 388.855 154.713 389.572C154.055 390.293 152.935 390.336 152.219 389.677C144.984 383.031 119.444 360.687 94.534 352.167C62.7404 340.07 40.0556 348.487 29.4081 360.394C19.9639 370.952 18.4151 385.203 25.2637 398.51C25.7101 399.378 25.3696 400.442 24.5019 400.889C24.2395 401.022 23.9619 401.085 23.692 401.085Z" fill="#260808"/>
<path d="M221.461 383.586C221.161 383.586 220.856 383.508 220.576 383.346C220.467 383.286 209.767 377.114 194.743 372.516C193.812 372.231 193.287 371.242 193.572 370.311C193.855 369.381 194.844 368.854 195.777 369.141C211.212 373.868 221.903 380.037 222.352 380.297C223.194 380.786 223.479 381.866 222.99 382.711C222.662 383.271 222.072 383.586 221.461 383.586Z" fill="#260808"/>
<path d="M140.857 417.887C140.744 417.887 140.63 417.877 140.517 417.854C139.561 417.668 138.935 416.742 139.119 415.784C145.69 381.991 168.988 374.369 169.975 374.061C170.9 373.771 171.889 374.288 172.182 375.219C172.472 376.147 171.957 377.138 171.029 377.433C170.121 377.721 148.738 384.834 142.588 416.46C142.424 417.3 141.685 417.887 140.857 417.887Z" fill="#260808"/>
<path d="M236.922 445.765C236.379 445.765 235.847 445.518 235.502 445.051C216.666 419.7 196.007 415.725 164.213 431.313C163.325 431.746 162.276 431.378 161.847 430.505C161.418 429.63 161.782 428.571 162.654 428.142C195.888 411.851 218.523 416.278 238.332 442.945C238.912 443.729 238.751 444.834 237.966 445.414C237.656 445.651 237.287 445.765 236.922 445.765Z" fill="#260808"/>
<path d="M1118.63 679.82C1121.41 660.167 1102.06 639.687 1076.87 645.677C1048.6 652.396 1018.31 686.623 998.099 696.323C966.868 707.121 889.581 627.51 857.399 559.866C857.475 559.72 780.753 541.174 787.445 635.699C822.104 739.128 913.696 769.574 901.82 796.988C897.106 809.604 888.673 818.669 877.776 837.714C859.556 870.069 921.591 916.43 957.779 878.135C972.967 862.215 961.054 834.433 979.685 809.937C997.41 786.858 1048.17 816.205 1099.55 803.77C1130.93 796.196 1147.89 766.449 1132.5 742.795C1132.62 742.722 1132.74 742.646 1132.87 742.573C1162.86 719.984 1142.19 683.14 1118.63 679.82Z" fill="#FFAC00"/>
<path d="M992.143 699.228C954.946 699.23 882.735 617.374 855.577 560.74C855.098 559.734 855.522 558.531 856.526 558.049C857.535 557.57 858.738 557.993 859.217 558.997C888.973 621.051 968.285 704.482 997.438 694.42C1004.88 690.834 1014.31 683.318 1024.29 675.355C1040.42 662.497 1058.7 647.926 1076.41 643.716C1088.75 640.775 1100.93 643.744 1109.84 651.855C1118.04 659.331 1122.07 669.889 1120.62 680.104C1120.47 681.209 1119.45 681.988 1118.34 681.819C1117.24 681.663 1116.47 680.641 1116.63 679.539C1117.89 670.648 1114.33 661.415 1107.12 654.839C1099.22 647.643 1088.35 645.023 1077.34 647.643C1060.51 651.643 1042.6 665.917 1026.81 678.51C1016.64 686.617 1007.04 694.272 998.972 698.146C996.86 698.875 994.577 699.228 992.143 699.228Z" fill="#260808"/>
<path d="M1132.88 744.601C1132.27 744.601 1131.67 744.326 1131.27 743.799C1130.6 742.909 1130.78 741.645 1131.67 740.974C1144.82 731.057 1149.1 716.7 1143.11 702.566C1137.3 688.865 1123.89 679.954 1111.95 681.83C1104.59 682.935 1086.32 691.551 1068.65 699.884C1047.89 709.678 1028.27 718.927 1020 719.545C1018.9 719.598 1017.92 718.794 1017.83 717.684C1017.75 716.574 1018.59 715.606 1019.7 715.522C1027.22 714.96 1047.41 705.441 1066.93 696.237C1085.69 687.392 1103.41 679.036 1111.34 677.845C1125.06 675.699 1140.31 685.642 1146.82 700.994C1153.58 716.942 1148.82 733.095 1134.09 744.197C1133.73 744.467 1133.3 744.601 1132.88 744.601Z" fill="#260808"/>
<path d="M925.604 894.045C911.014 894.045 896.308 887.747 885.441 878.11C870.087 864.497 866.47 848.123 876.227 836.405C889.487 820.678 898.954 808.456 900.11 794.246C900.12 794.145 900.135 794.046 900.157 793.951C902.629 783.332 889.833 772.012 872.117 756.342C845.858 733.114 806.172 698.01 785.535 636.322C785.182 635.265 785.752 634.122 786.809 633.767C787.868 633.409 789.008 633.984 789.364 635.04C809.66 695.705 847.306 729.003 874.794 753.32C893.483 769.853 907.008 781.814 904.125 794.72C902.819 810.03 892.578 823.279 879.324 838.997C869.325 851.011 877.813 865.952 888.123 875.093C906.529 891.414 936.681 897.548 956.301 876.775C963.099 869.637 964.108 859.889 965.273 848.602C966.565 836.109 968.025 821.952 978.09 808.718C988.248 795.471 1007.38 798.117 1031.59 801.467C1052.16 804.312 1075.48 807.533 1099.09 801.827C1117.03 797.494 1130.79 785.529 1135 770.6C1138.36 758.68 1134.96 746.863 1125.44 737.327C1114.38 726.294 1086.55 734.481 1062.01 741.705C1045.02 746.699 1028.96 751.433 1019.43 749.517C1018.34 749.3 1017.63 748.235 1017.85 747.146C1018.06 746.051 1019.13 745.337 1020.22 745.562C1028.79 747.267 1044.37 742.691 1060.87 737.834C1086.49 730.292 1115.53 721.742 1128.29 734.471C1138.89 745.093 1142.65 758.309 1138.88 771.694C1134.28 788.028 1119.39 801.073 1100.03 805.749C1075.68 811.644 1051.96 808.36 1031.03 805.467C1008.12 802.294 990.017 799.797 981.294 811.172C971.92 823.498 970.581 836.47 969.284 849.021C968.093 860.542 966.971 871.428 959.227 879.557C949.576 889.765 937.629 894.045 925.604 894.045Z" fill="#260808"/>
<path d="M631.635 842.569C635.87 791.981 590.266 695.128 575.217 687.057C637.528 671.588 688.507 687.712 688.507 687.712C688.507 687.712 769.729 720.827 749.332 812.353C749.332 812.353 668.971 971.649 631.635 842.569Z" fill="#FFAC00"/>
<path d="M671.7 894.797C670.88 894.797 670.063 894.759 669.245 894.684C652.622 893.138 639.399 875.767 629.937 843.059C629.879 842.852 629.857 842.635 629.874 842.421C634.13 791.595 587.996 695.912 574.382 688.613C573.738 688.268 573.375 687.561 573.466 686.837C573.557 686.114 574.084 685.521 574.79 685.342C636.864 669.934 688.525 685.866 689.039 686.03C690 686.414 771.538 720.819 751.058 812.737C751.025 812.881 750.977 813.017 750.909 813.148C749.193 816.55 709.277 894.797 671.7 894.797ZM633.421 842.388C642.429 873.361 654.59 889.77 669.571 891.165C704.616 894.464 745.367 816.22 747.66 811.751C767.31 722.948 688.641 689.675 687.841 689.35C687.478 689.239 638.632 674.204 579.144 687.93C596.653 705.179 637.328 793.174 633.421 842.388Z" fill="#260808"/>
<path d="M598.03 720.827C619.822 682.348 688.51 699.835 688.51 699.835L575.219 687.055L598.03 720.827Z" fill="#260808"/>
<path d="M734.853 786.26C783.658 749.322 858.135 777.031 867.269 826.142C861.715 821.039 854.78 817.71 846.456 817.18C821.042 815.599 764.725 838.251 750.942 923.734C739.341 973.545 656.141 994.394 606.783 937.442C589.524 905.869 590.268 858.454 631.632 842.571C630.396 864.696 666.009 889.482 688.517 867.715L689.935 866.454C683.606 860.88 667.439 844.962 669.104 829.965C671.7 806.342 707.592 783.241 734.853 786.26Z" fill="#FFEED1"/>
<path d="M738.892 800.229C741.576 791.904 748.344 786.007 755.381 782.465C762.437 778.75 769.908 776.493 777.41 775.464C784.902 774.412 792.432 774.551 799.661 775.779C804.048 776.505 808.5 777.199 812.725 778.629C814.693 779.295 816.973 780.364 818.787 781.474C820.865 782.748 820.565 785.348 817.117 784.917C810.276 784.117 805.781 784.183 799.26 784.758C792.745 785.361 786.431 786.677 780.508 788.741C771.586 791.901 764.742 796.928 757.747 803.079C753.257 807.029 745.107 813.832 740.009 806.984C738.518 804.981 738.196 802.439 738.892 800.229Z" fill="white"/>
<path opacity="0.6" d="M606.783 937.445C589.524 905.872 590.269 858.457 631.63 842.574C631.63 842.574 631.63 842.579 631.63 842.584C617.449 879.207 633.88 899.952 655.473 898.252C691.267 895.435 693.875 887.144 696.9 899.925C697.709 903.345 709.199 960.155 756.37 899.634C756.388 899.612 756.4 899.594 756.415 899.571C754.208 907.015 752.344 915.033 750.939 923.737C739.338 973.548 656.141 994.397 606.783 937.445Z" fill="#B870B4"/>
<path d="M867.269 826.143C882.23 839.821 887.127 866.32 882.404 885.524C882.082 856.528 862.141 841.223 827.835 864.1C778.243 897.164 799.008 946.874 757.775 983.285L757.79 983.323C747.837 987.24 737.646 990.594 727.321 993.207C650.665 1010.55 618.362 986.587 614.994 978.574C600.487 959.127 606.781 937.444 606.781 937.444C656.139 994.395 739.336 973.547 750.939 923.735C764.725 838.252 821.04 815.6 846.454 817.182C854.781 817.711 861.715 821.041 867.269 826.143Z" fill="#F08C00"/>
<path d="M827.838 864.098C862.144 841.224 882.081 856.529 882.407 885.522C876.734 908.361 822.755 957.743 757.795 983.321L757.78 983.283C799.01 946.873 778.245 897.162 827.838 864.098Z" fill="#F08C00"/>
<path opacity="0.75" d="M827.838 864.098C862.144 841.224 882.081 856.529 882.407 885.522C876.734 908.361 822.755 957.743 757.795 983.321L757.78 983.283C799.01 946.873 778.245 897.162 827.838 864.098Z" fill="#B870B4"/>
<path d="M606.773 939.235C606.148 939.235 605.542 938.902 605.222 938.314C593.873 917.511 591.219 892.622 598.303 873.357C603.865 858.221 615.173 847.007 631.002 840.924C631.557 840.707 632.193 840.79 632.674 841.146C633.159 841.499 633.431 842.074 633.398 842.671C632.79 853.376 641.586 865.377 654.312 871.205C666.42 876.744 678.437 875.022 687.281 866.471C687.977 865.79 689.098 865.805 689.776 866.514C690.455 867.213 690.437 868.333 689.733 869.009C679.79 878.626 666.337 880.596 652.842 874.414C639.884 868.481 630.644 856.531 629.884 845.191C616.281 851.076 606.534 861.192 601.612 874.575C594.872 892.912 597.443 916.686 608.317 936.624C608.786 937.479 608.471 938.554 607.613 939.018C607.348 939.167 607.061 939.235 606.773 939.235Z" fill="#260808"/>
<path d="M696.945 852.349C696.814 852.349 696.683 852.333 696.554 852.303C695.603 852.089 695.008 851.143 695.222 850.192C707.111 797.513 741.863 766.656 788.396 767.481C828.307 768.243 862.963 793.326 869.01 825.83C869.186 826.788 868.553 827.709 867.595 827.888C866.656 828.055 865.713 827.434 865.536 826.476C859.792 795.586 826.596 771.741 788.327 771.015C743.606 770.129 710.16 800.055 698.668 850.972C698.479 851.791 697.75 852.349 696.945 852.349Z" fill="#260808"/>
<path d="M692.402 870.34C692.021 870.34 691.633 870.214 691.31 869.962C690.243 869.12 665.199 849.113 667.333 829.775C668.438 819.747 675.163 809.386 686.27 800.593C700.925 788.991 720.243 782.691 735.511 784.559C736.48 784.678 737.166 785.558 737.05 786.527C736.929 787.495 736.069 788.169 735.083 788.065C720.73 786.295 702.416 792.318 688.462 803.36C678.104 811.562 671.844 821.079 670.842 830.164C668.925 847.557 693.252 866.996 693.497 867.188C694.263 867.793 694.392 868.905 693.787 869.667C693.441 870.108 692.924 870.34 692.402 870.34Z" fill="#260808"/>
<path d="M677.255 1001.07C636.925 1001.07 616.894 987.022 613.458 979.46C598.744 959.605 604.811 937.896 605.078 936.976C605.257 936.355 605.762 935.881 606.392 935.745C607.023 935.611 607.684 935.826 608.108 936.312C636.486 969.038 674.449 973.8 700.522 967.338C725.692 961.103 744.345 944.247 749.211 923.348C764.081 831.211 826.029 814.101 846.572 815.437C857.555 816.128 867.093 821.581 874.143 831.201C884.493 845.318 888.587 867.829 884.099 885.946C877.66 911.938 808.856 974.363 727.757 994.909C708.284 999.315 691.499 1001.07 677.255 1001.07ZM607.8 941.264C606.768 947.902 605.878 963.416 616.409 977.508C616.495 977.624 616.568 977.747 616.624 977.879C620.423 986.911 654.953 1007.78 726.933 991.471C805.435 971.581 874.57 909.721 880.669 885.094C884.924 867.92 881.065 846.615 871.293 833.282C864.88 824.535 856.254 819.579 846.348 818.953C826.645 817.77 767.149 834.349 752.672 924.022C747.481 946.341 727.831 964.206 701.367 970.761C675.012 977.291 636.947 972.806 607.8 941.264Z" fill="#260808"/>
<path d="M757.795 985.054C757.308 985.054 756.819 984.852 756.474 984.459C755.828 983.728 755.896 982.613 756.628 981.967C775.493 965.305 781.227 945.392 786.771 926.135C793.219 903.748 799.886 880.596 826.861 862.621C848.265 848.357 861.705 850.09 869.212 854.058C878.684 859.062 883.988 870.225 884.152 885.495C884.162 886.471 883.378 887.27 882.407 887.28C882.399 887.28 882.392 887.28 882.387 887.28C881.421 887.28 880.631 886.501 880.621 885.535C880.472 871.62 875.838 861.551 867.565 857.18C858.151 852.214 844.39 855.183 828.824 865.556C802.923 882.819 796.728 904.333 790.169 927.111C784.484 946.853 778.606 967.268 758.971 984.61C758.628 984.908 758.211 985.054 757.795 985.054Z" fill="#260808"/>
<path d="M782.105 948.496C781.325 948.496 780.616 947.981 780.402 947.194C780.142 946.253 780.697 945.282 781.638 945.028C814.73 935.978 881.718 877.694 882.389 877.104C883.123 876.463 884.238 876.537 884.881 877.271C885.522 878.007 885.449 879.119 884.715 879.763C881.94 882.184 816.443 939.168 782.569 948.43C782.415 948.475 782.258 948.496 782.105 948.496Z" fill="#260808"/>
<path d="M792.709 914.346C792.066 914.346 791.448 913.993 791.135 913.383C790.691 912.515 791.034 911.451 791.905 911.009C833.476 889.752 868.773 859.115 869.123 858.807C869.85 858.166 870.967 858.24 871.613 858.976C872.254 859.71 872.181 860.825 871.444 861.465C871.088 861.776 835.466 892.701 793.509 914.152C793.254 914.283 792.979 914.346 792.709 914.346Z" fill="#260808"/>
<path d="M553.427 684.364C499.95 753.642 499.95 854.987 499.95 854.987C499.95 854.987 517.187 928.538 405.311 903.338C340.266 880.414 380.903 717.322 444.327 667.551L553.427 684.364Z" fill="#FFAC00"/>
<path d="M446.665 910.379C434.6 910.379 420.673 908.609 404.925 905.062C387.467 898.921 376.214 882.789 372.188 858.351C362.144 797.381 397.335 702.185 443.234 666.163C444.004 665.56 445.109 665.694 445.714 666.46C446.314 667.23 446.183 668.337 445.416 668.94C401.179 703.655 365.98 798.958 375.672 857.776C379.476 880.864 389.929 896.046 405.899 901.673C446.183 910.735 474.034 907.978 488.496 893.422C503.376 878.443 498.285 855.617 498.23 855.387C498.2 855.256 498.184 855.122 498.184 854.986C498.184 853.967 498.8 752.244 552.03 683.286C552.62 682.517 553.732 682.368 554.504 682.968C555.276 683.561 555.417 684.673 554.822 685.443C503.434 752.019 501.766 849.818 501.716 854.797C502.284 857.4 506.658 880.12 491.026 895.887C481.455 905.542 466.6 910.379 446.665 910.379Z" fill="#260808"/>
<path d="M427.224 684.251C469.312 671.753 523.253 700.941 528.823 725.441C544.303 697.258 560.122 674.276 560.122 674.276L450.141 661.16L427.224 684.251Z" fill="#260808"/>
<path d="M546.952 933.534C546.952 933.534 555.922 946.788 550.269 957.581C544.649 968.373 509.813 994.007 438.719 1000.85C345.518 1009.86 268.501 981.121 258.446 965.977C247.612 952.892 253.606 935.996 262.745 930.464C262.813 930.431 262.914 930.363 262.982 930.328C340.882 994.748 515.333 977.446 546.952 933.534Z" fill="#F08C00"/>
<path d="M356.148 829.993V829.96C356.622 823.619 359.838 817.278 368.132 812.219C384.281 802.437 432.421 815.929 448.265 831.713C459.336 842.707 463.803 867.531 447.248 886.687C472.909 892.017 503.041 880.515 500.231 856.4C528.803 858.088 563.404 897.548 546.95 933.532C515.33 977.444 340.879 994.747 262.979 930.329C262.911 930.362 262.81 930.43 262.742 930.465L262.709 930.397C257.937 905.473 264.808 873.365 287.965 849.893C305.267 832.353 330.759 825.642 356.148 829.993Z" fill="#FFEED1"/>
<path opacity="0.6" d="M546.952 933.531C562.085 900.434 534.035 864.422 507.203 857.539C514.099 887.256 490.242 901.09 473.348 905.312C455.186 909.852 463.763 920.95 441.06 941.128C418.365 961.298 380.477 968.474 367.131 969.934C443.442 979.806 526.139 962.436 546.952 933.531Z" fill="#B870B4"/>
<path d="M262.722 932.152C261.892 932.152 261.153 931.565 260.989 930.72C256.635 908.05 261.107 874.583 286.713 848.644C302.123 833.034 324.758 825.233 348.752 827.251C377.775 829.685 404.602 845.597 422.351 870.908C422.911 871.707 422.719 872.81 421.919 873.37C421.117 873.932 420.02 873.733 419.457 872.938C402.312 848.488 376.431 833.117 348.456 830.769C325.482 828.852 303.902 836.265 289.228 851.129C264.583 876.089 260.272 908.267 264.46 930.057C264.644 931.015 264.016 931.938 263.057 932.122C262.946 932.142 262.833 932.152 262.722 932.152Z" fill="#260808"/>
<path d="M546.955 935.311C546.708 935.311 546.46 935.258 546.221 935.149C545.333 934.746 544.944 933.696 545.348 932.809C551.957 918.344 550.544 901.982 541.38 886.74C532.064 871.254 516.528 860.08 502.158 858.327C502.483 866.078 499.539 873.007 493.574 878.472C483.133 888.037 464.366 892.027 446.877 888.405C446.264 888.276 445.765 887.835 445.563 887.242C445.364 886.649 445.492 885.994 445.901 885.519C462.194 866.714 457.015 842.904 447.011 832.949C431.982 817.984 384.43 804.4 369.058 813.74C362.161 817.924 358.405 823.43 357.898 830.101C357.823 831.077 356.915 831.763 356.004 831.731C355.03 831.657 354.301 830.807 354.374 829.836C354.975 821.962 359.298 815.53 367.224 810.72C384.349 800.326 432.981 814.004 449.503 830.447C460.067 840.962 465.821 865.44 450.492 885.474C466.051 887.903 482.111 884.188 491.19 875.869C496.83 870.699 499.353 864.033 498.48 856.585C498.419 856.067 498.591 855.548 498.952 855.17C499.312 854.791 499.789 854.612 500.342 854.617C516.369 855.571 534.08 867.748 544.41 884.919C554.197 901.187 555.673 918.714 548.564 934.274C548.264 934.927 547.623 935.311 546.955 935.311Z" fill="#260808"/>
<path d="M403.437 1004.31C328.123 1004.31 266.856 981.842 256.968 966.953C251.948 960.912 249.89 953.232 251.287 945.474C252.579 938.293 256.726 931.907 262.109 928.807C262.75 928.439 263.547 928.504 264.117 928.976C313.399 969.732 398.072 975.554 455.607 968.169C499.928 962.471 533.54 949.144 545.519 932.512C545.86 932.043 546.339 931.712 546.98 931.778C547.557 931.788 548.092 932.076 548.415 932.557C548.804 933.135 557.892 946.81 551.836 958.403C545.86 969.854 510.386 995.732 438.901 1002.62C426.838 1003.78 414.97 1004.31 403.437 1004.31ZM262.861 932.512C258.898 935.289 255.772 940.48 254.763 946.102C253.555 952.816 255.344 959.475 259.798 964.852C269.699 979.733 347.357 1007.9 438.56 999.106C507.927 992.425 543.244 967.235 548.708 956.771C552.512 949.484 548.847 940.689 546.74 936.696C533.01 953.109 499.484 966.093 456.059 971.675C398.19 979.1 313.144 973.248 262.861 932.512Z" fill="#260808"/>
<path d="M318.706 659.944C491.639 680.197 664.569 700.451 837.501 720.704C847.647 721.892 856.92 714.169 858.282 703.392C873.682 581.697 889.084 460 904.484 338.305C905.866 327.376 898.602 317.476 888.312 316.271C713.122 295.753 537.932 275.234 362.742 254.719C352.452 253.513 343.097 261.465 341.916 272.419C328.774 394.379 315.632 516.339 302.492 638.301C301.324 649.101 308.558 658.756 318.706 659.944Z" fill="#FFAC00"/>
<path d="M877.339 375.445C887.038 374.888 896.533 386.006 897.713 391.797C899.784 375.425 900.45 370.166 900.45 370.166L878.641 362.781L877.339 375.445Z" fill="#260808"/>
<path d="M593.689 478.363C585.514 467.583 570.414 485.193 561.245 487.826C552.076 490.459 548.398 484.098 539.453 488.381C529.595 493.1 540.53 517.407 563.555 516.075C588.001 514.66 603.325 491.07 593.689 478.363Z" fill="#FFFDEE"/>
<path d="M561.754 517.893C547.293 517.893 537.021 508.22 534.564 498.678C533.162 493.235 534.743 488.68 538.694 486.791C544.044 484.229 547.762 485.094 551.357 485.929C554.235 486.599 556.951 487.225 560.76 486.133C563.401 485.376 566.779 483.119 570.356 480.73C578.443 475.328 588.513 468.611 595.099 477.3C599.09 482.561 599.456 489.75 596.101 497.019C591.631 506.707 579.868 516.901 563.661 517.84C563.018 517.875 562.382 517.893 561.754 517.893ZM545.704 488.625C544.069 488.625 542.316 488.97 540.217 489.977C536.706 491.657 537.621 496.391 537.985 497.801C539.879 505.158 548.965 515.212 563.457 514.314C578.204 513.461 588.866 504.273 592.892 495.541C595.684 489.492 595.46 483.621 592.284 479.434C588.026 473.822 581.324 477.653 572.319 483.669C568.505 486.214 564.902 488.617 561.737 489.528C557.047 490.875 553.594 490.075 550.557 489.369C548.905 488.983 547.366 488.625 545.704 488.625Z" fill="#260808"/>
<path opacity="0.5" d="M334.835 559.673C335.055 557.799 336.768 556.445 338.642 556.664L801.828 610.912C803.703 611.131 805.057 612.844 804.838 614.718L804.805 614.995C804.586 616.869 802.873 618.224 800.998 618.004L629.723 597.945L620.672 675.203C620.453 677.077 618.74 678.432 616.866 678.212L616.589 678.18C614.714 677.96 613.36 676.248 613.579 674.374L622.63 597.115L424.467 573.906L415.417 651.164C415.197 653.038 413.484 654.392 411.61 654.173L411.335 654.14C409.461 653.921 408.106 652.208 408.326 650.334L417.377 573.076L337.814 563.759C335.94 563.54 334.586 561.827 334.805 559.953L334.835 559.673Z" fill="#CFF0FF"/>
<path d="M839.532 722.591C838.793 722.591 838.046 722.549 837.295 722.46L318.499 661.7C307.441 660.401 299.472 649.82 300.731 638.11L340.158 272.228C340.796 266.314 343.755 260.853 348.275 257.249C352.505 253.877 357.729 252.361 362.943 252.966L888.516 314.519C893.748 315.131 898.465 317.818 901.802 322.078C905.367 326.63 906.984 332.626 906.234 338.528L860.035 703.614C858.652 714.508 849.698 722.591 839.532 722.591ZM318.908 658.194L837.703 718.954C846.87 720.021 855.29 712.944 856.529 703.173L902.728 338.086C903.359 333.112 902.007 328.07 899.018 324.257C896.268 320.743 892.391 318.531 888.105 318.03L362.532 256.477C358.239 255.97 353.961 257.231 350.475 260.013C346.686 263.035 344.206 267.628 343.669 272.614L304.242 638.495C303.19 648.282 309.769 657.122 318.908 658.194Z" fill="#260808"/>
<path d="M334.994 304.861L890.466 369.916C901.691 371.23 911.855 363.2 913.169 351.976L921.604 279.971L325.484 210.156L317.049 282.161C315.735 293.382 323.769 303.547 334.994 304.861Z" fill="#FFFDEE"/>
<path d="M826.463 257.829L358.093 96.5987L354.281 84.0859L850.465 255.4L826.463 257.829Z" fill="#FFFDEE"/>
<path d="M770.007 238.397C771.056 238.758 794.261 235.996 794.261 235.996L815.477 243.321L806.434 250.935L770.007 238.397Z" fill="#260808"/>
<path d="M826.463 259.599C826.274 259.599 826.079 259.569 825.888 259.503L357.518 98.27C356.98 98.0859 356.567 97.6546 356.403 97.1149L352.591 84.6021C352.309 83.6689 352.833 82.6827 353.767 82.3977C354.707 82.1127 355.689 82.6398 355.971 83.5705L359.518 95.2232L827.038 256.161C827.961 256.479 828.453 257.483 828.135 258.406C827.88 259.137 827.194 259.599 826.463 259.599Z" fill="#260808"/>
<path d="M943.386 194.082C943.386 194.082 954.207 209.821 956.46 216.772C958.713 223.723 934.471 290.963 934.471 290.963C934.471 290.963 932.511 346.495 927.769 356.947C923.027 367.399 896.581 369.717 896.581 369.717L943.386 194.082Z" fill="#FFFDEE"/>
<path d="M354.281 84.0871L921.604 279.963L945.27 211.437C948.958 200.755 943.29 189.107 932.607 185.42L403.967 2.89932C393.284 -0.788167 381.635 4.87927 377.947 15.5609L354.281 84.0871Z" fill="#FFFDEE"/>
<path d="M325.484 210.164L317.049 282.166C315.735 293.385 323.764 303.542 335.004 304.858L417.392 314.508L336.429 211.448L325.484 210.164Z" fill="black"/>
<path d="M425.963 221.934L506.923 325.007L599.541 335.855L518.582 232.779L425.963 221.934Z" fill="black"/>
<path d="M600.076 242.312L681.038 345.388L773.655 356.234L692.695 253.158L600.076 242.312Z" fill="black"/>
<path d="M449.904 117.113L567.589 59.4023L655.733 89.8355L538.045 147.546L449.904 117.113Z" fill="black"/>
<path d="M615.61 174.313L733.297 116.602L821.441 147.035L703.753 204.746L615.61 174.313Z" fill="black"/>
<path d="M377.942 15.5696L354.279 84.0933L364.697 87.69L482.386 29.974L403.98 2.90301C393.279 -0.79205 381.638 4.87538 377.942 15.5696Z" fill="black"/>
<path d="M892.863 371.822C892.003 371.822 891.135 371.772 890.262 371.668L334.79 306.615C328.89 305.924 323.615 302.978 319.935 298.32C316.252 293.661 314.607 287.85 315.296 281.953L323.731 209.948C323.784 209.484 324.021 209.058 324.392 208.768C324.76 208.478 325.24 208.342 325.691 208.4L921.808 278.215C922.779 278.328 923.471 279.206 923.357 280.175L914.922 352.179C913.598 363.479 903.972 371.822 892.863 371.822ZM335.199 303.107L890.668 368.16C900.947 369.358 910.215 362.006 911.416 351.768L919.647 281.517L327.036 212.113L318.805 282.364C318.222 287.323 319.607 292.213 322.705 296.13C325.802 300.047 330.239 302.527 335.199 303.107Z" fill="#260808"/>
<path d="M921.604 281.728C921.412 281.728 921.221 281.698 921.026 281.63L353.704 85.7541C353.26 85.6028 352.899 85.2799 352.692 84.8587C352.488 84.4375 352.457 83.9532 352.611 83.5093L376.277 14.9831C378.215 9.37115 382.223 4.8488 387.563 2.25344C392.901 -0.344451 398.935 -0.710174 404.545 1.22941L933.185 183.75C938.797 185.687 943.32 189.695 945.916 195.032C948.514 200.371 948.877 206.402 946.94 212.012L923.274 280.538C923.022 281.269 922.336 281.728 921.604 281.728ZM356.524 82.9948L920.509 277.718L943.598 210.859C945.227 206.14 944.922 201.068 942.737 196.576C940.553 192.086 936.749 188.716 932.029 187.084L403.389 4.56631C398.672 2.93696 393.594 3.24215 389.107 5.42639C384.614 7.61064 381.244 11.4141 379.615 16.1357L356.524 82.9948Z" fill="#260808"/>
<path d="M782.019 335.017L873.086 345.683C889.429 347.598 904.229 335.902 906.144 319.561L917.543 222.246C920.007 201.211 895.463 188.002 879.261 201.644L769.679 293.915C754.012 307.109 761.677 332.636 782.019 335.017Z" fill="#260808"/>
<path d="M776.464 327.662L867.532 338.328C883.875 340.242 898.674 328.547 900.589 312.205L911.988 214.89C914.453 193.855 889.909 180.646 873.707 194.289L764.124 286.559C748.457 299.753 756.123 325.281 776.464 327.662Z" fill="#FFFDEE"/>
<path d="M871.061 340.3C869.822 340.3 868.579 340.23 867.33 340.083L776.26 329.417C766.137 328.231 758.03 321.434 755.099 311.676C752.17 301.915 755.19 291.775 762.984 285.212L872.567 192.942C880.631 186.155 891.4 185.04 900.682 190.034C909.963 195.028 914.965 204.632 913.739 215.1L902.34 312.412C901.358 320.783 897.176 328.272 890.562 333.498C884.939 337.945 878.126 340.3 871.061 340.3ZM888.675 190.483C883.749 190.483 878.898 192.226 874.845 195.641L765.262 287.911C758.562 293.553 755.964 302.268 758.482 310.657C761.002 319.046 767.971 324.889 776.669 325.906L867.739 336.572C875.18 337.445 882.505 335.364 888.378 330.726C894.253 326.085 897.968 319.434 898.836 311.998L910.235 214.686C911.289 205.689 906.989 197.434 899.012 193.141C895.7 191.361 892.169 190.483 888.675 190.483Z" fill="#260808"/>
<path d="M863.639 218.278C862.567 227.439 869.123 235.735 878.285 236.807C887.447 237.879 895.743 231.323 896.815 222.163C897.887 213.002 891.331 204.706 882.17 203.634C873.008 202.562 864.712 209.118 863.639 218.278Z" fill="#E8F9FF"/>
<path d="M880.263 238.182C879.556 238.182 878.845 238.142 878.134 238.058C873.369 237.501 869.105 235.12 866.131 231.357C863.155 227.594 861.826 222.897 862.383 218.13C863.538 208.294 872.478 201.226 882.313 202.381C887.078 202.939 891.342 205.32 894.316 209.083C897.292 212.846 898.621 217.543 898.064 222.31C897.504 227.074 895.125 231.337 891.362 234.31C888.161 236.84 884.283 238.182 880.263 238.182ZM880.215 204.78C872.498 204.78 865.811 210.576 864.893 218.423C864.414 222.519 865.556 226.557 868.112 229.79C870.67 233.024 874.335 235.069 878.431 235.551C882.528 236.025 886.566 234.888 889.8 232.33C893.034 229.773 895.082 226.111 895.559 222.014C896.038 217.918 894.896 213.88 892.34 210.647C889.785 207.413 886.117 205.365 882.021 204.886C881.413 204.815 880.81 204.78 880.215 204.78Z" fill="#260808"/>
<path d="M879.133 231.512C879.022 231.512 878.921 231.502 878.83 231.489C878.01 231.393 876.52 231.217 877.208 222.661C869.542 221.398 869.737 219.73 869.825 218.999C869.908 218.265 870.127 216.608 877.854 217.148C879.163 208.668 880.666 208.837 881.469 208.933C882.286 209.029 883.777 209.205 883.093 217.761C890.756 219.024 890.562 220.689 890.479 221.418C890.391 222.152 890.206 223.822 882.447 223.272C881.282 230.793 879.98 231.512 879.133 231.512ZM874.774 219.582C875.788 219.841 877.105 220.109 878.749 220.348C879.418 220.444 879.89 221.045 879.826 221.715C879.71 222.911 879.642 223.96 879.604 224.868C879.779 223.975 879.955 222.939 880.121 221.748C880.217 221.08 880.818 220.613 881.484 220.666C883.136 220.815 884.488 220.858 885.525 220.84C884.511 220.583 883.196 220.313 881.554 220.076C880.888 219.98 880.417 219.38 880.477 218.709C880.591 217.513 880.659 216.464 880.697 215.556C880.523 216.449 880.346 217.486 880.182 218.674C880.091 219.342 879.481 219.829 878.82 219.756C877.16 219.607 875.828 219.559 874.774 219.582Z" fill="#260808"/>
<path d="M869.643 321.056C878.867 321.056 886.344 313.579 886.344 304.356C886.344 295.133 878.867 287.656 869.643 287.656C860.419 287.656 852.942 295.133 852.942 304.356C852.942 313.579 860.419 321.056 869.643 321.056Z" fill="#E8F9FF"/>
<path d="M869.656 322.319C868.962 322.319 868.258 322.279 867.552 322.196C862.787 321.638 858.524 319.257 855.55 315.494C852.573 311.731 851.244 307.032 851.801 302.268C852.361 297.503 854.74 293.241 858.504 290.267C862.267 287.291 866.964 285.956 871.732 286.521C881.564 287.672 888.632 296.613 887.482 306.447C886.413 315.575 878.633 322.319 869.656 322.319ZM869.61 288.918C866.154 288.918 862.822 290.07 860.07 292.244C856.834 294.802 854.788 298.464 854.311 302.56C853.832 306.656 854.975 310.694 857.53 313.928C860.085 317.161 863.753 319.209 867.849 319.689C876.305 320.698 883.986 314.606 884.977 306.152C885.969 297.697 879.892 290.015 871.439 289.023C870.826 288.953 870.215 288.918 869.61 288.918Z" fill="#260808"/>
<path d="M868.551 315.65C868.44 315.65 868.339 315.637 868.245 315.627C867.431 315.531 865.94 315.36 866.624 306.799C858.96 305.536 859.155 303.871 859.238 303.142L859.24 303.139C859.326 302.408 859.548 300.751 867.269 301.288C868.579 292.816 870.062 292.977 870.889 293.073C871.704 293.169 873.197 293.341 872.509 301.901C880.18 303.165 879.98 304.832 879.892 305.563C879.809 306.29 879.615 307.959 871.863 307.415C870.7 314.926 869.401 315.65 868.551 315.65ZM864.19 303.717C865.204 303.977 866.52 304.247 868.162 304.484C868.828 304.58 869.3 305.18 869.239 305.851C869.126 307.046 869.058 308.096 869.02 309.001C869.194 308.108 869.37 307.072 869.534 305.884C869.625 305.215 870.233 304.754 870.897 304.802C872.551 304.953 873.901 304.991 874.94 304.976C873.929 304.718 872.612 304.448 870.967 304.209C870.299 304.113 869.827 303.513 869.89 302.842C870.006 301.644 870.074 300.592 870.112 299.681C869.938 300.577 869.762 301.616 869.595 302.807C869.504 303.475 868.894 303.949 868.233 303.889C866.581 303.742 865.239 303.702 864.19 303.717Z" fill="#260808"/>
<path d="M768.675 297.087C767.603 306.248 774.159 314.543 783.32 315.615C792.482 316.687 800.779 310.132 801.851 300.971C802.923 291.81 796.367 283.515 787.205 282.443C778.043 281.371 769.747 287.926 768.675 297.087Z" fill="#E8F9FF"/>
<path d="M785.278 316.99C784.582 316.99 783.878 316.949 783.172 316.866C778.407 316.309 774.143 313.928 771.169 310.164C768.193 306.401 766.864 301.705 767.421 296.938C767.981 292.173 770.36 287.911 774.123 284.937C777.887 281.963 782.579 280.624 787.351 281.189C792.116 281.747 796.38 284.127 799.354 287.891C802.33 291.654 803.659 296.353 803.102 301.117C802.032 310.248 794.253 316.99 785.278 316.99ZM785.233 283.59C781.777 283.59 778.445 284.743 775.69 286.92C772.454 289.477 770.408 293.139 769.931 297.235C769.452 301.332 770.594 305.37 773.15 308.603C775.707 311.837 779.373 313.882 783.469 314.364C791.9 315.36 799.608 309.284 800.597 300.827C801.076 296.731 799.934 292.693 797.378 289.459C794.823 286.226 791.155 284.178 787.059 283.699C786.446 283.626 785.838 283.59 785.233 283.59Z" fill="#260808"/>
<path d="M784.171 310.32C784.062 310.32 783.959 310.31 783.868 310.298C783.051 310.202 781.56 310.025 782.243 301.47C774.58 300.206 774.774 298.542 774.858 297.81L774.86 297.808C774.946 297.076 775.14 295.417 782.892 295.956C784.201 287.477 785.707 287.646 786.507 287.741C787.324 287.837 788.814 288.014 788.131 296.572C795.799 297.835 795.6 299.503 795.512 300.234C795.429 300.963 795.244 302.633 787.483 302.085C786.32 309.604 785.018 310.32 784.171 310.32ZM779.809 298.39C780.821 298.65 782.137 298.92 783.782 299.157C784.448 299.253 784.92 299.853 784.859 300.524C784.746 301.72 784.678 302.769 784.64 303.677C784.814 302.784 784.991 301.747 785.154 300.559C785.245 299.891 785.853 299.412 786.517 299.477C788.169 299.626 789.506 299.672 790.56 299.651C789.549 299.394 788.232 299.124 786.59 298.887C785.924 298.791 785.452 298.189 785.513 297.52C785.626 296.325 785.694 295.275 785.732 294.365C785.561 295.258 785.382 296.294 785.218 297.482C785.127 298.151 784.514 298.627 783.855 298.564C782.198 298.416 780.851 298.373 779.809 298.39Z" fill="#260808"/>
<path d="M852.346 590.426C852.281 590.426 852.213 590.421 852.145 590.413C851.176 590.305 850.48 589.43 850.591 588.461C850.674 587.709 859.215 512.507 866.404 451.04C866.52 450.074 867.421 449.383 868.362 449.492C869.33 449.605 870.024 450.483 869.91 451.451C862.721 512.91 854.185 588.108 854.097 588.86C853.996 589.76 853.234 590.426 852.346 590.426Z" fill="#260808"/>
<path d="M869.862 438.483C869.794 438.483 869.724 438.478 869.653 438.47C868.684 438.356 867.993 437.479 868.107 436.51L869.148 427.67C869.264 426.701 870.132 426.02 871.108 426.124C872.077 426.237 872.768 427.115 872.655 428.083L871.613 436.921C871.51 437.822 870.745 438.483 869.862 438.483Z" fill="#260808"/>
<path d="M873.727 406.023C873.657 406.023 873.583 406.018 873.513 406.01C872.544 405.894 871.855 405.014 871.971 404.045C876.308 368.162 876.305 368.174 878.417 368.414C879.385 368.527 880.076 369.408 879.963 370.374C879.94 370.558 879.892 370.732 879.819 370.891C879.574 371.968 878.679 377.956 875.478 404.469C875.369 405.364 874.605 406.023 873.727 406.023Z" fill="#260808"/>
<path d="M896.578 371.48C895.675 371.48 894.903 370.789 894.822 369.868C894.737 368.897 895.455 368.04 896.427 367.956C903.5 367.333 922.626 364.012 926.162 356.215C929.797 348.2 932.034 309.983 932.71 290.897C932.715 290.718 932.751 290.542 932.809 290.373C941.913 264.623 955.92 221.988 954.747 217.19C952.219 206.877 942.162 195.363 942.061 195.247C941.418 194.516 941.486 193.401 942.22 192.755C942.959 192.112 944.069 192.185 944.713 192.914C945.149 193.411 955.443 205.187 958.178 216.351C959.936 223.541 940.419 279.436 936.229 291.296C936.06 296 934.088 347.297 929.381 357.676C924.27 368.937 897.859 371.376 896.739 371.475C896.681 371.477 896.631 371.48 896.578 371.48Z" fill="#260808"/>
<path d="M529.123 474.906C545.233 474.906 558.293 453.851 558.293 427.877C558.293 401.903 545.233 380.848 529.123 380.848C513.013 380.848 499.953 401.903 499.953 427.877C499.953 453.851 513.013 474.906 529.123 474.906Z" fill="#FFFDEE"/>
<path d="M539.781 389.191C542.679 389.191 545.438 390.223 547.984 392.036C554.282 400.662 558.291 413.506 558.291 427.875C558.291 447.805 550.589 464.798 539.733 471.645C527.276 471.597 517.187 453.16 517.187 430.42C517.189 407.652 527.304 389.191 539.781 389.191Z" fill="#260808"/>
<path d="M529.121 476.668C512.063 476.668 498.185 454.778 498.185 427.873C498.185 400.966 512.063 379.078 529.121 379.078C546.18 379.078 560.059 400.969 560.059 427.873C560.059 454.78 546.18 476.668 529.121 476.668ZM529.121 382.612C514.011 382.612 501.719 402.916 501.719 427.876C501.719 452.833 514.011 473.137 529.121 473.137C544.23 473.137 556.525 452.833 556.525 427.876C556.525 402.916 544.23 382.612 529.121 382.612Z" fill="#260808"/>
<path d="M582.598 474.902C598.708 474.902 611.768 453.847 611.768 427.873C611.768 401.9 598.708 380.844 582.598 380.844C566.487 380.844 553.427 401.9 553.427 427.873C553.427 453.847 566.487 474.902 582.598 474.902Z" fill="#FFFDEE"/>
<path d="M593.258 389.188C596.156 389.188 598.916 390.219 601.461 392.033C607.759 400.659 611.768 413.502 611.768 427.871C611.768 447.801 604.066 464.794 593.21 471.641C580.754 471.594 570.664 453.156 570.664 430.416C570.666 407.648 580.781 389.188 593.258 389.188Z" fill="#260808"/>
<path d="M582.598 476.668C565.538 476.668 551.659 454.778 551.659 427.873C551.659 400.966 565.538 379.078 582.598 379.078C599.657 379.078 613.536 400.969 613.536 427.873C613.536 454.78 599.657 476.668 582.598 476.668ZM582.598 382.612C567.488 382.612 555.193 402.916 555.193 427.876C555.193 452.833 567.488 473.137 582.598 473.137C597.707 473.137 610.002 452.833 610.002 427.876C610.005 402.916 597.71 382.612 582.598 382.612Z" fill="#260808"/>
<path d="M572.381 385.583C572.185 385.583 571.986 385.55 571.791 385.48C556.704 380.123 556.528 362.512 556.528 362.333C556.528 361.36 557.317 360.57 558.291 360.57H558.293C559.267 360.57 560.054 361.36 560.059 362.331C560.062 362.954 560.256 377.636 572.972 382.15C573.89 382.476 574.372 383.487 574.044 384.405C573.786 385.129 573.108 385.583 572.381 385.583Z" fill="#260808"/>
<path d="M579.528 382.871C579.187 382.871 578.844 382.772 578.541 382.568C568.845 376.013 571.168 361.638 571.272 361.028C571.435 360.07 572.364 359.432 573.307 359.585C574.268 359.749 574.917 360.66 574.755 361.621C574.732 361.747 572.717 374.371 580.517 379.645C581.324 380.192 581.538 381.289 580.991 382.096C580.65 382.598 580.093 382.871 579.528 382.871Z" fill="#260808"/>
<path d="M518.902 385.583C518.705 385.583 518.506 385.55 518.312 385.48C503.225 380.123 503.048 362.512 503.048 362.333C503.048 361.36 503.838 360.57 504.811 360.57H504.814C505.788 360.57 506.574 361.36 506.58 362.331C506.582 362.954 506.776 377.636 519.492 382.15C520.41 382.476 520.892 383.487 520.564 384.405C520.309 385.129 519.631 385.583 518.902 385.583Z" fill="#260808"/>
<path d="M526.048 382.871C525.708 382.871 525.365 382.772 525.062 382.568C515.365 376.013 517.689 361.638 517.792 361.028C517.956 360.07 518.889 359.432 519.828 359.585C520.789 359.749 521.437 360.66 521.276 361.621C521.253 361.747 519.238 374.371 527.037 379.645C527.844 380.192 528.059 381.289 527.511 382.096C527.173 382.598 526.616 382.871 526.048 382.871Z" fill="#260808"/>
<path d="M593.381 500.193C593.046 500.193 592.705 500.097 592.405 499.895C582.025 492.982 574.891 480.487 574.591 479.96C574.112 479.112 574.412 478.035 575.26 477.554C576.115 477.072 577.184 477.375 577.666 478.222C577.734 478.343 584.694 490.52 594.36 496.957C595.172 497.497 595.392 498.594 594.852 499.406C594.514 499.916 593.951 500.193 593.381 500.193Z" fill="#260808"/>
<path d="M576.13 514.965C575.646 514.965 575.161 514.766 574.813 514.377C562.932 501.083 559.668 488.784 559.534 488.267C559.29 487.324 559.86 486.363 560.803 486.118C561.747 485.876 562.708 486.444 562.952 487.385C562.983 487.503 566.171 499.41 577.442 512.022C578.093 512.75 578.029 513.868 577.303 514.514C576.97 514.816 576.549 514.965 576.13 514.965Z" fill="#260808"/>
<path d="M549.132 514.965C548.337 514.965 547.613 514.423 547.416 513.615C543.068 495.672 547.386 487.236 547.575 486.885C548.032 486.025 549.099 485.692 549.961 486.154C550.824 486.61 551.152 487.679 550.693 488.54C550.66 488.605 546.854 496.308 550.85 512.781C551.079 513.729 550.496 514.682 549.548 514.914C549.409 514.947 549.27 514.965 549.132 514.965Z" fill="#260808"/>
<path d="M896.528 621.31C861.213 645.019 859.409 694.482 859.409 694.482L872.94 587.562L896.528 621.31Z" fill="#260808"/>
<path d="M370.629 847.579C365.135 840.771 356.7 837.697 348.86 836.917C340.939 835.984 333.157 836.557 325.787 838.289C318.416 839.997 311.439 842.829 305.133 846.57C301.298 848.822 297.394 851.067 293.963 853.92C292.366 855.246 290.621 857.065 289.329 858.752C287.846 860.689 289.062 863.007 292.121 861.365C298.221 858.162 302.439 856.611 308.73 854.807C315.028 853.032 321.395 851.993 327.661 851.793C337.123 851.541 345.313 853.773 354.051 857.007C359.661 859.083 369.709 862.505 372.009 854.283C372.683 851.879 372.072 849.39 370.629 847.579Z" fill="white"/>
</svg>
