<svg width="776" height="1008" viewBox="0 0 776 1008" fill="none" xmlns="http://www.w3.org/2000/svg">
<path d="M756.595 697.727C775.92 715.09 782.017 743.231 759.635 768.044C766.062 805.979 732.51 842.896 674.475 829.644C664.511 837.35 651.21 841.552 633.454 838.414C594.968 831.64 598.77 781.899 598.77 781.899C598.77 781.899 539.612 746.986 523.562 662.287L549.558 546.855C579.314 632.964 649.661 683.103 649.661 683.103C649.661 683.103 670.744 644.887 709.747 645.341C745.958 645.772 765.399 678.75 756.595 697.727Z" fill="#FFAC00"/>
<path d="M537.99 708.202C528.831 674.692 577.883 666.285 577.883 666.285H523.556C523.556 666.285 533.076 701.629 537.99 708.202Z" fill="#260808"/>
<path d="M644.77 841.219C641.032 841.219 637.155 840.866 633.142 840.16C596.767 833.738 596.696 790.29 596.959 782.85C589.353 777.929 536.747 741.344 521.821 662.613C521.639 661.657 522.27 660.731 523.229 660.552C524.18 660.365 525.11 661.001 525.292 661.957C541.017 744.913 599.085 780.04 599.67 780.385C600.248 780.728 600.584 781.369 600.533 782.037C600.384 784.002 597.309 830.247 633.757 836.681C660.498 841.413 680.231 829.876 692.43 802.422C692.826 801.534 693.868 801.128 694.761 801.527C695.652 801.923 696.055 802.964 695.657 803.857C684.716 828.479 667.261 841.219 644.77 841.219Z" fill="#260808"/>
<path d="M697.866 834.187C690.316 834.187 682.355 833.254 674.087 831.365C673.136 831.148 672.54 830.2 672.757 829.249C672.974 828.3 673.92 827.715 674.871 827.922C702.649 834.268 726.716 829.473 742.648 814.423C755.273 802.495 760.828 785.698 757.887 768.34C754.713 749.607 744.492 736.777 727.513 730.206C703.249 720.813 672.556 727.406 661.237 736.262C660.468 736.867 659.358 736.729 658.757 735.962C658.157 735.193 658.291 734.085 659.06 733.485C671.042 724.102 703.363 717.073 728.79 726.915C746.755 733.868 758.02 747.988 761.368 767.749C764.511 786.295 758.573 804.243 745.075 816.991C733.06 828.341 716.76 834.187 697.866 834.187Z" fill="#260808"/>
<path d="M699.077 809.748C698.366 809.748 697.695 809.314 697.427 808.61C697.379 808.487 691.827 795.139 665.649 789.956C664.693 789.767 664.07 788.839 664.259 787.883C664.448 786.922 665.376 786.311 666.332 786.493C694.61 792.09 700.492 806.731 700.727 807.354C701.075 808.265 700.616 809.286 699.705 809.632C699.501 809.712 699.286 809.748 699.077 809.748Z" fill="#260808"/>
<path d="M759.627 769.81C759.206 769.81 758.782 769.659 758.444 769.354C757.72 768.7 757.662 767.586 758.315 766.862C781.22 741.473 772.131 715.449 757.385 700.88C735.593 679.348 694.052 673.436 659.996 704.901C659.28 705.559 658.162 705.514 657.501 704.8C656.84 704.086 656.883 702.966 657.6 702.305C693.27 669.363 736.912 675.688 759.867 698.368C776.972 715.27 783.936 743.733 760.936 769.228C760.591 769.611 760.109 769.81 759.627 769.81Z" fill="#260808"/>
<path d="M756.588 699.489C756.338 699.489 756.086 699.436 755.846 699.325C754.961 698.916 754.577 697.865 754.988 696.979C758.563 689.279 757.085 678.63 751.131 669.182C742.547 655.559 727.067 647.304 709.72 647.1C709.498 647.097 709.273 647.095 709.051 647.095C672.021 647.095 651.422 683.576 651.218 683.944C650.973 684.386 650.554 684.704 650.065 684.815C649.568 684.928 649.058 684.822 648.647 684.532C647.938 684.028 577.493 633.089 547.894 547.437C547.576 546.516 548.063 545.51 548.986 545.192C549.909 544.872 550.913 545.361 551.231 546.284C578.03 623.83 638.754 672.587 649.17 680.517C653.919 673.003 674.735 643.566 709.051 643.566C709.288 643.566 709.523 643.566 709.763 643.569C728.313 643.788 744.896 652.659 754.121 667.298C760.805 677.906 762.326 689.556 758.192 698.467C757.892 699.108 757.254 699.489 756.588 699.489Z" fill="#260808"/>
<path d="M360.976 855.564C414.91 768.025 377.158 673.502 377.158 673.502C377.158 673.502 452.008 659.971 469.174 664.324C486.34 668.677 521.233 785.509 510.134 833.338C499.035 881.167 376.283 954.054 360.976 855.564Z" fill="#FFAC00"/>
<path d="M409.678 906.234C408.879 906.234 408.089 906.219 407.297 906.191C388.835 905.507 365.509 896.218 359.231 855.832C359.168 855.419 359.253 854.992 359.473 854.634C412.299 768.896 375.892 675.092 375.518 674.154C375.322 673.662 375.357 673.107 375.614 672.643C375.872 672.179 376.323 671.854 376.845 671.76C379.918 671.203 452.273 658.206 469.61 662.607C489.382 667.624 522.552 787.644 511.855 833.733C504.645 864.799 452.419 906.234 409.678 906.234ZM362.823 855.928C367.615 885.607 383.03 901.759 407.428 902.66C448.093 904.211 501.434 863.021 508.416 832.938C519.44 785.445 484.768 670.098 468.74 666.035C453.719 662.221 391.703 672.747 379.542 674.873C384.564 689.131 411.782 775.855 362.823 855.928Z" fill="#260808"/>
<path d="M388.429 722.813C408.155 666.24 484.268 685.267 486.269 690.226C475.356 669.549 472.435 666.285 472.435 666.285L377.161 673.501C377.161 673.501 387.987 719.406 388.429 722.813Z" fill="#260808"/>
<path d="M231.847 864.271C278.089 774.861 236.985 682.648 236.985 682.648C236.985 682.648 332.548 666.272 349.713 670.628C366.879 674.981 392.104 794.219 381.005 842.048C369.908 889.877 247.156 962.761 231.847 864.271Z" fill="#FFAC00"/>
<path d="M280.551 914.947C279.752 914.947 278.962 914.932 278.167 914.904C259.705 914.22 236.38 904.931 230.104 864.545C230.048 864.174 230.109 863.796 230.28 863.463C275.579 775.871 235.782 684.282 235.373 683.369C235.151 682.872 235.171 682.297 235.429 681.818C235.686 681.338 236.15 681.003 236.688 680.91C240.605 680.239 332.815 664.538 350.147 668.919C370.077 673.976 393.219 797.229 382.725 842.45C375.518 873.512 323.29 914.947 280.551 914.947ZM233.681 864.57C238.463 894.292 253.881 910.472 278.296 911.375C279.018 911.403 279.747 911.416 280.473 911.416C320.78 911.416 372.428 871.204 379.284 841.653C390.875 791.708 364.298 676.155 349.277 672.344C334.089 668.485 253.78 681.631 239.46 684.025C245.143 698.303 275.544 783.017 233.681 864.57Z" fill="#260808"/>
<path d="M276.801 731.739C295.53 690.226 352.1 685.24 367.454 704.799C360.974 681.101 354.557 670.066 354.557 670.066L277.852 669.047L276.801 731.739Z" fill="#260808"/>
<path d="M623.578 662.32C450.041 676.459 276.503 690.599 102.962 704.739C92.7815 705.568 83.7887 697.522 82.8049 686.705C71.7085 564.541 60.612 442.379 49.513 320.216C48.5166 309.244 56.127 299.609 66.4516 298.767C242.257 284.443 418.063 270.117 593.866 255.793C604.191 254.953 613.261 263.231 614.054 274.218C622.882 396.566 631.714 518.914 640.545 641.262C641.332 652.095 633.762 661.49 623.578 662.32Z" fill="#FFAC00"/>
<path d="M54.0459 370.097C59.4239 357.882 75.3913 358.883 75.3913 358.883L73.0454 346.027L50.5952 347.288L54.0459 370.097Z" fill="#260808"/>
<path d="M320.293 687.029C342.113 682.151 352.503 659.156 352.503 659.156L288.492 667.691L286.954 690.222L320.293 687.029Z" fill="#260808"/>
<path opacity="0.5" d="M610.997 561.538C610.843 559.657 609.178 558.244 607.299 558.398L142.487 596.272C140.606 596.426 139.193 598.09 139.347 599.969L139.37 600.247C139.524 602.128 141.188 603.541 143.068 603.387L314.946 589.381L321.265 666.912C321.419 668.793 323.081 670.206 324.963 670.052L325.24 670.029C327.122 669.875 328.534 668.211 328.381 666.332L322.062 588.801L520.92 572.598L527.239 650.129C527.393 652.011 529.056 653.423 530.937 653.269L531.215 653.246C533.097 653.093 534.509 651.428 534.355 649.549L528.037 572.018L607.879 565.513C609.76 565.36 611.173 563.695 611.019 561.816L610.997 561.538Z" fill="#CFF0FF"/>
<path d="M101.545 706.562C91.0941 706.565 82.0661 698.039 81.0495 686.863L47.7576 320.374C47.2203 314.45 49.0466 308.512 52.7698 304.091C56.2534 299.95 61.0637 297.435 66.3131 297.006L593.727 254.032C598.979 253.609 604.133 255.309 608.239 258.83C612.629 262.593 615.393 268.154 615.819 274.089L642.311 641.133C643.158 652.882 634.819 663.175 623.72 664.08L103.104 706.499C102.584 706.544 102.062 706.562 101.545 706.562ZM595.309 257.501C594.878 257.501 594.446 257.518 594.012 257.553L66.5981 300.527C62.2947 300.878 58.342 302.951 55.4713 306.364C52.351 310.071 50.8224 315.063 51.2764 320.054L84.5683 686.543C85.4588 696.352 93.6619 703.727 102.824 702.98L623.44 660.562C632.614 659.813 639.503 651.212 638.792 641.388L612.301 274.344C611.94 269.345 609.622 264.666 605.944 261.513C602.894 258.9 599.161 257.501 595.309 257.501Z" fill="#260808"/>
<path d="M619.83 306.88L62.408 352.298C51.145 353.216 41.2695 344.829 40.3513 333.568L34.4612 261.308L632.672 212.566L638.562 284.826C639.48 296.087 631.093 305.962 619.83 306.88Z" fill="#FFFDEE"/>
<path d="M130.326 242.541L604.095 97.934L608.345 85.5625L106.426 239.264L130.326 242.541Z" fill="#FFFDEE"/>
<path d="M130.329 244.309C129.572 244.309 128.871 243.82 128.642 243.058C128.357 242.125 128.881 241.139 129.814 240.854L602.72 96.5094L606.678 84.9904C606.993 84.0698 607.992 83.5755 608.923 83.8933C609.846 84.2085 610.336 85.2149 610.02 86.138L605.77 98.5095C605.586 99.0442 605.157 99.4579 604.615 99.6244L130.849 244.231C130.672 244.284 130.498 244.309 130.329 244.309Z" fill="#260808"/>
<path d="M15.7268 174.711C15.7268 174.711 4.35794 190.056 1.86067 196.924C-0.636608 203.792 21.2183 271.844 21.2183 271.844C21.2183 271.844 21.2183 327.409 25.5898 338.022C29.9613 348.636 56.3088 351.884 56.3088 351.884L15.7268 174.711Z" fill="#FFFDEE"/>
<path d="M608.345 85.5623L34.4638 261.303L13.2319 191.985C9.92237 181.18 15.999 169.739 26.8054 166.43L561.558 2.67197C572.364 -0.637186 583.806 5.43885 587.116 16.2441L608.345 85.5623Z" fill="#FFFDEE"/>
<path d="M632.675 212.574L638.562 284.828C639.48 296.085 631.098 305.954 619.817 306.873L537.14 313.609L621.687 213.47L632.675 212.574Z" fill="black"/>
<path d="M531.843 220.797L447.296 320.952L354.355 328.524L438.901 228.369L531.843 220.797Z" fill="black"/>
<path d="M357.119 235.02L272.573 335.174L179.631 342.746L264.178 242.591L357.119 235.02Z" fill="black"/>
<path d="M511.617 115.196L396.041 53.3711L306.879 80.6741L422.455 142.501L511.617 115.196Z" fill="black"/>
<path d="M343.997 166.511L228.419 104.684L139.256 131.989L254.834 193.814L343.997 166.511Z" fill="black"/>
<path d="M587.116 16.2531L608.348 85.5688L597.811 88.7948L482.233 26.9625L561.548 2.67348C572.367 -0.638194 583.801 5.43279 587.116 16.2531Z" fill="black"/>
<path d="M60.7305 354.134C49.2834 354.134 39.5391 345.317 38.5906 333.714L32.7031 261.455C32.6249 260.484 33.3463 259.632 34.32 259.553L632.531 210.812C633.49 210.726 634.355 211.457 634.433 212.428L640.323 284.685C641.319 296.9 632.188 307.647 619.974 308.643L62.5518 354.061C61.9414 354.109 61.3334 354.134 60.7305 354.134ZM36.3657 262.928L42.112 333.427C42.9495 343.7 51.9851 351.375 62.2668 350.54L619.689 305.122C629.963 304.285 637.641 295.245 636.804 284.97L631.058 214.471L36.3657 262.928Z" fill="#260808"/>
<path d="M34.4639 263.07C33.7071 263.07 33.0084 262.581 32.7763 261.822L11.5445 192.503C7.95493 180.785 14.5689 168.33 26.2885 164.744L561.041 0.985955C566.716 -0.754378 572.73 -0.17679 577.977 2.60774C583.221 5.39228 587.065 10.0533 588.803 15.7283L610.035 85.0466C610.171 85.4955 610.126 85.9798 609.907 86.3909C609.687 86.8046 609.311 87.1148 608.865 87.251L34.9835 262.992C34.8094 263.045 34.6354 263.07 34.4639 263.07ZM567.571 3.53088C565.733 3.53088 563.884 3.8058 562.072 4.36069L27.3202 168.118C17.4622 171.138 11.9001 181.612 14.917 191.467L35.6318 259.098L606.136 84.3908L585.421 16.7599C583.958 11.9854 580.724 8.06583 576.315 5.72521C573.578 4.26989 570.588 3.53088 567.571 3.53088Z" fill="#260808"/>
<path d="M172.021 321.25L80.633 328.695C64.2343 330.032 49.8561 317.822 48.5191 301.422L40.5606 203.767C38.8403 182.659 63.8358 170.322 79.5459 184.53L185.804 280.609C200.994 294.345 192.433 319.585 172.021 321.25Z" fill="#260808"/>
<path d="M177.83 314.09L86.4425 321.536C70.0437 322.873 55.6654 310.663 54.3285 294.263L46.37 196.608C44.6496 175.499 69.645 163.163 85.3552 177.368L191.613 273.447C206.804 287.186 198.245 312.428 177.83 314.09Z" fill="#FFFDEE"/>
<path d="M83.9703 323.405C76.5011 323.405 69.3499 320.787 63.5936 315.899C57.1688 310.441 53.2538 302.811 52.5677 294.41L44.6092 196.754C43.7541 186.252 49.0942 176.829 58.546 172.165C67.9978 167.504 78.7236 168.995 86.5408 176.064L192.798 272.143C200.356 278.976 203.02 289.216 199.746 298.866C196.474 308.516 188.129 315.024 177.974 315.851L86.5862 323.297C85.7134 323.372 84.8405 323.405 83.9703 323.405ZM69.7938 173.028C66.5398 173.028 63.2429 173.787 60.11 175.333C51.985 179.341 47.3966 187.44 48.1306 196.469L56.0891 294.125C56.697 301.585 60.1756 308.363 65.879 313.208C71.5849 318.053 78.827 320.391 86.2986 319.778L177.686 312.333C186.417 311.621 193.588 306.027 196.401 297.731C199.213 289.436 196.925 280.636 190.427 274.762L84.1696 178.683C80.0454 174.952 74.9725 173.028 69.7938 173.028Z" fill="#260808"/>
<path d="M90.6276 213.894C96.6371 206.897 95.8354 196.353 88.8372 190.345C81.839 184.336 71.2942 185.137 65.2848 192.135C59.2754 199.132 60.077 209.676 67.0752 215.685C74.0734 221.693 84.6182 220.892 90.6276 213.894Z" fill="#E8F9FF"/>
<path d="M77.8936 221.015C73.6432 221.015 69.5744 219.525 66.2977 216.743C62.6401 213.638 60.4128 209.294 60.0218 204.512C59.6333 199.73 61.1291 195.084 64.2343 191.427C67.3395 187.77 71.6833 185.543 76.4659 185.152C86.344 184.362 95.0215 191.722 95.8287 201.594C96.2172 206.376 94.7212 211.022 91.616 214.679C88.5108 218.337 84.1671 220.564 79.3844 220.955C78.885 220.998 78.388 221.015 77.8936 221.015ZM77.939 187.618C77.5178 187.618 77.0965 187.634 76.6702 187.671C72.5611 188.004 68.8253 189.921 66.1565 193.064C63.4851 196.207 62.2012 200.202 62.5367 204.311C62.8696 208.419 64.7867 212.155 67.9298 214.823C71.0728 217.494 75.0634 218.786 79.1776 218.443C83.2868 218.11 87.0225 216.193 89.6913 213.05C92.3601 209.907 93.6466 205.912 93.3111 201.801C92.6553 193.742 85.8874 187.618 77.939 187.618Z" fill="#260808"/>
<path d="M78.6756 214.379C77.8255 214.379 76.5139 213.754 75.5982 206.028C67.8289 206.295 67.6977 204.623 67.6372 203.892C67.5792 203.16 67.4405 201.485 75.1442 200.497C74.7633 191.919 76.2566 191.798 77.0764 191.73C77.8861 191.656 79.3895 191.535 80.401 200.068C88.1552 199.798 88.3016 201.47 88.3596 202.204C88.4176 202.938 88.5537 204.611 80.85 205.599C81.2334 214.177 79.7376 214.298 78.9178 214.366C78.8446 214.374 78.7639 214.379 78.6756 214.379ZM76.7232 203.455C77.3639 203.455 77.9088 203.94 77.9769 204.585C78.1005 205.781 78.2393 206.825 78.383 207.723C78.378 206.812 78.3451 205.761 78.2745 204.563C78.2341 203.892 78.7286 203.307 79.397 203.233C81.0468 203.054 82.3712 202.832 83.3928 202.608C82.3485 202.555 81.0065 202.552 79.3467 202.638C78.6707 202.694 78.0929 202.179 78.0223 201.511C77.8987 200.313 77.76 199.268 77.6162 198.371C77.6212 199.281 77.6515 200.333 77.7221 201.533C77.7625 202.207 77.268 202.789 76.5996 202.863C74.9498 203.042 73.6256 203.264 72.604 203.486C73.6458 203.539 74.9903 203.544 76.6501 203.455C76.6778 203.455 76.7005 203.455 76.7232 203.455Z" fill="#260808"/>
<path d="M98.2399 298.355C104.249 291.358 103.448 280.814 96.4496 274.805C89.4513 268.797 78.9065 269.598 72.8971 276.596C66.8877 283.593 67.6893 294.137 74.6875 300.145C81.6857 306.154 92.2305 305.353 98.2399 298.355Z" fill="#E8F9FF"/>
<path d="M85.504 305.478C81.2536 305.478 77.1822 303.987 73.9055 301.205C70.2478 298.1 68.0205 293.757 67.6295 288.975C67.2411 284.193 68.7343 279.547 71.8421 275.89C74.9473 272.232 79.291 270.005 84.0737 269.614C93.9593 268.812 102.627 276.185 103.436 286.057C104.239 295.926 96.8628 304.61 86.9897 305.417C86.4928 305.458 85.9984 305.478 85.504 305.478ZM85.5468 272.079C85.1255 272.079 84.7043 272.094 84.278 272.129C80.1688 272.462 76.4331 274.379 73.7643 277.522C71.0929 280.664 69.809 284.659 70.1445 288.768C70.4775 292.877 72.3946 296.612 75.5376 299.281C78.6806 301.949 82.6636 303.251 86.7854 302.9C95.2711 302.209 101.613 294.743 100.921 286.259C100.263 278.203 93.4952 272.079 85.5468 272.079Z" fill="#260808"/>
<path d="M86.2836 298.842C85.4361 298.842 84.1218 298.214 83.2061 290.491C75.4343 290.751 75.3056 289.086 75.2451 288.355C75.1871 287.623 75.0483 285.951 82.7545 284.96C82.3711 276.384 83.8645 276.261 84.6843 276.193C85.4864 276.127 86.9974 275.998 88.0089 284.531C95.7782 284.264 95.9094 285.936 95.97 286.667C96.028 287.399 96.1642 289.074 88.4605 290.062C88.8439 298.64 87.3481 298.761 86.5283 298.83C86.4551 298.835 86.3719 298.842 86.2836 298.842ZM84.3311 287.916C84.9718 287.916 85.5167 288.4 85.5848 289.046C85.7084 290.241 85.8472 291.286 85.991 292.184C85.9859 291.273 85.9532 290.221 85.8826 289.023C85.8422 288.352 86.3365 287.767 87.0049 287.694C88.6547 287.515 89.9791 287.293 91.0007 287.071C89.9539 287.015 88.6144 287.01 86.9546 287.101C86.2685 287.159 85.6983 286.642 85.6302 285.971C85.5066 284.776 85.368 283.734 85.2267 282.836C85.2317 283.744 85.2645 284.796 85.3326 285.997C85.373 286.667 84.8786 287.253 84.2101 287.326C82.5604 287.505 81.2361 287.727 80.2145 287.951C81.2588 288.007 82.6007 288.009 84.258 287.921C84.2857 287.916 84.3084 287.916 84.3311 287.916Z" fill="#260808"/>
<path d="M186.694 283.814C187.443 293.005 180.597 301.066 171.405 301.815C162.211 302.564 154.151 295.719 153.402 286.528C152.653 277.337 159.499 269.276 168.691 268.529C177.886 267.775 185.945 274.621 186.694 283.814Z" fill="#E8F9FF"/>
<path d="M170.036 303.131C160.786 303.131 152.91 296.006 152.146 286.631C151.344 276.759 158.72 268.075 168.59 267.27C173.363 266.871 178.019 268.375 181.677 271.482C185.335 274.587 187.562 278.93 187.953 283.712C188.341 288.495 186.846 293.14 183.74 296.798C180.635 300.455 176.291 302.682 171.509 303.073C171.014 303.111 170.522 303.131 170.036 303.131ZM170.074 269.732C169.65 269.732 169.223 269.749 168.795 269.785C160.309 270.476 153.97 277.939 154.661 286.426C155.352 294.911 162.816 301.26 171.304 300.558C175.414 300.225 179.149 298.309 181.818 295.166C184.487 292.023 185.774 288.028 185.438 283.919C185.105 279.811 183.188 276.075 180.045 273.407C177.227 271.013 173.726 269.732 170.074 269.732Z" fill="#260808"/>
<path d="M170.8 296.497C169.95 296.497 168.636 295.871 167.723 288.146C159.978 288.416 159.825 286.746 159.764 286.009C159.706 285.278 159.567 283.606 167.274 282.612C166.89 274.034 168.386 273.913 169.206 273.845C170.036 273.779 171.519 273.663 172.53 282.183C180.302 281.901 180.431 283.588 180.491 284.319C180.549 285.053 180.688 286.726 172.982 287.714C173.365 296.292 171.872 296.414 171.052 296.482C170.972 296.492 170.888 296.497 170.8 296.497ZM168.848 285.573C169.488 285.573 170.033 286.057 170.101 286.703C170.225 287.901 170.364 288.945 170.507 289.846C170.502 288.935 170.472 287.881 170.399 286.68C170.358 286.007 170.853 285.424 171.521 285.351C173.171 285.172 174.496 284.95 175.517 284.728C174.473 284.673 173.131 284.668 171.473 284.758C170.81 284.816 170.22 284.299 170.149 283.631C170.026 282.435 169.887 281.391 169.743 280.493C169.748 281.404 169.781 282.456 169.852 283.654C169.892 284.325 169.397 284.91 168.729 284.983C167.077 285.162 165.753 285.386 164.731 285.608C165.775 285.661 167.117 285.666 168.777 285.578C168.8 285.573 168.822 285.573 168.848 285.573Z" fill="#260808"/>
<path d="M92.7867 574.017C91.8735 574.017 91.0991 573.314 91.0284 572.39C90.9704 571.634 85.0904 496.184 80.0732 434.506C79.995 433.534 80.7189 432.682 81.6901 432.604C82.6385 432.523 83.5139 433.247 83.5921 434.221C88.6068 495.904 94.4893 571.361 94.5474 572.115C94.623 573.089 93.8965 573.939 92.9254 574.015C92.8775 574.017 92.8321 574.017 92.7867 574.017Z" fill="#260808"/>
<path d="M80.6433 421.551C79.7352 421.551 78.9608 420.852 78.8851 419.929L78.1536 411.058C78.0729 410.087 78.7969 409.232 79.768 409.154C80.7266 409.078 81.5918 409.797 81.6725 410.768L82.404 419.641C82.4847 420.612 81.7608 421.465 80.7871 421.546C80.7392 421.548 80.6912 421.551 80.6433 421.551Z" fill="#260808"/>
<path d="M77.9265 388.975C77.0209 388.975 76.2466 388.278 76.1709 387.358C73.9057 360.751 73.2221 354.733 73.0178 353.651C72.9522 353.489 72.9068 353.315 72.8917 353.131C72.8109 352.16 73.5323 351.305 74.5035 351.224C76.63 351.053 76.6249 351.058 79.6872 387.06C79.7704 388.031 79.049 388.886 78.0778 388.97C78.0274 388.972 77.977 388.975 77.9265 388.975Z" fill="#260808"/>
<path d="M56.3062 353.65C56.233 353.65 56.1598 353.645 56.0867 353.637C54.9692 353.498 28.6621 350.129 23.9526 338.693C19.6139 328.155 19.455 276.82 19.4499 272.114C15.6788 260.115 -1.85259 203.565 0.160369 196.442C3.28575 185.382 13.9912 173.977 14.4453 173.495C15.1137 172.786 16.2313 172.753 16.9426 173.424C17.6514 174.095 17.6817 175.21 17.0132 175.921C16.9072 176.032 6.44894 187.183 3.56068 197.403C2.21619 202.157 14.7101 245.26 22.9032 271.314C22.9562 271.486 22.984 271.665 22.984 271.844C22.984 290.942 23.8693 329.212 27.2217 337.351C30.4808 345.266 49.4778 349.263 56.5231 350.134C57.4892 350.252 58.1779 351.135 58.0593 352.103C57.9458 352.994 57.1865 353.65 56.3062 353.65Z" fill="#260808"/>
<path d="M327.644 911.418C327.644 911.418 318 924.455 323.088 935.755C328.143 947.052 361.61 975.016 432.255 985.743C524.866 999.835 603.265 974.602 614.089 959.696C625.584 946.928 620.474 929.389 611.63 923.267C611.564 923.23 611.466 923.156 611.4 923.116C530.279 984.678 356.953 957.847 327.644 911.418Z" fill="#F08C00"/>
<path d="M523.539 815.931L523.541 815.896C523.395 809.409 520.512 802.775 512.49 797.181C496.868 786.361 448.096 797.575 431.457 812.829C419.834 823.453 414.09 848.521 429.631 868.921C403.728 872.999 374.232 859.689 378.283 835.257C349.66 835.468 313.069 873.869 327.641 911.42C356.95 957.849 530.276 984.681 611.397 923.121C611.463 923.159 611.561 923.232 611.627 923.272L611.665 923.204C617.719 898.05 612.515 864.958 590.602 839.809C574.233 821.021 549.122 812.834 523.539 815.931Z" fill="#FFEED1"/>
<path opacity="0.6" d="M476.557 905.289C493.554 946.194 533.914 953.562 533.914 953.562C533.914 953.562 490.121 968.128 465.398 956.788C440.672 945.448 476.557 905.289 476.557 905.289Z" fill="#B870B4"/>
<path d="M515.997 829.416C524.064 824.132 533.955 823.754 542.443 825.587C551.067 827.285 559.041 830.518 566.19 834.826C573.346 839.109 579.71 844.438 585.063 850.497C588.324 854.156 591.662 857.831 594.298 861.983C595.524 863.915 596.742 866.412 597.526 868.621C598.427 871.154 596.371 873.177 593.712 870.42C588.397 864.997 584.493 861.945 578.502 857.925C572.493 853.932 566.164 850.691 559.656 848.36C549.813 844.895 540.462 844.471 530.201 844.91C523.612 845.19 511.913 845.387 512.279 835.981C512.387 833.235 513.87 830.831 515.997 829.416Z" fill="white"/>
<path d="M611.655 924.954C611.519 924.954 611.38 924.936 611.239 924.903C610.29 924.674 609.707 923.72 609.935 922.772C615.244 900.766 612.603 867.717 589.265 840.956C575.396 825.048 554.25 816.339 531.245 817.083C503.167 817.979 476.507 832.282 458.103 856.327C457.51 857.101 456.405 857.25 455.628 856.654C454.854 856.064 454.705 854.954 455.3 854.18C474.35 829.293 501.989 814.485 531.132 813.557C555.201 812.783 577.356 821.928 591.929 838.638C616.15 866.413 618.884 900.738 613.37 923.599C613.176 924.409 612.452 924.954 611.655 924.954Z" fill="#260808"/>
<path d="M327.641 913.197C326.935 913.197 326.267 912.768 325.994 912.069C319.597 895.571 322.15 877.543 333.178 861.307C344.401 844.782 362.523 833.598 378.273 833.474C378.278 833.474 378.281 833.474 378.286 833.474C378.803 833.474 379.292 833.701 379.628 834.092C379.966 834.488 380.112 835.016 380.026 835.53C378.745 843.225 381.015 850.267 386.592 855.894C395.28 864.662 411.028 869.176 426.493 867.547C412.178 846.33 419.183 821.673 430.272 811.516C447.622 795.618 496.914 784.248 513.487 795.744C521.148 801.061 525.128 807.833 525.317 815.869C525.34 816.845 524.57 817.653 523.594 817.678C522.704 817.731 521.808 816.929 521.788 815.952C521.627 809.107 518.156 803.283 511.474 798.648C496.609 788.327 448.439 799.667 432.658 814.124C422.142 823.756 415.732 847.786 431.051 867.842C431.43 868.337 431.521 868.992 431.288 869.572C431.056 870.15 430.537 870.564 429.921 870.66C412.501 873.389 394.071 868.46 384.082 858.384C378.192 852.439 375.516 845.114 376.265 837.091C362.111 838.105 346.212 848.403 336.099 863.295C330.101 872.127 321.239 890.043 329.289 910.798C329.642 911.706 329.19 912.73 328.28 913.081C328.07 913.156 327.856 913.197 327.641 913.197Z" fill="#260808"/>
<path d="M487.028 991.61C469.449 991.61 450.919 990.376 431.977 987.499C360.939 976.706 326.852 948.467 321.472 936.482C316.043 924.382 325.803 910.944 326.221 910.377C326.567 909.907 327.104 909.59 327.705 909.663C328.287 909.683 328.822 909.991 329.132 910.482C340.196 928.004 374.358 943.834 418.293 951.794C475.049 962.077 559.389 960.367 610.318 921.716C610.916 921.262 611.736 921.237 612.359 921.651C617.545 925.074 621.346 931.763 622.282 939.1C623.301 947.088 620.857 954.821 615.403 960.874C605.8 974.111 553.196 991.61 487.028 991.61ZM327.695 914.629C325.379 918.604 321.265 927.389 324.695 935.041C329.612 945.998 363.587 973.541 432.507 984.008C523.145 997.782 602.13 973.16 612.666 958.657C617.54 953.237 619.669 946.502 618.783 939.549C618.049 933.79 615.204 928.355 611.408 925.321C559.467 963.903 474.739 965.616 417.667 955.27C373.965 947.352 340.701 932.272 327.695 914.629Z" fill="#260808"/>
<path d="M471.179 989.529C500.864 969.013 492.467 933.195 492.467 933.195L423.946 982.126C423.946 982.126 452.586 989.191 471.179 989.529Z" fill="#260808"/>
<path d="M197.844 948.389C197.844 948.389 190.264 962.778 196.986 973.152C203.673 983.528 240.931 1005.95 312.353 1005.53C405.985 1005.02 479.688 967.858 488.153 951.441C497.602 937.031 489.924 920.493 480.27 915.824C480.2 915.797 480.091 915.739 480.021 915.711C409.065 989.193 233.759 989.703 197.844 948.389Z" fill="#F08C00"/>
<path d="M377.145 823.479L377.143 823.446C376.028 817.057 372.184 810.951 363.418 806.673C346.358 798.415 299.838 817.103 285.68 834.773C275.784 847.084 273.857 872.753 292.273 890.492C267.285 898.563 231.501 889.051 231.849 864.273C203.595 868.947 177.823 913.555 197.846 948.392C233.761 989.706 409.068 989.196 480.023 915.711C480.094 915.739 480.202 915.797 480.273 915.825L480.301 915.752C482.518 889.949 472.42 858.058 447.001 836.622C428.007 820.603 401.964 816.429 377.145 823.479Z" fill="#FFEED1"/>
<path opacity="0.6" d="M410.768 957.724C391.501 963.825 359.675 969.137 328.963 959.005C264.879 937.864 301.584 890.332 289.98 897.884C241.044 927.142 199.675 904.442 228.283 865.1V865.098C201.499 872.722 178.668 915.023 197.844 948.386C224.749 979.339 329.881 986.815 410.768 957.724Z" fill="#B870B4"/>
<path d="M382.97 834.713C391.342 829.928 401.238 830.153 409.6 832.499C418.106 834.716 425.868 838.428 432.741 843.163C439.625 847.872 445.654 853.579 450.628 859.95C453.66 863.802 456.771 867.673 459.149 871.976C460.257 873.979 461.319 876.547 461.97 878.797C462.716 881.379 460.539 883.273 458.052 880.36C453.075 874.627 449.365 871.341 443.628 866.965C437.875 862.614 431.753 858.994 425.398 856.276C415.785 852.22 406.477 851.229 396.208 851.042C389.614 850.923 377.925 850.406 378.861 841.041C379.136 838.307 380.76 835.997 382.97 834.713Z" fill="white"/>
<path d="M480.286 917.505C480.233 917.505 480.182 917.503 480.129 917.498C479.158 917.415 478.439 916.56 478.522 915.586C480.475 893.012 472.917 860.768 445.853 837.962C429.851 824.481 407.769 819.154 385.255 823.361C357.505 828.547 333.186 846.861 318.53 873.611C318.064 874.466 316.992 874.784 316.134 874.312C315.279 873.841 314.966 872.771 315.435 871.916C330.6 844.232 355.813 825.27 384.607 819.89C408.162 815.497 431.314 821.094 448.131 835.263C476.227 858.937 484.072 892.437 482.041 915.894C481.963 916.812 481.189 917.505 480.286 917.505Z" fill="#260808"/>
<path d="M197.844 950.167C197.233 950.167 196.638 949.849 196.312 949.279C186.828 932.766 186.487 912.541 195.377 893.785C203.393 876.876 217.257 864.898 231.559 862.527C232.074 862.439 232.604 862.591 233 862.931C233.396 863.272 233.623 863.771 233.613 864.296C233.507 871.63 236.899 878.057 243.425 882.884C254.494 891.064 273.216 893.737 288.964 889.609C271.65 870.871 274.876 845.417 284.313 833.653C299.077 815.236 346.073 796.312 364.185 805.097C372.554 809.157 377.506 815.233 378.899 823.148C379.068 824.109 378.424 825.022 377.466 825.191C376.515 825.355 375.589 824.722 375.42 823.758C374.237 817.022 369.939 811.813 362.644 808.272C346.411 800.395 300.499 819.11 287.067 835.86C278.115 847.026 275.375 871.771 293.512 889.2C293.961 889.631 294.15 890.264 294.009 890.87C293.868 891.475 293.421 891.964 292.831 892.154C275.559 897.723 253.899 895.019 241.327 885.719C234.488 880.665 230.654 874.024 230.139 866.412C217.822 869.35 205.603 880.455 198.568 895.294C190.18 912.987 190.475 932.02 199.375 947.516C199.859 948.361 199.569 949.441 198.724 949.928C198.446 950.091 198.144 950.167 197.844 950.167Z" fill="#260808"/>
<path d="M310.423 1007.31C239.846 1007.31 202.546 985.025 195.5 974.117C188.321 963.001 195.957 948.206 196.285 947.581C196.557 947.066 197.064 946.715 197.645 946.65C198.212 946.587 198.797 946.804 199.181 947.245C212.807 962.916 247.661 972.967 292.417 974.134C350.334 975.625 433.907 960.931 478.747 914.491C479.269 913.952 480.074 913.803 480.75 914.113C486.362 916.678 491.112 922.661 493.15 929.728C495.388 937.492 494.142 945.545 489.637 952.403C480.132 970.856 403.584 1006.78 312.353 1007.31C311.709 1007.31 311.061 1007.31 310.423 1007.31ZM198.381 951.55C196.688 955.836 193.926 965.171 198.467 972.197C204.907 982.165 241.988 1003.78 310.461 1003.78C311.084 1003.78 311.704 1003.78 312.335 1003.78C403.972 1003.25 478.351 966.601 486.594 950.622C490.615 944.478 491.707 937.461 489.758 930.704C488.161 925.165 484.549 920.272 480.371 917.881C434.528 964.406 350.604 979.166 292.326 977.663C248.473 976.518 213.738 966.812 198.381 951.55Z" fill="#260808"/>
<path d="M102.236 670.062C104.201 839.457 300.754 807.98 286.956 681.097L102.236 670.062Z" fill="#FFAC00"/>
<path d="M195.624 788.524C181.389 788.524 167.279 785.288 154.646 778.712C120.315 760.852 101.076 722.275 100.47 670.083C100.458 669.107 101.24 668.309 102.213 668.297C103.22 668.357 103.986 669.071 103.999 670.042C104.587 720.868 123.152 758.35 156.273 775.582C184.381 790.203 220.135 787.628 247.348 769.027C275.38 749.863 289.176 717.884 285.195 681.284C285.089 680.315 285.791 679.445 286.759 679.337C287.728 679.253 288.598 679.929 288.704 680.903C292.828 718.837 278.48 752.017 249.338 771.94C233.28 782.924 214.343 788.524 195.624 788.524Z" fill="#260808"/>
<path d="M287.006 686.475C308.947 690.041 324.43 673.321 327.904 663.873C361.314 662.365 383.003 645.933 376.444 617.046C374.845 610.097 371.442 604.197 366.753 599.453C373.677 573.964 363.395 552.636 344.502 543.853C385.591 520.444 355.621 476.702 305.07 493.621C297.071 495.686 289.496 499.122 282.461 503.472L281.745 502.211C267.54 470.671 228.356 472.048 220.286 497.583C209.884 530.405 227.76 535.293 203.269 578.993C185.16 611.255 208.042 633.19 208.042 633.19L287.006 686.475Z" fill="#FFAC00"/>
<path d="M211.152 638.491C210.766 638.491 210.38 638.365 210.055 638.107C209.76 637.87 180.855 614.24 201.728 578.109C216.157 552.38 215.64 540.515 215.09 527.952C214.717 519.371 214.328 510.493 218.584 497.042C222.299 485.296 232.646 477.528 245.587 476.768C261.315 475.871 276.162 485.548 283.346 501.494C283.747 502.384 283.351 503.428 282.461 503.829C281.57 504.228 280.526 503.832 280.125 502.944C272.144 485.231 257.188 479.641 245.794 480.295C234.349 480.965 225.213 487.791 221.951 498.106C217.885 510.965 218.258 519.525 218.619 527.801C219.189 540.878 219.729 553.23 204.798 579.859C185.461 613.329 211.155 634.463 212.257 635.348C213.017 635.956 213.143 637.068 212.532 637.827C212.184 638.261 211.669 638.491 211.152 638.491Z" fill="#260808"/>
<path d="M227.094 577.196C226.951 577.196 226.807 577.179 226.663 577.143C225.717 576.906 225.145 575.945 225.382 575C230.333 555.314 260.169 503.447 304.623 491.92C334.192 482.008 356.627 492.23 363.446 507.472C368.208 518.118 365.961 533.675 345.375 545.401C344.527 545.883 343.447 545.588 342.966 544.74C342.484 543.893 342.779 542.813 343.626 542.332C359.135 533.499 365.491 520.694 360.222 508.912C354.206 495.461 333.024 486.121 305.63 495.302C262.5 506.491 233.61 556.774 228.807 575.862C228.603 576.662 227.884 577.196 227.094 577.196Z" fill="#260808"/>
<path d="M366.74 601.224C366.586 601.224 366.432 601.204 366.276 601.163C365.335 600.906 364.78 599.937 365.035 598.997C369.563 582.34 366.652 566.452 357.051 555.413C347.751 544.718 333.244 539.745 317.251 541.77C281.813 546.257 272.371 574.105 271.985 575.29C271.685 576.216 270.699 576.715 269.763 576.425C268.834 576.125 268.327 575.131 268.625 574.203C268.726 573.893 279.078 543.044 316.81 538.267C333.996 536.087 349.635 541.497 359.72 553.095C370.108 565.04 373.289 582.11 368.445 599.922C368.228 600.707 367.517 601.224 366.74 601.224Z" fill="#260808"/>
<path d="M293.025 688.734C286.101 688.734 278.997 686.855 271.995 683.122C271.135 682.661 270.807 681.594 271.266 680.734C271.723 679.868 272.79 679.546 273.655 680.005C284.519 685.796 295.126 686.784 305.186 682.961C316.961 678.479 324.236 668.723 326.254 663.262C326.501 662.594 327.122 662.142 327.831 662.11C347.319 661.234 362.278 655.209 369.951 645.14C375.609 637.717 377.214 628.4 374.724 617.449C372.111 605.962 364.165 596.92 352.352 591.982C337.023 585.578 317.963 587.517 302.598 597.054C301.771 597.566 300.681 597.316 300.166 596.484C299.652 595.657 299.907 594.567 300.736 594.052C317.057 583.931 337.356 581.89 353.714 588.723C366.609 594.115 375.294 604.035 378.167 616.664C380.902 628.683 379.083 638.983 372.761 647.279C364.596 657.993 349.131 664.47 329.127 665.58C325.944 672.922 317.413 682.083 306.442 686.26C302.101 687.912 297.604 688.734 293.025 688.734Z" fill="#260808"/>
<path d="M326.05 669.414C325.765 669.414 325.475 669.346 325.21 669.2C324.352 668.733 324.034 667.664 324.501 666.806C330.752 655.292 330.878 644.555 330.878 644.447C330.883 643.476 331.673 642.691 332.644 642.691H332.651C333.625 642.694 334.412 643.483 334.409 644.459C334.409 644.934 334.301 656.158 327.604 668.491C327.281 669.079 326.675 669.414 326.05 669.414Z" fill="#260808"/>
<path d="M504.527 476.59C520.637 476.59 533.697 455.534 533.697 429.561C533.697 403.587 520.637 382.531 504.527 382.531C488.417 382.531 475.357 403.587 475.357 429.561C475.357 455.534 488.417 476.59 504.527 476.59Z" fill="#FFFDEE"/>
<path d="M493.867 390.879C490.968 390.879 488.209 391.91 485.664 393.724C479.365 402.35 475.357 415.193 475.357 429.562C475.357 449.493 483.058 466.485 493.915 473.333C506.371 473.285 516.461 454.847 516.461 432.107C516.458 409.337 506.343 390.879 493.867 390.879Z" fill="#260808"/>
<path d="M504.524 478.355C487.467 478.355 473.588 456.465 473.588 429.561C473.588 402.656 487.467 380.766 504.524 380.766C521.584 380.766 535.463 402.656 535.463 429.561C535.463 456.465 521.584 478.355 504.524 478.355ZM504.524 384.299C489.414 384.299 477.12 404.603 477.12 429.561C477.12 454.518 489.412 474.822 504.524 474.822C519.637 474.822 531.929 454.518 531.929 429.561C531.929 404.603 519.637 384.299 504.524 384.299Z" fill="#260808"/>
<path d="M451.05 476.59C467.16 476.59 480.22 455.534 480.22 429.561C480.22 403.587 467.16 382.531 451.05 382.531C434.94 382.531 421.88 403.587 421.88 429.561C421.88 455.534 434.94 476.59 451.05 476.59Z" fill="#FFFDEE"/>
<path d="M440.39 390.875C437.491 390.875 434.732 391.907 432.187 393.72C425.888 402.346 421.88 415.189 421.88 429.558C421.88 449.489 429.581 466.481 440.438 473.329C452.894 473.281 462.984 454.844 462.984 432.103C462.981 409.333 452.866 390.875 440.39 390.875Z" fill="#260808"/>
<path d="M451.05 478.355C433.99 478.355 420.111 456.465 420.111 429.561C420.111 402.656 433.99 380.766 451.05 380.766C468.107 380.766 481.986 402.656 481.986 429.561C481.986 456.465 468.107 478.355 451.05 478.355ZM451.05 384.299C435.938 384.299 423.645 404.603 423.645 429.561C423.645 454.518 435.938 474.822 451.05 474.822C466.16 474.822 478.454 454.518 478.454 429.561C478.454 404.603 466.16 384.299 451.05 384.299Z" fill="#260808"/>
<path d="M461.266 387.267C460.54 387.267 459.859 386.815 459.601 386.091C459.276 385.173 459.755 384.162 460.673 383.837C473.44 379.304 473.586 364.173 473.586 364.019C473.586 363.043 474.375 362.254 475.352 362.254C476.328 362.254 477.117 363.043 477.117 364.019C477.117 364.196 476.943 381.806 461.854 387.163C461.662 387.234 461.463 387.267 461.266 387.267Z" fill="#260808"/>
<path d="M454.12 384.555C453.552 384.555 452.997 384.282 452.654 383.778C452.109 382.971 452.321 381.874 453.128 381.326C460.958 376.035 458.912 363.431 458.892 363.305C458.728 362.344 459.374 361.431 460.335 361.267C461.311 361.106 462.209 361.749 462.373 362.71C462.477 363.32 464.8 377.694 455.106 384.249C454.803 384.456 454.46 384.555 454.12 384.555Z" fill="#260808"/>
<path d="M514.745 387.267C514.019 387.267 513.338 386.815 513.081 386.091C512.755 385.173 513.235 384.162 514.153 383.837C526.919 379.304 527.065 364.173 527.065 364.019C527.065 363.043 527.855 362.254 528.831 362.254C529.807 362.254 530.597 363.043 530.597 364.019C530.597 364.196 530.423 381.806 515.336 387.163C515.139 387.234 514.94 387.267 514.745 387.267Z" fill="#260808"/>
<path d="M507.597 384.553C507.029 384.553 506.474 384.28 506.131 383.776C505.586 382.969 505.798 381.872 506.605 381.324C514.407 376.053 512.392 363.429 512.369 363.301C512.21 362.34 512.856 361.429 513.817 361.265C514.786 361.111 515.689 361.747 515.853 362.708C515.956 363.318 518.28 377.692 508.586 384.248C508.28 384.454 507.937 384.553 507.597 384.553Z" fill="#260808"/>
<path d="M455.204 496.755C452.687 496.755 449.559 496.069 445.732 494.155C444.859 493.719 444.506 492.659 444.943 491.787C445.379 490.917 446.441 490.563 447.311 490.997C452.374 493.527 456.544 493.91 459.361 492.11C462.358 490.193 463.317 486.218 463.231 483.395C463.201 482.419 463.965 481.604 464.941 481.574C465.97 481.599 466.732 482.311 466.762 483.284C466.883 487.211 465.504 492.372 461.266 495.083C459.858 495.986 457.873 496.755 455.204 496.755Z" fill="#260808"/>
<path d="M480.641 506.392C472.791 506.392 465.234 501.953 459.604 493.935C459.044 493.138 459.235 492.036 460.032 491.476C460.83 490.916 461.929 491.107 462.492 491.904C467.928 499.648 475.284 503.59 482.647 502.742C489.939 501.897 496.235 496.545 499.487 488.426C499.85 487.521 500.879 487.082 501.782 487.443C502.688 487.806 503.127 488.832 502.766 489.738C499.025 499.078 491.655 505.249 483.053 506.248C482.248 506.344 481.443 506.392 480.641 506.392Z" fill="#260808"/>
<path d="M160.327 223.447C160.831 223.278 180.731 227.159 180.731 227.159L151.584 236.058L142.162 228.738L160.327 223.447Z" fill="#260808"/>
<path opacity="0.6" d="M311.038 500.32C313.271 498.386 315.788 497.026 318.349 496.035C320.914 494.999 323.542 494.441 326.171 494.091C329.914 493.589 333.938 493.485 337.444 495.006C339.159 495.75 342.857 497.743 341.001 500.694C339.331 503.345 335.277 502.822 333.027 502.56C326.019 501.748 318.873 501.786 311.803 502.956C310.587 503.16 310.022 501.206 311.038 500.32Z" fill="white"/>
<path opacity="0.6" d="M729.551 737.344C732.399 738.126 734.927 739.468 737.172 741.049C739.457 742.608 741.382 744.487 743.13 746.477C745.625 749.315 747.943 752.601 748.621 756.362C748.954 758.201 749.348 762.382 745.862 762.476C742.729 762.559 740.915 758.897 739.886 756.879C736.675 750.599 732.679 744.674 727.783 739.443C726.938 738.542 728.252 736.991 729.551 737.344Z" fill="white"/>
<path d="M185.912 661.945C185.176 661.945 184.487 661.478 184.237 660.742C183.927 659.818 184.424 658.815 185.347 658.504C199.163 653.851 206.007 638.243 206.274 633.098C206.324 632.124 207.114 631.423 208.13 631.426C209.104 631.476 209.853 632.309 209.803 633.28C209.49 639.282 202.089 656.592 186.475 661.849C186.288 661.914 186.099 661.945 185.912 661.945Z" fill="#260808"/>
</svg>
