<svg width="886" height="980" viewBox="0 0 886 980" fill="none" xmlns="http://www.w3.org/2000/svg">
<path d="M18.7888 529.761C32.9779 559.637 100.097 714.711 107.276 727.163C109.092 730.316 111.438 734.601 112.83 735.315C123.992 741.03 165.662 738.48 214.709 724.474C263.754 710.471 300.489 690.633 306.949 679.886C307.754 678.547 307.481 673.666 307.36 670.032C306.879 655.665 281.979 488.538 278.248 455.676L18.7888 529.761Z" fill="white"/>
<path d="M166.829 494.495L221.984 478.746L267.265 705.058C256.176 710.135 246.765 714.221 232.356 718.927L166.829 494.495Z" fill="#FF5B45"/>
<path d="M249.663 463.649L278.082 455.535C281.812 488.397 306.712 655.525 307.194 669.891C307.315 673.526 307.587 678.406 306.783 679.746C305.042 682.644 301.085 686.205 295.295 690.13L249.663 463.649Z" fill="#FF5B45"/>
<path d="M47.0435 521.508L127.905 737.93C120.915 737.652 115.673 736.719 112.664 735.178C111.271 734.464 108.925 730.179 107.109 727.026C99.9303 714.571 32.8116 559.5 18.6226 529.622L47.0435 521.508Z" fill="#FF5B45"/>
<path d="M196.565 729.151C181.841 732.76 170.489 734.604 158.392 736.147L77.3236 520.053L132.478 504.305L196.565 729.151Z" fill="#FF5B45"/>
<path d="M132.591 739.767C122.882 739.767 115.706 738.718 111.862 736.75C110.252 735.925 108.623 733.219 106.128 728.858L105.583 727.907C101.489 720.805 78.5773 668.877 56.4196 618.66C39.3398 579.951 23.2109 543.392 17.0333 530.382C16.6145 529.502 16.9876 528.447 17.8705 528.031C18.7408 527.608 19.803 527.981 20.2243 528.869C26.422 541.921 42.5635 578.503 59.6534 617.232C81.7732 667.366 104.645 719.206 108.645 726.144L109.195 727.105C110.388 729.189 112.608 733.068 113.494 733.618C124.181 739.091 165.681 736.455 214.06 722.641C262.445 708.827 299.076 689.148 305.272 678.843C305.721 677.929 305.559 673.488 305.473 671.102L305.433 669.957C305.163 661.946 297.202 605.807 289.504 551.516C283.566 509.639 277.958 470.088 276.329 455.739C276.218 454.771 276.914 453.896 277.882 453.787C278.866 453.646 279.726 454.372 279.835 455.341C281.459 469.639 287.064 509.17 293 551.021C300.711 605.403 308.687 661.638 308.96 669.838L309.002 670.973C309.182 675.97 309.227 679.117 308.296 680.664C301.614 691.784 264.899 711.798 215.029 726.036C181.745 735.54 152.078 739.767 132.591 739.767Z" fill="#260808"/>
<path d="M13.0653 528.367C16.8163 541.498 79.8736 535.005 153.909 513.864C227.944 492.723 284.923 464.943 281.174 451.813C277.423 438.682 214.366 445.174 140.33 466.315C66.2923 487.454 9.31437 515.236 13.0653 528.367Z" fill="#FFEED1"/>
<path d="M37.0997 537.137C22.4338 537.137 12.7677 534.668 11.123 528.922C6.35298 512.22 73.8474 483.199 139.775 464.376C175.691 454.121 210.186 446.958 236.902 444.206C265.391 441.272 280.942 443.646 283.114 451.258C287.884 467.96 220.39 496.981 154.464 515.807C111.216 528.153 65.0717 537.137 37.0997 537.137ZM15.005 527.815C17.9513 538.141 75.4997 534.156 153.357 511.925C231.211 489.694 282.181 462.694 279.232 452.368C278.099 448.393 266.491 445.217 237.315 448.221C210.827 450.95 176.581 458.063 140.883 468.255C63.0261 490.489 12.0562 517.486 15.005 527.815Z" fill="#260808"/>
<path d="M37.0014 536.945C22.5172 536.945 12.9844 534.513 11.3675 528.856C6.64285 512.31 74.0367 483.41 139.846 464.62C175.749 454.367 210.226 447.209 236.93 444.457C265.265 441.539 280.738 443.849 282.872 451.328C287.597 467.871 220.203 496.771 154.396 515.564C111.087 527.933 64.8801 536.945 37.0014 536.945ZM14.7605 527.885C17.7496 538.327 75.4265 534.443 153.425 512.171C231.423 489.898 282.456 462.741 279.477 452.301C278.311 448.228 266.629 444.954 237.288 447.973C210.786 450.702 176.523 457.82 140.815 468.017C62.8139 490.289 11.7814 517.443 14.7605 527.885Z" fill="#260808"/>
<path d="M20.7238 500.554C21.4604 499.028 22.56 497.911 23.8692 497.212C23.448 496.322 23.0569 495.399 22.729 494.425C19.4295 484.649 22.4012 474.664 29.3709 472.124C31.5982 471.312 33.9618 471.367 36.2572 472.126C36.8122 470.633 37.4982 469.173 38.3508 467.788C43.199 459.924 51.2107 457.164 57.0402 460.971C56.9216 460.683 56.8054 460.395 56.7045 460.095C54.6235 453.934 56.9769 447.467 61.9614 445.651C65.112 444.503 68.5554 445.492 71.1889 447.928C71.0552 446.097 71.33 444.304 72.0868 442.735C74.3646 438.018 80.0681 437.146 84.8255 440.785C85.9455 441.643 86.9066 442.677 87.7012 443.814C87.4136 437.849 90.2539 431.609 95.5107 427.942C102.612 422.988 111.476 424.557 115.731 431.344C115.872 430.399 116.137 429.486 116.546 428.641C118.582 424.429 123.346 423.294 127.731 425.69C127.642 425.465 127.549 425.246 127.471 425.014C125.39 418.852 127.746 412.385 132.728 410.569C136.746 409.106 141.241 411.114 143.925 415.175C145.03 413.896 146.309 412.718 147.757 411.706C154.426 407.056 162.248 407.434 166.234 412.259C167.266 410.579 168.739 409.28 170.57 408.612C175.555 406.796 181.278 410.319 183.359 416.481C183.4 416.6 183.425 416.718 183.463 416.834C185.778 415.407 188.629 414.274 191.827 413.638C197.669 412.481 203.194 413.26 206.723 415.376C206.65 413.767 206.874 412.234 207.462 410.867C209.969 405.025 217.892 404.402 225.162 409.474C228.966 412.128 231.824 415.818 233.338 419.568C237.109 413.636 242.984 411.331 247.486 414.473C252.024 417.639 253.664 425.284 251.711 432.58C254.307 431.647 257.508 432.192 260.371 434.381C265.126 438.021 267.134 444.793 264.856 449.51C264.685 449.865 264.486 450.193 264.276 450.506C264.761 459.702 214.913 481.411 151.268 499.583C87.9685 517.657 34.4159 525.555 29.4617 517.705C28.0365 517.39 26.5834 516.729 25.2111 515.678C20.4537 512.043 18.446 505.268 20.7238 500.554Z" fill="#FFDD4F"/>
<path d="M253.061 437.206C245.577 428.764 234.47 447.714 234.47 447.714C234.47 447.714 225.117 439.923 218.781 443.915C212.444 447.908 214.051 450.975 214.051 450.975C214.051 450.975 197.427 434.901 213.334 427.889C225.23 424.492 231.822 437.854 231.822 437.854C231.822 437.854 245.31 422.746 253.061 437.206Z" fill="white"/>
<path d="M25.2087 515.682C20.4538 512.043 18.446 505.271 20.7238 500.554C21.4629 499.028 22.5601 497.911 23.8693 497.212C23.448 496.322 23.0569 495.399 22.729 494.425C19.4296 484.649 22.4012 474.664 29.3709 472.124C31.5983 471.312 33.9618 471.367 36.2573 472.126C36.8122 470.633 37.4982 469.173 38.3508 467.788C43.1991 459.924 51.2107 457.164 57.0402 460.97C56.9216 460.683 56.8055 460.395 56.7046 460.095C54.6235 453.933 56.9769 447.466 61.9614 445.65C65.112 444.503 68.5554 445.492 71.1889 447.928C71.0552 446.097 71.3301 444.304 72.0868 442.735C74.3646 438.018 80.0681 437.146 84.8256 440.785C85.9456 441.643 86.9067 442.677 87.7013 443.814C87.4137 437.849 90.2539 431.609 95.5108 427.942C102.612 422.988 111.476 424.557 115.731 431.344C115.872 430.399 116.137 429.486 116.546 428.643C118.582 424.431 123.346 423.296 127.731 425.692C127.642 425.468 127.549 425.248 127.471 425.016C125.39 418.854 127.746 412.387 132.728 410.571C136.746 409.109 141.241 411.116 143.925 415.177C145.03 413.898 146.309 412.72 147.757 411.709C154.426 407.058 162.249 407.436 166.234 412.261C167.266 410.581 168.739 409.283 170.57 408.614C175.555 406.798 181.281 410.322 183.359 416.483C183.4 416.602 183.425 416.721 183.463 416.837C185.778 415.409 188.629 414.277 191.827 413.641C196.095 412.796 200.182 412.993 203.456 413.979C184.247 412.503 187.244 433.945 187.244 433.945C187.244 433.945 176.178 427.155 165.044 438.402C151.435 423.626 138.994 436.752 138.436 442.53C149.752 446.044 146.534 453.772 146.534 453.772C146.534 453.772 143.143 449.055 136.171 449.923C129.199 450.791 125.612 455.578 125.612 455.578C125.612 455.578 123.5 446.357 113.907 444.73C104.314 443.103 100.455 448.571 100.455 448.571C100.455 448.571 102.326 451.593 102.939 453.777C103.552 455.961 96.9487 451.671 89.1214 454.574C81.2941 457.475 79.5711 463.616 79.1524 468.845C70.1748 468.767 66.4238 476.646 66.4238 476.646C66.4238 476.646 73.0051 477.501 72.8311 484.319C61.9868 476.795 51.816 490.319 51.816 490.319C51.816 490.319 46.2539 485.459 38.5704 486.866C30.8869 488.273 27.0653 497.54 32.9326 506.3C29.6635 509.907 28.6545 514.144 28.4376 517.42C27.3479 517.055 26.2556 516.482 25.2087 515.682Z" fill="white"/>
<path d="M43.1261 522.443C35.7049 522.443 30.5462 521.462 28.4601 519.277C26.9441 518.856 25.4937 518.12 24.1366 517.086C18.6653 512.896 16.4709 505.297 19.1371 499.786C19.7526 498.507 20.6076 497.417 21.6519 496.575C21.4249 496.028 21.2283 495.503 21.0567 494.991C17.4571 484.329 20.9155 473.328 28.768 470.465C30.7911 469.728 32.9831 469.577 35.2054 470.023C35.6948 468.898 36.2472 467.839 36.8501 466.861C39.7686 462.124 44.0039 458.835 48.4637 457.836C50.4943 457.382 52.4821 457.397 54.3588 457.879C53.4457 451.74 56.2556 445.85 61.3536 443.992C64.0426 443.013 66.9713 443.278 69.6124 444.662C69.7965 443.707 70.0915 442.801 70.4977 441.966C71.7312 439.411 73.8704 437.658 76.5215 437.028C79.5713 436.304 82.9865 437.161 85.8975 439.386C85.9984 439.464 86.0993 439.542 86.2002 439.623C87.0957 434.384 90.0748 429.582 94.5018 426.495C98.4646 423.728 103.058 422.694 107.46 423.589C110.376 424.185 112.987 425.6 115.058 427.675C116.185 425.466 118.044 423.854 120.31 423.128C121.843 422.633 123.498 422.555 125.14 422.881C124.192 416.711 127.004 410.779 132.125 408.912C136.244 407.412 140.823 408.844 144.064 412.469C144.907 411.659 145.804 410.92 146.75 410.262C153.289 405.702 161.174 405.54 166.05 409.588C167.152 408.393 168.479 407.497 169.97 406.955C172.487 406.037 175.298 406.211 177.881 407.452C180.666 408.789 182.978 411.238 184.394 414.305C186.548 413.228 188.967 412.408 191.489 411.911C196.393 410.94 201.289 411.23 205.119 412.666C205.267 411.785 205.507 410.953 205.84 410.176C206.995 407.485 209.213 405.55 212.081 404.731C216.321 403.525 221.449 404.731 226.176 408.03C229.274 410.189 231.859 413.024 233.66 416.189C235.84 413.679 238.438 412.045 241.17 411.5C243.786 410.973 246.319 411.505 248.5 413.029C253.051 416.202 255.152 423.097 253.987 430.389C256.494 430.351 259.14 431.216 261.448 432.982C266.917 437.166 269.114 444.763 266.448 450.279C266.317 450.552 266.173 450.814 266.022 451.064C264.591 463.027 207.989 485.225 151.755 501.284C109.909 513.229 65.8867 522.44 43.1261 522.443ZM32.7233 473.297C31.7773 473.297 30.859 473.459 29.9711 473.782C23.9095 475.991 21.4072 484.998 24.3989 493.861C24.6688 494.666 25.0194 495.515 25.4634 496.456C25.8645 497.306 25.529 498.323 24.6991 498.767C23.6674 499.319 22.8629 500.177 22.3155 501.319C22.3155 501.322 22.313 501.322 22.313 501.322C20.4161 505.246 22.2348 511.181 26.2809 514.281C27.406 515.141 28.6039 515.713 29.8374 515.986C30.2991 516.087 30.7002 516.367 30.95 516.768C34.3049 522.085 78.9078 518.41 150.779 497.891C223.238 477.202 262.838 456.797 262.51 450.605C262.49 450.224 262.594 449.846 262.806 449.53C262.97 449.283 263.126 449.028 263.262 448.748C265.161 444.821 263.343 438.887 259.294 435.789C257.039 434.062 254.426 433.481 252.307 434.246C251.676 434.468 250.993 434.326 250.513 433.882C250.029 433.439 249.832 432.763 250.004 432.127C251.797 425.418 250.314 418.603 246.475 415.924C245.08 414.951 243.521 414.625 241.859 414.961C239.311 415.47 236.751 417.496 234.828 420.52C234.473 421.08 233.845 421.397 233.176 421.332C232.518 421.271 231.95 420.848 231.701 420.232C230.26 416.658 227.508 413.266 224.153 410.928C220.352 408.277 216.197 407.23 213.049 408.128C211.195 408.658 209.826 409.848 209.086 411.568C208.625 412.64 208.426 413.894 208.491 415.301C208.521 415.952 208.191 416.565 207.631 416.898C207.071 417.228 206.377 417.228 205.817 416.895C202.553 414.936 197.324 414.353 192.173 415.374C189.307 415.942 186.621 416.966 184.394 418.341C183.929 418.626 183.357 418.684 182.85 418.492C182.34 418.3 181.947 417.884 181.783 417.364L183.279 416.532L183.269 416.517L181.692 417.052C180.703 414.131 178.758 411.793 176.354 410.635C174.614 409.8 172.826 409.674 171.181 410.274C169.791 410.781 168.603 411.788 167.743 413.188C167.445 413.674 166.93 413.985 166.36 414.025C165.783 414.053 165.24 413.828 164.875 413.387C161.449 409.243 154.525 409.142 148.771 413.16C147.492 414.053 146.311 415.12 145.265 416.333C144.901 416.749 144.382 416.976 143.814 416.943C143.262 416.908 142.76 416.615 142.455 416.154C140.146 412.663 136.484 411.092 133.333 412.232C129.254 413.72 127.375 419.203 129.146 424.454L129.305 424.868C129.582 425.559 129.431 426.437 128.873 426.931C128.316 427.426 127.541 427.607 126.886 427.247C125.014 426.223 123.061 425.958 121.384 426.492C119.964 426.949 118.839 427.96 118.135 429.416C117.82 430.069 117.598 430.808 117.477 431.615C117.366 432.346 116.811 432.929 116.089 433.08C115.355 433.232 114.624 432.914 114.235 432.288C112.515 429.547 109.859 427.688 106.754 427.055C103.328 426.356 99.6856 427.186 96.5199 429.395C91.9642 432.571 89.1946 438.201 89.462 443.737C89.4998 444.521 89.0129 445.238 88.2688 445.492C87.5272 445.752 86.6997 445.477 86.2507 444.831C85.5267 443.797 84.6843 442.91 83.7485 442.193C81.6876 440.614 79.3442 439.991 77.3363 440.465C75.7143 440.851 74.448 441.903 73.6736 443.507C73.0833 444.728 72.8312 446.214 72.9472 447.803C73.0002 448.526 72.6041 449.208 71.9507 449.523C71.3025 449.836 70.5229 449.722 69.9856 449.228C67.7406 447.152 64.9658 446.436 62.5644 447.311C58.4804 448.799 56.6011 454.282 58.3745 459.533C58.4627 459.798 58.5663 460.051 58.6697 460.3C58.9624 461.017 58.7579 461.839 58.1626 462.333C57.5648 462.827 56.7198 462.87 56.0715 462.452C54.0611 461.138 51.6926 460.732 49.2332 461.286C45.6966 462.076 42.2761 464.785 39.852 468.717C39.1079 469.923 38.4545 471.277 37.9096 472.745C37.5767 473.635 36.6005 474.099 35.7 473.807C34.6859 473.464 33.6894 473.297 32.7233 473.297ZM20.7239 500.552H20.7491H20.7239Z" fill="#260808"/>
<path d="M200.298 463.105C200.162 463.105 200.026 463.089 199.887 463.057C198.938 462.832 198.353 461.879 198.577 460.93C200.273 453.79 205.461 450.71 209.835 449.654C207.55 447.149 204.896 442.922 204.74 436.687C204.619 431.766 207.997 427.514 213.145 426.104C218.465 424.651 226.456 426.26 232.276 435.191C241.626 427.801 247.325 428.527 250.503 430.555C255.324 433.625 256.242 441.035 254.66 446.766C254.398 447.706 253.434 448.259 252.488 447.999C251.55 447.739 250.998 446.768 251.257 445.827C252.678 440.685 251.537 435.401 248.606 433.532C245.279 431.415 239.727 433.428 232.967 439.194C232.563 439.537 232.028 439.678 231.509 439.587C230.989 439.494 230.538 439.171 230.28 438.71C225.402 429.978 218.508 428.298 214.081 429.506C210.469 430.495 208.191 433.277 208.274 436.596C208.491 445.416 214.699 449.295 214.961 449.457C215.65 449.878 215.97 450.713 215.736 451.487C215.496 452.257 214.82 452.766 213.96 452.733C213.591 452.718 204.23 452.418 202.013 461.743C201.819 462.56 201.095 463.105 200.298 463.105Z" fill="#260808"/>
<path d="M165.45 428.534C164.713 428.534 164.03 428.07 163.777 427.336C163.631 426.91 160.274 416.816 164.862 411.151C165.473 410.39 166.59 410.279 167.344 410.889C168.103 411.502 168.22 412.614 167.607 413.371C164.809 416.831 166.307 423.805 167.125 426.201C167.437 427.125 166.946 428.126 166.02 428.441C165.831 428.504 165.639 428.534 165.45 428.534Z" fill="#260808"/>
<path d="M145.781 458.022C145.501 458.022 145.214 457.954 144.952 457.812C144.091 457.351 143.766 456.281 144.228 455.421C144.909 454.153 145.454 450.611 143.713 447.802C142.048 445.11 138.792 443.834 134.019 443.963C133.373 443.925 132.952 443.743 132.604 443.325C132.256 442.906 132.122 442.351 132.238 441.819C132.264 441.708 134.342 430.61 127.004 427.304C126.116 426.903 125.72 425.858 126.119 424.968C126.52 424.075 127.567 423.682 128.457 424.083C135.644 427.321 136.448 435.672 136.004 440.454C142.192 440.795 145.232 443.554 146.712 445.94C149.01 449.648 148.751 454.45 147.338 457.086C147.023 457.684 146.412 458.022 145.781 458.022Z" fill="#260808"/>
<path d="M72.1699 488.961C71.9378 488.961 71.7033 488.916 71.4813 488.82C70.5833 488.439 70.1647 487.4 70.5456 486.505C71.4991 484.257 71.2064 481.778 69.7988 480.187C68.0306 478.181 64.7034 477.753 60.458 478.968C59.7088 479.178 58.899 478.875 58.4802 478.214C58.0615 477.553 58.1272 476.693 58.6444 476.106C59.1186 475.563 60.3974 472.3 59.8954 468.673C59.5196 465.944 58.233 463.85 56.0763 462.45C55.259 461.918 55.0246 460.826 55.5568 460.006C56.0865 459.192 57.1814 458.957 57.9986 459.487C61.0105 461.441 62.877 464.45 63.3941 468.188C63.727 470.582 63.4573 472.96 62.9402 474.867C68.2854 474.257 71.1281 476.36 72.4448 477.848C74.7479 480.456 75.2801 484.394 73.7969 487.884C73.5093 488.558 72.856 488.961 72.1699 488.961Z" fill="#260808"/>
<path d="M131.52 499.151C131.091 499.151 130.662 498.998 130.322 498.682C129.605 498.019 129.56 496.904 130.221 496.188C132.145 494.104 132.698 491.103 131.573 488.891C130.453 486.694 127.971 485.7 124.621 486.101C123.74 486.182 122.953 485.663 122.716 484.833C120.068 475.553 114.064 473.039 109.72 473.705C104.769 474.466 99.8875 479.589 100.147 489.32C100.172 490.296 99.4031 491.105 98.4269 491.133C97.4482 491.146 96.641 490.387 96.6132 489.413C96.2979 477.533 102.698 471.21 109.183 470.214C115.121 469.303 122.37 472.782 125.68 482.49C129.802 482.371 133.091 484.101 134.716 487.289C136.529 490.846 135.762 495.383 132.814 498.581C132.47 498.96 131.996 499.151 131.52 499.151Z" fill="#260808"/>
<path d="M85.9936 502.753C85.9104 502.753 85.8269 502.748 85.7411 502.735C84.775 502.596 84.1066 501.703 84.2403 500.737C85.0929 494.74 89.2577 489.839 94.8501 488.25C100.256 486.724 105.666 488.621 109.713 493.471C110.336 494.22 110.235 495.332 109.486 495.958C108.739 496.578 107.626 496.48 106.998 495.731C103.89 492 99.8167 490.517 95.816 491.645C91.6312 492.835 88.3847 496.687 87.7389 501.234C87.6153 502.117 86.8588 502.753 85.9936 502.753Z" fill="#260808"/>
<path d="M211.003 476.094C218.553 486.135 205.966 496.703 190.909 486.785C188.909 495.268 177.25 499.064 174.72 489.295L211.003 476.094Z" fill="#FFE166"/>
<path d="M181.283 496.849C177.252 496.849 174.167 494.195 173.012 489.739C172.767 488.793 173.335 487.829 174.278 487.585C175.224 487.33 176.185 487.905 176.432 488.851C177.197 491.797 178.791 493.29 181.346 493.315C184.343 493.282 188.193 490.624 189.191 486.379C189.325 485.819 189.724 485.358 190.258 485.146C190.793 484.931 191.401 484.992 191.883 485.312C199.904 490.596 206.806 489.532 209.83 486.316C212.143 483.852 212.055 480.427 209.593 477.155C209.008 476.376 209.164 475.269 209.944 474.684C210.728 474.093 211.831 474.257 212.416 475.034C215.889 479.652 215.884 485.03 212.401 488.737C208.667 492.712 200.807 494.432 191.87 489.438C189.958 493.744 185.778 496.801 181.384 496.851C181.349 496.849 181.316 496.849 181.283 496.849Z" fill="#260808"/>
<path d="M81.5261 513.066C79.3669 527.801 58.9573 532.838 57.4438 515.697L81.5261 513.066Z" fill="#FFE166"/>
<path d="M67.2763 528.268C67.1628 528.268 67.0518 528.266 66.9382 528.263C62.0168 528.122 56.4776 524.788 55.6855 515.849C55.5998 514.878 56.3186 514.02 57.2898 513.935C58.2332 513.849 59.1187 514.568 59.2045 515.539C59.709 521.254 62.5643 524.606 67.0392 524.735C67.1225 524.737 67.2084 524.74 67.2967 524.74C72.5082 524.74 78.6933 520.248 79.7805 512.81C79.9217 511.844 80.8347 511.18 81.7832 511.319C82.7493 511.46 83.4154 512.356 83.2741 513.322C81.9069 522.641 73.9837 528.268 67.2763 528.268Z" fill="#260808"/>
<path d="M64.8523 599.641C69.1885 534.023 2.33239 518.597 2.25167 590.196C-4.42287 691.659 58.5665 732.62 71.9484 736.759C94.0682 743.6 106.728 726.764 106.728 726.764L92.3251 695.511L64.8523 599.641Z" fill="#FFAC00"/>
<path d="M82.2424 740.145C78.9203 740.145 75.3082 739.646 71.426 738.445C63.1169 735.875 44.0165 723.436 28.1374 700.99C13.5523 680.376 -3.08349 644.402 0.49089 590.076C0.513592 567.555 7.43787 550.792 19.4879 544.196C27.5548 539.775 37.0746 540.375 45.6108 545.823C57.0074 553.095 68.5073 571.081 66.6129 599.753C66.5498 600.73 65.6798 601.448 64.7364 601.398C63.7627 601.335 63.0259 600.495 63.0915 599.521C64.885 572.385 54.2552 555.529 43.7112 548.802C36.2925 544.065 28.0818 543.515 21.1802 547.294C10.2981 553.251 4.03998 568.886 4.01475 590.194C-2.57402 690.379 59.8931 731.181 72.4677 735.068C90.6096 740.685 101.88 729.658 104.66 726.493L90.7205 696.246C90.3118 695.358 90.6978 694.312 91.5857 693.903C92.4636 693.492 93.5182 693.88 93.9293 694.768L108.333 726.023C108.603 726.611 108.529 727.305 108.141 727.824C108.03 727.973 98.6488 740.145 82.2424 740.145Z" fill="#260808"/>
<path d="M21.2157 636.537C65.7303 551.276 122.822 574.871 128.894 597.831C134.965 620.791 116.067 635.054 108.605 642.351L21.2157 636.537Z" fill="#FFAC00"/>
<path d="M108.605 644.115C108.146 644.115 107.689 643.939 107.344 643.583C106.66 642.887 106.673 641.767 107.372 641.089C108.149 640.33 109.044 639.495 110.025 638.587C118.382 630.836 132.364 617.862 127.188 598.284C124.928 589.746 114.455 580.187 98.8027 578.439C85.9455 576.987 52.7972 579.867 22.7795 637.356C22.333 638.221 21.2711 638.567 20.3983 638.102C19.5331 637.651 19.1975 636.584 19.6516 635.722C50.6733 576.303 85.6073 573.425 99.1935 574.928C116.425 576.855 128.038 587.683 130.601 597.381C136.322 619.009 120.776 633.429 112.427 641.175C111.471 642.062 110.595 642.872 109.841 643.611C109.498 643.949 109.052 644.115 108.605 644.115Z" fill="#260808"/>
<path d="M97.2463 706.188C124.575 704.662 130.077 681.672 130.077 681.672L91.0386 688.603L97.2463 706.188Z" fill="#260808"/>
<path d="M74.622 694.486C129.277 701.185 141.024 673.859 135.51 654.37C129.593 633.458 92.991 620.812 64.4363 641.418C50.5903 651.411 37.0999 668.108 37.0999 668.108L74.622 694.486Z" fill="#FFAC00"/>
<path d="M90.4987 697.287C85.6505 697.287 80.3052 696.961 74.4076 696.238C73.439 696.119 72.7503 695.241 72.8714 694.273C72.99 693.304 73.8979 692.613 74.8362 692.737C107.318 696.712 122.027 688.373 128.629 680.67C134.594 673.709 136.481 664.299 133.81 654.853C131.434 646.446 123.533 639.172 112.677 635.392C97.1051 629.974 79.4575 632.761 65.4677 642.852C51.9799 652.586 38.6083 669.053 38.4746 669.22C37.8591 669.981 36.7442 670.095 35.9925 669.482C35.2332 668.869 35.1147 667.757 35.7276 667C36.2851 666.311 49.5255 650.005 63.4043 639.99C78.3224 629.22 97.1781 626.254 113.839 632.057C125.783 636.214 134.519 644.376 137.213 653.89C140.212 664.493 138.063 675.091 131.315 682.966C125.387 689.879 113.633 697.287 90.4987 697.287Z" fill="#260808"/>
<path d="M480.429 687.689C466.639 806.67 567.105 825.062 567.105 825.062C567.105 825.062 626.472 874.417 664.814 835.569C703.156 796.722 667.059 778.663 663.918 773.568C660.778 768.473 605.969 742.169 594.444 682.402L480.429 687.689Z" fill="#FFAC00"/>
<path d="M629.32 852.133C599.196 852.135 569.877 829.534 566.328 826.706C558.906 825.115 465.332 802.594 478.673 687.485C478.784 686.516 479.644 685.848 480.631 685.936C481.599 686.049 482.293 686.925 482.18 687.893C476.62 735.856 489.563 774.461 519.606 799.539C542.372 818.544 567.173 823.281 567.42 823.329C567.718 823.382 567.998 823.513 568.23 823.707C568.81 824.189 626.797 871.566 663.555 834.333C675.219 822.517 680.935 811.553 680.542 801.751C680.08 790.222 671.37 782.701 666.166 778.211C664.349 776.645 663.04 775.515 662.415 774.496C661.976 773.813 658.987 771.712 656.096 769.679C639.957 758.336 602.162 731.777 592.708 682.74C592.524 681.782 593.152 680.856 594.108 680.672C595.069 680.49 595.992 681.113 596.176 682.072C605.361 729.709 642.336 755.693 658.127 766.791C662.637 769.961 664.662 771.414 665.422 772.645C665.762 773.197 667.079 774.335 668.476 775.54C673.743 780.088 683.551 788.55 684.073 801.61C684.507 812.428 678.45 824.272 666.07 836.813C654.936 848.092 642.056 852.133 629.32 852.133Z" fill="#260808"/>
<path d="M481.807 737.85C499.212 678.447 602.031 706.564 602.031 706.564L596.053 689.474L480.785 682.691C480.785 682.691 475.879 710.272 481.807 737.85Z" fill="#260808"/>
<path d="M636.708 841.283L637.889 841.475C665.613 838.675 681.455 797.946 663.921 773.569C687.466 767.191 719.653 777.832 730.954 819.539C730.921 819.547 730.921 819.547 730.921 819.547C731.794 850.114 700.005 895.264 657.319 918.098C602.067 947.615 525.41 957.626 474.819 934.52C464.189 913.187 462.466 882.887 478.436 852.333C491.556 831.431 514.652 818.48 540.152 816.422C541.31 813.138 543.355 809.715 546.652 806.26C559.32 792.889 596.426 779.968 615.62 790.307C632.374 799.326 639.755 820.889 636.708 841.283Z" fill="#FFEED1"/>
<path d="M560.937 828.551C552.535 823.817 542.641 824.102 534.295 826.498C525.801 828.768 518.062 832.526 511.219 837.303C504.365 842.055 498.369 847.798 493.435 854.199C490.426 858.068 487.341 861.96 484.987 866.278C483.892 868.288 482.845 870.861 482.207 873.116C481.476 875.704 483.665 877.585 486.135 874.655C491.076 868.891 494.767 865.582 500.475 861.171C506.204 856.787 512.301 853.13 518.64 850.371C528.228 846.257 537.531 845.208 547.798 844.96C554.389 844.801 566.078 844.214 565.084 834.854C564.792 832.122 563.152 829.82 560.937 828.551Z" fill="white"/>
<path opacity="0.6" d="M574.513 944.774C603.565 940.6 632.586 931.31 657.319 918.099C700.005 895.265 731.791 850.115 730.921 819.548C730.921 819.548 730.921 819.548 730.954 819.541C721.431 784.404 697.087 771.316 675.577 771.881C682.656 781.889 694.456 798.415 687.943 818.03C678.357 846.902 655.15 839.098 646.104 863.321C637.056 887.535 642.512 925.295 574.513 944.774Z" fill="#B870B4"/>
<path d="M730.954 819.539C731.94 820.023 749.323 828.596 746.644 844.042C743.647 861.211 733.562 914.009 668.802 947.262C586.614 986.772 493.652 981.085 480.331 969.362C466.684 959.707 467.471 941.94 474.817 934.522C525.408 957.628 602.067 947.617 657.317 918.1C700.003 895.266 731.789 850.116 730.918 819.549C730.918 819.549 730.921 819.549 730.954 819.539Z" fill="#F08C00"/>
<path d="M633.424 855.597C633.212 855.597 632.998 855.557 632.788 855.479C631.88 855.126 631.426 854.104 631.777 853.196C640.974 829.361 633.356 801.839 614.793 791.848C596.439 781.976 560.135 794.597 547.921 807.466C545 810.548 542.949 813.753 541.834 817C541.519 817.92 540.515 818.415 539.589 818.097C538.664 817.779 538.174 816.775 538.492 815.852C539.776 812.122 542.084 808.485 545.358 805.037C558.579 791.101 596.484 777.983 616.465 788.738C636.539 799.541 644.886 829.028 635.071 854.465C634.801 855.168 634.133 855.597 633.424 855.597Z" fill="#260808"/>
<path d="M474.834 936.295C474.183 936.295 473.561 935.935 473.253 935.317C460.966 910.692 462.313 879.366 476.86 851.521C488.91 832.327 509.413 819.231 533.177 815.476C559.961 811.243 587.996 819.423 610.124 837.921C610.87 838.547 610.971 839.661 610.346 840.408C609.718 841.155 608.602 841.25 607.858 840.63C586.515 822.79 559.494 814.886 533.73 818.962C510.972 822.561 491.359 835.066 479.92 853.274C465.968 879.997 464.628 910.122 476.411 933.735C476.847 934.608 476.492 935.67 475.621 936.104C475.367 936.235 475.097 936.295 474.834 936.295Z" fill="#260808"/>
<path d="M637.881 843.243C636.988 843.243 636.219 842.564 636.128 841.654C636.029 840.683 636.736 839.82 637.707 839.719C649.161 838.559 659.438 830.243 665.192 817.471C671.773 802.865 670.711 786.036 662.488 774.596C662.15 774.126 662.064 773.521 662.258 772.974C662.45 772.426 662.902 772.013 663.462 771.861C676.586 768.303 690.967 770.172 702.908 776.979C717.11 785.078 727.399 799.634 732.666 819.067C732.921 820.008 732.366 820.977 731.423 821.231C730.487 821.489 729.513 820.931 729.259 819.988C724.244 801.482 714.527 787.668 701.158 780.046C690.75 774.109 678.359 772.205 666.796 774.684C674.548 787.139 675.217 803.833 668.418 818.921C662.137 832.856 650.791 841.946 638.065 843.233C638 843.24 637.939 843.243 637.881 843.243Z" fill="#260808"/>
<path d="M530.602 979.281C504.474 979.281 484.962 975.78 479.173 970.69C472.672 966.102 468.631 959.128 467.945 951.173C467.345 944.244 469.504 937.392 473.578 933.288C474.1 932.758 474.892 932.614 475.566 932.927C522.535 954.369 598.621 947.475 656.487 916.545C696.761 895.013 730.038 850.617 729.155 819.596C729.138 818.986 729.44 818.408 729.95 818.07C730.462 817.735 731.108 817.689 731.668 817.944C732.472 818.317 751.353 827.327 748.384 844.344C740.249 891.015 713.745 926.17 669.609 948.835C624.494 971.315 570.018 979.281 530.602 979.281ZM475.283 936.668C472.443 940.123 470.995 945.437 471.464 950.868C472.062 957.771 475.578 963.829 481.362 967.923C494.056 979.076 593.591 982.769 668.015 945.682C711.094 923.562 736.972 889.26 744.906 843.739C746.81 832.81 737.358 825.465 732.674 822.552C731.552 854.998 698.888 897.878 658.152 919.658C598.931 951.314 523.98 958.235 475.283 936.668Z" fill="#260808"/>
<path d="M386.509 831.885C377.567 756.468 414.615 682.401 414.615 682.401C414.615 682.401 379.918 656.099 327.679 667.273C279.921 682.401 236.196 779.335 263.015 821.744C288.664 875.333 386.786 929.359 386.509 831.885Z" fill="#FFAC00"/>
<path d="M349.948 887.134C318.366 887.134 277.111 854.118 261.877 822.288C250.509 804.325 250.715 775.41 262.521 743.087C276.475 704.878 302.51 673.926 327.301 666.074C379.618 654.878 415.026 681.134 415.377 681.399C415.861 681.767 416.015 682.426 415.745 682.968C415.377 683.704 378.972 757.578 387.76 831.738C387.768 831.784 387.77 831.834 387.77 831.885C387.884 871.264 372.085 883.144 358.815 886.176C355.969 886.826 353.003 887.134 349.948 887.134ZM353.23 665.796C345.375 665.796 336.917 666.588 327.947 668.508C303.978 676.107 278.591 706.437 264.892 743.95C253.528 775.069 253.225 803.901 264.085 821.067C280.471 855.286 327.087 890.844 358.252 883.716C375.985 879.663 385.318 861.771 385.248 831.96C376.949 761.722 408.72 691.859 413.016 682.814C408.508 679.747 386.201 665.796 353.23 665.796Z" fill="#1D1D1B"/>
<path d="M300.325 684.813C357.949 667.687 400.035 711.659 394.19 739.911C409.797 693.154 417.145 675.102 417.145 675.102L312.882 667.273L300.325 684.813Z" fill="#260808"/>
<path d="M433.228 909.034C433.228 909.034 442.198 922.288 436.545 933.081C430.925 943.873 396.089 969.507 324.995 976.352C231.794 985.356 154.777 956.621 144.722 941.477C133.888 928.392 139.882 911.496 149.021 905.964C149.089 905.931 149.19 905.863 149.258 905.828C227.158 970.248 401.609 952.946 433.228 909.034Z" fill="#F08C00"/>
<path d="M242.426 805.493V805.46C242.9 799.119 246.117 792.778 254.411 787.719C270.56 777.937 318.699 791.429 334.543 807.213C345.614 818.207 350.082 843.031 333.527 862.187C359.188 867.517 389.319 856.015 386.509 831.9C415.081 833.588 449.682 873.048 433.228 909.032C401.609 952.944 227.158 970.247 149.258 905.829C149.19 905.862 149.089 905.93 149.021 905.965L148.988 905.897C144.215 880.973 151.087 848.865 174.243 825.393C191.543 807.853 217.035 801.142 242.426 805.493Z" fill="#FFEED1"/>
<path d="M270.847 829.647C265.77 821.447 256.966 816.927 248.498 815C239.964 812.894 231.37 812.453 223.071 813.336C214.774 814.191 206.753 816.335 199.342 819.561C194.839 821.498 190.261 823.42 186.116 826.068C184.187 827.301 182.03 829.049 180.383 830.719C178.496 832.633 179.505 835.337 183.079 833.963C190.188 831.297 195.016 830.177 202.147 829.067C209.281 827.987 216.386 827.725 223.268 828.366C233.653 829.387 242.305 832.954 251.421 837.688C257.274 840.727 267.795 845.85 271.438 837.171C272.505 834.633 272.177 831.826 270.847 829.647Z" fill="white"/>
<path opacity="0.6" d="M433.228 909.033C448.58 875.455 419.486 838.865 392.311 832.746L392.255 832.807C414.958 860.551 385.697 885.859 362.994 883.756C345.347 882.119 339.787 877.198 331.715 881.738C323.643 886.278 332.724 912.509 304.472 931.173C277.449 949.026 238.148 942.997 234.778 942.438C234.791 942.44 234.801 942.443 234.813 942.445L247.64 944.634C325.505 956.176 411.89 938.667 433.228 909.033Z" fill="#B870B4"/>
<path d="M148.998 907.652C148.168 907.652 147.429 907.065 147.265 906.22C142.911 883.55 147.383 850.083 172.989 824.144C188.402 808.534 211.039 800.733 235.028 802.751C264.051 805.185 290.878 821.097 308.627 846.408C309.187 847.207 308.995 848.31 308.195 848.87C307.393 849.432 306.296 849.233 305.733 848.438C288.588 823.988 262.707 808.617 234.733 806.269C211.755 804.352 190.178 811.765 175.504 826.629C150.86 851.589 146.548 883.767 150.736 905.557C150.92 906.515 150.292 907.438 149.333 907.622C149.222 907.642 149.109 907.652 148.998 907.652Z" fill="#260808"/>
<path d="M433.231 910.811C432.984 910.811 432.737 910.758 432.497 910.649C431.609 910.246 431.22 909.196 431.624 908.309C438.233 893.844 436.823 877.482 427.656 862.24C418.341 846.754 402.805 835.58 388.434 833.827C388.759 841.578 385.815 848.507 379.85 853.972C369.409 863.537 350.639 867.527 333.153 863.905C332.54 863.776 332.041 863.335 331.839 862.742C331.64 862.149 331.768 861.494 332.177 861.019C348.47 842.214 343.291 818.404 333.287 808.449C318.258 793.484 270.706 779.9 255.334 789.24C248.438 793.424 244.682 798.93 244.175 805.601C244.102 806.577 243.188 807.263 242.28 807.231C241.306 807.157 240.577 806.307 240.651 805.336C241.251 797.462 245.574 791.03 253.5 786.22C270.625 775.826 319.257 789.504 335.779 805.947C346.343 816.462 352.097 840.94 336.768 860.974C352.327 863.403 368.388 859.688 377.466 851.369C383.106 846.199 385.629 839.533 384.756 832.085C384.696 831.567 384.867 831.048 385.228 830.67C385.589 830.291 386.063 830.112 386.618 830.117C402.646 831.071 420.356 843.248 430.686 860.419C440.473 876.687 441.949 894.214 434.84 909.774C434.54 910.427 433.9 910.811 433.231 910.811Z" fill="#260808"/>
<path d="M289.713 979.81C214.399 979.81 153.132 957.342 143.244 942.453C138.224 936.412 136.166 928.732 137.564 920.974C138.855 913.793 143.002 907.407 148.385 904.307C149.026 903.939 149.82 904.004 150.393 904.476C199.675 945.232 284.348 951.054 341.884 943.669C386.204 937.971 419.818 924.644 431.795 908.012C432.136 907.543 432.61 907.212 433.256 907.278C433.833 907.288 434.368 907.576 434.691 908.057C435.08 908.635 444.168 922.31 438.112 933.903C432.136 945.354 396.662 971.232 325.177 978.117C313.117 979.282 301.246 979.81 289.713 979.81ZM149.137 908.012C145.174 910.789 142.048 915.98 141.039 921.602C139.831 928.316 141.617 934.975 146.074 940.352C155.975 955.233 233.638 983.401 324.836 974.606C394.203 967.925 429.52 942.735 434.984 932.271C438.788 924.984 435.123 916.189 433.016 912.196C419.286 928.609 385.76 941.593 342.335 947.175C284.469 954.6 199.423 948.748 149.137 908.012Z" fill="#260808"/>
<path d="M202.223 662.316C375.761 676.455 549.299 690.595 722.839 704.735C733.02 705.564 742.012 697.518 742.996 686.701C754.093 564.537 765.189 442.376 776.288 320.212C777.285 309.243 769.674 299.605 759.35 298.763C583.544 284.439 407.738 270.113 231.935 255.789C221.611 254.949 212.54 263.227 211.745 274.214C202.914 396.562 194.085 518.91 185.254 641.255C184.469 652.091 192.042 661.486 202.223 662.316Z" fill="#FFAC00"/>
<path d="M750.049 362.599C759.029 359.638 769.828 368.204 771.324 374.85C773.312 352.974 773.312 352.974 773.312 352.974C773.312 352.974 751.098 347.125 751.154 349.211C751.204 351.3 750.049 362.599 750.049 362.599Z" fill="#260808"/>
<path opacity="0.5" d="M214.805 561.531C214.959 559.649 216.624 558.237 218.503 558.39L683.314 596.264C685.196 596.418 686.608 598.083 686.455 599.962L686.432 600.239C686.278 602.121 684.613 603.533 682.734 603.379L510.858 589.376L504.539 666.906C504.385 668.788 502.723 670.2 500.841 670.047L500.564 670.024C498.682 669.87 497.27 668.208 497.423 666.326L503.742 588.796L304.883 572.593L298.564 650.124C298.411 652.005 296.748 653.418 294.867 653.264L294.589 653.241C292.707 653.087 291.295 651.423 291.449 649.543L297.768 572.013L217.925 565.508C216.044 565.354 214.631 563.69 214.785 561.81L214.805 561.531Z" fill="#CFF0FF"/>
<path d="M724.264 706.558C723.744 706.558 723.222 706.537 722.697 706.495L202.081 664.076C190.985 663.173 182.643 652.88 183.491 641.129L209.982 274.087C210.411 268.155 213.175 262.591 217.564 258.83C221.673 255.307 226.852 253.607 232.076 254.033L759.491 297.007C764.74 297.436 769.55 299.95 773.034 304.092C776.757 308.516 778.583 314.45 778.044 320.378L744.754 686.867C743.738 698.035 734.71 706.558 724.264 706.558ZM202.366 660.557L722.982 702.976C732.18 703.695 740.345 696.35 741.235 686.539L774.525 320.05C774.979 315.058 773.45 310.067 770.33 306.359C767.457 302.944 763.506 300.873 759.203 300.523L231.789 257.549C227.483 257.191 223.25 258.606 219.86 261.509C216.18 264.664 213.861 269.338 213.501 274.34L187.012 641.383C186.306 651.207 193.192 659.808 202.366 660.557Z" fill="#260808"/>
<path d="M205.971 306.876L763.393 352.294C774.656 353.212 784.532 344.825 785.45 333.564L791.338 261.304L193.127 212.562L187.239 284.822C186.321 296.083 194.708 305.958 205.971 306.876Z" fill="#FFFDEE"/>
<path d="M695.475 242.537L221.706 97.9301L217.456 85.5586L719.378 239.26L695.475 242.537Z" fill="#FFFDEE"/>
<path d="M668.373 223.687C667.752 223.497 640.641 225.843 640.641 225.843L674.407 235.011L683.074 229.114L668.373 223.687Z" fill="#260808"/>
<path d="M695.475 244.302C695.306 244.302 695.129 244.276 694.96 244.223L221.194 99.6168C220.652 99.4529 220.223 99.0367 220.039 98.502L215.789 86.1305C215.471 85.2073 215.963 84.2035 216.886 83.8857C217.812 83.5679 218.816 84.0597 219.131 84.9829L223.086 96.5019L695.992 240.846C696.925 241.131 697.45 242.117 697.167 243.051C696.93 243.812 696.229 244.302 695.475 244.302Z" fill="#260808"/>
<path d="M810.075 174.699C810.075 174.699 821.444 190.044 823.943 196.912C826.441 203.78 804.586 271.833 804.586 271.833C804.586 271.833 804.586 327.4 800.214 338.013C795.843 348.627 769.495 351.875 769.495 351.875L810.075 174.699Z" fill="#FFFDEE"/>
<path d="M217.456 85.5584L791.337 261.299L812.569 191.981C815.879 181.176 809.802 169.735 798.996 166.426L264.243 2.66806C253.437 -0.641092 241.995 5.43494 238.685 16.2401L217.456 85.5584Z" fill="#FFFDEE"/>
<path d="M193.127 212.566L187.239 284.82C186.321 296.077 194.703 305.947 205.984 306.865L288.661 313.602L204.115 213.462L193.127 212.566Z" fill="black"/>
<path d="M293.958 220.789L378.505 320.944L471.446 328.516L386.9 228.361L293.958 220.789Z" fill="black"/>
<path d="M468.682 235.012L553.229 335.164L646.173 342.738L561.626 242.583L468.682 235.012Z" fill="black"/>
<path d="M314.184 115.187L429.762 53.3594L518.923 80.665L403.347 142.492L314.184 115.187Z" fill="black"/>
<path d="M481.807 166.503L597.382 104.676L686.545 131.979L570.969 193.806L481.807 166.503Z" fill="black"/>
<path d="M238.685 16.2453L217.454 85.561L227.99 88.787L343.568 26.9547L264.254 2.66567C253.434 -0.646006 242 5.42498 238.685 16.2453Z" fill="black"/>
<path d="M765.091 354.127C764.48 354.127 763.867 354.101 763.252 354.051L205.83 308.633C193.613 307.637 184.484 296.89 185.483 284.675L191.371 212.418C191.409 211.952 191.631 211.518 191.986 211.215C192.342 210.912 192.811 210.769 193.273 210.801L791.484 259.543C791.953 259.581 792.382 259.803 792.687 260.161C792.992 260.519 793.141 260.981 793.101 261.448L787.211 333.707C786.731 339.624 783.974 344.999 779.449 348.843C775.39 352.28 770.353 354.127 765.091 354.127ZM206.115 305.112L763.537 350.53C768.496 350.931 773.352 349.38 777.156 346.146C780.965 342.913 783.283 338.393 783.689 333.417L789.433 262.916L194.741 214.461L188.997 284.96C188.16 295.235 195.838 304.275 206.115 305.112Z" fill="#260808"/>
<path d="M791.34 263.064C791.166 263.064 790.992 263.039 790.823 262.986L216.942 87.2447C216.011 86.9597 215.486 85.971 215.771 85.0378L237.003 15.717C240.592 4.00131 253.046 -2.60942 264.766 0.974653L799.518 164.732C805.193 166.47 809.855 170.314 812.637 175.558C815.422 180.802 815.998 186.815 814.26 192.49L793.027 261.81C792.891 262.257 792.581 262.633 792.167 262.852C791.91 262.993 791.625 263.064 791.34 263.064ZM219.663 84.3871L790.17 259.094L810.884 191.463C812.347 186.688 811.863 181.631 809.52 177.223C807.176 172.814 803.259 169.578 798.484 168.117L263.731 4.35947C253.868 1.33533 243.398 6.9044 240.378 16.7612L219.663 84.3871Z" fill="#260808"/>
<path d="M653.783 321.246L745.171 328.691C761.569 330.028 775.947 317.818 777.284 301.419L785.243 203.763C786.963 182.655 761.968 170.319 746.258 184.526L640 280.605C624.809 294.341 633.368 319.581 653.783 321.246Z" fill="#260808"/>
<path d="M647.971 314.086L739.359 321.531C755.758 322.868 770.136 310.658 771.473 294.258L779.431 196.603C781.152 175.495 756.156 163.158 740.446 177.366L634.188 273.445C618.998 287.181 627.559 312.423 647.971 314.086Z" fill="#FFFDEE"/>
<path d="M741.803 323.399C740.945 323.399 740.083 323.363 739.217 323.293L647.83 315.847C637.674 315.02 629.33 308.51 626.055 298.86C622.784 289.21 625.445 278.972 633.002 272.137L739.263 176.058C747.075 168.991 757.803 167.493 767.257 172.159C776.709 176.822 782.047 186.245 781.189 196.748L773.233 294.403C771.891 310.878 758.05 323.399 741.803 323.399ZM648.115 312.329L739.502 319.774C754.869 321.02 768.458 309.522 769.717 294.118L777.673 196.463C778.41 187.433 773.821 179.337 765.696 175.327C757.566 171.314 748.349 172.603 741.634 178.676L635.374 274.755C628.878 280.629 626.59 289.432 629.403 297.725C632.213 306.023 639.384 311.615 648.115 312.329Z" fill="#260808"/>
<path d="M731.231 201.697C730.482 210.888 737.328 218.949 746.52 219.698C755.712 220.447 763.774 213.601 764.523 204.41C765.272 195.219 758.426 187.158 749.234 186.412C740.04 185.66 731.981 192.506 731.231 201.697Z" fill="#E8F9FF"/>
<path d="M747.907 221.015C747.413 221.015 746.916 220.995 746.417 220.954C736.549 220.15 729.17 211.466 729.975 201.594C730.777 191.722 739.434 184.364 749.338 185.151C754.12 185.542 758.462 187.769 761.569 191.427C764.672 195.084 766.168 199.73 765.779 204.512C765.391 209.294 763.161 213.637 759.506 216.742C756.229 219.524 752.155 221.015 747.907 221.015ZM732.487 201.796C731.799 210.28 738.135 217.746 746.623 218.437C750.722 218.778 754.731 217.486 757.871 214.818C761.015 212.149 762.931 208.414 763.267 204.305C763.602 200.194 762.316 196.201 759.645 193.056C756.976 189.913 753.242 187.997 749.131 187.664C740.67 186.978 733.181 193.313 732.487 201.796Z" fill="#260808"/>
<path d="M747.126 214.375C747.04 214.375 746.956 214.37 746.878 214.362C746.058 214.297 744.565 214.173 744.946 205.595C737.24 204.601 737.376 202.931 737.436 202.197C737.494 201.464 737.641 199.789 745.395 200.061C746.402 191.554 747.895 191.66 748.717 191.723C749.537 191.788 751.03 191.912 750.649 200.49C758.356 201.481 758.219 203.153 758.159 203.885C758.103 204.619 757.982 206.289 750.2 206.021C749.29 213.749 747.976 214.375 747.126 214.375ZM742.406 202.606C743.427 202.828 744.754 203.05 746.404 203.232C747.075 203.305 747.567 203.887 747.526 204.561C747.456 205.761 747.423 206.813 747.418 207.721C747.562 206.823 747.698 205.779 747.824 204.584C747.892 203.915 748.404 203.383 749.146 203.454C750.801 203.542 752.143 203.537 753.192 203.484C752.17 203.262 750.844 203.04 749.194 202.861C748.523 202.788 748.031 202.205 748.071 201.532C748.142 200.331 748.175 199.279 748.18 198.369C748.036 199.267 747.9 200.311 747.774 201.506C747.708 202.177 747.221 202.717 746.452 202.636C744.789 202.543 743.45 202.551 742.406 202.606Z" fill="#260808"/>
<path d="M723.623 286.152C722.874 295.343 729.72 303.404 738.912 304.153C748.104 304.902 756.166 298.057 756.915 288.866C757.665 279.675 750.818 271.614 741.626 270.865C732.432 270.116 724.373 276.958 723.623 286.152Z" fill="#E8F9FF"/>
<path d="M740.3 305.47C739.805 305.47 739.308 305.45 738.809 305.409C734.026 305.018 729.685 302.791 726.577 299.134C723.472 295.477 721.976 290.831 722.365 286.049C723.172 276.179 731.837 268.835 741.727 269.606C746.51 269.997 750.851 272.224 753.959 275.882C757.064 279.539 758.56 284.185 758.171 288.967C757.783 293.749 755.553 298.092 751.898 301.197C748.621 303.979 744.55 305.47 740.3 305.47ZM724.879 286.253C724.191 294.738 730.53 302.204 739.016 302.895C743.112 303.235 747.123 301.944 750.264 299.275C753.407 296.607 755.324 292.871 755.659 288.763C755.995 284.654 754.708 280.659 752.037 277.516C749.365 274.373 745.632 272.457 741.521 272.124C733.083 271.448 725.576 277.768 724.879 286.253Z" fill="#260808"/>
<path d="M739.52 298.833C739.432 298.833 739.351 298.828 739.273 298.82C738.451 298.752 736.955 298.631 737.341 290.053C729.635 289.062 729.771 287.39 729.831 286.656C729.889 285.922 730.058 284.254 737.787 284.519C738.799 275.989 740.272 276.115 741.112 276.181C741.929 276.246 743.425 276.37 743.044 284.948C750.75 285.939 750.614 287.612 750.554 288.343C750.496 289.074 750.349 290.759 742.595 290.479C741.677 298.205 740.365 298.833 739.52 298.833ZM734.798 287.062C735.82 287.284 737.147 287.506 738.796 287.687C739.467 287.76 739.959 288.346 739.919 289.016C739.848 290.217 739.815 291.269 739.81 292.177C739.954 291.279 740.09 290.235 740.216 289.039C740.285 288.373 740.794 287.844 741.538 287.912C743.193 287.997 744.535 287.997 745.584 287.942C744.565 287.72 743.238 287.496 741.589 287.319C740.918 287.246 740.426 286.663 740.466 285.99C740.537 284.787 740.569 283.732 740.575 282.822C740.428 283.722 740.292 284.766 740.166 285.967C740.1 286.635 739.611 287.18 738.844 287.094C737.189 287.001 735.845 287.006 734.798 287.062Z" fill="#260808"/>
<path d="M666.538 298.034C673.568 292.064 674.427 281.526 668.457 274.496C662.486 267.466 651.947 266.607 644.916 272.577C637.886 278.547 637.026 289.085 642.997 296.115C648.968 303.145 659.507 304.004 666.538 298.034Z" fill="#E8F9FF"/>
<path d="M655.783 303.124C655.289 303.124 654.792 303.104 654.293 303.064C649.51 302.673 645.169 300.446 642.061 296.789C638.956 293.131 637.46 288.485 637.851 283.703C638.239 278.921 640.467 274.578 644.124 271.473C647.782 268.368 652.411 266.867 657.211 267.261C661.994 267.652 666.335 269.879 669.443 273.536C672.548 277.191 674.044 281.839 673.655 286.621C673.267 291.404 671.039 295.747 667.382 298.852C664.105 301.634 660.036 303.124 655.783 303.124ZM655.728 269.725C652.075 269.725 648.577 271.006 645.761 273.397C642.618 276.066 640.701 279.801 640.366 283.91C640.03 288.019 641.317 292.014 643.986 295.159C646.657 298.302 650.39 300.216 654.502 300.552C658.578 300.887 662.607 299.603 665.75 296.932C668.893 294.264 670.81 290.528 671.145 286.42C671.481 282.311 670.195 278.316 667.523 275.173C664.852 272.03 661.118 270.116 657.007 269.781C656.58 269.743 656.152 269.725 655.728 269.725Z" fill="#260808"/>
<path d="M655.004 296.489C654.918 296.489 654.835 296.484 654.757 296.477C653.937 296.411 652.443 296.288 652.824 287.71C645.118 286.718 645.254 285.049 645.315 284.315C645.37 283.581 645.496 281.906 653.273 282.178C654.28 273.671 655.771 273.777 656.596 273.84C657.415 273.905 658.909 274.029 658.528 282.607C666.234 283.598 666.098 285.271 666.037 286.002C665.979 286.736 665.835 288.413 658.079 288.138C657.166 295.861 655.854 296.489 655.004 296.489ZM650.284 284.718C651.306 284.94 652.633 285.165 654.282 285.344C654.953 285.417 655.445 286 655.405 286.673C655.334 287.874 655.301 288.925 655.296 289.833C655.44 288.935 655.576 287.891 655.703 286.696C655.771 286.027 656.326 285.515 657.024 285.566C658.679 285.654 660.021 285.649 661.071 285.596C660.051 285.374 658.724 285.15 657.075 284.973C656.404 284.9 655.912 284.317 655.952 283.644C656.023 282.443 656.056 281.391 656.061 280.483C655.917 281.384 655.781 282.426 655.654 283.621C655.586 284.289 655.072 284.852 654.333 284.751C652.671 284.66 651.329 284.665 650.284 284.718Z" fill="#260808"/>
<path d="M733.015 574.013C732.967 574.013 732.921 574.01 732.874 574.008C731.902 573.932 731.176 573.082 731.249 572.108C731.307 571.354 737.187 495.897 742.207 434.216C742.285 433.242 743.155 432.524 744.109 432.599C745.082 432.677 745.806 433.53 745.726 434.501C740.711 496.179 734.833 571.629 734.773 572.383C734.7 573.309 733.928 574.013 733.015 574.013Z" fill="#260808"/>
<path d="M745.16 421.541C745.11 421.541 745.062 421.539 745.012 421.534C744.038 421.453 743.317 420.601 743.397 419.63L744.129 410.756C744.207 409.783 745.072 409.067 746.033 409.142C747.005 409.223 747.728 410.075 747.648 411.046L746.916 419.92C746.841 420.845 746.069 421.541 745.16 421.541Z" fill="#260808"/>
<path d="M747.875 388.964C747.822 388.964 747.774 388.962 747.721 388.957C746.75 388.874 746.028 388.019 746.111 387.047C749.179 351.06 749.149 351.045 751.29 351.212C752.262 351.29 752.988 352.14 752.912 353.111C752.897 353.298 752.854 353.474 752.786 353.638C752.582 354.715 751.898 360.728 749.63 387.345C749.552 388.271 748.78 388.964 747.875 388.964Z" fill="#260808"/>
<path d="M769.492 353.645C768.612 353.645 767.855 352.989 767.744 352.096C767.623 351.127 768.312 350.247 769.278 350.126C776.323 349.254 795.32 345.258 798.582 337.344C801.934 329.204 802.82 290.935 802.82 271.836C802.82 271.657 802.847 271.478 802.9 271.307C811.091 245.255 823.587 202.152 822.243 197.398C819.355 187.181 808.896 176.027 808.79 175.916C808.119 175.208 808.152 174.09 808.861 173.419C809.565 172.751 810.687 172.781 811.356 173.49C811.81 173.969 822.513 185.375 825.641 196.437C827.654 203.56 810.12 260.108 806.351 272.106C806.346 276.815 806.187 328.15 801.849 338.688C797.136 350.124 770.827 353.493 769.712 353.632C769.639 353.64 769.566 353.645 769.492 353.645Z" fill="#260808"/>
<path d="M320.341 357.515C325.722 358.037 331.099 358.567 336.48 359.102C336.924 359.147 337.393 359.192 337.842 359.238C363.171 361.672 399.351 365.574 435.213 369.67C471.086 373.667 507.233 377.922 532.481 381.196C532.93 381.252 533.399 381.312 533.84 381.368C539.206 382.044 544.571 382.727 549.934 383.418C556.755 384.296 561.346 391.457 559.759 398.718C558.629 403.896 557.499 409.077 556.369 414.258C555.024 420.417 549.679 424.495 543.928 423.756C543.113 423.653 542.298 423.547 541.484 423.444C539.93 430.647 538.376 437.85 536.825 445.054C535.077 455.483 525.983 462.571 517.205 461.476C495.12 458.717 473.023 456.068 450.916 453.529C442.13 452.52 435.592 443.546 435.932 432.95C436.338 420.487 436.742 408.023 437.143 395.558C437.224 393.066 435.519 390.935 433.246 390.68C430.973 390.42 428.91 392.128 428.529 394.584C426.617 406.878 424.707 419.171 422.8 431.464C421.176 441.916 413.116 449.241 404.325 448.267C382.21 445.818 360.086 443.478 337.951 441.248C329.155 440.36 321.557 431.389 321.776 420.788C321.59 413.387 321.401 405.987 321.209 398.59C320.392 398.509 319.577 398.431 318.76 398.35C312.993 397.79 308.513 392.602 308.336 386.271C308.188 380.947 308.039 375.625 307.89 370.3C307.681 362.837 313.5 356.852 320.341 357.515Z" fill="#260808"/>
<path d="M343.253 390.102C343.178 397.909 343.102 405.712 343.023 413.519C342.973 419.529 347.574 424.639 353.563 425.239C366.702 426.558 382.725 428.243 395.86 429.638C396.541 429.711 397.212 429.719 397.858 429.673C399.414 429.568 400.882 429.149 402.214 428.475C403.836 427.656 405.228 426.46 406.265 424.972C407.234 423.62 407.902 422.026 408.19 420.281C409.582 411.738 410.977 403.193 412.375 394.65C413.22 389.489 409.471 384.614 404.219 384.054C388.373 382.359 369.638 380.394 353.782 378.81C348.79 378.311 345.385 381.176 343.997 385.439C343.518 386.864 343.271 388.44 343.253 390.102Z" fill="#14368C"/>
<path d="M344.931 384.439C351.053 397.991 359.094 412.875 365.148 426.445C375.39 427.486 385.626 428.551 395.862 429.64C396.543 429.713 397.214 429.721 397.86 429.676C390.719 413.48 383.53 397.295 376.288 381.123C369.749 380.449 363.211 379.789 356.67 379.135C350.901 378.26 346.154 379.133 344.931 384.439Z" fill="white"/>
<path d="M381.439 381.656C388.411 397.254 395.335 412.861 402.214 428.479C403.836 427.659 405.228 426.464 406.265 424.975C399.997 410.732 393.69 396.497 387.346 382.272C385.379 382.065 383.409 381.861 381.439 381.656Z" fill="white"/>
<path d="M521.493 410.207C520.123 417.867 518.754 425.527 517.386 433.187C516.324 439.084 510.876 443.059 504.9 442.31C491.788 440.668 475.79 438.739 462.671 437.175C461.992 437.094 461.334 436.951 460.708 436.764C459.202 436.312 457.843 435.576 456.665 434.618C455.229 433.455 454.087 431.972 453.345 430.282C452.647 428.741 452.286 427.033 452.328 425.258C452.543 416.581 452.757 407.905 452.969 399.226C453.095 393.985 457.666 390.047 462.913 390.67C478.742 392.549 497.449 394.807 513.267 396.797C518.249 397.422 521.051 400.989 521.622 405.473C521.833 406.979 521.781 408.578 521.493 410.207Z" fill="#FF3D40"/>
<path opacity="0.45" d="M453.996 396.796C460.118 410.348 468.16 425.234 474.214 438.801C484.455 439.843 494.694 440.907 504.93 441.997C505.611 442.07 506.282 442.078 506.928 442.032C499.787 425.837 492.598 409.652 485.356 393.48C478.817 392.806 472.279 392.145 465.738 391.492C459.967 390.614 455.222 391.487 453.996 396.796Z" fill="white"/>
<path opacity="0.45" d="M490.506 394.012C497.479 409.609 504.403 425.217 511.282 440.834C512.904 440.015 514.296 438.819 515.333 437.331C509.065 423.088 502.758 408.852 496.412 394.627C494.444 394.42 492.477 394.216 490.506 394.012Z" fill="white"/>
<path d="M427.3 474.427C426.193 474.427 425.085 474.361 423.988 474.223C418.459 473.526 408.457 470.386 403.596 457.19C403.261 456.275 403.73 455.261 404.643 454.925C405.561 454.59 406.575 455.056 406.911 455.972C410.034 464.452 416.254 469.69 424.427 470.719C432.237 471.708 440.907 468.437 444.574 463.117C445.127 462.315 446.224 462.108 447.031 462.666C447.833 463.218 448.035 464.318 447.483 465.122C443.583 470.782 435.455 474.427 427.3 474.427Z" fill="#260808"/>
<path d="M400.938 460.146C398.884 460.146 396.783 459.374 394.798 457.858C394.021 457.266 393.875 456.158 394.467 455.384C395.055 454.61 396.162 454.456 396.939 455.054C398.99 456.623 401.046 457.013 402.877 456.191C405.652 454.945 407.529 451.215 407.897 446.208C407.968 445.235 408.805 444.508 409.789 444.579C410.763 444.652 411.492 445.497 411.418 446.471C410.949 452.789 408.298 457.626 404.323 459.412C403.23 459.904 402.09 460.146 400.938 460.146Z" fill="#260808"/>
<path d="M454.73 469.677C453.557 469.677 452.576 469.528 452.475 469.513C448.825 468.941 440.571 465.997 442.839 451.098C442.988 450.135 443.878 449.472 444.852 449.618C445.816 449.764 446.479 450.665 446.333 451.628C445.402 457.75 446.386 462.163 449.175 464.398C451.716 466.431 455.192 466.252 456.173 465.992C456.541 465.717 457.023 465.584 457.512 465.664C458.474 465.821 459.129 466.726 458.973 467.69C458.706 469.339 456.501 469.677 454.73 469.677ZM455.492 467.104V467.107C455.492 467.107 455.492 467.107 455.492 467.104ZM455.492 467.099C455.492 467.102 455.492 467.099 455.492 467.099ZM455.494 467.094C455.492 467.097 455.492 467.099 455.492 467.099C455.492 467.097 455.492 467.097 455.494 467.094Z" fill="#260808"/>
<path d="M412.387 467.285C415.298 472.262 417.584 478.264 421.953 479.066C428.433 480.254 431.341 474.06 434.694 471.618C417.304 475.767 412.387 467.285 412.387 467.285Z" fill="#260808"/>
<path d="M423.547 480.981C422.939 480.981 422.303 480.923 421.635 480.802C417.276 480.005 414.837 475.472 412.476 471.089C411.948 470.113 411.418 469.126 410.864 468.181C410.861 468.176 410.859 468.171 410.859 468.171C410.372 467.328 410.657 466.249 411.497 465.759C412.339 465.27 413.414 465.555 413.906 466.385C414.118 466.725 418.61 473.639 434.283 469.901C435.1 469.701 435.942 470.115 436.295 470.879C436.649 471.644 436.412 472.549 435.73 473.046C434.948 473.616 434.124 474.504 433.248 475.442C431.034 477.823 428.092 480.981 423.547 480.981ZM417.74 473.222C419.092 475.374 420.525 477.008 422.27 477.329C425.391 477.901 427.464 476.337 429.439 474.327C424.359 474.872 420.547 474.249 417.74 473.222Z" fill="#260808"/>
<path d="M744.265 672.732C744.356 671.731 747.391 638.324 747.391 638.324L744.265 672.732Z" fill="#260808"/>
<path d="M593.707 708.477C600.954 745.573 633.739 761.675 633.739 761.675L637.765 754.522L593.707 708.477Z" fill="#260808"/>
<path d="M683.074 779.495C669.945 780.191 655.392 777.611 643.247 768.221C633.595 760.742 626.956 751.41 623.536 741.208C604.027 735.295 588.521 717.151 593.389 688.226C602.665 633.158 686.84 610.35 740.522 622.724C732.175 574.786 712.795 544.696 712.795 544.696C712.795 544.696 851.479 534.615 876.989 615.767C907.309 712.252 816.583 712.164 816.583 712.164C811.944 757.784 768.958 754.595 768.958 754.595C768.958 754.595 753.392 790.245 716.291 790.245C704.321 790.247 692.438 786.595 683.074 779.495Z" fill="#FFAC00"/>
<path d="M856.698 616.092C855.157 615.963 849.206 599.97 828.479 588.39C813.293 579.908 827.341 573.191 839.356 580.839C858.378 592.943 862.777 616.596 856.698 616.092Z" fill="white"/>
<path d="M862.696 625.341C864.833 633.745 856.239 630.724 856.461 624.433C856.685 618.14 861.044 618.839 862.696 625.341Z" fill="white"/>
<path d="M623.549 743.234C623.354 743.234 623.157 743.206 622.963 743.148C605.026 737.7 585.996 719.959 591.394 687.889C594.466 669.656 605.893 653.468 624.446 641.081C654.827 620.795 701.607 612.368 738.983 620.308C738.988 618.714 738.542 615.574 736.019 610.29C735.54 609.286 735.966 608.081 736.97 607.601C737.977 607.117 739.182 607.548 739.659 608.552C744.679 619.055 742.678 623.103 742.229 623.807C741.768 624.523 740.905 624.876 740.075 624.684C703.971 616.371 656.28 624.677 626.686 644.441C609.082 656.192 598.255 671.449 595.375 688.56C590.413 718.014 606.981 734.078 624.134 739.287C625.201 739.612 625.801 740.737 625.478 741.804C625.213 742.674 624.416 743.234 623.549 743.234Z" fill="#260808"/>
<path d="M679.18 781.627C668.398 781.627 654.31 779.317 642.008 769.808C626.512 757.837 618.077 740.505 618.859 722.254C619.752 701.456 632.468 681.671 653.745 667.973C654.681 667.373 655.927 667.638 656.533 668.578C657.135 669.514 656.865 670.763 655.927 671.366C635.767 684.345 623.725 702.956 622.89 722.423C622.163 739.347 630.029 755.454 644.475 766.612C657.385 776.588 672.548 778.02 682.966 777.488C684.081 777.4 685.027 778.283 685.087 779.397C685.145 780.51 684.293 781.458 683.178 781.519C681.906 781.589 680.569 781.627 679.18 781.627Z" fill="#260808"/>
<path d="M716.285 792.258C696.741 792.258 679.457 783.289 670.05 768.269C662.332 755.943 656.553 734.212 672.838 700.671C673.325 699.67 674.533 699.249 675.535 699.738C676.536 700.227 676.955 701.433 676.468 702.434C660.987 734.312 666.294 754.664 673.471 766.125C682.004 779.755 698.411 788.222 716.285 788.222C751.658 788.222 766.957 754.127 767.106 753.784C767.447 753.002 768.196 752.538 769.104 752.578C770.774 752.712 810.19 755.03 814.567 711.973C814.673 710.944 815.541 710.16 816.575 710.16C816.941 710.16 853.224 709.865 871.129 685.465C883.048 669.221 884.372 645.972 875.064 616.363C850.324 537.642 714.325 546.604 712.943 546.71C711.841 546.813 710.865 545.953 710.786 544.843C710.706 543.733 711.541 542.767 712.653 542.687C714.056 542.583 853.229 533.423 878.916 615.153C888.635 646.07 887.102 670.538 874.366 687.876C857.389 710.989 826.276 713.809 818.381 714.15C813.263 754.707 777.741 756.591 770.201 756.644C766.94 763.081 750.251 792.258 716.285 792.258Z" fill="#260808"/>
<path d="M767.606 756.534C767.54 756.534 767.472 756.532 767.404 756.524C741.384 753.949 729.478 742.604 728.984 742.125C728.187 741.345 728.172 740.069 728.946 739.269C729.728 738.47 731.004 738.457 731.801 739.232C731.91 739.338 743.304 750.085 767.802 752.509C768.91 752.617 769.722 753.606 769.611 754.716C769.508 755.757 768.633 756.534 767.606 756.534Z" fill="#260808"/>
<path d="M734.641 756.535C733.675 756.535 732.823 755.842 732.654 754.858C732.467 753.758 733.206 752.714 734.304 752.527C739.606 751.627 745.163 748.038 745.219 748.003C746.152 747.395 747.4 747.66 748.008 748.59C748.616 749.524 748.354 750.772 747.423 751.382C747.166 751.546 741.122 755.461 734.982 756.508C734.869 756.525 734.755 756.535 734.641 756.535Z" fill="#260808"/>
</svg>
