<svg width="35" height="32" viewBox="0 0 35 32" fill="none" xmlns="http://www.w3.org/2000/svg">
<path d="M10.8208 26.1873C12.2304 25.154 13.964 25.2441 15.2349 26.449C15.8984 27.1686 16.1156 27.9765 16.0933 28.9392C16.0063 29.8767 15.5584 30.6239 14.8491 31.2263C14.0645 31.7873 13.2356 31.881 12.2993 31.8025C11.7176 31.689 11.2607 31.4567 10.8208 31.0632C10.7252 30.979 10.7253 30.9785 10.6274 30.8923C10.0061 30.1892 9.68031 29.4493 9.69678 28.4998C9.781 27.5993 10.1543 26.8009 10.8208 26.1873ZM29.1831 25.446C30.1264 25.4564 30.9373 25.6936 31.644 26.3347C32.3336 27.072 32.5763 27.9324 32.5601 28.9177C32.5291 29.7416 32.1273 30.5222 31.5298 31.0876C30.6807 31.7138 29.8118 31.8893 28.7759 31.8025C28.1934 31.6888 27.7381 31.4572 27.2983 31.0632C27.2538 31.0263 27.2095 30.989 27.1636 30.9509C26.5646 30.4146 26.2423 29.6409 26.1899 28.8464C26.1724 27.9534 26.4253 27.1733 27.0024 26.4851C27.5805 25.8992 28.3548 25.5037 29.1831 25.446ZM13.1577 27.3279C12.7278 27.2576 12.3504 27.3474 12.0161 27.6316C11.696 27.9812 11.5536 28.2868 11.5688 28.7683C11.6452 29.218 11.8251 29.5345 12.1978 29.8025C12.5461 29.9993 12.8685 30.0134 13.2593 29.9548C13.6615 29.8233 13.9083 29.5572 14.146 29.2166C14.2723 28.8376 14.2673 28.4732 14.1411 28.0945C13.8835 27.7205 13.6017 27.4544 13.1577 27.3279ZM30.3188 27.6882C29.661 27.1591 28.932 27.2299 28.3325 27.8123C28.1065 28.1029 28.0268 28.4075 28.0376 28.7732C28.1413 29.2747 28.4023 29.5462 28.7905 29.8679C29.1811 30.0327 29.5786 30.007 29.9771 29.8767C30.3035 29.6467 30.5702 29.3774 30.6978 28.9949C30.751 28.4572 30.6581 28.1174 30.3188 27.6882ZM18.6323 22.907C19.5708 22.908 20.5093 22.908 21.4478 22.907C22.5379 22.9058 23.6282 22.9053 24.7183 22.906H28.6743C28.9458 22.9054 29.2173 22.9069 29.4888 22.908C29.5679 22.9075 29.6475 22.9065 29.729 22.906C30.198 22.9097 30.5565 22.9435 30.9048 23.2917C31.069 23.5943 31.0781 23.8269 31.02 24.1638C30.8875 24.4891 30.7109 24.6284 30.4019 24.783C30.2875 24.7901 30.1727 24.7925 30.0581 24.7927C29.9488 24.7932 29.9488 24.7932 29.8374 24.7937C29.7569 24.7937 29.6762 24.7937 29.5933 24.7937C29.5081 24.794 29.4223 24.7944 29.3345 24.7947C29.0975 24.7954 28.8605 24.7955 28.6235 24.7957C28.368 24.7959 28.1115 24.797 27.856 24.7976C27.2385 24.7991 26.6208 24.7999 26.0034 24.8005C25.7128 24.8009 25.4219 24.8011 25.1313 24.8015C24.1653 24.8028 23.1989 24.8039 22.2329 24.8044C21.9823 24.8046 21.7316 24.8043 21.481 24.8044C21.3876 24.8045 21.3875 24.8054 21.2925 24.8054C20.2825 24.806 19.2722 24.8079 18.2622 24.8103C17.2258 24.8127 16.1893 24.814 15.1528 24.8142C14.5707 24.8144 13.9879 24.8143 13.4058 24.8162C12.9103 24.8178 12.4149 24.8188 11.9194 24.8181C11.6665 24.8178 11.4126 24.8177 11.1597 24.8191C10.8856 24.8204 10.6115 24.8201 10.3374 24.8191C10.2575 24.8199 10.1776 24.8212 10.0952 24.822C9.64941 24.8182 9.3871 24.7863 9.04834 24.4871C8.84481 24.1908 8.86083 23.8739 8.8999 23.5271C8.99693 23.2791 9.07911 23.186 9.29932 23.0388C9.67096 22.8949 10.0086 22.9055 10.4038 22.908C10.4886 22.9076 10.5733 22.9073 10.6606 22.907C10.8955 22.9063 11.1308 22.9063 11.3657 22.907C11.6192 22.9075 11.873 22.9066 12.1265 22.906H15.3501C16.4441 22.9054 17.5383 22.9058 18.6323 22.907ZM2.57568 0.000732422C3.65911 -0.0080466 4.53146 0.0683881 5.354 0.843506C6.17985 1.66028 6.31153 2.76303 6.50342 3.85913C6.51365 3.91734 6.52413 3.97591 6.53467 4.03589C6.55972 4.17847 6.58488 4.32103 6.60986 4.46362C6.66462 4.46367 6.71947 4.46358 6.77588 4.46362C10.0213 4.46628 13.2668 4.47112 16.5122 4.47729C16.9019 4.47804 17.2915 4.47853 17.6812 4.47925C17.7975 4.47946 17.7978 4.47903 17.9165 4.47925C19.1726 4.48154 20.429 4.48326 21.6851 4.48413C22.974 4.48505 24.2633 4.48692 25.5522 4.48999C26.3474 4.49185 27.1428 4.49304 27.938 4.49292C28.4832 4.49292 29.0285 4.49392 29.5737 4.49585C29.8884 4.49693 30.2034 4.49751 30.5181 4.49683C30.8064 4.49621 31.095 4.49696 31.3833 4.49878C31.4871 4.4992 31.591 4.49941 31.6948 4.49878C32.6654 4.49342 33.4551 4.73622 34.1685 5.41577C34.7942 6.09484 35.006 6.81751 34.9995 7.72925C34.9688 8.2582 34.8552 8.77129 34.7476 9.28882C34.7224 9.41351 34.6964 9.53812 34.6714 9.66284C34.604 9.99728 34.5361 10.3316 34.4673 10.6658C34.3955 11.0149 34.3243 11.3643 34.2534 11.7136C34.1366 12.2884 34.0187 12.8637 33.9009 13.4382C33.7604 14.1234 33.6217 14.8092 33.4839 15.4949C33.3962 15.9313 33.3086 16.3682 33.2202 16.8044C33.1609 17.097 33.1011 17.3897 33.0425 17.6824C32.9877 17.9556 32.9324 18.2287 32.8765 18.5017C32.8468 18.6473 32.8176 18.7934 32.7886 18.9392C32.5734 19.9806 32.2487 20.8384 31.3345 21.4539C30.7037 21.8512 30.0509 21.9346 29.3198 21.9304C29.2364 21.9308 29.1529 21.931 29.0669 21.9314C28.7886 21.9324 28.5103 21.9319 28.2319 21.9314C28.0316 21.9317 27.8307 21.9318 27.6304 21.9324C27.1438 21.9336 26.657 21.9337 26.1704 21.9333C25.7747 21.9331 25.3787 21.9339 24.9829 21.9343H21.2456C20.2641 21.9336 19.2818 21.9345 18.3003 21.9363C17.2912 21.9381 16.2821 21.9387 15.2729 21.9382C14.7069 21.938 14.1407 21.9379 13.5747 21.9392H11.3921C11.1255 21.9402 10.8589 21.9395 10.5923 21.9382C10.5157 21.9389 10.4387 21.9395 10.3599 21.9402C9.44781 21.9311 8.72745 21.6416 8.07861 21.0095C7.45453 20.351 7.29008 19.6536 7.13721 18.7751C7.11841 18.6707 7.09949 18.566 7.08057 18.4617C7.03089 18.1861 6.98217 17.9094 6.93408 17.6335C6.90587 17.4717 6.87756 17.31 6.84912 17.1482C6.72295 16.4295 6.59967 15.7103 6.47705 14.991C6.42436 14.6822 6.37178 14.373 6.31885 14.0642C6.16243 13.1516 6.00606 12.2387 5.8501 11.3259C5.54779 9.55683 5.24461 7.78748 4.93701 6.01929C4.91167 5.87353 4.88613 5.72756 4.86084 5.58179C4.77756 5.10219 4.69343 4.62234 4.60693 4.14331C4.58323 4.01134 4.55961 3.87892 4.53662 3.74683C4.50615 3.57227 4.47407 3.39764 4.44189 3.22339C4.42509 3.12984 4.40843 3.03559 4.39111 2.93921C4.28459 2.57004 4.11281 2.32404 3.82373 2.07397C3.51543 1.91878 3.2808 1.91122 2.94092 1.91479C2.88065 1.9141 2.82039 1.91258 2.7583 1.91187C2.56604 1.90976 2.37342 1.90979 2.18115 1.90991C1.98918 1.90964 1.79694 1.90901 1.60498 1.90698C1.48617 1.90576 1.36735 1.90604 1.24854 1.90698C0.86424 1.90341 0.597254 1.8347 0.255371 1.65601C9.22593e-05 1.38418 -0.00718324 1.08652 0.00244141 0.728271C0.0543487 0.433156 0.185618 0.305949 0.402832 0.104248C0.570317 0.0205058 0.66604 0.0198048 0.852051 0.017334C0.945303 0.0159125 0.945538 0.0158522 1.04053 0.0144043C1.1081 0.0138585 1.17599 0.0130135 1.24561 0.0124512C1.31542 0.0118551 1.38559 0.0120888 1.45752 0.0114746C1.60585 0.0104521 1.7545 0.00912482 1.90283 0.00854492C2.12715 0.00728248 2.35139 0.0040035 2.57568 0.000732422ZM20.1382 14.9294C20.0879 14.9293 20.0376 14.9287 19.9858 14.9285C19.8175 14.9281 19.6493 14.9292 19.481 14.9304C19.3601 14.9305 19.2386 14.9305 19.1177 14.9304C18.7899 14.9304 18.462 14.9318 18.1343 14.9333C17.7915 14.9347 17.4487 14.935 17.106 14.9353C16.4572 14.936 15.8084 14.938 15.1597 14.9402C14.4209 14.9427 13.6817 14.944 12.9429 14.9451C11.4231 14.9474 9.90306 14.9509 8.3833 14.9558C8.41838 15.1975 8.45414 15.4397 8.48975 15.6814C8.49966 15.7497 8.50981 15.818 8.52002 15.8884C8.52978 15.9544 8.53926 16.0207 8.54932 16.0886C8.55822 16.1494 8.56651 16.2106 8.57568 16.2732C8.60261 16.4462 8.60364 16.4461 8.6792 16.655C10.2224 16.6602 11.7658 16.6644 13.3091 16.6667C14.0256 16.6679 14.742 16.6691 15.4585 16.6716C16.0831 16.6738 16.7079 16.676 17.3325 16.6765C17.6632 16.6768 17.994 16.6769 18.3247 16.6785C18.6361 16.68 18.9479 16.6808 19.2593 16.6804C19.3732 16.6805 19.4871 16.6805 19.6011 16.6814C19.7572 16.6825 19.9137 16.683 20.0698 16.6824C20.2008 16.6827 20.2009 16.6821 20.3345 16.6824C20.6812 16.643 20.932 16.537 21.1567 16.2673C21.2628 16.0079 21.2696 15.8249 21.2397 15.5466C21.105 15.2348 20.9509 15.1039 20.6489 14.9558C20.4065 14.9232 20.4058 14.9235 20.1382 14.9294ZM19.2681 9.03687C19.1386 9.03689 19.0089 9.03691 18.8794 9.03687C18.5272 9.03684 18.175 9.03733 17.8228 9.03784C17.4547 9.0383 17.0863 9.03775 16.7183 9.03784C16.0213 9.03807 15.3244 9.03905 14.6274 9.03979C13.8339 9.04062 13.0401 9.0404 12.2466 9.04077C10.6141 9.04154 8.98159 9.04305 7.34912 9.04468C7.44663 9.60535 7.54358 10.1662 7.64404 10.7439C9.34284 10.7507 11.0419 10.7563 12.7407 10.7595C13.5295 10.761 14.3182 10.763 15.1069 10.7664C15.7944 10.7693 16.482 10.7716 17.1694 10.7722C17.5334 10.7726 17.8973 10.773 18.2612 10.7751C18.6038 10.7772 18.947 10.7785 19.2896 10.7781C19.4152 10.7782 19.5409 10.7779 19.6665 10.7791C19.8381 10.7805 20.0096 10.7808 20.1812 10.78C20.2773 10.7803 20.3741 10.7807 20.4731 10.781C20.7647 10.7385 20.8846 10.6536 21.0923 10.449C21.272 10.1789 21.2585 9.96275 21.2163 9.65015C21.129 9.36876 20.9666 9.27534 20.7222 9.1189C20.4598 9.03148 20.2522 9.03569 19.9751 9.03589C19.9213 9.03583 19.8674 9.03595 19.812 9.03589C19.6309 9.03577 19.4491 9.03646 19.2681 9.03687Z" fill="black"/>
</svg>
