<svg width="640" height="466" viewBox="0 0 640 466" fill="none" xmlns="http://www.w3.org/2000/svg">
<path d="M18.323 464.408C18.609 465.658 20.503 465.622 20.68 464.229C20.68 464.086 20.68 463.942 20.645 463.799L20.038 461.479C19.609 459.907 17.323 460.514 17.717 462.086L18.323 464.408ZM252.158 93.9573C250.979 93.4933 249.944 95.0293 250.872 95.9573C251.016 96.1003 251.122 96.1723 251.302 96.2443C252.016 96.4943 252.766 96.8143 253.445 97.1373C254.802 97.7443 255.873 95.8513 254.624 94.9943C254.552 94.9583 254.517 94.9583 254.48 94.9223C253.694 94.6003 252.944 94.2433 252.158 93.9573ZM261.015 98.2793C259.909 97.6363 258.622 99.0293 259.516 100.1C259.622 100.244 259.694 100.315 259.836 100.386C260.551 100.779 261.229 101.171 261.944 101.565C263.158 102.279 264.408 100.601 263.337 99.6013C263.266 99.5643 263.194 99.4943 263.122 99.4583C262.409 99.0653 261.73 98.6713 261.015 98.2793ZM269.409 103.171C268.088 102.386 266.801 104.279 268.124 105.208C268.802 105.636 269.517 106.028 270.231 106.458C271.552 107.243 272.802 105.421 271.552 104.458C270.873 103.994 270.123 103.564 269.409 103.171ZM277.695 108.171C276.302 107.386 275.088 109.351 276.409 110.208C277.089 110.636 277.802 111.065 278.516 111.493C279.731 112.208 280.981 110.6 279.946 109.565C279.909 109.529 279.839 109.458 279.766 109.421L277.695 108.171ZM285.946 113.172C285.589 112.958 285.089 112.922 284.731 113.172C283.946 113.637 283.946 114.779 284.731 115.243L286.803 116.493C288.053 117.208 289.338 115.493 288.196 114.529C288.161 114.493 288.089 114.458 288.053 114.423L285.946 113.172ZM294.268 118.066C293.053 117.351 291.767 119.066 292.911 120.03C292.946 120.101 293.018 120.137 293.089 120.174L295.161 121.388C296.375 122.067 297.661 120.496 296.626 119.459C296.554 119.388 296.446 119.316 296.375 119.28L294.268 118.066ZM302.697 122.816C301.376 122.137 300.232 123.888 301.34 124.816C301.411 124.851 301.447 124.887 301.519 124.923L303.662 126.101C304.948 126.781 306.127 125.066 305.019 124.101C304.948 124.066 304.877 123.995 304.805 123.958L302.697 122.816ZM311.197 127.316C309.912 126.673 308.733 128.46 309.948 129.388C309.983 129.423 310.055 129.458 310.091 129.495C310.841 129.852 311.555 130.209 312.269 130.566C312.591 130.745 312.948 130.745 313.269 130.602C314.234 130.208 314.269 128.887 313.341 128.423C312.625 128.066 311.91 127.709 311.197 127.316ZM319.84 131.566C318.483 130.923 317.412 132.888 318.733 133.71L318.84 133.746C319.59 134.103 320.305 134.424 321.055 134.781C322.34 135.352 323.447 133.603 322.27 132.674C322.198 132.639 322.127 132.603 322.055 132.567L319.84 131.566ZM328.662 135.423C327.305 134.888 326.269 136.78 327.627 137.603L327.734 137.674C328.484 137.995 329.234 138.28 329.984 138.567C331.304 139.103 332.341 137.317 331.127 136.46C331.057 136.389 330.984 136.354 330.877 136.354C330.162 136.031 329.412 135.745 328.662 135.423ZM337.627 138.853C336.27 138.388 335.377 140.282 336.627 141.032C336.699 141.068 336.77 141.103 336.842 141.138C337.627 141.423 338.377 141.674 339.164 141.924C340.414 142.353 341.412 140.638 340.197 139.745C340.092 139.71 340.019 139.674 339.912 139.638C339.164 139.388 338.412 139.103 337.627 138.853ZM346.805 141.71C345.485 141.353 344.592 143.21 345.95 143.96C346.022 143.995 346.093 144.03 346.165 144.03C346.95 144.245 347.735 144.46 348.523 144.674C349.128 144.817 349.773 144.495 349.951 143.888C350.201 143.21 349.808 142.495 349.129 142.318C348.342 142.138 347.556 141.924 346.805 141.71ZM356.127 143.853C354.807 143.603 354.129 145.424 355.342 146.103C355.449 146.174 355.557 146.21 355.699 146.21L356.629 146.389L358.129 146.638C358.734 146.71 359.272 146.353 359.449 145.745C359.664 145.067 359.199 144.353 358.484 144.245L357.056 143.995L356.127 143.853ZM365.592 145.068C364.987 145.032 364.451 145.424 364.344 145.996C364.129 146.711 364.701 147.461 365.414 147.496L366.272 147.531L367.164 147.603L367.879 147.639C368.129 147.639 368.379 147.567 368.594 147.424C369.557 146.745 369.129 145.245 367.949 145.21L367.271 145.174L366.413 145.138L365.592 145.068ZM375.094 145.138C373.487 145.282 373.666 147.639 375.272 147.567L375.772 147.531L376.629 147.461L377.701 147.354C378.986 147.246 379.236 145.389 377.879 144.996C377.736 144.961 377.594 144.925 377.451 144.961L376.416 145.032L375.594 145.103L375.094 145.138ZM384.451 143.818C383.166 144.138 383.236 146.068 384.631 146.211C384.774 146.211 384.879 146.211 385.024 146.175L385.844 145.996L386.666 145.782L387.416 145.568C388.773 145.174 388.488 143.138 386.988 143.211C386.914 143.211 386.843 143.211 386.771 143.246L386.058 143.425L385.271 143.639L384.451 143.818ZM393.451 140.888C392.059 141.531 392.844 143.638 394.344 143.138L394.701 142.995L395.488 142.638L396.236 142.281L396.666 142.067C397.953 141.424 397.238 139.424 395.738 139.853C395.701 139.853 395.63 139.888 395.593 139.924L395.203 140.103L394.451 140.46L393.703 140.78L393.451 140.888ZM401.738 136.353C400.595 137.138 401.451 138.995 402.843 138.495C402.915 138.46 402.988 138.424 403.095 138.353L403.845 137.853L404.56 137.317L405.095 136.924C406.273 136.031 405.095 134.174 403.773 134.889L403.63 134.996L403.13 135.353L402.45 135.854L401.738 136.353ZM409.023 130.388C408.13 131.209 409.023 132.816 410.345 132.388C410.488 132.317 410.595 132.245 410.738 132.102L410.951 131.888L411.631 131.209L412.489 130.353C413.417 129.352 412.167 127.745 410.952 128.495C410.847 128.565 410.774 128.602 410.704 128.708L409.919 129.53L409.274 130.173L409.023 130.388ZM415.31 123.281C414.453 124.495 416.06 125.888 417.13 124.851C417.167 124.816 417.202 124.781 417.238 124.708L417.523 124.352L418.168 123.494L418.703 122.745C419.453 121.745 418.275 120.351 417.096 120.995C416.953 121.101 416.846 121.209 416.739 121.351L416.203 122.066L415.596 122.888L415.31 123.281ZM420.633 115.316C420.49 115.566 420.453 115.816 420.453 116.136C420.633 117.243 422.096 117.566 422.703 116.601L423.953 114.53C424.131 114.28 424.168 114.03 424.131 113.744C423.989 112.601 422.526 112.316 421.918 113.28L420.633 115.316ZM425.81 107.101C425.56 107.458 425.56 107.886 425.703 108.28C426.133 109.137 427.31 109.209 427.81 108.423L429.132 106.387C429.345 106.03 429.382 105.602 429.202 105.209C428.809 104.352 427.632 104.279 427.097 105.066L425.81 107.101ZM431.097 98.9943C430.275 100.244 431.99 101.637 433.06 100.422L433.097 100.352L434.453 98.3523C435.312 97.0653 433.488 95.7093 432.49 96.9223C432.025 97.5653 431.56 98.3153 431.097 98.9943ZM436.597 90.9933C435.81 92.0643 437.132 93.4573 438.275 92.6723C438.382 92.5653 438.49 92.4933 438.56 92.3873L439.347 91.2803L439.953 90.4223C440.775 89.2803 439.24 87.8503 438.168 88.8153C438.098 88.8863 438.025 88.9223 437.99 88.9943L437.347 89.8873L436.597 90.9933ZM442.24 83.0993C441.383 84.2793 442.953 85.7063 444.06 84.7063C444.097 84.6353 444.132 84.5993 444.203 84.5273L445.635 82.5983C446.526 81.3483 444.813 79.9553 443.776 81.0633L443.706 81.1703L442.24 83.0993ZM448.097 75.3493C447.312 76.3143 448.419 77.7783 449.632 77.1703C449.776 77.0993 449.884 76.9913 449.989 76.8493L451.489 74.9563C452.274 73.9913 451.204 72.5263 449.989 73.1343C449.811 73.2413 449.704 73.3133 449.596 73.4553L448.097 75.3493ZM454.17 67.7773C453.275 68.8843 454.705 70.3843 455.848 69.5273C455.92 69.4563 455.991 69.3843 456.026 69.3133L456.528 68.7423L457.563 67.4923C458.348 66.5623 457.491 65.2423 456.313 65.5273C456.098 65.5993 455.883 65.7423 455.741 65.9203L454.671 67.2063L454.17 67.7773ZM460.492 60.3843C459.635 61.2773 460.635 62.8123 461.849 62.3123C462.027 62.2053 462.134 62.1343 462.277 61.9913L463.884 60.2063C464.812 59.2053 463.597 57.5993 462.312 58.3853C462.242 58.4203 462.169 58.4913 462.099 58.5633L460.492 60.3843ZM467.027 53.2053C466.205 54.0983 466.992 55.4553 468.17 55.2413C468.385 55.1703 468.6 55.0623 468.777 54.8853L470.455 53.1343C471.277 52.2783 470.492 50.8843 469.312 51.1343C469.099 51.1703 468.849 51.2773 468.707 51.4553L467.027 53.2053ZM473.849 46.2763C472.992 47.0973 473.777 48.6323 474.992 48.3123C475.242 48.2773 475.385 48.1693 475.527 48.0263L477.277 46.3473C478.242 45.4543 477.207 43.7763 475.884 44.4183C475.777 44.4543 475.706 44.5253 475.599 44.5973L473.849 46.2763ZM480.992 39.6683C479.885 40.7043 481.17 42.3473 482.422 41.5973C482.492 41.5623 482.527 41.5263 482.6 41.4903L484.387 39.8833C484.565 39.7403 484.707 39.5263 484.78 39.2763C485.065 38.1333 483.743 37.3123 482.815 38.0623L480.992 39.6683ZM488.457 33.3823C487.314 34.2393 488.385 36.0613 489.707 35.4173C489.814 35.3823 489.85 35.3473 489.922 35.3113L491.85 33.8113C492.957 32.9543 491.885 31.1323 490.565 31.7753C490.493 31.8113 490.423 31.8473 490.35 31.8823L488.457 33.3823ZM496.279 27.5603C495.172 28.2753 495.886 30.0603 497.279 29.7403C497.422 29.7043 497.529 29.6333 497.634 29.5613L498.599 28.8823L499.601 28.2033C500.779 27.4173 499.921 25.5593 498.494 26.0593C498.422 26.0943 498.349 26.1303 498.279 26.1663L497.242 26.8813L496.279 27.5603ZM504.459 22.2393C503.994 22.5253 503.744 23.0963 503.922 23.6333C504.1 24.3833 504.994 24.7393 505.674 24.3473L507.459 23.2763L507.744 23.1333C508.029 22.9893 508.172 22.7763 508.314 22.4893C508.636 21.4183 507.566 20.5253 506.564 21.0253L506.279 21.2033L504.459 22.2393ZM513.066 17.5953C511.816 18.1673 512.351 20.0953 513.781 19.8813C513.887 19.8813 513.959 19.8453 514.066 19.8103L516.244 18.7743C517.529 18.2033 516.994 16.2753 515.566 16.4533C515.459 16.4883 515.351 16.5243 515.281 16.5603L513.066 17.5953ZM522.066 13.7383C520.744 14.1673 521.101 16.2393 522.636 16.0953C522.708 16.0603 522.779 16.0603 522.851 16.0243L524.566 15.4173L525.101 15.2383C526.458 14.7743 526.101 12.8103 524.673 12.8823C524.566 12.8823 524.458 12.8823 524.388 12.9183L523.781 13.1323L522.066 13.7383ZM531.424 10.8813C530.031 11.2023 530.281 13.3103 531.781 13.2373C531.851 13.2373 531.924 13.2373 531.994 13.2373L532.781 13.0233L534.316 12.7023C535.603 12.4523 535.603 10.5233 534.209 10.3093C534.066 10.3093 533.961 10.3093 533.818 10.3093L532.209 10.6653L531.424 10.8813ZM541.138 9.16632C539.746 9.27332 539.603 11.2733 541.031 11.5603C541.138 11.5603 541.211 11.5953 541.316 11.5603L542.673 11.4163L543.71 11.3453C545.03 11.3103 545.315 9.38031 543.96 8.98832C543.815 8.95332 543.71 8.91833 543.567 8.95333L542.46 9.02433L541.138 9.16632ZM550.961 8.80931C549.461 8.73831 549.174 10.9173 550.711 11.2033L550.818 11.2383L552.211 11.2743L553.211 11.3453C554.531 11.4883 555.068 9.59533 553.748 9.02433C553.639 8.98833 553.531 8.95333 553.424 8.95333L552.354 8.88233L550.961 8.80931ZM560.748 9.95333C559.176 9.63133 558.676 11.9173 560.246 12.3103L561.318 12.5243L562.568 12.8103C563.103 12.9173 563.64 12.7033 563.925 12.2033C564.282 11.5233 563.925 10.6313 563.14 10.4533L561.855 10.1673L560.748 9.95333ZM570.248 12.5603C568.926 12.0603 567.926 13.8453 569.141 14.7033C569.211 14.7383 569.284 14.7743 569.391 14.8103L570.034 15.0603L571.606 15.6673C572.999 16.2383 573.963 14.2383 572.676 13.4883L572.533 13.4163L570.89 12.8103L570.248 12.5603ZM579.213 16.5603C577.928 15.8813 576.748 17.5953 577.856 18.5603C577.928 18.5953 577.999 18.6673 578.071 18.7033L578.321 18.8473L579.926 19.7403L580.106 19.8473C581.391 20.5973 582.606 18.9193 581.569 17.9193C581.499 17.8833 581.426 17.8123 581.391 17.7763L581.141 17.6333L579.498 16.7043L579.213 16.5603ZM587.535 21.7753C586.428 20.9893 584.998 22.4183 585.892 23.5603C585.962 23.6323 586.035 23.7033 586.105 23.7393L587.677 24.9183L587.997 25.1683C589.034 26.0253 590.569 24.7033 589.747 23.4893C589.675 23.4183 589.604 23.3463 589.532 23.2753L589.139 22.9893L587.535 21.7753ZM595.142 27.9893C594.142 27.0963 592.57 28.2753 593.247 29.4903C593.319 29.5973 593.39 29.7043 593.497 29.7753L594.962 31.1683L595.212 31.4183C596.212 32.4183 597.857 31.0983 597.069 29.8833C597.034 29.8113 596.999 29.7763 596.926 29.7043L596.641 29.4183L595.142 27.9893ZM601.965 35.0253C601.071 33.9903 599.428 35.0253 599.963 36.3113C600.035 36.4183 600.07 36.4903 600.143 36.5973L600.428 36.8823L601.713 38.4183C602.57 39.4893 604.32 38.4543 603.75 37.1323C603.678 37.0253 603.643 36.9543 603.57 36.8823L602.213 35.3113L601.965 35.0253ZM608.107 42.6683C607.642 41.9893 606.607 41.9893 606.142 42.6683C605.822 43.0623 605.822 43.6333 606.142 44.0613L606.785 44.9193L607.535 46.0253C608.25 47.0963 610.107 46.3463 609.678 44.9543C609.643 44.8113 609.571 44.7393 609.535 44.6323L608.75 43.5253L608.107 42.6683ZM613.57 50.7763C612.857 49.5973 611 50.3123 611.357 51.7053C611.392 51.8123 611.392 51.8843 611.464 52.0263L612.714 54.0623C613.357 55.1693 615.107 54.6333 614.964 53.3123C614.927 53.1693 614.892 53.0273 614.82 52.8473L614.677 52.6333L613.57 50.7763ZM618.357 59.2773C617.822 58.2423 616.32 58.4553 616.107 59.5983C616.035 59.8483 616.072 60.1333 616.214 60.3483L616.821 61.5993L617.284 62.4923C617.964 63.8493 620.034 62.9923 619.499 61.5633L619.464 61.4203L618.999 60.4923L618.357 59.2773ZM622.572 68.0623C622 66.7423 620 67.3483 620.285 68.7773C620.322 68.8843 620.322 68.9573 620.357 69.0273L620.714 69.7773L621.321 71.2073C621.964 72.6353 624.071 71.8133 623.571 70.3503L622.927 68.8133L622.572 68.0623ZM626.25 77.0643C625.752 75.7073 623.645 76.2423 623.93 77.7423C623.965 77.8143 623.965 77.8493 624 77.9213L624.18 78.4573L624.823 80.1723C625.216 81.3853 627.18 81.1723 627.18 79.7073C627.18 79.5633 627.145 79.4923 627.108 79.3503L626.465 77.6003L626.25 77.0643ZM629.43 86.2793C628.93 84.7783 626.68 85.4573 627.108 86.9933L627.288 87.4923L627.823 89.2793C628.216 90.6353 630.323 90.3503 630.18 88.7783C630.18 88.7073 630.18 88.6713 630.145 88.5993L629.608 86.7783L629.43 86.2793ZM632.107 95.6363C631.679 94.0643 629.392 94.7063 629.787 96.2433L629.965 96.9213L630.358 98.5643C630.68 99.9213 632.752 99.7443 632.752 98.2433C632.752 98.1373 632.752 98.0643 632.715 97.9943L632.287 96.3143L632.107 95.6363ZM634.359 105.101C634.251 104.565 633.714 104.136 633.179 104.136C632.392 104.136 631.822 104.851 631.964 105.601L632.214 106.671L632.464 107.958C632.714 109.351 634.857 109.208 634.857 107.708C634.857 107.636 634.857 107.565 634.822 107.493L634.572 106.207L634.359 105.101ZM636.144 114.672C635.964 113.422 634.072 113.243 633.751 114.601C633.714 114.78 633.714 114.887 633.751 115.066L634.036 116.744L634.143 117.423C634.178 117.924 634.571 118.352 635.071 118.424C635.893 118.602 636.643 117.924 636.536 117.067L636.429 116.352L636.144 114.672ZM637.502 124.316C637.395 123.031 635.537 122.816 635.145 124.101C635.108 124.281 635.108 124.388 635.108 124.566L635.395 126.96C635.502 128.246 637.358 128.46 637.75 127.174C637.787 126.996 637.822 126.889 637.787 126.709L637.502 124.316ZM638.465 133.995C638.36 132.673 636.574 132.423 636.108 133.673C636.073 133.853 636.038 133.995 636.073 134.173L636.108 134.888L636.251 136.567C636.288 137.853 638.218 138.174 638.61 136.781C638.645 136.674 638.645 136.567 638.645 136.388L638.538 134.709L638.465 133.995ZM639.037 143.71C638.965 142.603 637.715 142.138 636.965 142.888C636.717 143.103 636.61 143.46 636.61 143.782L636.68 145.531V146.175C636.68 147.461 638.573 147.854 639.037 146.532C639.109 146.389 639.109 146.281 639.109 146.138V145.46L639.037 143.71ZM639.217 153.425C639.217 152.639 638.502 152.068 637.75 152.21C637.215 152.317 636.787 152.817 636.787 153.389L636.752 155.818C636.752 157.283 638.895 157.496 639.18 156.033C639.18 155.961 639.18 155.889 639.18 155.853L639.217 153.425ZM638.965 163.14C639.037 161.783 637.11 161.318 636.61 162.71C636.575 162.817 636.575 162.889 636.575 163.032L636.503 164.497L636.431 165.425C636.396 166.854 638.396 167.211 638.824 165.818C638.859 165.748 638.859 165.64 638.859 165.569L638.931 164.64L638.965 163.14ZM638.359 172.819C638.501 171.498 636.609 170.963 636.037 172.283C636.002 172.427 635.965 172.498 635.965 172.64L635.752 175.033C635.715 175.318 635.787 175.604 635.965 175.854C636.61 176.747 638.072 176.354 638.145 175.247L638.359 172.819ZM637.357 182.498C637.572 181.142 635.572 180.57 635.037 181.927C635 182.034 635 182.106 634.965 182.213L634.787 183.713L634.68 184.606C634.465 185.999 636.537 186.571 637.037 185.106C637.037 185.071 637.072 185 637.072 184.927L637.179 184.034L637.357 182.498ZM636.002 192.141C636.215 190.535 633.895 190.177 633.608 191.748L633.215 194.104C633.145 194.569 633.322 194.999 633.68 195.284C634.395 195.819 635.43 195.427 635.61 194.534L636.002 192.141ZM634.215 201.713C634.502 200.499 632.93 199.677 632.072 200.713C631.965 200.856 631.894 200.999 631.857 201.213L631.501 202.964L631.359 203.534C631.216 204.105 631.537 204.713 632.072 204.927C632.787 205.213 633.537 204.82 633.715 204.07L633.86 203.463L634.215 201.713ZM632.072 211.178C632.322 210.142 631.252 209.321 630.287 209.857C630.002 210.035 629.787 210.25 629.715 210.571L629.572 211.142L629.144 212.928C628.787 214.071 630.287 214.999 631.216 214.035C631.321 213.856 631.394 213.749 631.464 213.534L631.929 211.749L632.072 211.178ZM629.5 220.572C629.895 219.215 628.072 218.393 627.322 219.607C627.252 219.679 627.215 219.787 627.215 219.857L626.5 222.179C626.395 222.5 626.465 222.857 626.607 223.143C627.179 224.035 628.501 223.892 628.822 222.893L629.5 220.572ZM626.572 229.822C627.035 228.466 625.142 227.572 624.392 228.822C624.322 228.893 624.322 228.965 624.285 229.036L623.93 230.108L623.5 231.322C623 232.787 625.107 233.609 625.752 232.179L626.215 230.895L626.572 229.822ZM623.215 238.966C623.75 237.608 621.821 236.608 621.037 237.93C621 237.965 621 238.001 620.965 238.073L620.072 240.323C619.537 241.68 621.465 242.68 622.25 241.395C622.25 241.324 622.287 241.287 622.322 241.215L623.215 238.966ZM619.465 247.965C620.072 246.608 618.18 245.537 617.322 246.787C617.285 246.858 617.285 246.894 617.25 246.93L616.537 248.574L616.25 249.144C615.607 250.573 617.715 251.609 618.43 250.18L618.715 249.574L619.465 247.965ZM615.287 256.752C615.572 256.145 615.357 255.43 614.785 255.109C614.18 254.823 613.428 255.038 613.142 255.644L612.822 256.287L612.035 257.787C611.572 258.716 612.392 259.786 613.428 259.536C613.75 259.43 614.035 259.215 614.18 258.894L614.965 257.394L615.287 256.752ZM610.715 265.361C611.393 264.181 609.893 262.896 608.822 263.895C608.75 263.966 608.678 264.038 608.642 264.146L607.427 266.217C606.749 267.396 608.249 268.681 609.32 267.681C609.392 267.61 609.463 267.538 609.535 267.431L610.715 265.361ZM605.748 273.717C605.893 273.468 605.965 273.146 605.928 272.896C605.748 271.753 604.321 271.467 603.713 272.396L602.82 273.753L602.427 274.431C601.642 275.574 603.105 276.896 604.177 276.039C604.284 275.931 604.355 275.859 604.427 275.753L604.892 275.074L605.748 273.717ZM600.355 281.826C601.142 280.754 599.785 279.325 598.642 280.147C598.535 280.218 598.462 280.29 598.392 280.397L597.999 280.967L596.999 282.361C596.14 283.54 597.677 284.932 598.784 283.967C598.854 283.932 598.89 283.861 598.962 283.788L599.962 282.36L600.355 281.826ZM594.57 289.647C595.427 288.611 594.105 287.076 592.892 287.932C592.82 288.004 592.749 288.04 592.677 288.147L591.177 290.04C590.32 291.076 591.642 292.612 592.855 291.754C592.927 291.683 592.998 291.648 593.07 291.54L594.57 289.647ZM588.392 297.183C589.283 296.148 588.07 294.611 586.82 295.362C586.713 295.433 586.677 295.468 586.57 295.576L585.32 297.04L584.998 297.398C584.105 298.326 585.213 299.933 586.533 299.219C586.64 299.148 586.713 299.112 586.783 299.005L587.142 298.61L588.392 297.183ZM581.855 304.363C582.675 303.505 581.89 302.112 580.712 302.362C580.497 302.397 580.247 302.505 580.105 302.684L579.285 303.541L578.426 304.398C577.391 305.47 578.856 307.184 580.106 306.148L581.034 305.219L581.855 304.363ZM574.926 311.22C575.926 310.255 574.819 308.576 573.498 309.29C573.426 309.325 573.355 309.398 573.283 309.433L572.89 309.79L571.497 311.075C570.425 312.111 571.747 313.79 572.997 312.968C573.067 312.933 573.104 312.897 573.14 312.861L574.568 311.575L574.926 311.22ZM567.641 317.72C568.713 316.826 567.711 315.113 566.391 315.648C566.284 315.719 566.211 315.755 566.106 315.827L564.247 317.364C563.177 318.256 564.177 319.969 565.497 319.434C565.604 319.363 565.677 319.328 565.784 319.256L567.641 317.72ZM560.033 323.791C560.246 323.612 560.426 323.362 560.498 323.077C560.748 321.97 559.498 321.183 558.604 321.827L556.676 323.291C556.424 323.47 556.246 323.72 556.211 324.005C555.961 325.112 557.176 325.899 558.104 325.22L560.033 323.791ZM552.138 329.471C553.353 328.649 552.316 326.756 550.96 327.364C550.888 327.364 550.853 327.399 550.78 327.435L548.782 328.792C547.602 329.578 548.46 331.435 549.889 330.935C549.959 330.9 550.032 330.864 550.102 330.829L552.138 329.471ZM543.924 334.72C544.389 334.47 544.604 333.935 544.496 333.436C544.353 332.614 543.426 332.221 542.709 332.65L540.639 333.864C539.389 334.613 540.247 336.543 541.674 336.042C541.711 336.042 541.781 336.008 541.854 335.971L542.104 335.828L543.924 334.72ZM535.496 339.542C536.031 339.292 536.244 338.649 536.066 338.078C535.816 337.399 534.994 337.077 534.353 337.435L532.244 338.541C530.994 339.185 531.638 341.148 533.101 340.791C533.173 340.756 533.246 340.756 533.316 340.72L535.496 339.542ZM526.816 343.971C528.031 343.4 527.531 341.472 526.066 341.686C525.959 341.686 525.888 341.722 525.781 341.793L523.601 342.793C522.423 343.328 522.816 345.113 524.136 345.113C524.316 345.113 524.421 345.078 524.601 345.007L526.816 343.971ZM517.924 347.971C519.209 347.436 518.744 345.436 517.244 345.651C517.174 345.651 517.101 345.686 517.029 345.722L514.779 346.65C513.494 347.151 513.959 349.186 515.459 348.936C515.529 348.936 515.602 348.9 515.674 348.865L517.924 347.971ZM508.887 351.507C510.317 350.972 509.637 348.793 508.102 349.221C507.352 349.472 506.565 349.793 505.78 350.043C504.53 350.471 504.78 352.4 506.21 352.4C506.353 352.4 506.46 352.364 506.603 352.329L508.887 351.507ZM499.672 354.65C501.172 354.151 500.494 351.9 498.957 352.33L498.101 352.615L496.671 353.044C495.351 353.438 495.563 355.437 497.028 355.437C497.135 355.437 497.241 355.402 497.348 355.366L498.813 354.938L499.672 354.65ZM490.314 357.4C491.884 356.936 491.279 354.686 489.707 355.044L487.779 355.58L487.386 355.687C486.099 355.973 486.206 357.902 487.599 358.044C487.742 358.044 487.849 358.044 487.956 358.009L488.384 357.902L490.314 357.4ZM480.885 359.757C482.457 359.364 481.957 357.078 480.385 357.365L478.028 357.9C476.458 358.257 476.958 360.544 478.528 360.257L480.885 359.757ZM471.385 361.687C472.742 361.437 472.67 359.437 471.242 359.293C471.135 359.293 471.064 359.293 470.955 359.329L469.635 359.579L468.565 359.757C467.028 360.043 467.385 362.364 468.993 362.15L470.063 361.936L471.385 361.687ZM461.777 363.294C462.205 363.258 462.527 362.973 462.705 362.579C463.099 361.723 462.385 360.793 461.455 360.9L459.062 361.257C458.632 361.293 458.312 361.579 458.097 361.937C457.742 362.83 458.455 363.758 459.384 363.651L461.777 363.294ZM452.133 364.544C453.455 364.437 453.668 362.472 452.276 362.15C452.133 362.115 452.026 362.115 451.883 362.15L450.313 362.329L449.491 362.4C448.098 362.507 447.991 364.579 449.491 364.794C449.561 364.794 449.634 364.794 449.741 364.794L450.563 364.723L452.133 364.544ZM442.49 365.473C443.99 365.329 443.955 363.044 442.347 363.044C441.525 363.079 440.705 363.151 439.882 363.223C438.597 363.258 438.31 365.187 439.632 365.58C439.775 365.615 439.882 365.651 440.06 365.615L442.49 365.473ZM432.775 366.044C434.132 365.973 434.382 364.079 433.06 363.687C432.917 363.651 432.81 363.616 432.667 363.616L430.274 363.722C428.917 363.793 428.667 365.723 429.989 366.116C430.096 366.151 430.202 366.151 430.344 366.151L432.775 366.044ZM423.06 366.329C424.417 366.329 424.775 364.365 423.382 363.972C423.275 363.936 423.167 363.901 423.06 363.901L421.167 363.936H420.632C419.167 363.936 418.952 366.079 420.417 366.329C420.489 366.365 420.56 366.365 420.632 366.365H421.203L423.06 366.329ZM413.346 366.329C414.916 366.329 415.026 364.044 413.453 363.936L412.418 363.901L410.988 363.865C410.808 363.865 410.558 363.901 410.38 364.008C409.308 364.616 409.702 366.223 410.915 366.295L412.382 366.33H413.346V366.329ZM403.666 366.079C405.059 366.115 405.451 364.115 404.023 363.687C403.916 363.651 403.845 363.651 403.773 363.651H403.453L401.344 363.544C399.844 363.473 399.596 365.652 401.096 365.938H401.239L403.346 366.045L403.666 366.079ZM393.951 365.544C395.273 365.651 395.809 363.758 394.486 363.223C394.38 363.152 394.273 363.152 394.13 363.116L391.736 362.937C390.38 362.83 389.88 364.723 391.166 365.258C391.309 365.329 391.416 365.329 391.523 365.366L393.951 365.544ZM384.308 364.758C385.628 364.866 386.165 362.973 384.843 362.437C384.736 362.401 384.63 362.365 384.523 362.365C383.701 362.258 382.914 362.222 382.093 362.151C381.593 362.08 381.128 362.365 380.915 362.831C380.522 363.58 381.058 364.474 381.88 364.545C382.664 364.616 383.486 364.687 384.308 364.758ZM374.664 363.972C375.986 364.079 376.523 362.187 375.201 361.616C375.059 361.58 374.986 361.58 374.844 361.545L372.416 361.365C370.842 361.294 370.664 363.651 372.271 363.794L374.664 363.972ZM365.056 363.366C366.486 363.437 366.841 361.33 365.341 360.972C365.271 360.972 365.236 360.972 365.163 360.937L362.733 360.829C361.34 360.793 360.948 362.794 362.34 363.223C362.447 363.223 362.52 363.258 362.627 363.258L365.056 363.366ZM355.414 363.044C356.842 363.044 357.092 361.043 355.772 360.65C355.664 360.615 355.557 360.615 355.45 360.615L353.022 360.579C351.664 360.579 351.342 362.472 352.629 362.937C352.734 362.973 352.879 363.008 352.984 363.008L355.414 363.044ZM345.771 363.044C347.376 362.973 347.341 360.615 345.734 360.615C344.914 360.65 344.091 360.65 343.306 360.686C341.949 360.757 341.663 362.65 343.021 363.078C343.126 363.078 343.234 363.114 343.376 363.114C344.162 363.079 344.984 363.044 345.771 363.044ZM336.197 363.543C337.484 363.4 337.734 361.651 336.484 361.186C336.306 361.115 336.162 361.115 335.984 361.115C335.162 361.186 334.377 361.258 333.556 361.365C332.234 361.473 332.054 363.401 333.447 363.722C333.556 363.758 333.662 363.758 333.806 363.758C334.592 363.687 335.412 363.579 336.197 363.543ZM326.732 364.758C327.019 364.723 327.234 364.579 327.447 364.366C328.162 363.472 327.377 362.187 326.269 362.401C325.482 362.544 324.662 362.723 323.876 362.902C322.481 363.223 322.696 365.294 324.161 365.294C324.233 365.294 324.304 365.294 324.411 365.259C325.162 365.079 325.947 364.937 326.732 364.758ZM317.662 367.294C318.877 366.83 318.517 364.9 317.125 364.972C316.982 365.008 316.875 365.008 316.732 365.079C315.982 365.4 315.196 365.723 314.446 366.115C313.16 366.794 313.911 368.757 315.339 368.33C315.41 368.33 315.482 368.294 315.553 368.259C316.232 367.901 316.947 367.579 317.662 367.294ZM310.233 372.331C311.018 371.331 309.876 369.866 308.662 370.509C308.518 370.58 308.411 370.688 308.34 370.796C307.769 371.509 307.305 372.224 306.876 373.045C306.233 374.26 307.84 375.402 308.805 374.438C308.911 374.331 308.948 374.26 309.019 374.117C309.375 373.474 309.768 372.902 310.233 372.331ZM306.947 380.759C307.233 379.473 305.483 378.652 304.733 379.83C304.661 379.973 304.59 380.079 304.554 380.224L304.447 380.795L304.233 381.759L304.054 382.652C303.839 383.938 305.589 384.617 306.304 383.474C306.375 383.33 306.41 383.224 306.447 383.081L306.59 382.259L306.805 381.33L306.947 380.759ZM305.839 390.01C305.803 388.545 303.589 388.439 303.446 390.01V390.652L303.482 391.439L303.552 392.26L303.624 392.653C303.802 394.01 305.802 394.046 306.016 392.653C306.016 392.51 306.016 392.439 306.016 392.332L305.981 392.01L305.91 391.261L305.874 390.546L305.839 390.01ZM307.875 398.904C307.196 397.547 305.125 398.367 305.66 399.867C305.767 400.154 305.911 400.404 306.054 400.689L306.41 401.296L306.767 401.868L306.982 402.225C307.732 403.368 309.589 402.474 309.125 401.118C309.089 401.011 309.017 400.939 308.982 400.832L308.803 400.582L308.482 400.083L308.196 399.547L307.875 398.904ZM313.697 405.725C313.483 405.547 313.233 405.511 312.983 405.511C311.804 405.547 311.376 407.011 312.304 407.689L312.518 407.868L313.126 408.262L313.733 408.655L314.447 409.084C315.768 409.763 316.947 407.976 315.733 407.048C315.483 406.905 315.233 406.726 315.018 406.583L314.447 406.262L313.912 405.869L313.697 405.725ZM322.019 409.69C320.697 409.296 319.874 411.119 321.089 411.868C321.196 411.939 321.269 411.975 321.374 412.011L322.089 412.227L322.874 412.441L323.769 412.655C325.089 412.941 325.912 411.12 324.591 410.369C324.484 410.334 324.411 410.298 324.304 410.298L323.484 410.084L322.769 409.905L322.019 409.69ZM331.305 411.404C329.912 411.297 329.447 413.261 330.84 413.761C330.912 413.797 330.985 413.797 331.092 413.832L332.307 413.903L333.557 414.01C334.913 414.046 335.377 412.154 333.985 411.653C333.878 411.617 333.77 411.582 333.663 411.582L332.485 411.511L331.305 411.404ZM340.842 411.654C339.342 411.725 339.235 413.94 340.807 414.083C341.163 414.083 341.555 414.048 341.95 414.048L343.378 413.977C344.628 413.905 344.95 412.082 343.663 411.619C343.52 411.548 343.378 411.548 343.2 411.548L341.843 411.619L340.842 411.654ZM350.342 410.869C348.914 411.083 348.985 413.225 350.485 413.297C350.557 413.297 350.592 413.297 350.665 413.297L351.343 413.19L353.093 412.976C354.378 412.797 354.523 410.834 353.128 410.583C352.985 410.548 352.88 410.548 352.735 410.583L351.057 410.799L350.342 410.869ZM359.806 409.368C359.271 409.439 358.876 409.94 358.841 410.475C358.806 411.261 359.521 411.868 360.306 411.725L361.341 411.511L362.698 411.225C363.913 410.94 363.983 409.26 362.77 408.904C362.555 408.833 362.377 408.833 362.162 408.868L360.84 409.154L359.806 409.368ZM369.199 407.225C367.664 407.654 368.236 409.94 369.808 409.547C370.593 409.367 371.378 409.154 372.163 408.939C373.413 408.583 373.306 406.761 371.985 406.582C371.805 406.547 371.663 406.547 371.52 406.618C370.736 406.833 369.951 407.011 369.199 407.225ZM378.414 404.583C376.986 405.047 377.522 407.19 379.059 406.904H379.166C379.951 406.653 380.701 406.404 381.486 406.154C382.843 405.69 382.416 403.582 380.916 403.797C380.844 403.832 380.773 403.832 380.736 403.832C379.951 404.119 379.201 404.333 378.414 404.583ZM387.558 401.511C386.13 402.046 386.736 404.154 388.271 403.796C388.738 403.652 389.201 403.475 389.63 403.296L390.665 402.94C392.058 402.368 391.415 400.261 389.915 400.618L389.808 400.654C389.058 400.939 388.308 401.224 387.558 401.511ZM396.523 398.01C395.308 398.51 395.666 400.404 397.058 400.332C397.2 400.332 397.308 400.296 397.45 400.261C398.2 399.939 398.952 399.617 399.7 399.296C400.845 398.796 400.595 397.116 399.272 396.974C399.059 396.974 398.915 397.01 398.735 397.081C397.988 397.403 397.238 397.689 396.523 398.01ZM405.346 394.153C404.059 394.725 404.631 396.689 406.096 396.439C406.166 396.404 406.274 396.368 406.346 396.332C407.096 396.01 407.809 395.653 408.561 395.297C409.881 394.617 409.096 392.653 407.666 393.046L407.523 393.117C406.773 393.475 406.06 393.796 405.346 394.153ZM413.988 389.939C413.453 390.188 413.203 390.832 413.38 391.403C413.632 392.082 414.452 392.403 415.095 392.082C415.81 391.688 416.525 391.332 417.238 390.939C417.74 390.688 417.988 390.082 417.845 389.546C417.63 388.795 416.775 388.439 416.095 388.795C415.381 389.188 414.703 389.546 413.988 389.939ZM422.418 385.331C422.203 385.475 421.99 385.689 421.918 385.938C421.523 387.01 422.668 387.973 423.633 387.438C424.348 387.01 425.061 386.617 425.74 386.188C426.881 385.545 426.275 383.759 424.918 383.973C424.776 384.009 424.668 384.044 424.526 384.118C423.81 384.545 423.133 384.938 422.418 385.331ZM430.668 380.367C429.525 381.152 430.311 382.903 431.633 382.545C431.776 382.51 431.846 382.474 431.99 382.402L433.133 381.688L434.026 381.081C435.206 380.296 434.311 378.474 432.954 378.938C432.848 378.974 432.776 379.009 432.706 379.081L431.811 379.652L430.668 380.367ZM438.668 375.009C438.275 375.33 438.063 375.829 438.205 376.295C438.383 377.115 439.383 377.509 440.06 377.009C440.74 376.545 441.382 376.044 442.062 375.58C443.169 374.759 442.24 372.901 440.847 373.509C440.74 373.545 440.705 373.58 440.632 373.616C439.99 374.116 439.312 374.579 438.668 375.009ZM446.383 369.293C445.955 369.616 445.813 370.187 445.99 370.687C446.312 371.437 447.277 371.687 447.883 371.152L448.813 370.401L449.778 369.652C450.776 368.83 449.991 367.223 448.671 367.545C448.528 367.616 448.386 367.651 448.241 367.759L447.313 368.545L446.383 369.293ZM453.705 363.079C452.67 364.079 453.812 365.723 455.135 365.043C455.205 365.008 455.278 364.937 455.348 364.9L456.385 363.935L457.133 363.257C458.135 362.328 457.063 360.686 455.777 361.292C455.67 361.328 455.562 361.4 455.49 361.472L454.74 362.15L453.705 363.079ZM460.599 356.437C460.277 356.793 460.169 357.293 460.384 357.758C460.704 358.543 461.777 358.722 462.347 358.115L463.242 357.186L464.027 356.329C464.383 355.972 464.457 355.4 464.205 354.937C463.812 354.222 462.812 354.079 462.242 354.686L461.49 355.507L460.599 356.437ZM466.92 349.257C466.135 350.222 467.242 351.686 468.457 351.079C468.6 351.008 468.707 350.9 468.85 350.758L469.348 350.15L470.028 349.258L470.35 348.829C471.065 347.829 470.028 346.543 468.885 347.008C468.707 347.08 468.528 347.223 468.42 347.4L468.135 347.758L467.457 348.65L466.92 349.257ZM472.527 341.543C471.742 342.864 473.527 344.079 474.492 342.936L474.562 342.829L475.099 341.971L475.849 340.721C476.242 340.043 475.919 339.221 475.206 338.971C474.669 338.793 474.063 339.007 473.776 339.507L473.061 340.686L472.527 341.543ZM477.099 333.22C476.956 333.471 476.956 333.757 477.027 334.042C477.384 335.113 478.849 335.221 479.314 334.185L479.599 333.507L480.027 332.542L480.277 331.935C480.814 330.578 478.92 329.579 478.134 330.864C478.099 330.935 478.064 330.971 478.027 331.043L477.814 331.614L477.384 332.507L477.099 333.22ZM480.312 324.328C480.277 324.507 480.277 324.721 480.349 324.934C480.706 326.149 482.314 326.113 482.669 324.934L482.919 323.863L483.171 322.899L483.241 322.505C483.491 321.22 481.813 320.506 481.063 321.577C480.956 321.72 480.921 321.862 480.883 322.041L480.813 322.362L480.598 323.291L480.312 324.328ZM481.814 315.005C481.742 316.541 484.027 316.791 484.242 315.22C484.277 314.827 484.277 314.434 484.277 314.041L484.312 313.04V312.647C484.312 311.362 482.457 310.933 481.957 312.291C481.922 312.434 481.887 312.541 481.887 312.684V313.041V313.971L481.814 315.005ZM481.277 305.648C481.562 307.148 483.814 306.898 483.672 305.291C483.635 304.898 483.529 304.47 483.457 304.077L483.242 303.077L483.172 302.792C482.85 301.47 480.85 301.613 480.779 303.041C480.779 303.148 480.814 303.256 480.814 303.362L480.884 303.612L481.099 304.541L481.277 305.648ZM478.707 296.647C479.35 298.112 481.527 297.183 480.922 295.683L480.672 295.112L479.992 293.469C479.492 292.219 477.527 292.647 477.67 294.075C477.707 294.182 477.707 294.289 477.742 294.396L478.457 296.039L478.707 296.647ZM475.027 287.647C475.564 288.932 477.492 288.468 477.384 287.076C477.349 286.969 477.349 286.862 477.277 286.755C476.992 286.004 476.707 285.254 476.422 284.505C475.885 283.148 473.885 283.718 474.1 285.112C474.135 285.218 474.135 285.29 474.17 285.363C474.457 286.111 474.742 286.897 475.027 287.647ZM471.67 278.503C471.813 278.897 472.135 279.182 472.492 279.289C473.455 279.538 474.277 278.645 473.957 277.718L473.17 275.432C472.742 274.181 470.813 274.467 470.813 275.86C470.813 276.003 470.848 276.076 470.885 276.218L471.67 278.503ZM468.635 269.288C468.992 270.538 470.92 270.359 470.992 268.967C470.992 268.824 470.992 268.717 470.955 268.574L470.242 266.288C469.885 264.966 467.885 265.181 467.885 266.681C467.885 266.788 467.885 266.861 467.92 266.967L468.635 269.288ZM465.957 259.93C466.385 261.503 468.635 260.895 468.277 259.324L467.67 257.002C467.35 255.681 465.348 255.823 465.277 257.252C465.277 257.397 465.312 257.468 465.312 257.574L465.957 259.93ZM463.67 250.501C463.99 251.967 466.17 251.644 466.027 250.072V249.966C465.849 249.18 465.67 248.395 465.527 247.608C465.277 246.286 463.277 246.322 463.134 247.786C463.134 247.893 463.134 248.002 463.134 248.108C463.312 248.894 463.492 249.681 463.67 250.501ZM461.812 240.929C462.099 242.5 464.419 242.144 464.205 240.536C464.062 239.75 463.92 238.966 463.812 238.179C463.634 236.858 461.707 236.715 461.419 238.144C461.419 238.287 461.419 238.394 461.419 238.537C461.562 239.323 461.67 240.145 461.812 240.929ZM460.455 231.287C460.562 232.537 462.42 232.787 462.812 231.466C462.847 231.322 462.882 231.18 462.847 231.002C462.777 230.215 462.669 229.431 462.597 228.644C462.49 227.251 460.492 227.144 460.205 228.538C460.205 228.644 460.17 228.752 460.205 228.859C460.277 229.679 460.347 230.465 460.455 231.287ZM459.635 221.572C459.705 222.929 461.707 223.143 462.028 221.787C462.063 221.68 462.063 221.572 462.063 221.465C462.028 220.644 461.993 219.858 461.956 219.037C461.921 218.43 461.421 217.93 460.813 217.893C460.098 217.857 459.493 218.429 459.528 219.143C459.562 219.929 459.597 220.75 459.635 221.572ZM459.455 211.822C459.455 213.286 461.562 213.535 461.849 212.035C461.849 211.965 461.884 211.929 461.884 211.857V210.535L461.919 209.464C461.919 209.25 461.884 209.036 461.776 208.858C461.169 207.751 459.561 208.143 459.491 209.358V210.465L459.455 211.822ZM459.92 202.07C459.813 203.357 461.563 203.892 462.205 202.75C462.277 202.607 462.312 202.464 462.347 202.285L462.455 200.892L462.562 199.892C462.705 198.321 460.384 198.035 460.169 199.642C460.062 200.427 459.99 201.25 459.92 202.07ZM461.17 192.356C460.92 193.749 462.92 194.392 463.492 193.035C463.527 192.963 463.527 192.855 463.562 192.785C463.705 191.999 463.812 191.213 463.99 190.428C464.097 189.785 463.742 189.213 463.134 189.035C462.454 188.855 461.741 189.285 461.597 189.963L461.312 191.498L461.17 192.356ZM463.242 182.82C462.883 184.07 464.635 184.963 465.455 183.748C465.49 183.642 465.527 183.534 465.562 183.427L465.957 182.034L466.205 181.141C466.597 179.784 464.777 178.962 463.99 180.176C463.955 180.283 463.92 180.355 463.884 180.462C463.67 181.212 463.455 182.034 463.242 182.82ZM466.205 173.461C465.705 174.712 467.385 175.747 468.277 174.676C468.384 174.569 468.42 174.462 468.457 174.355C468.742 173.605 469.027 172.855 469.348 172.105C469.885 170.783 468.063 169.783 467.243 170.962C467.171 171.032 467.136 171.105 467.1 171.175C466.812 171.961 466.492 172.711 466.205 173.461ZM470.17 164.498C469.527 165.748 471.207 166.962 472.17 165.818C472.242 165.783 472.277 165.712 472.313 165.605C472.67 164.925 473.063 164.21 473.42 163.497C474.1 162.391 472.67 161.141 471.6 161.997C471.493 162.104 471.42 162.176 471.315 162.318C470.92 163.068 470.562 163.783 470.17 164.498ZM475.172 156.033C474.314 157.318 476.1 158.676 477.1 157.532L477.17 157.425C477.635 156.782 478.064 156.139 478.527 155.495C479.422 154.281 477.779 152.853 476.707 153.925C476.672 153.96 476.635 153.995 476.6 154.032C476.099 154.71 475.635 155.389 475.172 156.033ZM481.277 148.318C480.672 148.961 480.957 149.996 481.742 150.282C482.207 150.461 482.742 150.318 483.064 149.996C483.599 149.389 484.134 148.818 484.672 148.246C485.707 147.246 484.387 145.604 483.172 146.39C483.1 146.426 483.064 146.496 482.992 146.533C482.422 147.138 481.849 147.71 481.277 148.318ZM488.494 141.603C488.277 141.745 488.135 141.995 488.064 142.245C487.779 143.388 489.064 144.21 489.994 143.53C490.599 143.031 491.244 142.566 491.885 142.102C493.1 141.209 491.922 139.28 490.53 140.102C489.849 140.567 489.135 141.103 488.494 141.603ZM496.814 136.245C496.529 136.388 496.314 136.638 496.207 136.96C495.887 137.995 496.957 138.888 497.887 138.424C498.6 138.067 499.315 137.71 500.03 137.388C501.102 136.888 500.923 135.316 499.78 135.103C499.53 135.067 499.28 135.067 499.067 135.173C498.314 135.495 497.564 135.853 496.814 136.245ZM506.137 132.781C504.78 133.103 504.922 135.031 506.28 135.174C506.423 135.174 506.53 135.174 506.673 135.139C507.423 134.961 508.173 134.817 508.96 134.674C510.21 134.496 510.388 132.639 509.03 132.317C508.887 132.281 508.745 132.281 508.602 132.281C507.744 132.423 506.957 132.566 506.137 132.781ZM516.137 132.031C514.709 131.888 514.244 133.888 515.637 134.388C515.709 134.423 515.817 134.423 515.887 134.423C516.637 134.495 517.422 134.638 518.137 134.78C518.744 134.887 519.317 134.602 519.531 134.03C519.816 133.351 519.388 132.53 518.637 132.387C518.244 132.316 517.852 132.244 517.459 132.208L517.029 132.137C516.744 132.102 516.424 132.066 516.137 132.031ZM525.781 135.173C524.388 134.388 523.174 136.28 524.459 137.209L524.924 137.495C525.424 137.816 525.889 138.138 526.317 138.53C527.424 139.423 528.96 137.995 528.067 136.815C527.995 136.78 527.924 136.709 527.889 136.672L527.424 136.315C527.139 136.064 526.852 135.851 526.531 135.672L526.246 135.457L525.781 135.173ZM532.746 142.603C532.566 142.318 532.388 142.138 532.066 142.031C530.994 141.675 530.103 142.781 530.601 143.746C530.994 144.425 531.316 145.104 531.603 145.818C532.101 147.032 533.996 146.674 533.923 145.246C533.923 145.104 533.888 144.996 533.853 144.889C533.531 144.103 533.138 143.317 532.746 142.603ZM535.888 152.103C535.603 150.568 533.281 150.925 533.494 152.496C533.638 153.281 533.711 154.067 533.818 154.817C533.924 156.21 535.996 156.353 536.209 154.817C536.209 154.745 536.209 154.674 536.209 154.602C536.138 153.746 536.031 152.924 535.888 152.103ZM536.461 161.996C536.531 160.64 534.566 160.247 534.104 161.567C534.067 161.711 534.032 161.782 534.032 161.924C533.997 162.709 533.962 163.495 533.925 164.281C533.855 165.888 536.175 166.031 536.318 164.46C536.388 163.64 536.424 162.818 536.461 161.996ZM535.461 171.783C535.674 170.569 534.066 169.783 533.246 170.927C533.174 171.07 533.101 171.212 533.066 171.391C532.959 172.176 532.816 172.962 532.673 173.748C532.423 175.141 534.316 175.748 534.958 174.463C534.993 174.356 535.03 174.283 535.03 174.176C535.174 173.39 535.316 172.569 535.461 171.783ZM533.388 181.355C533.566 180.819 533.281 180.248 532.816 179.962C532.101 179.605 531.281 179.962 531.066 180.712C530.851 181.497 530.638 182.247 530.423 183.033C530.03 184.39 531.888 185.212 532.638 183.962C532.673 183.891 532.71 183.783 532.746 183.712C532.959 182.927 533.174 182.14 533.388 181.355ZM530.496 190.677C530.994 189.212 528.959 188.427 528.281 189.712C528.244 189.748 528.244 189.819 528.209 189.855C527.959 190.605 527.674 191.355 527.389 192.105C526.887 193.391 528.674 194.427 529.532 193.212C529.602 193.142 529.602 193.069 529.638 192.962C529.959 192.212 530.209 191.462 530.496 190.677ZM526.887 199.75C527.139 199.178 526.924 198.535 526.389 198.213C525.782 197.857 524.959 198.107 524.674 198.749C524.352 199.499 523.994 200.213 523.674 200.928C523.424 201.464 523.567 202.071 524.031 202.393C524.601 202.893 525.566 202.643 525.853 201.964C526.209 201.25 526.531 200.5 526.887 199.75ZM522.566 208.5C523.209 207.25 521.566 206.035 520.566 207.179C520.496 207.25 520.459 207.285 520.423 207.358C520.066 208.072 519.673 208.751 519.28 209.428C518.565 210.643 520.171 211.929 521.208 210.893C521.243 210.822 521.315 210.751 521.386 210.643C521.781 209.928 522.174 209.214 522.566 208.5ZM517.494 216.892C518.281 215.75 516.851 214.393 515.709 215.322C515.637 215.392 515.566 215.465 515.494 215.535C515.066 216.215 514.601 216.857 514.137 217.5C513.422 218.536 514.567 219.93 515.78 219.25C515.923 219.143 516.03 219.072 516.137 218.929C516.601 218.25 517.066 217.572 517.494 216.892ZM511.601 224.714C512.279 223.892 511.671 222.679 510.601 222.714C510.279 222.749 509.994 222.893 509.781 223.143C509.244 223.75 508.709 224.322 508.172 224.893C507.174 225.964 508.602 227.607 509.852 226.644C510.422 226.108 511.064 225.357 511.601 224.714ZM504.459 231.608C505.6 230.714 504.494 228.858 503.137 229.608C503.102 229.608 503.03 229.644 502.992 229.679C502.387 230.143 501.742 230.609 501.101 231.036C499.994 231.787 500.671 233.501 502.064 233.214C502.172 233.179 502.314 233.143 502.422 233.071C503.137 232.608 503.814 232.107 504.459 231.608ZM495.599 236.323C497.064 235.822 496.458 233.644 494.921 234.001C494.136 234.216 493.421 234.465 492.601 234.681C491.314 234.966 491.421 236.895 492.814 237.038C492.957 237.038 493.064 237.038 493.207 237.002C494.029 236.787 494.814 236.573 495.599 236.323ZM485.779 238.037C487.207 238.002 487.349 235.93 485.957 235.644C485.85 235.644 485.779 235.644 485.707 235.644C484.922 235.679 484.135 235.679 483.35 235.644C483.137 235.644 482.92 235.715 482.743 235.787C481.673 236.394 482.03 238.002 483.28 238.073C484.099 238.108 484.957 238.073 485.779 238.037ZM475.885 237.322C476.17 237.359 476.457 237.322 476.707 237.143C477.67 236.608 477.42 235.144 476.314 234.93C475.564 234.787 474.777 234.644 473.992 234.464C472.67 234.144 471.92 236 473.17 236.715C473.277 236.751 473.35 236.786 473.455 236.822C474.277 237 475.064 237.143 475.885 237.322ZM466.349 234.788C467.705 235.252 468.634 233.395 467.349 232.608C467.277 232.573 467.206 232.537 467.134 232.501C466.384 232.249 465.634 232.001 464.919 231.716C463.597 231.215 462.597 233.036 463.812 233.858C463.884 233.894 463.955 233.929 464.062 233.965C464.812 234.25 465.597 234.537 466.349 234.788ZM457.277 231.144C458.597 231.75 459.67 229.965 458.49 229.073C458.42 229.036 458.384 229.002 458.277 228.965C457.562 228.609 456.847 228.287 456.133 227.929C454.883 227.322 453.635 229.036 454.918 230.001C454.955 230.037 454.99 230.072 455.063 230.109C455.812 230.465 456.527 230.823 457.277 231.144ZM448.562 226.75C449.884 227.465 451.025 225.645 449.847 224.751L449.705 224.644C449.025 224.251 448.31 223.86 447.597 223.501C446.455 222.823 445.167 224.323 446.169 225.396C446.239 225.467 446.312 225.539 446.417 225.61C447.135 226 447.847 226.393 448.562 226.75ZM440.133 221.929C440.563 222.214 441.098 222.143 441.526 221.822C442.169 221.322 442.063 220.287 441.348 219.857L439.313 218.607C438.063 217.893 436.776 219.464 437.848 220.537C437.918 220.572 437.991 220.643 438.026 220.68L440.133 221.929ZM431.846 216.822C433.098 217.607 434.418 215.929 433.311 214.929C433.276 214.858 433.204 214.822 433.168 214.785L431.098 213.5C430.454 213.072 429.633 213.357 429.346 214.072C429.133 214.642 429.311 215.215 429.811 215.535C430.49 215.964 431.168 216.393 431.846 216.822ZM423.703 211.642C424.025 211.857 424.525 211.892 424.883 211.714C425.74 211.284 425.776 210.107 424.988 209.607L422.953 208.286C421.74 207.5 420.418 209.179 421.488 210.214C421.56 210.25 421.595 210.285 421.666 210.321L423.703 211.642ZM415.525 206.464C416.81 207.214 418.025 205.569 417.023 204.57C416.953 204.534 416.88 204.464 416.81 204.427C416.095 203.998 415.417 203.569 414.738 203.141C413.416 202.391 412.13 204.212 413.416 205.176C414.096 205.607 414.846 206.071 415.525 206.464ZM407.238 201.607C408.345 202.25 409.63 200.82 408.773 199.75C408.668 199.642 408.56 199.57 408.418 199.463C407.703 199.07 406.988 198.678 406.273 198.321C404.988 197.642 403.808 199.392 404.953 200.357C405.023 200.392 405.058 200.427 405.131 200.463C405.846 200.82 406.558 201.213 407.238 201.607ZM398.701 197.356C400.023 197.892 401.023 196.07 399.844 195.249C399.774 195.213 399.701 195.178 399.631 195.142C398.844 194.82 398.096 194.499 397.344 194.212C395.881 193.748 395.024 195.749 396.381 196.427L396.489 196.499C397.238 196.785 397.953 197.07 398.701 197.356ZM389.666 194.535C390.986 194.855 391.773 192.963 390.523 192.285C390.416 192.25 390.308 192.213 390.201 192.178L389.129 191.928L387.809 191.642C386.344 191.356 385.774 193.499 387.201 193.999L387.344 194.035C388.129 194.177 388.881 194.356 389.666 194.535ZM380.271 192.891C381.88 193.035 382.128 190.712 380.558 190.498L379.736 190.391L378.986 190.319L378.093 190.247C376.771 190.141 376.236 192.034 377.593 192.569C377.7 192.64 377.773 192.64 377.915 192.676L378.735 192.747L379.485 192.818L380.271 192.891ZM370.771 192.392C371.343 192.392 371.843 191.999 371.949 191.427C372.094 190.677 371.521 189.998 370.736 189.998H369.951H369.236L368.271 190.034C367.806 190.069 367.451 190.319 367.236 190.748C366.841 191.569 367.486 192.498 368.414 192.462L369.307 192.427C369.771 192.427 370.271 192.392 370.771 192.392ZM361.306 193.106C362.591 192.927 362.699 190.999 361.341 190.749C361.198 190.713 361.091 190.713 360.948 190.713L359.841 190.892L358.521 191.107C357.056 191.392 357.234 193.571 358.841 193.5H358.95C359.734 193.355 360.521 193.249 361.306 193.106ZM351.984 195.07C352.234 195 352.486 194.82 352.629 194.606C353.307 193.677 352.414 192.427 351.307 192.749C350.52 192.963 349.737 193.213 348.985 193.428C347.45 193.928 348.128 196.178 349.7 195.75C350.449 195.499 351.199 195.285 351.984 195.07ZM342.984 198.177C344.449 197.534 343.519 195.356 342.056 195.962C341.304 196.284 340.556 196.606 339.804 196.927C338.554 197.462 339.019 199.356 340.449 199.249C340.556 199.213 340.664 199.177 340.806 199.141C341.519 198.82 342.234 198.5 342.984 198.177ZM334.412 202.321C335.519 201.677 335.019 200 333.734 200.07C333.556 200.106 333.377 200.142 333.234 200.213C332.519 200.607 331.804 201.035 331.091 201.428C330.161 201.964 330.376 203.393 331.411 203.643C331.696 203.751 332.054 203.679 332.305 203.536C333.019 203.107 333.699 202.713 334.412 202.321ZM326.269 207.357C327.341 206.607 326.662 205 325.412 205.177C325.197 205.213 325.055 205.284 324.912 205.392C324.234 205.857 323.555 206.321 322.912 206.785C321.805 207.607 322.697 209.392 324.019 208.892C324.124 208.857 324.234 208.821 324.341 208.75C324.982 208.286 325.627 207.821 326.269 207.357ZM318.627 213.142C319.77 212.214 318.555 210.392 317.197 211.214C316.555 211.714 315.84 212.321 315.233 212.857C314.233 213.679 315.126 215.357 316.447 214.892C316.59 214.857 316.697 214.785 316.805 214.678C317.412 214.178 318.019 213.643 318.627 213.142ZM311.483 219.5C312.447 218.572 311.34 216.892 310.054 217.572C309.947 217.643 309.875 217.679 309.804 217.75C309.197 218.322 308.625 218.892 308.054 219.465C307.947 219.536 307.875 219.643 307.839 219.751C307.196 221.001 308.733 222.144 309.733 221.18C310.304 220.607 310.911 220.072 311.483 219.5ZM304.733 226.359C305.661 225.357 304.482 223.787 303.268 224.464C303.126 224.536 303.053 224.607 302.947 224.714C302.411 225.321 301.876 225.893 301.34 226.501C300.446 227.429 301.519 229.035 302.804 228.394C302.911 228.323 303.019 228.25 303.126 228.143C303.66 227.536 304.197 226.929 304.733 226.359ZM298.41 233.573C299.339 232.466 297.875 230.966 296.696 231.893C296.66 231.93 296.589 232.001 296.552 232.036C296.017 232.68 295.517 233.286 295.017 233.93C294.337 234.752 295.017 236.001 296.088 235.894C296.409 235.823 296.659 235.716 296.873 235.43C297.375 234.823 297.91 234.215 298.41 233.573ZM292.446 241.144C293.268 240.001 291.875 238.572 290.696 239.465C290.625 239.536 290.589 239.608 290.517 239.679C290.018 240.323 289.553 240.965 289.053 241.644C288.696 242.144 288.767 242.859 289.231 243.251C289.767 243.715 290.588 243.608 291.017 243.072C291.482 242.429 291.982 241.788 292.446 241.144ZM286.803 248.93C287.659 247.68 285.91 246.323 284.874 247.466C284.373 248.108 283.909 248.894 283.445 249.573C282.624 250.788 284.301 252.144 285.338 251.037C285.374 251.002 285.409 250.966 285.445 250.931C285.91 250.251 286.338 249.609 286.803 248.93ZM281.446 256.93C282.196 255.859 280.767 254.466 279.66 255.359C279.553 255.467 279.481 255.538 279.41 255.645C279.017 256.324 278.553 257.001 278.124 257.681C277.339 258.896 279.017 260.288 280.089 259.074C280.553 258.43 281.052 257.645 281.446 256.93ZM276.373 265.145C277.123 263.788 275.266 262.538 274.337 263.824C273.873 264.539 273.481 265.253 273.051 265.967C272.766 266.466 272.838 267.11 273.302 267.502C273.873 268.002 274.766 267.859 275.123 267.217L276.373 265.145ZM271.481 273.468C272.195 272.253 270.588 271.003 269.587 272.003C269.516 272.11 269.444 272.182 269.373 272.253L268.194 274.359C267.55 275.503 268.979 276.788 270.087 275.859C270.158 275.753 270.231 275.68 270.301 275.538L271.481 273.468ZM266.801 281.897C267.48 280.611 265.801 279.432 264.837 280.54C264.766 280.611 264.73 280.683 264.694 280.754L263.55 282.898C263.265 283.433 263.408 284.077 263.908 284.434C264.515 284.862 265.337 284.683 265.658 284.042L266.801 281.897ZM262.301 290.432C262.444 290.182 262.48 289.897 262.409 289.647C262.194 288.504 260.694 288.326 260.159 289.326L259.051 291.469C258.372 292.826 260.266 293.969 261.159 292.684C261.551 291.968 261.909 291.183 262.301 290.432ZM257.872 299.04C258.016 298.79 258.051 298.504 257.979 298.218C257.728 297.111 256.264 296.933 255.728 297.933L254.622 300.077C253.943 301.363 255.728 302.541 256.658 301.326C256.693 301.29 256.729 301.255 256.764 301.183L257.872 299.04ZM253.301 307.612C253.909 306.541 252.622 305.255 251.515 306.041C251.372 306.183 251.301 306.255 251.194 306.433C250.801 307.148 250.408 307.826 250.015 308.541C249.372 309.684 250.8 310.971 251.909 310.006C251.979 309.935 252.051 309.827 252.123 309.721C252.515 309.005 252.908 308.327 253.301 307.612ZM248.479 316.041C249.193 314.791 247.586 313.577 246.586 314.576C246.514 314.647 246.442 314.72 246.407 314.791L245.156 316.862C244.442 318.112 246.086 319.327 247.05 318.326C247.121 318.291 247.193 318.22 247.229 318.112L248.479 316.041ZM243.371 324.328C244.05 323.292 242.907 321.971 241.764 322.613C241.586 322.721 241.479 322.828 241.371 323.007C240.906 323.685 240.478 324.364 240.05 325.006C239.764 325.436 239.764 325.971 240.05 326.363C240.55 327.078 241.586 327.078 242.05 326.363C242.514 325.685 242.943 325.005 243.371 324.328ZM237.943 332.4C238.693 331.364 237.551 329.971 236.336 330.649C236.193 330.757 236.086 330.829 235.98 330.971L235.194 332.078L234.587 332.935C233.801 334.006 235.087 335.4 236.231 334.649C236.374 334.578 236.445 334.47 236.552 334.364C237.014 333.721 237.479 333.042 237.943 332.4ZM232.121 340.186C232.977 339.15 231.656 337.615 230.441 338.471C230.37 338.542 230.298 338.578 230.227 338.685C229.727 339.292 229.227 339.935 228.727 340.542C227.833 341.614 229.191 343.149 230.37 342.292C230.477 342.221 230.549 342.185 230.585 342.078C231.12 341.472 231.621 340.829 232.121 340.186ZM225.835 347.65C226.156 347.258 226.228 346.685 225.978 346.258C225.584 345.508 224.621 345.401 224.049 346.008L223.478 346.614L222.406 347.758C221.478 348.723 222.586 350.294 223.871 349.651C223.978 349.58 224.05 349.544 224.157 349.437L225.264 348.258L225.835 347.65ZM218.942 354.579C219.407 354.186 219.477 353.545 219.12 353.008C218.727 352.401 217.835 352.294 217.3 352.794L216.693 353.365L215.549 354.4C214.585 355.258 215.406 356.865 216.693 356.472C216.871 356.401 216.978 356.366 217.121 356.222L217.621 355.793L218.336 355.15L218.942 354.579ZM211.406 360.865C212.477 360.081 211.691 358.33 210.299 358.722C210.192 358.794 210.085 358.829 209.978 358.902L209.299 359.401L208.62 359.901L208.049 360.295C206.942 361.009 207.692 362.866 209.12 362.438C209.227 362.402 209.299 362.366 209.406 362.294L210.013 361.866L210.727 361.365L211.406 360.865ZM203.156 366.187C204.512 365.401 203.441 363.401 202.049 364.007C201.798 364.151 201.513 364.294 201.263 364.437L200.584 364.794L199.905 365.15C198.548 365.83 199.37 367.865 200.834 367.365C201.155 367.257 201.441 367.08 201.691 366.936L202.405 366.578L203.156 366.187ZM194.155 370.223C194.655 370.08 195.012 369.544 194.976 369.008C194.869 368.188 194.119 367.722 193.334 367.972L192.548 368.223L191.905 368.473L191.119 368.723C189.798 369.079 190.048 371.152 191.583 371.08C191.655 371.08 191.726 371.044 191.798 371.044L192.655 370.758L193.334 370.508L194.155 370.223ZM184.618 372.794C185.153 372.687 185.547 372.295 185.618 371.794C185.725 370.973 185.011 370.258 184.225 370.4L183.118 370.615L182.44 370.723L181.869 370.794C180.476 370.972 180.476 373.043 181.94 373.186C182.047 373.186 182.118 373.186 182.19 373.186L182.797 373.115L183.511 372.972L184.618 372.794ZM174.832 373.794C175.367 373.794 175.831 373.4 175.975 372.901C176.154 372.116 175.582 371.365 174.796 371.365L173.546 371.401H172.403C171.01 371.401 170.689 373.366 172.047 373.758C172.153 373.793 172.261 373.793 172.368 373.793L173.547 373.829L174.832 373.794ZM165.01 373.401C166.438 373.509 166.903 371.508 165.51 371.045C165.439 371.01 165.367 371.01 165.26 370.974C164.475 370.903 163.688 370.831 162.903 370.725C162.367 370.652 161.868 370.939 161.653 371.403C161.296 372.153 161.76 373.009 162.582 373.117C163.403 373.223 164.189 373.329 165.01 373.401ZM155.33 371.901C156.009 372.046 156.652 371.616 156.759 370.938C156.902 370.294 156.474 369.652 155.83 369.544C155.045 369.401 154.259 369.222 153.473 369.044C152.259 368.758 151.403 370.4 152.509 371.223C152.688 371.33 152.759 371.366 152.938 371.402C153.723 371.579 154.545 371.758 155.33 371.901ZM145.867 369.652C147.117 370.009 148.01 368.331 146.831 367.473C146.724 367.402 146.617 367.366 146.474 367.329C145.724 367.115 144.939 366.901 144.189 366.687C142.795 366.293 141.974 368.222 143.295 368.936C143.366 368.972 143.439 368.972 143.509 369.007C144.294 369.222 145.08 369.438 145.867 369.652ZM136.508 366.866C136.973 367.045 137.508 366.866 137.83 366.508C138.365 365.83 138.08 364.866 137.258 364.579C136.508 364.33 135.722 364.079 134.972 363.829C133.687 363.4 132.758 365.15 133.937 365.973C134.008 366.044 134.116 366.079 134.223 366.116C134.972 366.366 135.758 366.651 136.508 366.866ZM127.329 363.793C127.793 363.936 128.293 363.829 128.65 363.437C129.186 362.794 128.935 361.758 128.115 361.508C127.365 361.222 126.615 360.972 125.829 360.687C124.364 360.223 123.543 362.329 124.972 362.973C125.757 363.258 126.543 363.508 127.329 363.793ZM118.186 360.544C119.686 361.008 120.472 358.937 119.115 358.293L119.008 358.258L116.758 357.437C116.473 357.329 116.151 357.329 115.902 357.437C114.865 357.866 114.865 359.293 115.937 359.686L118.186 360.544ZM109.114 357.222C110.65 357.722 111.4 355.507 109.936 354.937L107.649 354.115C106.221 353.651 105.364 355.651 106.686 356.33C106.756 356.366 106.793 356.401 106.829 356.401L109.114 357.222ZM100.006 353.972C101.435 354.436 102.256 352.472 100.97 351.757C100.935 351.721 100.864 351.721 100.792 351.686C100.042 351.436 99.292 351.151 98.506 350.901C97.149 350.436 96.256 352.294 97.506 353.079C97.577 353.115 97.649 353.15 97.72 353.186C98.471 353.437 99.256 353.687 100.006 353.972ZM90.863 350.829C92.22 351.293 93.113 349.365 91.828 348.649C91.792 348.578 91.721 348.578 91.649 348.543L89.328 347.792C88.042 347.364 87.113 349.114 88.256 349.936C88.363 350.007 88.471 350.043 88.578 350.079C89.363 350.329 90.113 350.579 90.863 350.829ZM81.684 347.9C83.149 348.33 83.899 346.258 82.505 345.615L82.398 345.58L80.077 344.9C79.541 344.721 78.97 344.936 78.685 345.436C78.291 346.079 78.614 346.972 79.363 347.186L81.684 347.9ZM72.434 345.221C73.683 345.579 74.612 343.864 73.398 343.007C73.291 342.972 73.184 342.9 73.076 342.864C72.291 342.649 71.505 342.434 70.72 342.257C69.149 341.864 68.577 344.15 70.113 344.578C70.862 344.792 71.647 345.007 72.434 345.221ZM63.112 342.829C64.433 343.149 65.218 341.292 63.933 340.578C63.826 340.507 63.754 340.47 63.647 340.47C62.862 340.292 62.076 340.077 61.29 339.898C60.005 339.613 59.184 341.398 60.397 342.149C60.54 342.22 60.612 342.257 60.754 342.257C61.539 342.435 62.326 342.65 63.112 342.829ZM53.682 340.864C54.967 341.078 55.682 339.329 54.539 338.614C54.36 338.543 54.253 338.507 54.11 338.471L52.681 338.221L51.681 338.079C50.252 337.864 49.753 339.935 51.11 340.4C51.181 340.436 51.253 340.436 51.324 340.471L52.289 340.615L53.682 340.864ZM44.217 339.579C44.753 339.65 45.253 339.329 45.432 338.829C45.717 338.043 45.217 337.257 44.432 337.185L43.538 337.114L41.967 337.007C41.36 336.972 40.824 337.4 40.717 337.972C40.574 338.686 41.11 339.401 41.824 339.436L43.324 339.508L44.217 339.579ZM34.717 339.364C36.074 339.293 36.323 337.221 34.823 336.935C34.752 336.935 34.68 336.935 34.574 336.935L33.859 336.971L33.145 337.006L32.109 337.077C30.787 337.22 30.609 339.149 31.965 339.47C32.109 339.506 32.215 339.506 32.359 339.506L33.288 339.434L34.002 339.399L34.717 339.364ZM25.36 340.615C26.645 340.294 26.574 338.364 25.145 338.221C25.002 338.221 24.895 338.221 24.788 338.256L24.359 338.363L23.752 338.542L23.145 338.685L22.359 338.936C21.252 339.292 21.252 340.864 22.395 341.221C22.645 341.292 22.859 341.292 23.11 341.221L23.788 341.006L24.359 340.863L24.93 340.72L25.36 340.615ZM16.751 344.008C17.787 343.4 17.322 341.65 15.965 341.793C15.787 341.793 15.644 341.864 15.465 341.936L15.109 342.185L14.645 342.471L14.18 342.757L13.716 343.078L13.359 343.328C12.252 344.15 13.18 345.971 14.573 345.4C14.645 345.363 14.716 345.327 14.788 345.292L15.109 345.042L15.501 344.757L15.93 344.507L16.358 344.222L16.751 344.008ZM9.788 350.007C10.073 349.65 10.108 349.186 9.931 348.757C9.537 347.935 8.431 347.828 7.895 348.543L7.609 348.899L7.288 349.292L7.00201 349.722L6.682 350.15L6.396 350.579C5.645 351.721 7.146 353.079 8.217 352.151C8.288 352.08 8.36 352.008 8.432 351.9L8.682 351.508L8.967 351.115L9.25301 350.758L9.538 350.365L9.788 350.007ZM5.32301 358.115C5.78701 356.722 3.894 355.865 3.108 357.115C3.073 357.151 3.037 357.222 3.037 357.294L2.858 357.759L2.679 358.294L2.5 358.795L2.25 359.651C1.857 361.044 3.751 361.866 4.465 360.545C4.501 360.473 4.53601 360.401 4.57201 360.33C4.67801 359.901 4.822 359.473 4.965 359.045L5.32301 358.115ZM3.07301 367.258C3.25101 365.973 1.57201 365.329 0.822006 366.472C0.751006 366.615 0.679001 366.759 0.679001 366.937C0.536001 367.722 0.465002 368.544 0.358002 369.365C0.251002 370.867 2.465 371.26 2.787 369.688C2.858 368.866 2.96501 368.081 3.07301 367.258ZM2.43 376.723C2.43 375.366 0.465003 375.045 0.0360031 376.402C0.0360031 376.509 0 376.617 0 376.723C0 377.545 3.11434e-06 378.366 0.0360031 379.188C0.107003 380.688 2.286 380.795 2.43 379.224C2.465 378.402 2.43 377.581 2.43 376.723ZM2.858 386.295C2.715 384.901 0.643001 384.795 0.429001 386.259C0.429001 386.33 0.429001 386.438 0.429001 386.509C0.500001 387.331 0.608001 388.117 0.679001 388.938C0.786001 390.295 2.85801 390.438 3.07301 388.938C3.07301 388.832 3.10801 388.759 3.07301 388.688C3.00001 387.867 2.929 387.081 2.858 386.295ZM4 395.831C3.822 394.581 1.96501 394.366 1.64301 395.76C1.60801 395.903 1.608 396.046 1.608 396.189C1.751 396.974 1.858 397.796 2.001 398.582C2.251 399.975 4.251 399.903 4.395 398.475C4.395 398.404 4.395 398.296 4.395 398.19C4.25 397.403 4.143 396.618 4 395.831ZM5.679 405.296C5.608 405.01 5.465 404.76 5.25 404.582C4.321 403.902 3.107 404.653 3.286 405.761L3.786 408.154C4.142 409.726 6.43001 409.225 6.14301 407.654L5.679 405.296ZM7.679 414.725C7.358 413.296 5.25001 413.583 5.32301 415.083C5.32301 415.154 5.323 415.19 5.358 415.261L5.894 417.618C6.215 419.047 8.358 418.761 8.287 417.261C8.287 417.19 8.251 417.154 8.251 417.082L7.679 414.725ZM9.965 424.083C9.679 422.834 7.715 422.87 7.608 424.334C7.573 424.442 7.608 424.548 7.644 424.692L8.215 427.049C8.68 428.584 10.93 427.977 10.572 426.441L9.965 424.083ZM12.43 433.442C12.001 431.976 9.78701 432.441 10.073 434.012C10.287 434.834 10.502 435.619 10.716 436.406C11.145 437.87 13.288 437.405 13.073 435.905L13.037 435.762L12.43 433.442ZM14.965 442.762C14.572 441.405 12.537 441.692 12.609 443.192C12.609 443.263 12.609 443.335 12.644 443.406L13.288 445.728C13.681 447.12 15.716 446.799 15.644 445.333C15.644 445.262 15.644 445.191 15.608 445.084L14.965 442.762ZM17.537 452.084C17.144 450.727 15.108 451.014 15.144 452.513C15.179 452.585 15.179 452.657 15.215 452.728L15.821 455.085C16.25 456.478 18.357 456.121 18.214 454.62C18.179 454.549 18.179 454.477 18.179 454.441L17.537 452.084Z" fill="black"/>
<path d="M251.586 52.9914L287.588 26.8834C288.231 26.4184 288.374 25.5264 287.909 24.8834C287.659 24.5264 287.303 24.3474 286.909 24.3114L153.831 0.0243673C153.045 -0.118633 152.295 0.381357 152.152 1.16736C152.116 1.52436 152.152 1.84737 152.33 2.13237L198.225 84.0304C198.583 84.7094 199.475 84.9594 200.154 84.5664C200.261 84.5304 200.369 84.4594 200.439 84.3874L229.156 61.0294C229.799 60.5294 229.871 59.6364 229.371 59.0294C229.299 58.9224 229.227 58.8504 229.156 58.7794L183.582 22.9554L250.157 53.1364C250.659 53.3474 251.194 53.2774 251.586 52.9914ZM283.196 26.5254L250.587 50.1694L174.011 15.4534C173.405 15.1324 172.655 15.2744 172.226 15.8464C171.761 16.4534 171.869 17.3464 172.476 17.8464L225.979 59.9204L199.905 81.1354L156.331 3.38037L283.196 26.5254ZM252.194 51.8124C252.194 51.0274 251.551 50.3834 250.765 50.3834C249.979 50.3834 249.336 51.0274 249.336 51.8124V90.8864L229.478 59.1694L229.372 59.0264C228.871 58.3834 227.978 58.3114 227.372 58.8114L215.942 68.0614C215.834 68.1334 215.727 68.2414 215.656 68.3484C215.157 68.9914 215.263 69.8834 215.907 70.3834L249.801 96.9924C250.051 97.2064 250.408 97.3484 250.766 97.3484C251.551 97.3484 252.195 96.7054 252.195 95.9194V51.8124H252.194ZM245.193 89.7074L219.085 69.2064L227.907 62.0634L245.193 89.7074Z" fill="black"/>
</svg>
