<svg width="697" height="482" viewBox="0 0 697 482" fill="none" xmlns="http://www.w3.org/2000/svg">
<path d="M552.433 340.551L528.581 458.635H555.89L563.582 348.246L589.354 346.321L602.049 458.635H627.432L600.509 348.246L627.432 361.197L669.363 458.635H688.208L620.896 344.01L552.433 340.551Z" fill="#000F47"/>
<path d="M692.315 250.569C676.803 337.252 622.168 399.997 570.28 390.718C518.386 381.432 488.893 303.628 504.405 216.954C519.908 130.268 574.549 67.5226 626.431 76.805C678.322 86.0875 707.818 163.889 692.315 250.569Z" fill="#F73E4C"/>
<path d="M674.198 247.332C661.683 317.305 617.579 367.956 575.686 360.464C533.801 352.971 509.996 290.164 522.514 220.191C535.029 150.221 579.139 99.5666 621.026 107.059C662.911 114.552 686.719 177.353 674.198 247.332Z" fill="white"/>
<path d="M642.347 241.632C635.09 282.215 609.503 311.599 585.209 307.251C560.918 302.903 547.108 266.477 554.362 225.888C561.625 185.299 587.208 155.921 611.505 160.266C635.799 164.611 649.609 201.037 642.347 241.632Z" fill="#F73E4C"/>
<path d="M576.803 208.415C576.706 208.398 576.641 208.348 576.606 208.267C576.566 208.21 576.549 208.169 576.553 208.145C576.537 207.693 576.59 207.141 576.71 206.49C576.731 206.245 576.794 205.833 576.901 205.254C575.723 204.612 574.829 203.785 574.218 202.774C573.869 200.615 573.829 198.612 574.096 196.766C574.131 196.573 574.199 196.411 574.298 196.28C574.425 196.129 574.562 196.067 574.706 196.094C575.618 196.287 576.801 196.768 578.255 197.536C578.367 197.607 578.638 197.757 579.07 197.986C579.525 198.22 579.927 198.407 580.275 198.546C580.624 198.685 580.931 198.78 581.196 198.829C581.799 198.94 582.227 198.982 582.482 198.954C582.958 198.943 583.273 198.789 583.428 198.493C582.843 198.011 582.17 197.538 581.409 197.072C579.708 195.885 578.399 194.807 577.481 193.839C576.241 192.587 575.487 191.2 575.22 189.679C575.036 188.922 575.036 188.049 575.219 187.06C575.598 185.011 576.26 183.388 577.205 182.191C578.017 181.169 579.042 180.486 580.278 180.141L580.947 176.524C580.987 176.307 581.095 176.127 581.271 175.985C581.447 175.843 581.656 175.794 581.897 175.839C582.307 175.915 582.662 176.018 582.962 176.148L583.324 176.215C583.372 176.224 583.406 176.243 583.426 176.272C583.469 176.305 583.491 176.321 583.491 176.321C583.612 176.344 583.677 176.331 583.685 176.282C583.992 176.514 584.229 176.645 584.398 176.676C584.422 176.681 584.437 176.671 584.441 176.647C584.47 176.627 584.508 176.622 584.556 176.631L584.563 176.594C584.635 176.608 584.682 176.691 584.704 176.845C584.69 177.591 584.644 178.243 584.566 178.802C584.507 179.39 584.448 179.84 584.39 180.154L587.406 180.637L587.964 177.823L588.005 177.606C588.022 177.509 588.141 177.406 588.361 177.297C588.609 177.169 588.806 177.118 588.95 177.145C589.191 177.189 589.416 177.256 589.624 177.344C589.837 177.408 590.027 177.456 590.196 177.487C590.608 177.688 591.031 177.829 591.465 177.909L591.61 177.936L591.652 177.907C591.701 177.916 591.731 178.021 591.744 178.223C591.745 178.348 591.735 178.608 591.711 179.002C591.688 179.397 591.653 179.79 591.606 180.18C591.538 180.816 591.475 181.291 591.417 181.604C592.162 181.892 592.704 182.129 593.043 182.317C593.558 182.636 593.982 182.839 594.315 182.926C594.387 182.939 594.438 182.999 594.469 183.104C594.528 183.19 594.567 183.247 594.587 183.276C594.652 183.462 594.745 183.567 594.865 183.589L594.902 183.596L594.836 184.556C594.804 184.999 594.768 185.329 594.728 185.546C594.672 186.384 594.6 187.044 594.511 187.526L594.39 188.177C594.288 188.732 594.109 189.16 593.853 189.462C593.73 189.589 593.572 189.634 593.379 189.599C592.848 189.501 591.993 189.205 590.812 188.712C590.648 188.657 590.239 188.506 589.586 188.261C588.962 187.996 588.36 187.809 587.782 187.702C587.01 187.56 586.317 187.531 585.703 187.617C585.391 187.684 585.149 187.776 584.978 187.894C584.835 187.992 584.743 188.15 584.703 188.367C584.694 188.415 584.831 188.553 585.113 188.78C585.365 188.901 585.751 189.172 586.272 189.593C587.36 190.318 588.51 191.179 589.722 192.177C591.179 193.469 592.259 194.704 592.964 195.882C593.894 197.326 594.223 198.783 593.951 200.254C593.62 202.039 592.997 203.519 592.081 204.697C591.172 205.7 590.071 206.394 588.777 206.779L588.062 210.238L584.398 209.821L584.674 206.917C583.479 206.771 582.243 206.579 580.965 206.343L580.467 208.832L579.384 208.818C579.312 208.805 579.282 208.762 579.296 208.69C579.281 208.637 579.249 208.606 579.201 208.597C579.196 208.622 579.18 208.643 579.151 208.663C579.122 208.683 579.104 208.717 579.095 208.765L578.118 208.584C578.09 208.604 578.015 208.602 577.894 208.58L577.46 208.5C577.335 208.502 577.188 208.487 577.02 208.456L576.803 208.415Z" fill="#FFB206"/>
<path d="M251.807 292.58L191.505 310.707C191.505 310.707 185.779 272.994 115.665 267.798C25.7666 261.139 -46.435 174.514 36.4945 73.2024C114.926 -22.613 295.455 -28.5305 307.663 80.2327C319.878 188.999 232.568 196.397 251.807 292.58Z" fill="#FFB206"/>
<path d="M145.823 208.193C145.823 208.193 146.035 208.007 146.433 207.668C146.892 207.274 147.551 206.741 148.337 206.173C149.129 205.552 150.142 204.928 151.281 204.162C152.474 203.491 153.754 202.64 155.282 201.942C156.039 201.58 156.822 201.204 157.635 200.812C158.479 200.491 159.351 200.155 160.249 199.811C162.024 199.104 164.026 198.657 166.04 198.159C168.121 197.853 170.226 197.409 172.434 197.471C174.619 197.303 176.824 197.6 178.999 197.892C181.178 198.148 183.247 198.966 185.305 199.475C187.251 200.347 189.168 201.171 190.94 202.075C192.603 203.158 194.211 204.206 195.736 205.199C197.161 206.305 198.4 207.48 199.592 208.49C200.178 209.005 200.744 209.494 201.276 209.962C201.774 210.465 202.204 210.989 202.631 211.455C203.47 212.394 204.2 213.215 204.803 213.892C205.999 215.235 206.685 216.003 206.685 216.003C206.685 216.003 205.901 215.332 204.535 214.16C203.855 213.577 203.025 212.868 202.08 212.058C201.603 211.658 201.117 211.21 200.564 210.786C199.984 210.401 199.372 209.997 198.733 209.579C197.443 208.758 196.11 207.792 194.62 206.93C193.069 206.194 191.429 205.416 189.736 204.613C187.978 204.006 186.13 203.5 184.301 202.946C182.382 202.761 180.495 202.266 178.569 202.31C176.647 202.328 174.751 202.31 172.911 202.72C171.056 202.899 169.31 203.556 167.621 204.024C165.978 204.692 164.37 205.263 162.96 206.073C162.251 206.461 161.559 206.838 160.894 207.2C160.258 207.624 159.642 208.031 159.054 208.422C157.858 209.167 156.884 210.044 155.974 210.719C155.126 211.484 154.349 212.108 153.799 212.685C153.198 213.256 152.812 213.677 152.574 213.948C152.279 214.275 152.123 214.449 152.123 214.449L145.823 208.193Z" fill="#000F47"/>
<path d="M255.993 193.195C255.993 215.599 246.555 233.761 234.908 233.761C223.262 233.761 213.82 215.599 213.82 193.195C213.82 170.786 223.262 152.621 234.908 152.621C246.555 152.621 255.993 170.786 255.993 193.195Z" fill="white"/>
<path d="M254.839 192.48C254.839 200.193 251.233 206.446 246.787 206.446C242.339 206.446 238.732 200.193 238.732 192.48C238.732 184.77 242.342 178.52 246.787 178.52C251.23 178.52 254.839 184.77 254.839 192.48Z" fill="#000F47"/>
<path d="M173.964 232.308L169.53 231.899L164.187 229.726L161.328 226.529L160.08 222.16L157.401 224.798L152.096 230.745L148.59 238.058L146.394 243.31L145.593 252.896L147.094 259.879L149.597 263.883L153.456 265.97L155.561 266.388L173.964 232.308Z" fill="white"/>
<path d="M145.272 246.229C144.901 248.835 144.836 251.629 145.16 254.584C147.477 275.275 166.383 263.205 166.383 263.205C166.383 263.205 148.719 273.123 146.826 254.24C144.936 235.36 159.821 223.413 159.821 223.413C162.709 239.591 186.311 230.503 186.311 230.503C186.311 230.503 163.954 237.43 160.325 221.332C160.325 221.332 147.48 230.558 145.272 246.229Z" fill="#000F47"/>
<path d="M163.003 223.091C163.003 223.091 160.224 221.248 154.913 223.026C154.913 223.026 160.044 219.564 163.306 221.224L163.003 223.091Z" fill="#000F47"/>
<path d="M152.234 265.22L151.109 264.44L170.752 231.727L171.879 232.507L152.234 265.22Z" fill="#000F47"/>
<path d="M147.244 258.628L146.205 257.715L166.171 230.145L167.211 231.054L147.244 258.628Z" fill="#000F47"/>
<path d="M146.299 245.916L145.416 244.824L162.056 227.352L162.942 228.447L146.299 245.916Z" fill="#000F47"/>
<path d="M164.605 246.986C153.011 248.699 150.341 233.429 150.312 233.267L151.68 232.816C151.789 233.467 154.477 248.69 166.61 244.963L166.83 246.477C166.059 246.718 165.317 246.877 164.605 246.986Z" fill="#000F47"/>
<path opacity="0.2" d="M125.733 180.029C100.754 180.783 73.3508 168.577 69.2057 141.372C65.2107 115.161 100.662 113.245 118.032 115.253C125.701 116.142 137.38 118.962 137.059 128.639C136.544 144.077 118.833 134.606 114.134 129.237C109.412 123.843 106.892 116.728 104.778 110.006C95.2454 79.6803 112.253 52.1274 139.052 38.1581C162.304 26.0377 206.44 30.1945 206.923 64.4715C207.091 76.1474 193.166 86.3513 182.087 84.2523C165.118 81.0433 183.833 57.5826 190.634 54.1057C211.059 43.6545 240.243 46.9342 255.761 63.8681C259.853 68.3312 262.476 73.8305 264.252 79.5536C265.123 82.7596 265.211 85.9628 264.525 89.157C263.336 91.5181 262.141 93.8792 260.951 96.2373C253.167 101.681 251.271 101.466 255.258 95.6014C284.462 81.5232 273.457 132.184 251.996 127.344C248.728 126.608 241.424 131.518 246.67 132.702C256.388 134.889 263.934 131.094 271.182 124.729C277.673 119.027 287.294 104.127 281.603 95.1569C274.585 84.0963 242.269 86.2512 240.461 100.924C239.74 106.771 252.016 105.352 254.686 104.901C264.272 103.282 270.608 97.3148 273.49 88.2296C277.335 76.1063 266.783 62.4254 258.752 54.8741C250.912 47.5052 240.703 44.9028 230.354 43.5633C212.031 41.1904 182.591 44.3758 171.657 61.8485C160.378 79.8716 172.255 93.7555 191.535 88.8979C213.594 83.3396 222.285 61.551 208.578 43.1717C191.903 20.8179 161.85 22.8552 138.949 32.1288C102.058 47.0637 79.5832 90.4376 101.866 126.875C110.33 140.715 124.771 149.656 139.729 139.485C150.057 132.46 146.653 119.1 137.286 113.91C116.245 102.258 79.0916 107.427 64.3628 126.563C53.8586 140.212 63.8417 158.518 73.7335 168.975C86.9315 182.926 106.288 186.224 124.703 185.667C129.431 185.526 131.851 179.847 125.733 180.029Z" fill="white"/>
<path opacity="0.2" d="M295.213 56.3589C308.29 82.4662 308.485 108.856 295.634 115.298C282.786 121.742 261.757 105.797 248.671 79.6871C235.588 53.5827 235.4 27.1897 248.25 20.7482C261.098 14.3097 282.124 30.2515 295.213 56.3589Z" fill="white"/>
<path opacity="0.2" d="M25.7256 106.324C25.7256 106.324 12.9046 223.598 126.022 253.589C126.022 253.589 -20.4304 283.668 25.7256 106.324Z" fill="white"/>
<path d="M175.225 304.79L264.381 275.191L262.164 322.175L188.172 344.002L175.225 304.79Z" fill="#007AE8"/>
<path d="M261.126 284.959L181.874 313.641L182.921 316.533L262.173 287.852L261.126 284.959Z" fill="white"/>
<path d="M251.409 300.875L193.199 318.117L194.073 321.067L252.283 303.825L251.409 300.875Z" fill="white"/>
<path d="M259.955 309.209L187.136 331.398L188.033 334.341L260.852 312.151L259.955 309.209Z" fill="white"/>
<path d="M175.224 319.59C175.224 319.59 76.8184 329.579 76.8184 354.367C76.8184 379.153 129.722 357.326 129.722 357.326L126.021 348.076C126.021 348.076 85.7681 369.075 85.3972 353.537C85.0292 338.002 175.224 319.59 175.224 319.59Z" fill="#000F47"/>
<path d="M212.589 341.047L185.455 459.681L79.9004 481.629C79.9004 481.629 81.9641 439.059 177.406 453.855L212.589 341.047Z" fill="#000F47"/>
<path d="M232.318 337.344L209.381 458.687L320.614 464.863C320.614 464.863 300.265 418.495 219.803 454.497L232.318 337.344Z" fill="#000F47"/>
<path d="M384.717 380.338C384.717 380.338 385.094 380.103 385.8 379.655C386.539 379.178 387.649 378.422 389.05 377.406C391.844 375.372 395.816 372.292 400.241 368.165C409.14 360.016 419.798 347.43 426.663 332.581C427.558 330.746 428.279 328.839 429.095 326.972C429.769 325.059 430.52 323.166 431.123 321.243C432.327 317.396 433.34 313.539 434.017 309.735C434.744 305.937 435.168 302.204 435.401 298.648C435.465 296.87 435.613 295.13 435.61 293.443C435.58 291.759 435.554 290.128 435.533 288.565C435.333 285.444 435.165 282.559 434.806 280.03C434.406 277.507 434.197 275.267 433.776 273.471C433.019 269.856 432.586 267.789 432.586 267.789C432.586 267.789 433.246 269.8 434.394 273.318C435.012 275.073 435.465 277.281 436.151 279.783C436.793 282.294 437.282 285.185 437.832 288.341C438.033 289.934 438.245 291.594 438.46 293.314C438.651 295.036 438.701 296.829 438.833 298.675C438.995 302.363 438.984 306.285 438.66 310.33C438.389 314.381 437.774 318.55 436.946 322.757C436.534 324.862 435.966 326.949 435.465 329.071C434.821 331.141 434.267 333.267 433.534 335.324C432.112 339.461 430.487 343.547 428.606 347.433C426.766 351.346 424.717 355.085 422.565 358.603C418.267 365.648 413.594 371.818 409.243 376.82C404.916 381.846 400.926 385.72 398.018 388.372C396.561 389.694 395.374 390.71 394.517 391.408C393.619 392.12 393.143 392.503 393.143 392.503L384.717 380.338Z" fill="#F73E4C"/>
<path d="M369.145 153.113C369.145 153.113 369.284 153.128 369.555 153.152C369.846 153.184 370.279 153.225 370.844 153.287C371.898 153.414 373.367 153.629 375.201 153.982C378.864 154.682 383.983 155.945 389.845 158.245C395.674 160.565 402.307 163.891 408.48 168.778C411.607 171.148 414.536 173.983 417.268 177.03C419.985 180.101 422.394 183.495 424.472 187.046C425.514 188.815 426.394 190.673 427.304 192.489C428.055 194.382 428.938 196.202 429.547 198.101C430.858 201.866 431.85 205.64 432.515 209.32C433.233 212.997 433.54 216.583 433.831 219.957C433.908 223.348 434.099 226.531 433.905 229.469C433.846 230.935 433.793 232.339 433.74 233.673C433.613 235.001 433.492 236.261 433.381 237.444C433.183 239.808 432.942 241.857 432.645 243.535C432.132 246.889 431.841 248.805 431.841 248.805C431.841 248.805 431.903 246.871 432.015 243.482C432.109 241.795 432.103 239.741 432.018 237.391C431.988 236.219 431.959 234.971 431.929 233.655C431.823 232.348 431.714 230.97 431.597 229.534C431.443 226.66 430.884 223.593 430.425 220.36C429.754 217.157 429.059 213.798 427.97 210.439C426.936 207.074 425.597 203.7 423.998 200.426C423.244 198.769 422.238 197.229 421.378 195.622C420.362 194.103 419.397 192.551 418.29 191.109C416.088 188.215 413.656 185.536 411.015 183.192C408.354 180.872 405.601 178.767 402.707 177.086C397.01 173.586 391.069 171.466 385.926 170.103C380.757 168.761 376.329 168.222 373.291 168.016C371.772 167.91 370.591 167.88 369.831 167.883C369.493 167.889 369.234 167.895 369.057 167.898C368.86 167.907 368.754 167.91 368.754 167.91L369.145 153.113Z" fill="#F73E4C"/>
<path d="M388.712 380.983L135.289 343.836L376.706 165.238L378.466 167.62L142.817 341.949L389.144 378.057L388.712 380.983Z" fill="#F73E4C"/>
<path d="M452.896 219.102L141.729 335.852L143.891 341.613L455.058 224.863L452.896 219.102Z" fill="#F73E4C"/>
<path d="M437.043 216.694L451.516 222.847L450.886 244.774L470.501 214.469L436.266 216.694" fill="#F73E4C"/>
<path d="M141.807 332.903C141.807 332.903 138.848 318.845 129.227 321.804C119.609 324.762 118.126 347.458 126.022 362.743C133.914 378.031 155.126 377.048 146.491 343.999C146.491 343.999 159.312 337.589 156.851 332.658C154.384 327.727 141.807 332.903 141.807 332.903Z" fill="#000F47"/>
<path d="M267.346 297.857L418.285 241.9C418.285 241.9 417.045 213.046 424.944 214.524C432.837 216.004 431.845 232.526 431.845 232.526L449.361 226.361C449.361 226.361 454.042 270.012 435.545 280.375C417.048 290.729 416.309 253.582 416.309 253.582L267.346 297.857Z" fill="#000F47"/>
<path d="M427.461 256.995C426.851 256.995 426.374 256.804 426.062 256.624C422.315 254.481 423.215 241.819 423.778 236.47L426.837 236.791C425.989 244.907 426.321 252.821 427.543 253.913C427.57 253.875 427.708 253.816 427.917 253.66C431.512 251.001 432.507 229.595 428.538 219.736C427.949 218.27 426.71 215.865 425.138 216.047C419.644 216.754 418.955 232.192 419.815 241.757L416.75 242.034C416.494 239.199 414.551 214.307 424.746 212.994C426.639 212.744 429.351 213.518 431.394 218.588C435.471 228.724 435.195 252.105 429.748 256.133C428.868 256.786 428.091 256.995 427.461 256.995Z" fill="#007AE8"/>
<path d="M429.437 255.352L426.36 255.395L426.732 282.097L429.808 282.054L429.437 255.352Z" fill="#007AE8"/>
<path d="M446.091 264.104L427.782 266.238L428.139 269.297L446.448 267.163L446.091 264.104Z" fill="#007AE8"/>
<path d="M448.495 252.168L427.85 257.98L428.683 260.942L449.328 255.13L448.495 252.168Z" fill="#007AE8"/>
<path d="M450.552 240.01L430.744 244.449L431.417 247.451L451.225 243.012L450.552 240.01Z" fill="#007AE8"/>
</svg>
