<svg width="800" height="815" viewBox="0 0 800 815" fill="none" xmlns="http://www.w3.org/2000/svg">
<path d="M599.433 599.432C709.785 489.08 709.785 310.163 599.433 199.81C489.08 89.4576 310.163 89.4576 199.811 199.81C89.4584 310.163 89.4584 489.08 199.811 599.432C310.164 709.785 489.08 709.785 599.433 599.432Z" fill="#FFAC00"/>
<path d="M534.706 656.761C534.706 656.761 542.206 624.518 550.749 593.942C495.726 516.299 419.864 529.652 419.864 529.652" stroke="white" stroke-miterlimit="10" stroke-linecap="round"/>
<path d="M617.564 610.322C617.564 610.322 592.356 600.911 550.749 593.941C570.641 615.617 588.258 650.285 588.258 650.285" stroke="white" stroke-miterlimit="10" stroke-linecap="round"/>
<path d="M367.827 777.469C367.827 777.469 363.526 811.85 371.41 813.367C380.469 815.112 384.347 781.318 384.347 781.318L367.827 777.469Z" fill="#3E6777"/>
<path d="M350.383 687.78C346.368 708.999 361.351 786.361 373.196 792.417C387.333 799.645 420.345 734.803 432.606 700.825C390.642 706.174 362.763 692.536 350.872 684.789C350.686 686.028 350.52 687.062 350.383 687.78Z" fill="#B9E8EF"/>
<mask id="mask0_2247_347" style="mask-type:luminance" maskUnits="userSpaceOnUse" x="349" y="684" width="84" height="109">
<path d="M350.383 687.78C346.368 708.999 361.351 786.361 373.196 792.417C387.333 799.645 420.345 734.803 432.606 700.825C390.642 706.174 362.763 692.536 350.872 684.789C350.686 686.028 350.52 687.062 350.383 687.78Z" fill="white"/>
</mask>
<g mask="url(#mask0_2247_347)">
<path d="M366.84 789.331C366.84 789.331 386.243 740.287 388.609 699.587C390.977 658.886 430.741 678.07 435.299 692.617C439.854 707.165 403.54 824.941 366.84 789.331Z" fill="#84B5BC"/>
</g>
<path d="M478.126 405.211C474.287 380.91 444.541 382.789 431.489 382.911C406.873 383.141 388.826 381.15 383.809 400.04C381.141 410.086 356.178 649.456 350.87 684.788C362.761 692.535 390.642 706.176 432.604 700.824C433.696 697.798 434.617 695.017 435.294 692.615C443.588 663.222 479.949 416.735 478.126 405.211Z" fill="#6495A0"/>
<mask id="mask1_2247_347" style="mask-type:luminance" maskUnits="userSpaceOnUse" x="350" y="382" width="129" height="321">
<path d="M478.126 405.211C474.287 380.91 444.541 382.789 431.489 382.911C406.873 383.141 388.826 381.15 383.809 400.04C381.141 410.086 356.178 649.456 350.87 684.788C362.761 692.535 390.642 706.176 432.604 700.824C433.696 697.798 434.617 695.017 435.294 692.615C443.588 663.222 479.949 416.735 478.126 405.211Z" fill="white"/>
</mask>
<g mask="url(#mask1_2247_347)">
<path d="M392.226 712.078C392.226 712.078 437.738 425.758 436.995 412.288C436.252 398.818 486.036 404.285 486.036 404.285L440.482 704.201C440.482 704.201 414.691 714.133 392.226 712.078Z" fill="#3C666D"/>
</g>
<mask id="mask2_2247_347" style="mask-type:luminance" maskUnits="userSpaceOnUse" x="350" y="382" width="129" height="321">
<path d="M478.126 405.211C474.287 380.91 444.541 382.789 431.489 382.911C406.873 383.141 388.826 381.15 383.809 400.04C381.141 410.086 356.178 649.456 350.87 684.788C362.761 692.535 390.642 706.176 432.604 700.824C433.696 697.798 434.617 695.017 435.294 692.615C443.588 663.222 479.949 416.735 478.126 405.211Z" fill="white"/>
</mask>
<g mask="url(#mask2_2247_347)">
<path d="M436.013 367.094C374.34 363.842 366.728 408.572 415.593 419.987C464.456 431.399 491.349 407.824 483.93 395.029C476.511 382.233 482.014 369.521 436.013 367.094Z" fill="#8BC0C9"/>
</g>
<mask id="mask3_2247_347" style="mask-type:luminance" maskUnits="userSpaceOnUse" x="350" y="382" width="129" height="321">
<path d="M478.126 405.211C474.287 380.91 444.541 382.789 431.489 382.911C406.873 383.141 388.826 381.15 383.809 400.04C381.141 410.086 356.178 649.456 350.87 684.788C362.761 692.535 390.642 706.176 432.604 700.824C433.696 697.798 434.617 695.017 435.294 692.615C443.588 663.222 479.949 416.735 478.126 405.211Z" fill="white"/>
</mask>
<g mask="url(#mask3_2247_347)">
<path d="M384.151 399.787L349.876 686.008L357.351 686.903L391.626 400.683L384.151 399.787Z" fill="#D5F8F8"/>
<path d="M357.363 687.165C357.363 687.165 355.836 686.994 349.619 686.293C350.799 675.567 354.562 641.365 360.105 591.026C362.964 565.938 366.283 536.828 369.953 504.612C373.809 471.815 378.037 435.853 382.529 397.664C386.258 398.109 390.002 398.558 393.904 399.025C391.175 421.569 388.352 444.858 385.463 468.709C382.587 491.883 379.645 515.602 376.656 539.682C370.605 587.837 364.213 637.423 357.595 686.982C357.595 686.982 361.073 654.883 366.691 603.01C369.594 577.082 373.049 546.215 376.886 511.944C380.786 478.278 385.073 441.27 389.572 402.432H389.542C388.978 402.366 388.403 402.297 387.824 402.229C387.208 402.156 386.588 402.082 385.965 402.009H385.945C383.245 424.462 380.473 447.507 377.666 470.835C374.689 494.808 371.678 519.074 368.668 543.329C362.539 591.852 356.205 640.157 349.836 686.124C352.49 686.493 354.929 686.83 357.363 687.165Z" fill="#DAF9F9"/>
</g>
<path d="M431.497 383.804C422.161 383.958 412.751 383.467 403.628 384.75C399.11 385.444 394.635 386.81 391.15 389.601C387.609 392.309 385.525 396.632 384.569 400.952L382.597 414.828L380.952 428.718L377.727 456.533L365.31 567.987L359.076 623.715L355.85 651.569C354.816 660.855 353.609 670.134 352.402 679.413C352.079 681.737 351.855 684.046 351.454 686.38C351.249 687.538 351.104 688.633 350.963 689.82C350.792 690.984 350.674 692.137 350.665 693.274C350.388 697.819 350.652 702.526 350.894 707.152C351.503 716.443 352.669 725.707 354.103 734.92C355.552 744.133 357.292 753.302 359.413 762.378C361.569 771.43 363.986 780.484 367.583 789L367.661 789.183L367.654 789.372V789.381C367.441 793.533 367.338 797.7 367.614 801.822C367.756 803.878 367.978 805.935 368.453 807.902C368.712 808.87 368.995 809.843 369.445 810.683C369.846 811.568 370.481 812.25 371.199 812.541L371.473 812.648L371.542 812.678C371.375 812.656 371.551 812.675 371.539 812.67L371.735 812.68C371.984 812.685 372.28 812.731 372.492 812.7C372.839 812.595 373.206 812.538 373.606 812.274C374.386 811.844 375.068 811.123 375.649 810.327C376.818 808.721 377.683 806.837 378.435 804.928C379.926 801.084 380.928 797.028 381.813 792.966V792.961L381.847 792.803L381.967 792.671C388.364 785.598 393.599 777.468 398.555 769.259C403.489 761.019 408.081 752.569 412.448 744.008C416.805 735.443 420.932 726.755 424.774 717.953C428.63 709.143 432.122 700.211 434.766 691.038C437.049 681.764 438.669 672.243 440.404 662.793C442.097 653.323 443.686 643.832 445.262 634.34C448.39 615.35 451.396 596.337 454.311 577.313C460.135 539.259 465.726 501.168 470.875 463.018L474.575 434.39L476.234 420.062C476.679 415.329 477.322 410.402 477.287 405.852C476.633 401.228 474.832 396.815 471.686 393.418C468.566 389.999 464.319 387.731 459.849 386.319C450.795 383.489 441.088 383.638 431.497 383.804ZM431.484 382.018C441.049 381.869 450.954 381.693 460.382 384.65C465.042 386.131 469.585 388.533 472.969 392.245C476.381 395.928 478.353 400.815 479.005 405.683C479.054 410.759 478.397 415.412 477.955 420.253L476.298 434.607L472.603 463.258C467.461 501.424 461.88 539.523 456.063 577.589C453.151 596.621 450.152 615.641 447.027 634.641C445.453 644.14 443.864 653.636 442.173 663.118C440.436 672.597 438.828 682.076 436.516 691.499C433.845 700.834 430.206 709.83 426.311 718.637C422.403 727.457 418.215 736.142 413.796 744.71C409.366 753.27 404.713 761.72 399.711 769.968C394.681 778.189 389.398 786.319 382.824 793.501L382.976 793.213V793.218C382.116 797.328 381.145 801.431 379.647 805.403C378.885 807.382 378.018 809.344 376.739 811.138C376.099 812.025 375.329 812.885 374.288 813.484C373.804 813.807 373.152 813.997 372.473 814.102C372.172 814.132 371.94 814.09 371.669 814.088L371.473 814.078L371.275 814.061L371.16 814.022L370.698 813.86C369.484 813.381 368.648 812.353 368.176 811.358C367.634 810.356 367.326 809.305 367.035 808.259C366.51 806.16 366.268 804.046 366.102 801.937C365.784 797.715 365.85 793.504 366.028 789.306V789.296L366.097 789.665C362.414 780.95 359.997 771.865 357.822 762.757C355.689 753.632 353.937 744.429 352.478 735.179C351.036 725.927 349.861 716.628 349.245 707.264C349 702.565 348.724 697.917 349.013 693.127C349.03 691.922 349.15 690.754 349.318 689.603C349.453 688.469 349.614 687.25 349.817 686.104C350.208 683.831 350.437 681.485 350.757 679.18C351.957 669.923 353.16 660.667 354.188 651.375L357.402 623.529L363.616 567.804L375.994 456.34L379.22 428.454L380.869 414.5L382.837 400.62C383.87 395.916 386.104 391.275 390.038 388.228C393.897 385.141 398.696 383.719 403.359 382.998C412.787 381.671 422.152 382.182 431.484 382.018Z" fill="black"/>
<path d="M387.981 400.293C387.981 400.293 405.994 432.856 469.448 415.031C469.448 415.031 406.563 443.061 387.981 400.293Z" fill="#1C333A"/>
<path d="M405.055 466.6C404.468 475.292 399.034 482.005 392.917 481.592C386.8 481.179 382.316 473.797 382.902 465.104C383.489 456.412 388.924 449.699 395.04 450.112C401.157 450.527 405.641 457.907 405.055 466.6Z" fill="black"/>
<path d="M396.803 460.38C396.458 465.485 393.266 469.427 389.674 469.185C386.082 468.943 383.45 464.608 383.794 459.503C384.139 454.398 387.331 450.456 390.923 450.698C394.515 450.94 397.147 455.275 396.803 460.38Z" fill="white"/>
<path d="M375.852 511.638C375.852 511.638 390.375 521.417 404.772 503.18" stroke="black" stroke-miterlimit="10" stroke-linecap="round"/>
<path d="M442.647 431.532C436.404 409.727 479.304 416.237 482.485 431.921C485.667 447.602 456.921 576.923 460.316 590.08C463.708 603.235 440.626 631.929 435.223 605.393C429.818 578.854 450.147 457.727 442.647 431.532Z" fill="#B9E8EF"/>
<path d="M442.327 432.522L442.129 431.644C442.129 431.644 442.036 431.226 441.853 430.417C441.75 430.022 441.645 429.511 441.606 428.854C441.513 428.208 441.484 427.463 441.567 426.622C441.694 424.97 442.286 422.795 444.03 420.997C445.724 419.154 448.417 418.023 451.411 417.407C457.449 416.356 465.122 417.136 472.825 420.789C474.739 421.723 476.633 422.891 478.38 424.374C480.11 425.86 481.72 427.717 482.664 430.048C482.889 430.652 483.04 431.204 483.209 431.908L483.414 433.69C483.438 434.941 483.487 436.229 483.407 437.453C483.328 439.941 483.096 442.458 482.837 445.024C481.762 455.283 480.034 466.294 478.157 477.926C476.271 489.559 474.125 501.795 471.914 514.448C469.707 527.104 467.407 540.178 465.272 553.485C464.211 560.139 463.177 566.852 462.334 573.599C461.902 576.972 461.557 580.356 461.33 583.726C461.247 585.4 461.181 587.099 461.318 588.663L461.472 589.76L461.728 591.094C461.843 592.079 461.875 593.059 461.816 593.958C461.557 597.634 460.36 601.055 458.761 604.207C457.141 607.355 455.115 610.292 452.569 612.807C451.293 614.056 449.896 615.221 448.258 616.103C446.64 616.968 444.717 617.64 442.667 617.367C440.612 617.125 438.825 615.854 437.677 614.378C436.469 612.9 435.751 611.221 435.169 609.554C432.96 602.773 433.217 595.923 433.227 589.308C433.344 582.663 433.728 576.129 434.168 569.709C436.035 544.045 438.745 520.216 440.594 499.752C442.501 479.295 443.693 462.208 443.713 450.246C443.735 444.269 443.439 439.584 443.024 436.434C442.914 435.647 442.816 434.953 442.733 434.354C442.601 433.768 442.491 433.274 442.403 432.878C442.379 432.751 442.352 432.632 442.327 432.522ZM443.165 431.415C443.187 431.507 443.28 431.911 443.449 432.632C443.544 433.042 443.664 433.555 443.806 434.161C443.896 434.775 444.004 435.483 444.123 436.287C444.573 439.501 444.91 444.234 444.939 450.248C445.02 462.279 443.969 479.407 442.234 499.898C441.328 510.138 440.345 521.23 439.307 532.962C438.261 544.69 437.122 557.053 436.274 569.853C435.864 576.253 435.514 582.763 435.428 589.339C435.428 595.869 435.282 602.692 437.335 608.806C438.307 611.805 440.208 614.73 442.955 615.053C445.729 615.365 448.661 613.354 450.902 611.116C453.209 608.823 455.108 606.052 456.601 603.115C458.07 600.173 459.179 596.993 459.411 593.816C459.465 593.003 459.431 592.27 459.372 591.551L459.152 590.361L458.942 588.917C458.791 587.064 458.876 585.334 458.969 583.592C459.218 580.134 459.585 576.713 460.035 573.318C460.914 566.525 461.982 559.802 463.077 553.138C465.279 539.817 467.64 526.748 469.902 514.101C472.143 501.455 474.309 489.229 476.361 477.636C478.333 466.035 480.149 455.048 481.298 444.87C481.576 442.328 481.828 439.831 481.923 437.404C482.011 436.173 481.97 435.029 481.97 433.878L481.779 432.101C481.659 431.661 481.518 431.065 481.334 430.574C479.643 426.471 475.816 423.805 472.241 421.977C464.866 418.392 457.354 417.573 451.623 418.534C448.781 419.093 446.296 420.134 444.803 421.752C443.261 423.323 442.713 425.207 442.611 426.71C442.486 429.714 443.263 431.417 443.165 431.415Z" fill="black"/>
<path d="M401.116 395.347C403.582 371.833 403.086 321.003 442.618 321.275C471.938 321.475 467.542 376.682 462.161 402.832C459.06 417.893 399.652 409.296 401.116 395.347Z" fill="#B9E8EF"/>
<mask id="mask4_2247_347" style="mask-type:luminance" maskUnits="userSpaceOnUse" x="401" y="321" width="66" height="90">
<path d="M401.116 395.347C403.582 371.833 403.086 321.003 442.618 321.275C471.938 321.475 467.542 376.682 462.161 402.832C459.06 417.893 399.652 409.296 401.116 395.347Z" fill="white"/>
</mask>
<g mask="url(#mask4_2247_347)">
<path d="M434.021 322.071C434.021 322.071 447.413 346.462 441.758 372.175C436.103 397.888 428.984 409.315 428.984 409.315C428.984 409.315 450.357 419.906 466.147 403.25C481.936 386.595 487.431 305.849 434.021 322.071Z" fill="#84B5BC"/>
</g>
<mask id="mask5_2247_347" style="mask-type:luminance" maskUnits="userSpaceOnUse" x="401" y="321" width="66" height="90">
<path d="M401.116 395.347C403.582 371.833 403.086 321.003 442.618 321.275C471.938 321.475 467.542 376.682 462.161 402.832C459.06 417.893 399.652 409.296 401.116 395.347Z" fill="white"/>
</mask>
<g mask="url(#mask5_2247_347)">
<path d="M435.83 326.205C435.83 326.205 435.184 326.202 433.98 326.447C432.775 326.625 431.054 327.209 429.036 328.155C424.994 330.117 420.238 334.611 416.668 341.383C413.024 348.128 410.498 356.932 408.562 366.573C406.463 376.218 405.488 386.815 403.919 397.501C403.919 397.501 403.596 394.459 403.232 389.273C403.034 386.678 402.819 383.55 402.944 380.004C403.02 376.458 402.968 372.477 403.569 368.232C404.332 359.75 406.497 349.943 411.451 340.94C414.114 336.573 417.338 332.299 421.717 329.426C425.981 326.544 431.353 325.183 435.83 326.205Z" fill="#DAF9F9"/>
</g>
<path d="M400.331 395.265C400.331 395.265 400.72 391.277 401.255 384.244C401.881 377.23 402.521 367.103 405.338 355.227C406.822 349.33 408.867 342.939 412.545 336.874C416.12 330.828 421.756 325.159 429.16 322.405C432.823 321.017 436.775 320.332 440.756 320.178L442.254 320.12C442.904 320.081 443.273 320.164 443.796 320.181L445.26 320.276C445.77 320.349 446.306 320.464 446.828 320.562C448.952 320.921 450.87 321.769 452.74 322.774C456.379 324.98 459.152 328.353 461.115 332.009C463.06 335.696 464.314 339.662 465.218 343.66C466.906 351.698 467.244 359.867 467.055 367.836C466.853 375.813 466.09 383.625 464.968 391.12C464.406 394.869 463.756 398.537 463.008 402.11L462.869 402.78L462.835 402.946C462.781 403.161 462.789 403.097 462.762 403.188L462.649 403.508C462.478 403.938 462.42 404.348 462.095 404.805C461.591 405.761 460.897 406.435 460.191 407.076C458.715 408.3 457.002 408.989 455.335 409.605C448.512 411.682 441.799 411.567 435.749 411.23C423.613 410.333 413.674 407.582 407.298 404.197C404.139 402.464 401.89 400.426 400.967 398.491C400.06 396.524 400.422 395.233 400.331 395.265ZM401.9 395.426C401.986 395.417 401.692 396.296 402.369 397.809C403.063 399.317 405.018 401.208 408.019 402.877C414.072 406.135 423.882 409.018 435.839 409.891C441.782 410.231 448.434 410.309 454.908 408.332C456.469 407.755 458.062 407.103 459.336 406.04C459.944 405.492 460.526 404.891 460.873 404.251C461.117 403.989 461.205 403.481 461.359 403.07L461.464 402.748C461.471 402.728 461.525 402.56 461.491 402.665L461.523 402.499L461.647 401.831C462.322 398.276 462.901 394.622 463.387 390.893C464.365 383.437 464.966 375.676 465.032 367.8C465.083 359.936 464.595 351.901 462.828 344.188C461.972 340.339 460.78 336.556 458.989 333.133C457.178 329.736 454.69 326.74 451.53 324.802C449.922 323.937 448.18 323.162 446.418 322.867C445.976 322.783 445.553 322.678 445.096 322.607L443.632 322.507C443.18 322.49 442.576 322.402 442.254 322.444L440.834 322.485C437.061 322.59 433.349 323.199 429.927 324.453C423.029 326.943 417.711 332.138 414.221 337.9C410.663 343.677 408.613 349.894 407.122 355.671C404.278 367.316 403.564 377.389 402.897 384.381C402.318 391.402 401.9 395.426 401.9 395.426Z" fill="black"/>
<path d="M450.118 721.474C450.118 721.474 470.428 695.333 490.99 671.14C473.527 577.593 388.567 566.691 388.567 566.691" stroke="white" stroke-miterlimit="10" stroke-linecap="round"/>
<path d="M544.808 713.989C544.808 713.989 525.857 694.891 490.99 671.141C499.978 699.153 501.463 738.011 501.463 738.011" stroke="white" stroke-miterlimit="10" stroke-linecap="round"/>
</svg>
