<svg width="800" height="818" viewBox="0 0 800 818" fill="none" xmlns="http://www.w3.org/2000/svg">
<path d="M599.433 599.432C709.786 489.08 709.786 310.163 599.433 199.81C489.08 89.4575 310.164 89.4575 199.811 199.81C89.4584 310.163 89.4584 489.08 199.811 599.432C310.164 709.785 489.08 709.785 599.433 599.432Z" fill="#C32126"/>
<path d="M342.648 626.778C342.648 626.778 334.339 604.61 325.444 583.719C357.259 523.559 418.661 558.961 418.661 558.961" stroke="white" stroke-miterlimit="10" stroke-linecap="round"/>
<path d="M279.584 601.534C279.584 601.534 296.586 592.521 325.444 583.719C313.35 600.935 304.073 627.151 304.073 627.151" stroke="white" stroke-miterlimit="10" stroke-linecap="round"/>
<path d="M562.05 436.657C562.383 434.946 562.646 433.514 562.747 432.732C565.171 414.106 550.846 369.627 493.574 364.755C435.393 359.803 421.425 408.358 418.367 428.431C437.959 448.612 487.596 484.667 562.05 436.657Z" fill="#F45338"/>
<mask id="mask0_2247_408" style="mask-type:luminance" maskUnits="userSpaceOnUse" x="418" y="364" width="146" height="97">
<path d="M562.05 436.657C562.383 434.946 562.646 433.514 562.747 432.732C565.171 414.106 550.846 369.627 493.574 364.755C435.393 359.803 421.425 408.358 418.367 428.431C437.959 448.612 487.596 484.667 562.05 436.657Z" fill="white"/>
</mask>
<g mask="url(#mask0_2247_408)">
<path d="M466.79 365.647C466.79 365.647 447.531 375.435 453.934 394.916C460.336 414.395 541.569 441.792 525.389 454.527C509.209 467.261 436.375 459.497 412.542 423.569C388.705 387.641 441.923 361.786 466.79 365.647Z" fill="#CC3A27"/>
</g>
<mask id="mask1_2247_408" style="mask-type:luminance" maskUnits="userSpaceOnUse" x="418" y="364" width="146" height="97">
<path d="M562.05 436.657C562.383 434.946 562.646 433.514 562.747 432.732C565.171 414.106 550.846 369.627 493.574 364.755C435.393 359.803 421.425 408.358 418.367 428.431C437.959 448.612 487.596 484.667 562.05 436.657Z" fill="white"/>
</mask>
<g mask="url(#mask1_2247_408)">
<path d="M474.046 365.418C474.046 365.418 494.81 368.331 496.504 368.17C497.359 368.123 498.471 367.967 499.727 368.008C500.969 368.138 502.393 368.284 503.987 368.451C510.343 369.37 519.211 371.86 528.898 376.996C533.752 379.582 538.805 382.737 543.842 387.436C548.627 392.162 552.527 398.015 555.437 404.457C558.333 410.906 560.276 417.998 560.691 425.388C561.075 432.611 560.244 440.776 555.604 446.807C555.604 446.807 555.794 445.786 556.144 443.911C556.278 442.027 556.444 439.378 555.892 436.123C554.985 429.654 552.067 420.903 547.036 411.976C544.533 407.521 541.523 403.022 537.994 398.905C537.085 397.915 536.168 396.915 535.245 395.909L532.239 393.177C530.049 391.407 527.823 389.467 525.36 387.737C520.59 384.044 515.404 380.691 510.301 377.182C505.033 373.998 480.197 367.458 474.046 365.418Z" fill="#D5F8F8"/>
</g>
<path d="M441.099 815.906L464.337 784.025C445.366 789.939 430.965 785.025 420.457 778.578C430.889 798.175 441.099 815.906 441.099 815.906Z" fill="#3F1E11"/>
<path d="M463.936 745.876C443.348 757.735 429.306 745.26 429.306 745.26C419.172 747.608 408.373 741.624 399.631 734.48C402.701 744.126 411.613 761.96 420.459 778.578C431.161 786.222 446.593 790.499 464.339 784.025L491.255 740.497C475.671 744.036 463.936 745.876 463.936 745.876Z" fill="#F7E5C1"/>
<mask id="mask2_2247_408" style="mask-type:luminance" maskUnits="userSpaceOnUse" x="399" y="734" width="93" height="54">
<path d="M463.936 745.876C443.348 757.735 429.306 745.26 429.306 745.26C419.172 747.608 408.373 741.624 399.631 734.48C402.701 744.126 411.613 761.96 420.459 778.578C431.161 786.222 446.593 790.499 464.339 784.025L491.255 740.497C475.671 744.036 463.936 745.876 463.936 745.876Z" fill="white"/>
</mask>
<g mask="url(#mask2_2247_408)">
<path d="M439.875 729.54C434.943 746.844 438.973 765.867 439.284 783.273C439.501 795.49 444.09 814.062 438.497 825.543C424.423 854.428 387.264 784.945 385.142 771.644C381.347 747.839 395.802 724.711 420.024 727.177C427.058 727.893 432.419 728.79 438.384 732.808" fill="#D1BF8C"/>
</g>
<path d="M454.322 480.76C454.322 480.76 476.008 513.081 512.158 487.07C512.158 487.07 520.648 492.202 553.954 473.514C557.891 456.264 560.774 443.219 562.048 436.658C487.594 484.668 437.956 448.613 418.367 428.43C418.262 429.121 418.135 429.867 418.055 430.487C417.583 434.114 416.503 447.22 415.088 465.951C422.651 474.519 435.041 482.698 454.322 480.76Z" fill="white"/>
<mask id="mask3_2247_408" style="mask-type:luminance" maskUnits="userSpaceOnUse" x="415" y="428" width="148" height="70">
<path d="M454.322 480.76C454.322 480.76 476.008 513.081 512.158 487.07C512.158 487.07 520.648 492.202 553.954 473.514C557.891 456.264 560.774 443.219 562.048 436.658C487.594 484.668 437.956 448.613 418.367 428.43C418.262 429.121 418.135 429.867 418.055 430.487C417.583 434.114 416.503 447.22 415.088 465.951C422.651 474.519 435.041 482.698 454.322 480.76Z" fill="white"/>
</mask>
<g mask="url(#mask3_2247_408)">
<path d="M496.516 460.486C496.516 460.486 485.612 487.849 502.071 490.036C518.532 492.223 444.889 532.586 412.458 484.762C380.027 436.941 408.372 398.583 496.516 460.486Z" fill="#D6D6D6"/>
</g>
<path d="M454.322 480.758C435.041 482.696 422.649 474.519 415.09 465.949C409.24 543.392 397.561 718.262 398.466 729.674C398.558 730.857 399.02 732.565 399.631 734.478C408.373 741.621 419.169 747.606 429.306 745.258C429.306 745.258 429.638 745.541 430.212 745.959L455.728 482.574C454.836 481.489 454.322 480.758 454.322 480.758Z" fill="#C6AE22"/>
<path d="M455.728 482.578L430.212 745.963C433.563 748.395 446.256 755.936 463.736 745.983L504.825 491.635C478.064 506.006 460.556 488.448 455.728 482.578Z" fill="#3F1E11"/>
<path d="M553.957 473.512C520.648 492.197 512.161 487.067 512.161 487.067C509.639 488.883 507.205 490.352 504.828 491.63L463.736 745.978C463.804 745.939 463.868 745.914 463.936 745.875C463.936 745.875 477.348 753.512 491.255 740.496L493.061 737.908C493.061 737.908 534.429 559.087 553.957 473.512Z" fill="#FFEC3E"/>
<path d="M552.759 473.262C555.621 459.882 558.756 446.444 561.393 433.111C561.552 432.5 561.532 431.469 561.613 430.667C561.649 429.822 561.779 428.935 561.696 428.138C561.591 426.503 561.637 424.888 561.332 423.221C561.107 421.564 560.909 419.905 560.469 418.28C560.095 416.645 559.751 415.005 559.171 413.424C557.128 407.049 554.23 400.873 550.232 395.465C542.388 384.568 531.169 376.142 518.466 371.629L513.693 369.957C512.115 369.359 510.424 369.126 508.796 368.691L503.867 367.528C502.203 367.247 500.517 367.071 498.84 366.837L493.808 366.172C492.264 366.057 490.429 366.052 488.755 365.986L483.616 365.832C481.924 365.871 480.282 366.101 478.613 366.223C476.954 366.389 475.285 366.47 473.63 366.702L468.711 367.77C465.371 368.281 462.316 369.725 459.144 370.778C453.096 373.552 447.189 376.907 442.451 381.673C432.607 390.815 426.324 403.295 422.58 416.203C421.666 419.453 420.88 422.742 420.296 426.068C420.012 427.713 419.692 429.431 419.516 431.034L419.093 436.159L417.402 456.654C416.224 470.224 415.384 483.975 414.325 497.624C410.391 552.31 406.684 607.026 403.289 661.751L400.909 702.796C400.611 709.614 399.795 716.51 399.624 723.255C399.59 726.659 399.013 730.076 400.208 733.223C401.198 736.307 402.578 739.599 403.742 742.776C409.147 755.239 415.525 767.448 421.906 779.522L441.642 815.607L441.639 815.602L440.606 815.543L467.646 778.799C472.076 772.626 476.392 766.368 480.5 759.977C482.443 756.717 484.571 753.558 486.323 750.193C487.198 748.514 488.203 746.889 488.972 745.166C489.681 743.421 490.531 741.708 491.089 739.929L501.548 695.501C504.898 680.665 508.134 665.805 511.577 651.001L552.764 473.247L552.759 473.262ZM555.147 473.787L534.626 562.701L524.355 607.155L513.85 651.58C510.34 666.387 506.628 681.14 503.029 695.914L491.66 740.088C491.035 741.908 490.175 743.619 489.461 745.396C488.681 747.14 487.677 748.763 486.797 750.454C485.035 753.836 482.907 756.998 480.957 760.268C476.832 766.663 472.641 773.017 468.257 779.237L441.598 816.269L441.036 817.051L440.564 816.213L440.559 816.206L420.489 780.305C414.027 768.159 407.737 756.026 402.112 743.379C400.9 740.129 399.58 737.104 398.458 733.67C398.216 732.81 397.923 731.935 397.791 731.104L397.542 729.843C397.517 729.259 397.537 728.937 397.532 728.47L397.549 723.28L397.525 718.079L397.657 712.935C397.732 709.504 397.847 706.076 397.996 702.649C398.575 688.938 399.531 675.262 400.279 661.568C403.641 606.823 407.317 552.107 411.217 497.396C412.253 483.707 413.145 470.088 414.357 456.344L416.092 435.853L416.527 430.731C416.733 428.93 417.048 427.273 417.351 425.543C417.962 422.119 418.776 418.735 419.726 415.389C423.609 402.112 430.124 389.168 440.478 379.576C445.466 374.593 451.686 371.052 458.047 368.166C461.37 367.059 464.591 365.568 468.066 365.036L473.198 363.936C474.933 363.696 476.697 363.608 478.447 363.44C480.194 363.315 481.964 363.09 483.694 363.059L488.833 363.222C490.58 363.296 492.181 363.291 494.05 363.428L499.212 364.119C500.929 364.364 502.657 364.549 504.368 364.843L509.444 366.047C511.122 366.497 512.857 366.744 514.487 367.365L519.416 369.1C532.537 373.794 544.23 382.587 552.363 393.95C556.508 399.593 559.514 406.012 561.627 412.662C562.224 414.309 562.585 416.024 562.971 417.733C563.424 419.426 563.634 421.173 563.863 422.913C564.174 424.629 564.142 426.459 564.232 428.243C564.308 429.16 564.179 429.981 564.14 430.846C564.047 431.748 564.1 432.449 563.888 433.517L563.436 436.046L563.323 436.679L563.182 437.366L562.905 438.622L561.798 443.641L559.582 453.683L555.149 473.763L555.147 473.787Z" fill="#9F9023"/>
<path d="M535.404 518.394C534.294 526.62 528.908 532.685 523.375 531.938C517.84 531.192 514.255 523.917 515.365 515.692C516.474 507.466 521.86 501.4 527.393 502.148C532.926 502.894 536.513 510.166 535.404 518.394Z" fill="black"/>
<path d="M536.144 512.913C535.443 518.114 532.039 521.945 528.542 521.474C525.045 521.002 522.777 516.405 523.478 511.205C524.179 506.005 527.584 502.173 531.081 502.645C534.578 503.116 536.845 507.713 536.144 512.913Z" fill="white"/>
<path d="M419.567 470.262L421.241 472.011C421.847 472.544 422.431 473.094 423.05 473.605C424.306 474.609 425.623 475.523 426.994 476.352C428.375 477.163 429.802 477.881 431.263 478.524C432.734 479.142 434.237 479.67 435.76 480.125C437.294 480.54 438.841 480.88 440.405 481.119C441.972 481.332 443.541 481.452 445.109 481.461C446.678 481.447 448.23 481.315 449.762 481.068L452.023 480.567L454.205 479.849L454.212 479.846L455.19 479.558L455.715 480.459L457.492 483.499C458.118 484.487 458.939 485.32 459.647 486.244C460.39 487.138 461.358 487.805 462.196 488.602C463.091 489.338 464.141 489.868 465.102 490.52C466.131 491.068 467.23 491.495 468.291 491.994L471.675 493.074L475.182 493.841L478.762 494.389C479.283 494.462 479.965 494.513 480.546 494.562C481.123 494.572 481.683 494.616 482.276 494.604C483.459 494.597 484.647 494.535 485.832 494.416C488.2 494.179 490.556 493.736 492.841 493.086C493.98 492.749 495.099 492.368 496.196 491.928C497.281 491.471 498.342 490.968 499.351 490.386C500.353 489.797 501.299 489.137 502.169 488.399C502.604 488.033 502.975 487.61 503.383 487.221C503.75 486.799 504.07 486.346 504.422 485.916L504.95 485.264L505.744 485.418C508.508 486.168 511.641 486.241 514.69 486.109C517.76 485.958 520.839 485.56 523.876 484.946C525.389 484.616 526.902 484.272 528.39 483.834C529.876 483.399 531.362 482.93 532.794 482.334C533.524 482.065 534.231 481.747 534.922 481.398C535.636 481.083 536.313 480.706 536.972 480.296C537.662 479.929 538.273 479.45 538.893 478.981C539.548 478.548 540.017 477.911 540.594 477.38C540.056 477.942 539.619 478.619 538.991 479.096C538.397 479.609 537.806 480.137 537.136 480.552C536.493 481.012 535.831 481.437 535.132 481.804C534.45 482.204 533.756 482.573 533.036 482.893C531.621 483.592 530.15 484.167 528.669 484.707C527.188 485.249 525.675 485.699 524.155 486.136C521.105 486.96 517.997 487.573 514.835 487.937C513.253 488.123 511.66 488.243 510.042 488.233C509.238 488.262 508.422 488.199 507.601 488.14C506.787 488.123 505.947 487.901 505.118 487.783L506.44 487.287C506.025 487.813 505.629 488.363 505.189 488.864C504.715 489.325 504.265 489.824 503.764 490.249C502.76 491.102 501.687 491.847 500.573 492.502C499.451 493.147 498.293 493.697 497.115 494.193C495.93 494.67 494.727 495.08 493.51 495.437C491.072 496.131 488.584 496.598 486.067 496.852C484.808 496.979 483.542 497.045 482.272 497.053C481.636 497.065 480.969 497.018 480.321 497.001C479.679 496.945 479.136 496.908 478.44 496.816L474.737 496.249L471.05 495.44L467.418 494.281C466.255 493.744 465.058 493.274 463.926 492.668C462.851 491.955 461.693 491.356 460.693 490.538C459.748 489.658 458.675 488.893 457.846 487.903C457.055 486.889 456.145 485.943 455.459 484.863L453.521 481.542L455.024 482.155L455.016 482.158L452.553 482.801C451.717 482.93 450.889 483.087 450.056 483.192C448.382 483.353 446.713 483.387 445.051 483.299C443.391 483.184 441.752 482.955 440.134 482.63C438.521 482.278 436.94 481.823 435.386 481.295C433.844 480.728 432.338 480.088 430.875 479.36C429.423 478.607 428.015 477.784 426.664 476.872C425.325 475.943 424.052 474.932 422.849 473.842C422.258 473.285 421.701 472.691 421.129 472.121L419.567 470.262Z" fill="#9F9023"/>
<path d="M423.067 433.395C423.067 433.395 423.453 433.768 424.179 434.467C424.892 435.176 425.963 436.21 427.417 437.378C428.805 438.612 430.645 439.963 432.781 441.43C434.936 442.879 437.436 444.406 440.264 445.865C443.059 447.395 446.194 448.79 449.621 449.983C453.12 451.266 456.744 452.277 460.615 453.282C464.486 454.186 468.494 455.083 472.626 455.674C476.798 456.248 480.903 456.747 485.224 457.011C493.647 457.5 502.164 457.28 510.003 456.18C513.935 455.699 517.708 454.985 521.242 454.132C524.798 453.35 528.094 452.341 531.122 451.359C537.163 449.355 542.053 447.153 545.54 445.709C547.266 444.963 548.619 444.377 549.543 443.976C550.467 443.573 550.924 443.287 550.924 443.287C550.924 443.287 550.513 443.641 549.658 444.184C548.815 444.746 547.549 445.523 545.907 446.444C544.262 447.365 542.266 448.485 539.976 449.768C537.676 451.075 534.956 452.307 531.96 453.599C525.944 456.107 518.593 458.355 510.504 459.621C502.413 460.916 493.662 461.202 484.948 460.559C480.693 460.281 476.267 459.704 472.086 458.983C467.866 458.247 463.753 457.287 459.831 456.165C455.962 454.961 452.14 453.67 448.77 452.238C445.29 450.831 442.104 449.21 439.33 447.505C436.525 445.833 434.137 444.025 432.067 442.39C430.022 440.718 428.289 439.211 426.974 437.835C425.606 436.518 424.69 435.362 424.049 434.582C423.411 433.808 423.067 433.395 423.067 433.395Z" fill="#9F9023"/>
<path d="M406.53 739.508C409.966 741.949 413.861 743.684 417.881 744.645C419.885 745.146 421.94 745.39 423.974 745.409C424.993 745.441 426.004 745.375 427.009 745.258C428.018 745.199 428.998 744.913 429.983 744.757L430.603 744.701L430.977 745.006C431.444 745.385 432.04 745.825 432.634 746.182C433.221 746.568 433.854 746.898 434.479 747.228C435.767 747.826 437.089 748.383 438.467 748.772C439.836 749.19 441.253 749.461 442.676 749.64C443.392 749.701 444.1 749.837 444.821 749.842L446.979 749.872C448.413 749.747 449.86 749.72 451.275 749.412C451.984 749.273 452.702 749.192 453.401 749.009L455.486 748.41C456.884 748.046 458.201 747.408 459.552 746.907C460.862 746.292 462.135 745.593 463.425 744.943L463.428 744.94L464.212 744.613L464.662 745.106C464.838 745.299 465.202 745.537 465.481 745.759C465.791 745.974 466.148 746.14 466.483 746.338C467.15 746.746 467.944 746.925 468.679 747.237C469.454 747.438 470.258 747.557 471.057 747.729C471.456 747.843 471.871 747.785 472.279 747.814L473.513 747.846C474.344 747.917 475.168 747.831 475.991 747.687L478.481 747.342C480.099 746.905 481.71 746.397 483.344 745.92C481.78 746.558 480.216 747.24 478.618 747.853L476.121 748.471C475.287 748.706 474.442 748.884 473.569 748.904L472.264 749.007C471.829 749.021 471.39 749.122 470.952 749.048C470.077 748.96 469.188 748.916 468.308 748.782C467.453 748.528 466.546 748.408 465.713 748.022C465.295 747.834 464.862 747.68 464.452 747.455C464.039 747.193 463.653 747.02 463.201 746.639L464.432 746.805L464.427 746.807C463.042 747.421 461.681 748.078 460.28 748.647C458.838 749.112 457.463 749.757 455.982 750.099C454.518 750.495 453.057 750.876 451.549 751.089C450.063 751.406 448.536 751.438 447.025 751.56L444.745 751.538C443.985 751.551 443.228 751.426 442.468 751.377C440.955 751.226 439.445 750.959 437.971 750.563C436.481 750.221 435.034 749.701 433.609 749.122C432.91 748.801 432.192 748.515 431.508 748.139C430.801 747.785 430.164 747.406 429.44 746.905L430.432 747.154C429.328 747.228 428.235 747.426 427.133 747.386C426.034 747.408 424.941 747.369 423.856 747.232C421.689 747 419.56 746.531 417.534 745.813C413.478 744.422 409.719 742.272 406.53 739.508Z" fill="#9F9023"/>
<path d="M502.906 560.937C504.805 571.367 509.461 582.398 520.418 585.58C521.327 572.587 516.733 558.921 502.906 560.937Z" fill="#E2B08F"/>
<path d="M533.466 550.782L501.936 539.883C501.936 539.883 500.932 550.081 502.907 560.936C516.733 558.92 521.327 572.585 520.418 585.579C522.676 586.233 522.371 586.649 525.193 586.563L533.466 550.782Z" fill="#9B501E"/>
<path d="M581.669 542.715C581.669 542.715 588.922 565.251 596.825 586.536C562.209 645.13 502.545 606.871 502.545 606.871" stroke="white" stroke-miterlimit="10" stroke-linecap="round"/>
<path d="M643.473 570.905C643.473 570.905 626.067 579.103 596.825 586.537C609.718 569.912 620.219 544.16 620.219 544.16" stroke="white" stroke-miterlimit="10" stroke-linecap="round"/>
</svg>
