<svg width="657" height="516" viewBox="0 0 657 516" fill="none" xmlns="http://www.w3.org/2000/svg">
<path d="M315.756 60.5195H656.603L614.174 389.35L331.312 367.605L315.756 60.5195Z" fill="#007AE8"/>
<path d="M361.494 344.836L353.457 342.116L376.985 272.608L414.73 314.195L455.667 154.907L487.73 273.465L602.793 88.6875L609.997 93.1742L484.627 294.5L455.876 188.186L419.029 331.559L380.398 288.994L361.494 344.836Z" fill="white"/>
<path d="M607.55 121.336L577.913 90.545L625.685 71.8359L607.55 121.336Z" fill="white"/>
<path d="M601.712 369.015L341.992 353.206L341.922 351.952L325.656 71.9188L328.48 71.7539L344.672 350.536L601.886 366.195L601.712 369.015Z" fill="white"/>
<path d="M333.717 80.1608C333.687 80.1608 333.664 80.1493 333.648 80.1262C333.633 80.1108 333.625 80.0993 333.625 80.0916C333.594 79.9532 333.579 79.7803 333.579 79.5728C333.571 79.4959 333.568 79.3652 333.568 79.1808C333.168 79.0501 332.845 78.8464 332.599 78.5697C332.368 77.924 332.242 77.3091 332.219 76.7249C332.219 76.6634 332.23 76.6096 332.253 76.5635C332.284 76.5097 332.322 76.4828 332.368 76.4828C332.66 76.4905 333.053 76.5712 333.544 76.7249C333.583 76.7403 333.675 76.7711 333.821 76.8172C333.975 76.8633 334.109 76.8979 334.225 76.9209C334.34 76.944 334.44 76.9555 334.524 76.9555C334.717 76.9555 334.851 76.944 334.928 76.9209C335.074 76.8902 335.162 76.8249 335.193 76.7249C334.986 76.6096 334.751 76.502 334.49 76.4021C333.898 76.1331 333.433 75.8756 333.095 75.6296C332.641 75.3145 332.33 74.9301 332.161 74.4766C332.061 74.2537 332.011 73.9847 332.011 73.6696C332.011 73.0162 332.122 72.4782 332.345 72.0554C332.538 71.6941 332.814 71.4251 333.175 71.2483V70.0954C333.175 70.0262 333.199 69.9647 333.245 69.9109C333.291 69.8571 333.352 69.8302 333.429 69.8302C333.56 69.8302 333.675 69.8417 333.775 69.8648H333.89C333.906 69.8648 333.917 69.8686 333.925 69.8763C333.94 69.884 333.948 69.8878 333.948 69.8878C333.986 69.8878 334.006 69.8801 334.006 69.8648C334.113 69.9186 334.194 69.9455 334.248 69.9455C334.255 69.9455 334.259 69.9416 334.259 69.9339C334.267 69.9263 334.279 69.9224 334.294 69.9224V69.9109C334.317 69.9109 334.336 69.9339 334.352 69.9801C334.39 70.2107 334.413 70.4143 334.421 70.5911C334.436 70.7756 334.444 70.9178 334.444 71.0177L335.401 70.9947L335.412 70.0954V70.0262C335.412 69.9954 335.443 69.957 335.504 69.9109C335.574 69.8571 335.631 69.8302 335.677 69.8302C335.754 69.8302 335.827 69.8379 335.897 69.8532C335.966 69.8609 336.027 69.8648 336.081 69.8648C336.219 69.9032 336.358 69.9224 336.496 69.9224H336.542L336.554 69.9109C336.569 69.9109 336.584 69.9416 336.6 70.0031C336.608 70.0415 336.619 70.1223 336.634 70.2452C336.65 70.3682 336.661 70.4912 336.669 70.6142C336.684 70.814 336.692 70.9639 336.692 71.0638C336.938 71.11 337.119 71.1522 337.234 71.1907C337.411 71.2599 337.553 71.2983 337.661 71.306C337.684 71.306 337.703 71.3213 337.718 71.3521C337.741 71.3752 337.757 71.3905 337.764 71.3982C337.795 71.452 337.83 71.4789 337.868 71.4789H337.88L337.914 71.7787C337.93 71.917 337.937 72.0208 337.937 72.09C337.968 72.3513 337.983 72.5589 337.983 72.7126V72.9201C337.983 73.0969 337.953 73.2391 337.891 73.3467C337.86 73.3928 337.814 73.4159 337.753 73.4159C337.584 73.4159 337.303 73.3736 336.911 73.2891C336.857 73.2814 336.723 73.2583 336.508 73.2199C336.3 73.1738 336.104 73.1507 335.92 73.1507C335.674 73.1507 335.458 73.1815 335.274 73.243C335.182 73.2814 335.112 73.3237 335.066 73.3698C335.028 73.4082 335.009 73.462 335.009 73.5312C335.009 73.5466 335.059 73.5812 335.159 73.635C335.243 73.658 335.378 73.7195 335.562 73.8194C335.939 73.9809 336.342 74.1807 336.773 74.419C337.295 74.7341 337.699 75.0531 337.983 75.376C338.352 75.768 338.537 76.1984 338.537 76.6673C338.537 77.2361 338.429 77.728 338.214 78.1431C337.991 78.5043 337.691 78.7811 337.315 78.9732L337.292 80.0801L336.139 80.1608L336.058 79.2499C335.681 79.273 335.289 79.2845 334.882 79.2845L334.87 80.0801L334.536 80.1377C334.513 80.1377 334.501 80.1262 334.501 80.1031C334.494 80.0878 334.482 80.0801 334.467 80.0801C334.467 80.0878 334.463 80.0954 334.455 80.1031C334.448 80.1108 334.444 80.1224 334.444 80.1377H334.132C334.125 80.1454 334.102 80.1493 334.063 80.1493H333.925C333.886 80.1569 333.84 80.1608 333.787 80.1608H333.717Z" fill="white"/>
<path d="M595.931 358.943C595.931 358.943 584.367 353.959 582.212 341.585C580.057 329.218 594.459 330.669 595.848 341.918C595.848 341.918 601.927 330.133 607.954 335.506C613.983 340.876 607.921 352.92 595.931 358.943Z" fill="white"/>
<path d="M179.749 267.717L149.105 272.905C149.105 272.905 137.682 242.814 85.2258 234.482C15.453 223.401 -13.0419 167.827 5.55236 99.6531C30.2996 8.90138 120.577 -11.1355 205.909 5.13012C291.241 21.3957 287.47 98.24 251.638 149.389C215.81 200.541 175.742 230.708 179.749 267.717Z" fill="#FFB206"/>
<path d="M97.6699 118.851C97.6699 118.851 105.283 186.995 131.885 187.499C158.484 187.996 159.329 110.219 159.329 110.219C159.329 110.219 152.631 179.824 133.969 182.479C115.31 185.135 102.913 118.435 102.913 118.435L97.6699 118.851Z" fill="#000F47"/>
<path d="M167.787 113.671C167.787 113.671 174.982 178.071 200.115 178.542C225.254 179.016 226.052 105.516 226.052 105.516C226.052 105.516 219.722 171.29 202.088 173.799C184.453 176.313 172.739 113.273 172.739 113.273L167.787 113.671Z" fill="#000F47"/>
<path d="M134.155 216.912C130.893 227.248 123.159 234.019 116.886 232.038C110.612 230.06 108.168 220.076 111.427 209.74C114.689 199.407 122.423 192.632 128.7 194.614C134.973 196.595 137.414 206.578 134.155 216.912Z" fill="#000F47"/>
<path d="M121.655 221.521C122.511 225.583 121.136 229.308 118.587 229.846C116.04 230.382 113.282 227.524 112.428 223.461C111.574 219.401 112.949 215.674 115.496 215.138C118.051 214.605 120.807 217.461 121.655 221.521Z" fill="#FF7694"/>
<path d="M115.629 205.016L133.072 201.245C133.072 201.245 126.239 188.515 115.629 205.016Z" fill="white"/>
<path opacity="0.2" d="M79.447 140.278C55.1119 141.394 40.124 119.874 37.2566 97.8701C34.239 74.6831 55.4976 54.6492 75.087 47.1656C98.0502 38.3954 122.621 53.1183 110.371 77.5889C107.509 83.3002 100.402 90.8545 92.7745 88.0607C84.8022 85.1432 84.284 74.2298 85.7707 67.7795C88.5175 55.8386 101.733 46.8977 111.357 40.8654C133.299 27.1169 173.422 17.44 185.787 48.4109C190.421 60.0191 181.221 72.9315 173.658 80.683C163.38 91.2137 166.033 78.5575 171.094 71.9335C184.165 54.8318 205.547 45.1431 226.921 50.0448C249.858 55.3057 256.114 81.9224 248.983 101.58C248.494 102.931 256.32 102.112 257.053 100.087C266.971 72.7431 252.23 48.0252 223.665 45.4227C202.589 43.5003 182.29 53.8043 167.729 68.174C164.34 71.5183 151.684 84.7045 159.533 89.4532C164.985 92.7534 173.266 86.9773 177.226 83.8743C187.56 75.7754 195.123 63.2869 194.758 50.0507C194.313 34 174.936 25.9835 161.679 24.4615C137.65 21.7 110.391 34.9215 92.3771 49.7357C81.6668 58.5471 72.8848 71.1739 79.2027 84.9577C83.0652 93.3805 94.011 93.6543 101.371 90.672C118.482 83.7418 134.426 52.1851 109.217 43.8389C86.5097 36.3258 60.8086 47.145 44.3133 62.8924C14.5171 91.3432 33.3675 145.366 75.8465 143.417C77.9191 143.32 84.8522 140.028 79.447 140.278Z" fill="white"/>
<path opacity="0.2" d="M265.287 71.0595C257.403 85.9532 230.397 87.116 204.97 73.6619C179.54 60.2049 165.314 37.2211 173.198 22.3245C181.082 7.42783 208.085 6.26494 233.512 19.722C258.942 33.176 273.171 56.1599 265.287 71.0595Z" fill="white"/>
<path opacity="0.2" d="M17.9373 83.9453C17.9373 83.9453 -2.33211 193.165 93.8395 224.942C93.8395 224.942 -28.2629 235.046 17.9373 83.9453Z" fill="white"/>
<path d="M304.675 261.731C301.112 258.805 278.811 266.153 268.151 269.909C264.371 264.015 259.322 260.715 255.033 262.008C248.927 263.851 246.681 274.287 250.01 285.321C250.841 288.062 251.933 290.579 253.208 292.793C250.752 302.152 247.72 314.196 248.223 314.626L250.696 317.632L259.605 300.194C262.107 301.964 264.721 302.67 267.103 301.949C273.206 300.103 275.455 289.672 272.123 278.638C271.666 277.128 271.125 275.7 270.524 274.34C283.095 271.261 308.234 264.646 304.675 261.731Z" fill="#000F47"/>
<path d="M269.782 301.136C256.57 297.559 257.273 270.145 257.309 268.982L259.425 268.914C259.996 274.77 261.763 278.603 264.677 280.31C268.216 282.383 272.402 280.581 272.444 280.563L273.306 282.504C273.094 282.598 268.11 284.767 263.626 282.153C262.107 281.27 260.85 279.96 259.858 278.235C260.715 286.34 263.199 297.159 270.339 299.093L269.782 301.136Z" fill="#007AE8"/>
<path d="M273.94 291.848L263.635 294.273L264.12 296.337L274.425 293.911L273.94 291.848Z" fill="#007AE8"/>
<path d="M273.979 285.254L260.497 287.84L260.897 289.924L274.379 287.338L273.979 285.254Z" fill="#007AE8"/>
<path d="M257.856 319.485L243.713 312.502L246.365 296.004L260.685 305.696L257.856 319.485Z" fill="#FF7694"/>
<path d="M199.312 296.004C199.312 296.004 231.902 358.729 244.155 301.447L261.568 312.237C261.568 312.237 261.303 340.791 240.795 346.685C220.288 352.576 201.196 312.267 201.196 312.267L199.312 296.004Z" fill="#F73E4C"/>
<path d="M127.829 339.553L144.042 336.547C144.042 336.547 152.753 364.48 136.49 374.91L118.812 364.833L141.442 347.154L126.416 344.505L127.829 339.553Z" fill="#000F47"/>
<path d="M142.144 359.833L132.986 372.797L134.72 374.022L143.878 361.058L142.144 359.833Z" fill="#007AE8"/>
<path d="M138.482 357.426L129.187 370.035L130.895 371.295L140.191 358.686L138.482 357.426Z" fill="#007AE8"/>
<path d="M134.647 355.006L123.468 367.215L125.031 368.646L136.21 356.438L134.647 355.006Z" fill="#007AE8"/>
<path d="M122.789 337.43L137.285 335.398L134.194 350.778L122.789 349.453V337.43Z" fill="#FF7694"/>
<path d="M161.064 269.016C161.064 269.016 82.7472 284.572 72.6699 350.871L130.302 351.927L132.251 334.997L95.4771 337.608C95.4771 337.608 105.551 312.328 136.493 289.7L169.198 492.654C169.198 492.654 104.848 480.277 105.024 514.045L175.386 494.243L248.224 506.797C248.224 506.797 232.311 472.143 182.634 491.944C182.634 491.944 207.211 391.174 210.39 336.725C213.573 282.272 194.478 270.782 161.064 269.016Z" fill="#F73E4C"/>
<path d="M141.441 265.477L183.34 258.582L172.733 317.633L141.441 265.477Z" fill="#FF7694"/>
<path d="M172.734 317.633L165.942 306.316L164.897 278.56L160.445 274.794L164.661 263.242L173.617 272.904L169.139 278.089L175.098 304.461L172.734 317.633Z" fill="#000F47"/>
<path d="M174.821 347.659C157.755 347.659 144.174 341.203 143.947 341.094L145.184 338.55C145.552 338.73 182.096 356.055 209.628 332.43L211.471 334.576C199.73 344.653 186.465 347.659 174.821 347.659Z" fill="#000F47"/>
<path d="M176.192 346.622L169.571 321.687L179.551 271.668L182.328 272.221L172.477 321.595L178.927 345.898L176.192 346.622Z" fill="#000F47"/>
<path d="M176.308 322.371L173.888 320.908L190.165 293.952L181.171 286.431L192.653 279.023L194.184 281.399L185.932 286.722L193.842 293.34L176.308 322.371Z" fill="#000F47"/>
<path d="M165.379 318.697L142.799 298.928L147.029 290.891L136.181 283.404L138.286 275.438L141.021 276.159L139.425 282.206L150.7 289.987L146.34 298.268L167.243 316.568L165.379 318.697Z" fill="#000F47"/>
<path d="M173.784 492.989L178.247 358.292L178.25 358.171L178.365 358.15L193.418 355.73L178.415 358.436L178.533 358.298L176.613 493.053L173.784 492.989Z" fill="#000F47"/>
<path d="M166.78 488.233L168.193 491.769C168.193 491.769 101.724 480.099 104.432 515.226L175.618 494.951L249.044 507.802C249.044 507.802 233.959 470.321 184.008 491.409L185.634 487.294C185.634 487.294 178.915 488.471 179.978 492.949L172.082 493.07C172.082 493.07 171.614 487.523 166.78 488.233Z" fill="#000F47"/>
</svg>
