<svg width="932" height="810" viewBox="0 0 932 810" fill="none" xmlns="http://www.w3.org/2000/svg">
<path d="M557.945 431.522C557.945 431.522 546.31 508.497 567.738 563.899H591.589L609.981 427.09L557.945 431.522Z" fill="#FF6700"/>
<path d="M890.943 524.415C890.943 524.415 779.534 414.232 521.217 463.205L513.868 350.573C513.868 350.573 767.288 299.156 931.337 108.176L890.943 524.415Z" fill="#FF6700"/>
<path d="M886.043 509.725C886.043 509.725 817.484 445.447 826.054 329.756C834.621 214.065 923.378 126.531 923.378 126.531L886.043 509.725Z" fill="#000F47"/>
<path d="M841.355 393.42C841.355 393.42 826.193 331.916 855.433 253.246L931.337 277.729L920.318 351.795L841.355 393.42Z" fill="#FF6700"/>
<path d="M921.877 318.316C918.493 337.973 910.489 353 903.986 351.885C897.49 350.766 894.97 333.926 898.351 314.269C901.732 294.611 909.743 279.58 916.239 280.699C922.739 281.818 925.262 298.658 921.877 318.316Z" fill="#000F47"/>
<path d="M634.13 455.749C632.365 453.066 591.173 389.177 623.361 309.75L640.384 316.646C611.921 386.884 649.094 445.075 649.475 445.654L634.13 455.749Z" fill="#000F47"/>
<path d="M528.159 337.15L509.075 338.297L516.722 465.512L535.805 464.365L528.159 337.15Z" fill="#000F47"/>
<path d="M372.699 645.914C372.699 645.914 390.832 740.487 345.383 752.883C299.933 765.279 258.615 671.623 258.615 671.623C258.615 671.623 186.08 791.905 209.951 807.975C233.823 824.038 255.861 691.824 255.861 691.824C255.861 691.824 290.093 776.279 350.894 763.899C402.768 753.344 372.699 645.914 372.699 645.914Z" fill="#000F47"/>
<path d="M410.113 634.438L526.264 684.478L440.087 792.201C440.087 792.201 569.42 717.075 590.077 732.225C610.735 747.375 412.867 809.331 412.867 809.331L509.277 691.366L410.113 634.438Z" fill="#000F47"/>
<path d="M315.539 605.214C315.539 605.214 152.101 523.188 150.879 673.769C150.879 673.769 95.1723 683.566 97.6245 689.689C100.077 695.808 146.598 679.892 146.598 679.892C146.598 679.892 103.751 722.108 111.096 727.631C118.441 733.151 150.883 682.955 150.883 682.955C150.883 682.955 141.701 751.51 150.883 749.673C160.065 747.836 157.002 684.181 157.002 684.181C157.002 684.181 182.71 741.721 189.444 735.599C196.178 729.472 162.513 680.507 162.513 680.507C162.513 680.507 200.463 693.363 202.296 686.019C204.134 678.674 162.513 671.936 162.513 671.936C162.513 671.936 149.653 575.216 315.539 605.214Z" fill="#000F47"/>
<path d="M609.358 479.1L576.269 484.683C572.083 470.727 564.071 459.343 553.056 463.196C535.494 469.342 543.378 505.459 549.056 524.898C540.783 547.556 524.014 585.537 500.853 598.628C467.022 617.762 434.905 577.05 434.905 577.05C496.179 668.961 540.45 592.434 556.064 557.087C559.135 568.995 565.289 581.498 577.515 579.51C600.18 575.84 613.032 528.68 609.358 479.1Z" fill="#000F47"/>
<path d="M561 490.721C561 490.721 560.98 493.316 561.294 497.891C561.46 500.172 561.706 502.946 562.183 506.085C562.675 509.212 563.321 512.755 564.631 516.318C565.873 519.707 568.178 523.909 571.841 523.31C575.63 522.858 577.13 517.806 577.852 513.172C578.558 508.394 578.428 503.283 577.912 498.165C577.324 493.046 576.305 487.868 574.702 482.88C573.095 477.904 570.932 473.059 567.789 469.044C566.182 467.087 564.305 465.365 562.127 464.278C559.96 463.175 557.496 462.841 555.155 463.25C552.818 463.635 550.608 464.873 548.886 466.254C547.255 467.877 545.882 469.738 545.065 471.833C543.283 475.956 542.791 480.305 542.62 484.245C542.366 492.177 543.327 498.792 544.045 503.367C544.807 507.95 545.374 510.545 545.374 510.545C545.374 510.545 544.751 507.962 543.89 503.394C543.073 498.831 541.966 492.236 542.049 484.225C542.14 480.245 542.529 475.829 544.283 471.5C545.088 469.309 546.485 467.29 548.215 465.508C550.183 463.869 552.346 462.623 554.941 462.103C557.496 461.592 560.282 461.909 562.706 463.08C565.147 464.23 567.202 466.052 568.948 468.095C572.356 472.266 574.682 477.222 576.447 482.297C578.209 487.384 579.364 492.657 580.082 497.903C580.725 503.156 580.987 508.406 580.348 513.509C580.011 516.052 579.507 518.576 578.404 520.965C577.797 522.159 577.193 523.278 576.011 524.318L575.086 525.064L574.309 525.453L573.924 525.647C573.436 525.849 573.503 525.778 573.265 525.853L572.277 526.095C570.904 526.286 569.444 526.151 568.166 525.588C566.928 524.992 565.885 524.163 565.091 523.238C563.464 521.393 562.54 519.358 561.75 517.429C560.226 513.537 559.492 509.862 558.905 506.616C558.341 503.367 558.032 500.522 557.806 498.177C557.385 493.486 557.346 490.768 557.346 490.768L561 490.721Z" fill="#007AE8"/>
<path d="M575.066 524.323L571.397 524.406L572.646 579.668L576.316 579.585L575.066 524.323Z" fill="#007AE8"/>
<path d="M603.736 541.534L572.745 550.242L573.739 553.779L604.73 545.071L603.736 541.534Z" fill="#007AE8"/>
<path d="M609.327 518.364L573.214 532.441L574.547 535.861L610.66 521.784L609.327 518.364Z" fill="#007AE8"/>
<path d="M609.583 497.546L579.122 504.762L579.969 508.337L610.43 501.122L609.583 497.546Z" fill="#007AE8"/>
<path d="M422.965 576.133L339.411 608.269C339.411 608.269 337.578 566.951 226.474 569.708C115.374 572.462 -34.2911 516.454 7.02765 263.954C48.3464 11.4505 363.537 -65.4494 464.284 57.3642C590.078 210.696 393.586 438.407 422.965 576.133Z" fill="#FFB206"/>
<path d="M336.094 396.481C369.056 396.481 395.777 340.847 395.777 272.219C395.777 203.591 369.056 147.957 336.094 147.957C303.132 147.957 276.411 203.591 276.411 272.219C276.411 340.847 303.132 396.481 336.094 396.481Z" fill="white"/>
<path d="M387.158 300.373C387.158 309.166 383.047 316.292 377.976 316.292C372.905 316.292 368.794 309.166 368.794 300.373C368.794 291.584 372.905 284.457 377.976 284.457C383.051 284.461 387.158 291.588 387.158 300.373Z" fill="#000F47"/>
<path d="M468.343 292.313C464.038 329.886 446.944 358.781 430.167 356.86C413.39 354.936 403.284 322.926 407.589 285.353C411.899 247.784 428.989 218.885 445.765 220.81C462.538 222.73 472.649 254.744 468.343 292.313Z" fill="white"/>
<path d="M429.854 300.373C429.854 309.166 425.743 316.292 420.672 316.292C415.601 316.292 411.49 309.166 411.49 300.373C411.49 291.584 415.601 284.457 420.672 284.457C425.743 284.461 429.854 291.588 429.854 300.373Z" fill="#000F47"/>
<path d="M319.615 426.544L304.819 425.365L286.427 419.088L275.916 409.815L270.353 397.113L262.381 404.823L246.787 422.124L237.609 443.404L232.073 458.697L232.601 486.556L239.851 506.856L249.453 518.471L262.913 524.506L270.011 525.728L319.615 426.544Z" fill="#000F47"/>
<path d="M229.323 467.178C228.97 474.765 229.652 482.876 231.72 491.471C246.207 551.606 304.735 516.398 304.735 516.398C304.735 516.398 249.603 545.328 237.116 490.455C224.637 435.585 269.904 400.766 269.904 400.766C284.8 447.779 359.839 421.209 359.839 421.209C359.839 421.209 288.204 441.498 270.88 394.715C270.88 394.715 231.462 421.614 229.323 467.178Z" fill="#000F47"/>
<path d="M280.336 399.804C280.336 399.804 270.531 394.479 253.556 399.673C253.556 399.673 269.388 389.571 280.713 394.38L280.336 399.804Z" fill="#000F47"/>
<path d="M312.437 428.573L307.191 442.525L254.115 417.411L268.134 399.254C268.134 399.254 278.328 424.502 312.437 428.573Z" fill="white"/>
<path d="M232.239 467.586C232.239 467.586 236.299 522.769 262.725 522.416C262.725 522.416 259.313 468.38 232.239 467.586Z" fill="#FF7694"/>
<g opacity="0.2">
<path d="M457.634 67.0747C486.501 101.803 497.457 140.296 482.116 153.049C466.772 165.795 430.937 147.978 402.074 113.246C373.211 78.5184 362.251 40.0209 377.591 27.2757C392.936 14.5225 428.771 32.3428 457.634 67.0747Z" fill="white"/>
<path d="M41.9225 225.695C41.9225 225.695 -1.2533 497.698 206.547 559.916C206.547 559.916 -78.0539 524.779 41.9225 225.695Z" fill="white"/>
</g>
<path opacity="0.2" d="M159.664 316.082C105.965 322.752 40.1284 256.836 65.3927 203.038C78.3998 175.345 114.076 163.616 142.05 160.275C158.049 158.362 173.596 162.001 184.964 173.996C188.135 177.543 189.655 181.694 189.524 186.44C189.067 194.566 184.238 198.784 175.032 199.09C170.878 194.776 168.858 188.428 166.922 182.908C146.459 124.483 195.535 64.1538 244.175 37.8935C265.487 26.3863 300.806 16.26 320.38 36.2349C341.185 57.4717 320.293 109.258 294.104 116.162C296.207 116.912 298.31 117.666 300.409 118.416C291.438 97.854 334.57 77.4902 348.311 71.2287C374.123 59.4755 407.204 57.7891 430.945 74.9309C464.252 98.9769 445.872 150.676 422.846 174.258C418.16 179.055 428.417 180.876 431.766 177.448C464.625 143.799 474.037 80.986 422.977 59.8921C393.812 47.8453 359.838 56.3289 332.983 69.9947C316.916 78.1687 279.812 98.4571 289.763 121.273C290.843 123.749 293.656 124.166 296.072 123.527C325.539 115.758 341.439 78.1092 338.363 50.0555C335.014 19.4701 299.136 14.2482 274.828 19.0178C207.741 32.1836 136.773 107.084 154.296 178.976C158.002 194.169 173.374 224.382 191.468 203.312C213.784 177.325 183.849 151.232 155.994 151.728C122.024 152.335 86.4151 163.596 63.3531 189.547C38.7833 217.2 49.0961 254.471 69.1861 281.057C89.5102 307.952 124.385 328.208 158.74 323.939C164.652 323.205 166.902 315.185 159.664 316.082Z" fill="white"/>
<path d="M429.854 554.555L315.54 594.957L342.629 642.704L429.854 619.289V554.555Z" fill="#007AE8"/>
<path d="M324.051 601.666L425.112 563.895L325.392 605.086L324.051 601.666Z" fill="#000F47"/>
<path d="M336.038 606.539L416.235 579.68L337.28 609.999L336.038 606.539Z" fill="#000F47"/>
<path d="M333.963 620.292L423.58 593.977L335.066 623.796L333.963 620.292Z" fill="#000F47"/>
<path d="M346.847 627.63L419.295 608.012L347.895 631.149L346.847 627.63Z" fill="#000F47"/>
</svg>
