<svg width="423" height="681" viewBox="0 0 423 681" fill="none" xmlns="http://www.w3.org/2000/svg">
<path d="M302.832 516.399L258.457 677.527L65.392 565.042C63.3342 555 70.0589 544.499 81.6988 537.374L81.7609 537.344C87.1046 534.088 93.4917 531.54 100.554 530.097C119.132 526.32 136.452 531.264 143.577 541.46C146.125 529.268 160.098 514.835 178.646 511.028C197.224 507.22 214.544 515.266 221.669 525.462C224.217 513.271 238.189 501.908 256.769 498.101C279.187 493.52 299.823 501.69 302.832 516.399Z" fill="#FFDB9C"/>
<path d="M226.46 648.906L216.08 652.838L65.392 565.042C63.3342 555 70.0589 544.499 81.6988 537.374L81.7609 537.344L226.46 648.906Z" fill="#FFECC9"/>
<path d="M258.459 680.597C257.921 680.597 257.388 680.456 256.913 680.18L63.8477 567.696C63.0921 567.255 62.5606 566.514 62.3865 565.657C60.1333 554.662 66.9186 542.82 80.0985 534.753C85.9692 531.181 92.8075 528.542 99.9411 527.085C116.884 523.642 133.069 526.985 142.331 535.432C147.388 523.839 160.747 511.564 178.03 508.018C195.479 504.443 211.51 510.582 220.48 519.36C225.697 507.962 239.251 498.554 256.154 495.09C280.212 490.173 302.503 499.463 305.841 515.785C305.938 516.258 305.921 516.749 305.792 517.216L261.421 678.342C261.168 679.261 260.501 680.009 259.619 680.37C259.246 680.523 258.852 680.597 258.459 680.597ZM68.1951 563.12L256.558 672.865L299.667 516.33C296.486 503.76 277.752 496.949 257.385 501.107C240.477 504.57 227.028 514.844 224.678 526.086C224.428 527.285 223.487 528.219 222.288 528.465C221.084 528.707 219.856 528.219 219.154 527.215C212.824 518.159 196.705 510.47 179.264 514.033C161.728 517.633 148.877 531.122 146.586 542.084C146.334 543.283 145.395 544.219 144.196 544.464C142.994 544.706 141.764 544.219 141.062 543.215C134.497 533.821 118.088 529.664 101.168 533.104C94.7245 534.42 88.5661 536.793 83.3617 539.964C72.9589 546.325 67.2866 555.074 68.1951 563.12Z" fill="#FC9B2D"/>
<path d="M275.287 616.382L258.459 677.522L204.074 645.831C208.127 630.108 218.108 617.272 232.602 611.591C246.574 606.096 261.96 608.337 275.287 616.382Z" fill="#9397B4"/>
<path d="M258.459 680.594C257.921 680.594 257.388 680.453 256.913 680.178L202.526 648.488C201.339 647.796 200.756 646.398 201.098 645.067C205.55 627.799 216.623 614.558 231.48 608.734C245.744 603.123 262.291 604.953 276.872 613.756C278.05 614.466 278.612 615.872 278.247 617.199L261.419 678.339C261.166 679.258 260.5 680.008 259.619 680.368C259.246 680.52 258.852 680.594 258.459 680.594ZM207.668 644.373L256.557 672.861L271.695 617.855C259.143 610.944 245.736 609.722 233.724 614.449C221.36 619.298 211.96 630.134 207.668 644.373Z" fill="#505578"/>
<path d="M165.432 54.475C186.863 38.2711 220.315 5.3411 249.063 3.24994C295.129 -0.099544 398.554 45.0655 417.894 84.7915C426.607 102.687 391.236 163.196 391.236 163.196L165.432 54.475Z" fill="#EA5189"/>
<path d="M419.187 94.2162C389.186 57.4279 299.301 20.055 257.231 23.1259C233.584 24.8461 206.776 47.4173 186.078 64.398L165.442 54.4797C186.876 38.2652 220.318 5.34581 249.061 3.25768C295.125 -0.0902897 398.551 45.0521 417.897 84.7887C419.095 87.2145 419.463 90.4382 419.187 94.2162Z" fill="#FF73A5"/>
<path d="M391.236 166.269C390.788 166.269 390.333 166.172 389.906 165.965L164.101 57.2425C163.135 56.7792 162.483 55.8448 162.376 54.7803C162.27 53.7158 162.726 52.6725 163.58 52.026C167.874 48.7795 172.723 44.7985 177.856 40.5844C198.836 23.3599 224.946 1.92598 248.84 0.18764C297.035 -3.3057 400.786 42.6316 420.654 83.4478C429.822 102.274 397.593 158.407 393.887 164.746C393.321 165.718 392.296 166.269 391.236 166.269ZM171.239 53.8628L390.002 159.194C400.299 141.071 421.389 98.9779 415.135 86.1387C396.486 47.8316 294.753 2.96171 249.289 6.31574C227.338 7.91175 202.064 28.6598 181.755 45.3331C178.079 48.3494 174.547 51.2477 171.239 53.8628Z" fill="#AD1D52"/>
<path d="M302.832 516.398C299.823 501.689 279.186 493.521 256.769 498.095C238.191 501.904 224.218 513.265 221.669 525.456C214.545 515.261 197.225 507.216 178.647 511.022C160.099 514.831 146.125 529.263 143.577 541.454C136.453 531.259 119.133 526.315 100.555 530.091C78.106 534.698 62.3837 550.359 65.3925 565.038C21.6947 391.106 83.3574 175.47 142.962 91.8504L186.077 72.2578L313.088 105.915C313.088 105.915 367.964 136.531 377.392 175.47C328.782 271.037 291.869 430.936 302.832 516.398Z" fill="#FCD242"/>
<path d="M348.742 132.295C342.755 128.302 338.762 126.091 338.762 126.091L211.751 92.4359L171.218 105.961C116.987 182.057 58.4542 373.511 81.7613 537.342C70.0608 544.436 63.3361 554.97 65.394 565.042C21.6962 391.11 83.3588 175.473 142.964 91.8544L186.079 72.2617L313.089 105.919C313.089 105.916 331.422 116.143 348.742 132.295Z" fill="#FFE280"/>
<path d="M143.577 544.528C142.245 544.528 141.017 543.653 140.627 542.307C113.557 448.591 139.075 236.109 211.366 112.807C212.222 111.346 214.104 110.853 215.57 111.711C217.033 112.568 217.523 114.45 216.666 115.915C145.113 237.956 119.79 448.035 146.53 540.605C146.999 542.232 146.06 543.936 144.431 544.407C144.146 544.487 143.859 544.528 143.577 544.528Z" fill="#FC9B2D"/>
<path d="M221.668 528.524C220.076 528.524 218.732 527.299 218.609 525.686C210.832 423.678 246.995 231.384 303.571 145.587C304.507 144.173 306.41 143.781 307.825 144.714C309.242 145.648 309.631 147.551 308.698 148.967C252.762 233.793 217.025 424.16 224.731 525.218C224.86 526.909 223.594 528.384 221.902 528.515C221.825 528.521 221.745 528.524 221.668 528.524Z" fill="#FC9B2D"/>
<path d="M65.3909 568.109C64.0145 568.109 62.7653 567.177 62.4155 565.786C18.6102 391.429 80.7574 173.826 140.462 90.0679C140.777 89.6287 141.201 89.2789 141.693 89.0548L184.808 69.4636C185.453 69.1683 186.178 69.1093 186.866 69.2895L313.875 102.948C314.122 103.013 314.361 103.11 314.584 103.236C316.872 104.512 370.744 134.962 380.376 174.748C380.549 175.46 380.461 176.21 380.129 176.864C330.032 275.347 295.337 433.826 305.877 516.005C306.088 517.644 304.964 519.157 303.336 519.426C301.693 519.703 300.156 518.631 299.825 517.012C297.163 504.008 278.115 496.865 257.385 501.105C240.477 504.568 227.028 514.842 224.678 526.084C224.428 527.283 223.488 528.218 222.288 528.463C221.085 528.705 219.857 528.218 219.154 527.214C212.824 518.157 196.705 510.468 179.264 514.031C161.728 517.632 148.877 531.12 146.586 542.082C146.334 543.281 145.396 544.217 144.196 544.462C142.994 544.705 141.764 544.217 141.062 543.213C134.498 533.819 118.088 529.662 101.168 533.103C80.4364 537.356 65.7362 551.408 68.4043 564.423C68.7404 566.058 67.7077 567.662 66.0784 568.033C65.8467 568.084 65.6181 568.109 65.3909 568.109ZM144.988 94.3046C87.7259 175.31 28.483 380.436 65.0321 549.962C70.6832 539.429 83.6617 530.425 99.9367 527.085C116.879 523.634 133.071 526.982 142.328 535.43C147.387 523.837 160.745 511.563 178.029 508.016C195.477 504.441 211.509 510.58 220.479 519.358C225.695 507.96 239.249 498.552 256.153 495.088C273.195 491.611 289.346 495.25 298.504 503.471C292.749 417.736 326.437 269.474 374.133 175.11C364.776 139.956 316.359 111.343 311.913 108.782L186.35 75.5084L144.988 94.3046Z" fill="#F77036"/>
<path d="M162.901 325.634C194.657 325.634 220.4 299.891 220.4 268.135C220.4 236.38 194.657 210.637 162.901 210.637C131.146 210.637 105.403 236.38 105.403 268.135C105.403 299.891 131.146 325.634 162.901 325.634Z" fill="white"/>
<path d="M162.817 328.719C155.5 328.719 148.068 327.385 140.853 324.567C109.746 312.417 94.3202 277.223 106.469 246.114C112.355 231.045 123.755 219.17 138.575 212.676C153.392 206.179 169.849 205.843 184.921 211.731C199.991 217.616 211.867 229.017 218.362 243.835C224.856 258.652 225.19 275.113 219.305 290.183C209.973 314.078 187.046 328.719 162.817 328.719ZM162.873 213.695C155.45 213.695 148.044 215.233 141.04 218.301C127.726 224.137 117.479 234.809 112.191 248.349C101.274 276.304 115.133 307.928 143.088 318.846C171.048 329.771 202.668 315.904 213.584 287.95C218.874 274.408 218.572 259.617 212.738 246.301C206.902 232.987 196.231 222.741 182.689 217.453C176.268 214.944 169.563 213.695 162.873 213.695Z" fill="black"/>
<path d="M129.817 255.233C123.092 272.453 131.581 291.824 148.801 298.549C166.021 305.274 185.392 296.785 192.117 279.565C198.842 262.345 190.353 242.974 173.133 236.249C166.268 233.567 159.086 233.301 152.462 235.066C158.112 246.767 159.376 256.953 154.929 259.898C150.544 262.768 141.91 257.78 133.524 248.275C132.035 250.396 130.8 252.716 129.817 255.233Z" fill="black"/>
<path d="M373.611 300.812C377.148 269.253 358.001 241.202 330.844 238.158C303.687 235.113 278.804 258.229 275.266 289.788C271.729 321.346 290.876 349.397 318.033 352.442C345.19 355.486 370.073 332.37 373.611 300.812Z" fill="white"/>
<path d="M322.772 355.804C321.074 355.804 319.365 355.71 317.646 355.516C288.851 352.289 268.452 322.661 272.17 289.472C275.891 256.282 302.354 231.885 331.139 235.134C359.934 238.361 380.334 267.99 376.615 301.179C373.117 332.386 349.518 355.804 322.772 355.804ZM326.006 240.988C302.348 240.988 281.422 262.08 278.274 290.157C274.932 319.981 292.902 346.562 318.33 349.413C343.76 352.254 367.171 330.319 370.512 300.496C373.854 270.672 355.885 244.089 330.456 241.238C328.966 241.07 327.479 240.988 326.006 240.988Z" fill="black"/>
<path d="M277.148 281.354C270.423 298.574 278.912 317.945 296.132 324.67C313.351 331.395 332.721 322.906 339.448 305.686C346.172 288.466 337.684 269.095 320.464 262.37C313.598 259.688 306.418 259.422 299.793 261.187C305.443 272.888 306.707 283.074 302.26 286.019C297.874 288.889 289.24 283.901 280.854 274.396C279.366 276.517 278.13 278.837 277.148 281.354Z" fill="black"/>
<path d="M229.934 393.646C226.636 393.646 223.347 393.339 220.11 392.704C199.642 388.686 182.075 371.682 177.388 351.357C177.008 349.705 178.04 348.054 179.692 347.674C181.354 347.302 182.993 348.327 183.374 349.977C187.532 368.019 203.124 383.112 221.294 386.678C239.463 390.245 259.604 382.168 270.272 367.035C271.248 365.648 273.161 365.316 274.551 366.295C275.936 367.273 276.269 369.188 275.291 370.574C265.173 384.926 247.487 393.646 229.934 393.646Z" fill="black"/>
<path d="M198.127 358.129C197.379 358.129 196.631 357.858 196.04 357.309C192.226 353.774 187.057 351.695 181.857 351.602C176.645 351.445 171.418 353.404 167.481 356.802C166.195 357.909 164.257 357.765 163.15 356.484C162.041 355.2 162.184 353.262 163.468 352.153C168.536 347.779 175.291 345.299 181.966 345.461C188.654 345.579 195.306 348.256 200.214 352.805C201.458 353.958 201.531 355.901 200.379 357.144C199.775 357.8 198.952 358.129 198.127 358.129Z" fill="black"/>
<path d="M172.906 181.859C174.624 187.523 186.429 188.958 199.275 185.063C212.122 181.169 221.144 173.422 219.428 167.759C217.711 162.096 205.906 160.66 193.059 164.555C180.211 168.448 171.189 176.195 172.906 181.859Z" fill="black"/>
<path d="M267.614 175.991C263.792 180.509 269.001 191.2 279.248 199.87C289.496 208.541 300.901 211.907 304.723 207.39C308.545 202.872 303.338 192.181 293.089 183.511C282.842 174.84 271.437 171.474 267.614 175.991Z" fill="black"/>
<path d="M136.864 103.576C189.014 101.988 316.043 134.62 371.031 191.824C374.606 195.543 380.514 195.625 384.052 191.873L406.304 168.283C409.181 165.233 409.544 160.593 407.2 157.117C352.72 76.3579 217.091 37.2285 154.602 51.9848C152.436 52.4966 150.569 53.87 149.357 55.7355C141.504 67.8191 134.155 80.6931 128.849 90.3888C125.556 96.4094 130.006 103.785 136.864 103.576Z" fill="#9397B4"/>
<path d="M408.039 165.615C349.54 91.6992 222.651 56.416 162.801 70.5726C160.621 71.0647 158.778 72.4457 157.55 74.3188C151.07 84.237 144.959 94.7398 140.045 103.522C138.94 103.522 137.895 103.553 136.852 103.584C130.004 103.799 125.551 96.3994 128.837 90.3803C134.149 80.7073 141.488 67.8091 149.35 55.7407C150.578 53.8676 152.421 52.4851 154.602 51.9945C217.093 37.2231 352.733 76.3463 407.209 157.11C408.93 159.657 409.176 162.882 408.039 165.615Z" fill="#B5BBDE"/>
<path d="M377.618 197.72C374.326 197.72 371.122 196.349 368.818 193.951C314.149 137.08 187.665 105.116 136.958 106.645C132.591 106.807 128.721 104.651 126.457 100.964C124.175 97.2434 124.061 92.74 126.154 88.9135C131.071 79.9296 138.64 66.5907 146.782 54.0619C148.456 51.4832 150.983 49.6843 153.896 48.9953C216.357 34.2436 354.358 73.2958 409.747 155.401C412.923 160.105 412.426 166.27 408.541 170.389L386.287 193.977C384.027 196.374 380.969 197.704 377.674 197.72C377.656 197.72 377.637 197.72 377.618 197.72ZM140.459 100.451C194.305 100.451 318.69 132.937 373.245 189.693C374.419 190.914 375.836 191.53 377.644 191.577C379.24 191.57 380.721 190.925 381.817 189.763L404.07 166.174C405.972 164.159 406.212 161.141 404.653 158.833C350.618 78.7348 216.133 40.611 155.307 54.972C153.96 55.29 152.73 56.1773 151.932 57.4068C143.893 69.7736 136.407 82.9686 131.543 91.8602C130.521 93.7303 130.575 95.932 131.691 97.7506C132.786 99.5389 134.617 100.531 136.772 100.505C137.959 100.469 139.191 100.451 140.459 100.451Z" fill="#505578"/>
<path d="M272.36 545.143C267.529 545.143 262.838 542.605 260.302 538.092L179.504 394.364C175.764 387.711 178.126 379.287 184.779 375.547C191.431 371.811 199.857 374.169 203.597 380.822L284.395 524.552C288.135 531.205 285.773 539.629 279.119 543.369C276.978 544.569 274.654 545.143 272.36 545.143Z" fill="#BD491F"/>
<path d="M272.361 548.213C266.26 548.213 260.615 544.912 257.626 539.597L176.829 395.868C172.267 387.75 175.159 377.432 183.276 372.868C191.395 368.309 201.714 371.201 206.275 379.314L287.073 523.044C291.636 531.162 288.744 541.48 280.627 546.044C278.097 547.464 275.24 548.213 272.361 548.213ZM191.531 376.848C189.749 376.848 187.942 377.291 186.283 378.224C181.118 381.128 179.278 387.692 182.181 392.859L262.979 536.587C264.882 539.97 268.476 542.072 272.361 542.072C274.19 542.072 276.007 541.593 277.617 540.689C282.782 537.785 284.622 531.221 281.719 526.053L200.922 382.324C198.951 378.822 195.294 376.848 191.531 376.848Z" fill="#702509"/>
<path d="M138.598 152.098C76.9065 152.098 26.7188 202.287 26.7188 263.978C26.7188 325.668 76.9065 375.856 138.598 375.856C200.289 375.856 250.479 325.668 250.479 263.978C250.479 202.287 200.291 152.098 138.598 152.098Z" fill="#FCD242"/>
<path d="M138.598 399.502C63.8688 399.502 3.0708 338.705 3.0708 263.976C3.0708 189.247 63.8688 128.449 138.598 128.449C213.327 128.449 274.125 189.247 274.125 263.976C274.125 338.705 213.328 399.502 138.598 399.502ZM138.598 152.097C76.9064 152.097 26.7186 202.286 26.7186 263.978C26.7186 325.668 76.9064 375.856 138.598 375.856C200.289 375.856 250.479 325.668 250.479 263.978C250.479 202.286 200.291 152.097 138.598 152.097Z" fill="#BD491F"/>
<path d="M138.598 402.573C62.1745 402.573 0 340.399 0 263.977C0 187.553 62.1745 125.379 138.598 125.379C215.021 125.379 277.196 187.553 277.196 263.977C277.196 340.399 215.021 402.573 138.598 402.573ZM138.598 131.521C65.5618 131.521 6.14174 190.941 6.14174 263.977C6.14174 337.013 65.5618 396.431 138.598 396.431C211.634 396.431 271.054 337.013 271.054 263.977C271.054 190.941 211.634 131.521 138.598 131.521ZM138.598 378.927C75.2136 378.927 23.6478 327.361 23.6478 263.977C23.6478 200.593 75.2136 149.027 138.598 149.027C201.982 149.027 253.55 200.593 253.55 263.977C253.55 327.361 201.982 378.927 138.598 378.927ZM138.598 155.169C78.6009 155.169 29.7895 203.98 29.7895 263.977C29.7895 323.974 78.6009 372.785 138.598 372.785C198.596 372.785 247.408 323.974 247.408 263.977C247.408 203.98 198.596 155.169 138.598 155.169Z" fill="#702509"/>
<path d="M138.595 353.035C187.78 353.035 227.652 313.163 227.652 263.979C227.652 214.794 187.78 174.922 138.595 174.922C89.4106 174.922 49.5386 214.794 49.5386 263.979C49.5386 313.163 89.4106 353.035 138.595 353.035Z" fill="white"/>
<path d="M138.492 356.11C127.362 356.11 116.057 354.08 105.084 349.795C82.1611 340.841 64.0962 323.498 54.2174 300.959C44.34 278.423 43.8327 253.383 52.7819 230.461C71.2631 183.142 124.8 159.687 172.114 178.161C219.433 196.643 242.894 250.175 224.414 297.493C210.221 333.839 175.344 356.109 138.492 356.11ZM138.7 177.986C104.301 177.986 71.7522 198.772 58.5057 232.696C50.1486 254.09 50.6241 277.458 59.8442 298.494C69.0644 319.531 85.9239 335.718 107.319 344.072C151.481 361.321 201.446 339.427 218.695 295.259C235.944 251.095 214.045 201.13 169.882 183.883C159.64 179.882 149.084 177.986 138.7 177.986Z" fill="black"/>
<path d="M87.3743 243.975C76.9564 270.647 90.1075 300.651 116.779 311.069C143.451 321.487 173.456 308.336 183.872 281.664C194.29 254.992 181.139 224.988 154.467 214.571C143.834 210.418 132.709 210.006 122.45 212.739C131.201 230.863 133.159 246.641 126.271 251.202C119.479 255.648 106.104 247.922 93.1148 233.198C90.8101 236.482 88.8977 240.076 87.3743 243.975Z" fill="black"/>
<path d="M273.105 507.261C270.926 507.261 268.989 505.708 268.58 503.488C268.12 500.985 269.775 498.585 272.277 498.124C289.333 494.985 306.103 490.022 322.119 483.367C334.26 478.321 340.72 472.617 341.865 465.933C342.779 460.6 340.216 454.775 337.74 449.734C329.26 432.46 318.603 416.297 306.064 401.692C304.407 399.763 304.628 396.854 306.559 395.196C308.486 393.542 311.397 393.76 313.055 395.691C326.1 410.885 337.187 427.7 346.009 445.673C349.348 452.476 352.258 459.828 350.946 467.49C348.65 480.879 335.413 487.82 325.655 491.875C309.036 498.778 291.639 503.93 273.944 507.184C273.662 507.237 273.382 507.261 273.105 507.261Z" fill="#505578"/>
<path d="M273.105 510.335C269.402 510.335 266.23 507.69 265.561 504.045C264.795 499.882 267.558 495.872 271.721 495.106C288.566 492.007 305.126 487.104 320.941 480.533C331.877 475.989 337.899 470.903 338.838 465.417C339.598 460.986 337.246 455.698 334.984 451.089C326.621 434.051 316.107 418.104 303.735 403.693C300.977 400.482 301.347 395.626 304.56 392.868C307.772 390.112 312.629 390.479 315.387 393.693C328.6 409.083 339.831 426.116 348.766 444.323C352.335 451.59 355.435 459.49 353.974 468.012C351.422 482.895 337.263 490.379 326.834 494.714C310.017 501.701 292.408 506.914 274.501 510.208C274.036 510.292 273.568 510.335 273.105 510.335ZM309.558 397.158C309.204 397.158 308.848 397.279 308.559 397.529C308.141 397.888 308.047 398.339 308.029 398.575C308.011 398.812 308.035 399.272 308.395 399.693C321.106 414.497 331.907 430.88 340.497 448.383C343.185 453.854 345.962 460.215 344.893 466.454C343.554 474.261 336.491 480.723 323.299 486.204C307.084 492.941 290.103 497.968 272.834 501.146C272.002 501.299 271.448 502.102 271.601 502.933C271.752 503.754 272.54 504.311 273.382 504.167C290.871 500.95 308.059 495.86 324.477 489.04C333.563 485.264 345.88 478.866 347.918 466.972C349.084 460.171 346.365 453.368 343.253 447.026C334.543 429.287 323.6 412.688 310.724 397.691C310.423 397.34 309.993 397.158 309.558 397.158Z" fill="#252945"/>
<path d="M125.63 490.903C123.329 490.903 121.015 490.693 118.704 490.222C84.9987 483.356 76.0223 436.005 73.6722 408.39C73.4557 405.856 75.3364 403.626 77.8727 403.409C80.4091 403.209 82.6365 405.075 82.8515 407.61C84.5672 427.776 91.675 475.314 120.541 481.194C129.643 483.047 139.284 479.515 148.348 475.42C171.781 464.839 193.45 450.865 212.752 433.889C214.664 432.211 217.575 432.399 219.254 434.306C220.933 436.217 220.747 439.127 218.837 440.808C198.848 458.387 176.407 472.858 152.141 483.818C144.14 487.433 134.981 490.903 125.63 490.903Z" fill="#505578"/>
<path d="M125.63 493.973C123.045 493.973 120.509 493.723 118.091 493.231C82.4244 485.964 73.0361 437.121 70.6118 408.651C70.4377 406.606 71.0706 404.618 72.3926 403.051C73.713 401.484 75.5664 400.524 77.6106 400.351C81.8217 400.027 85.5543 403.16 85.9117 407.35C87.5682 426.827 94.3187 472.719 121.154 478.187C129.399 479.868 138.492 476.507 147.084 472.624C170.238 462.167 191.651 448.36 210.722 431.584C213.905 428.795 218.766 429.103 221.557 432.277C224.354 435.457 224.042 440.318 220.865 443.113C200.645 460.893 177.948 475.531 153.404 486.614C145.35 490.254 135.751 493.973 125.63 493.973ZM78.239 406.467C78.1966 406.467 78.1573 406.47 78.1133 406.473C77.5818 406.519 77.2427 406.83 77.0897 407.011C76.9368 407.192 76.6869 407.579 76.7339 408.13C79.0098 434.891 87.5697 480.746 119.317 487.214C121.333 487.624 123.457 487.833 125.63 487.833C134.587 487.833 143.419 484.388 150.878 481.02C174.868 470.186 197.05 455.881 216.811 438.502C217.446 437.943 217.508 436.97 216.949 436.334C216.389 435.698 215.415 435.637 214.779 436.198C195.25 453.374 173.324 467.514 149.614 478.221C140.08 482.527 129.89 486.232 119.929 484.205C89.0279 477.909 81.5658 428.725 79.7911 407.871C79.7245 407.074 79.0401 406.467 78.239 406.467Z" fill="#252945"/>
<path d="M207.388 413.429C220.892 404.684 237.681 406.613 244.884 417.738C252.088 428.863 246.981 444.972 233.477 453.716C219.973 462.461 203.185 460.532 195.98 449.407C188.777 438.282 193.884 422.175 207.388 413.429Z" fill="#505578"/>
<path d="M215.598 462.25C206.484 462.25 198.116 458.409 193.372 451.084C185.261 438.557 190.786 420.512 205.689 410.862C220.591 401.213 239.317 403.551 247.431 416.08C255.542 428.607 250.017 446.652 235.114 456.303C228.924 460.311 222.072 462.25 215.598 462.25ZM225.252 411.027C219.924 411.027 214.211 412.659 209.026 416.016C196.967 423.827 192.255 438.061 198.527 447.746C204.8 457.432 219.717 458.954 231.775 451.147C243.834 443.338 248.543 429.104 242.275 419.417C238.698 413.896 232.314 411.027 225.252 411.027Z" fill="#252945"/>
<path d="M260.53 524.475C276.603 523.797 289.22 513.463 288.71 501.396C288.2 489.328 274.757 480.096 258.684 480.775C242.611 481.454 229.994 491.787 230.504 503.854C231.014 515.922 244.457 525.154 260.53 524.475Z" fill="#505578"/>
<path d="M258.884 527.613C241.934 527.613 227.991 517.295 227.431 504.015C226.851 490.276 240.81 478.488 258.551 477.739C266.985 477.375 275.053 479.537 281.268 483.806C287.755 488.261 291.484 494.475 291.773 501.3C292.061 508.125 288.868 514.628 282.78 519.615C276.946 524.394 269.089 527.219 260.654 527.575C260.062 527.601 259.472 527.613 258.884 527.613ZM260.356 483.841C259.843 483.841 259.328 483.853 258.81 483.874C244.455 484.481 233.129 493.4 233.566 503.756C234.004 514.112 246.019 522.004 260.395 521.439C267.509 521.14 274.077 518.803 278.887 514.865C283.444 511.132 285.841 506.406 285.636 501.559C285.432 496.71 282.646 492.204 277.789 488.87C273.038 485.605 266.896 483.841 260.356 483.841Z" fill="#252945"/>
</svg>
