<svg width="696" height="890" viewBox="0 0 696 890" fill="none" xmlns="http://www.w3.org/2000/svg">
<path d="M470.065 828.57H100.188L70.8564 610.307L255.88 596.625V417.406C255.88 417.406 379.083 334.638 530.72 429.893L470.065 828.57Z" fill="#FF7694"/>
<path d="M371.793 826.156L365.044 609.273L366.449 608.951C367.095 608.801 431.377 594.345 483.421 610.142C487.358 594.845 514.205 483.578 476.938 434.125C465.164 418.499 447.935 410.464 425.727 410.242L425.762 406.746C449.114 406.976 467.271 415.48 479.735 432.018C520.633 486.301 487.754 607.682 486.334 612.816L485.85 614.57L484.116 614.015C436.881 598.976 378.384 610.039 368.631 612.054L375.293 826.045L371.793 826.156Z" fill="#000F47"/>
<path d="M139.936 608.933L136.45 609.242L155.689 826.275L159.175 825.966L139.936 608.933Z" fill="#000F47"/>
<path d="M367.976 642.969H142.094V646.472H367.976V642.969Z" fill="#000F47"/>
<path d="M369.656 694.845L155.372 711.285L155.64 714.771L369.923 698.33L369.656 694.845Z" fill="#000F47"/>
<path d="M422.729 612.255L407.083 826.004L410.573 826.259L426.219 612.51L422.729 612.255Z" fill="#000F47"/>
<path d="M397.288 647.344C400.712 654.272 401.125 661.057 398.208 662.505C395.284 663.954 390.133 659.51 386.701 652.585C383.273 645.657 382.86 638.868 385.784 637.42C388.705 635.979 393.855 640.419 397.288 647.344Z" fill="#000F47"/>
<path d="M110.449 642.094C113.877 649.022 114.286 655.819 111.365 657.255C108.441 658.708 103.29 654.26 99.8621 647.343C96.4298 640.411 96.0211 633.622 98.9455 632.17C101.862 630.729 107.016 635.169 110.449 642.094Z" fill="#000F47"/>
<path d="M363.29 565.061L220.45 551.979C220.45 551.979 101.477 322.775 166.806 148.996C232.104 -24.806 587.486 -60.8155 637.455 117.506C712.303 384.779 385.931 385.235 363.29 565.061Z" fill="#FFB206"/>
<g opacity="0.2">
<path d="M286.041 162.71C249.837 204.771 203.927 224.615 183.5 207.033C163.068 189.45 175.853 141.1 212.053 99.0315C248.253 56.9747 294.163 37.1228 314.594 54.7011C335.022 72.2912 322.241 120.649 286.041 162.71Z" fill="white"/>
<path d="M595.18 75.3281C595.18 75.3281 646.791 269.768 477.957 404.609C477.957 404.609 752.642 269.935 595.18 75.3281Z" fill="white"/>
</g>
<path opacity="0.2" d="M288.878 225.892C253.468 226.404 240.385 171.844 242.873 144.445C247.662 91.7063 305.413 61.9343 345.878 101.468C357.421 112.745 357.663 130.152 354.259 144.778C350.854 159.416 345.148 149.171 344.24 141.279C343.363 133.656 344.779 125.522 345.934 117.998C352.326 76.485 383.051 46.3202 425.052 41.4674C461.68 37.2375 499.825 55.288 509.36 92.5435C515.578 116.824 506.4 144.104 486.314 158.936C465.97 156.115 463.649 151.131 479.35 143.989C485.179 141.013 492.222 139.521 498.599 138.346C508.209 136.58 517.32 138.191 526.609 140.735C563.829 150.913 583.137 192.176 561.162 224.896C542.715 252.367 502.737 265.659 471.303 267.937C466.192 268.306 462.978 274.325 469.989 273.818C523.926 269.917 621.21 218.361 565.721 154.238C543.441 128.49 504.364 127.482 475.271 139.552C464.879 143.866 455.701 151.929 457.137 163.944C458.327 173.899 478.021 169.253 482.997 167.094C519.244 151.357 530.41 106.142 512.868 72.3384C496.896 41.5626 457.895 33.345 426.365 35.5789C389.443 38.1899 355.279 61.7518 341.629 96.575C335.962 111.026 322.741 158.063 347.664 160.452C371.357 162.718 368.182 116.387 360.854 105.043C343.394 78.0206 303.694 67.8031 275.224 82.9053C243.869 99.5431 229.255 133.569 232.874 168.134C235.679 194.93 254.233 232.328 284.993 231.88C288.93 231.828 295.731 225.793 288.878 225.892Z" fill="white"/>
<path d="M216.517 303.246C216.517 303.246 207.113 405.605 247.464 404.724C287.811 403.851 292.187 303.246 292.187 303.246C292.187 303.246 267.475 400.918 248.448 398.165C229.421 395.411 222.208 303.246 222.208 303.246H216.517Z" fill="#000F47"/>
<path d="M298.996 299.75C298.996 299.75 288.941 409.168 332.077 408.231C375.209 407.295 379.884 299.75 379.884 299.75C379.884 299.75 353.465 404.164 333.125 401.212C312.789 398.272 305.071 299.75 305.071 299.75H298.996Z" fill="#000F47"/>
<path d="M359.615 432.063C359.615 432.063 388.776 432.063 387.026 408.156H392.566C392.566 408.156 390.236 441.396 359.615 432.063Z" fill="#000F47"/>
<path d="M381.122 406.041L382.653 412.378C382.653 412.378 388.339 406.482 400.148 410.854C400.148 410.854 392.498 401.01 381.122 406.041Z" fill="#000F47"/>
<path d="M0 413.476L62.1111 394.668L73.4834 462.033C73.4834 462.033 87.919 381.986 152.657 401.231L145.399 407.79C145.399 407.79 129.972 399.08 108.037 413.917C86.1056 428.753 103.66 475.587 64.7339 479.964C25.8079 484.333 0 413.476 0 413.476Z" fill="#FF6700"/>
<path d="M64.1834 399.616L1.90137 417.957L2.89004 421.314L65.172 402.973L64.1834 399.616Z" fill="#000F47"/>
<path d="M64.1552 406.53L5.46289 425.75L6.55204 429.076L65.2444 409.856L64.1552 406.53Z" fill="#000F47"/>
<path d="M151.467 399.872L144.213 406.434L146.561 409.029L153.814 402.468L151.467 399.872Z" fill="#000F47"/>
<path d="M96.2281 538.65L94.0417 474.714C94.0417 474.714 69.9837 506.204 46.8026 501.398C23.6216 496.585 16.1855 451.1 16.1855 451.1L59.0479 441.91L68.6703 474.277C68.6703 474.277 85.7327 447.592 99.7278 459.405C113.723 471.214 96.2281 538.65 96.2281 538.65Z" fill="#000F47"/>
<path d="M69.131 487.568C66.9526 487.568 64.8297 486.87 62.7941 485.481C50.7393 477.244 45.1325 446.198 44.8984 444.881L48.3427 444.27C48.3982 444.579 53.9256 475.184 64.7662 482.593C66.6629 483.89 68.5398 484.326 70.5119 483.934L71.1983 487.366C70.5079 487.497 69.8175 487.568 69.131 487.568Z" fill="#007AE8"/>
<path d="M63.6742 495.171C41.8145 495.171 34.7039 449.074 34.4062 447.074L37.8663 446.562C37.9378 447.027 44.9929 493.048 64.5988 491.635L64.8606 495.123C64.4638 495.155 64.067 495.171 63.6742 495.171Z" fill="#007AE8"/>
<path d="M49.9886 499.441C28.6685 493.814 23.2085 451.281 22.9863 449.471L26.4583 449.047C26.5099 449.464 31.8389 491.032 50.8774 496.056L49.9886 499.441Z" fill="#007AE8"/>
<path d="M213.454 567.44C213.454 567.44 153.529 619.056 113.726 611.62C73.9232 604.184 77.423 509.269 77.423 509.269L120.289 497.75C120.289 497.75 142.482 596.692 195.626 551.635L213.454 567.44Z" fill="#F73E4C"/>
<path d="M119.852 496.019L76.9844 507.523L77.8915 510.904L120.76 499.399L119.852 496.019Z" fill="#000F47"/>
<path d="M122.264 505.607L76.8252 521.449L77.976 524.75L123.415 508.908L122.264 505.607Z" fill="#000F47"/>
<path d="M203.828 741.969L184.146 823.321L138.221 815.012V828.57H192.455L207.764 745.901L203.828 741.969Z" fill="#000F47"/>
<path d="M207.764 835.569C207.764 835.569 214.323 824.197 142.153 824.638L145.653 799.703C145.653 799.703 46.362 776.518 59.9206 832.514L207.764 835.569Z" fill="#F73E4C"/>
<path d="M185.281 688.898L141.685 760.346L100.493 738.407L96.3506 751.315L147.994 767.885L187.833 693.854L185.281 688.898Z" fill="#000F47"/>
<path d="M160.43 779.229C160.43 779.229 170.16 770.408 101.303 748.77L112.251 726.097C112.251 726.097 24.7918 673.684 20.5977 731.136L160.43 779.229Z" fill="#F73E4C"/>
<path d="M362.171 645.74L239.258 642.24L220.013 791.833L138.221 687.297L226.136 592.374L298.746 617.309L302.976 555.047L366.524 547.754L373.543 640.054L362.171 645.74Z" fill="#F73E4C"/>
<path d="M348.171 463.333C348.171 463.333 344.092 404.432 240.281 463.333C240.281 463.333 171.46 380.656 144.633 437.16L231.532 497.743L348.171 463.333Z" fill="#FFC7A1"/>
<path d="M334.176 584.939H167.961L138.221 427.473L236.199 471.212L356.048 448.467L334.176 584.939Z" fill="#007AE8"/>
<path d="M243.046 485.092C243.022 485.095 243.004 485.095 242.99 485.091L242.92 485.1L242.862 485.108L242.835 485.111L242.683 485.095L242.668 485.069L242.663 485.031L242.645 484.926C242.634 484.88 242.626 484.84 242.622 484.807L242.58 484.512C242.574 484.484 242.568 484.445 242.561 484.396C242.546 484.277 242.535 484.161 242.529 484.049C242.525 483.976 242.512 483.859 242.492 483.699C242.488 483.673 242.483 483.651 242.475 483.634L242.47 483.595L242.463 483.572C242.456 483.512 242.452 483.454 242.453 483.396L242.43 483.189L242.414 483.097L242.403 483.007C242.394 483.001 242.389 482.992 242.388 482.982C242.383 482.943 242.41 482.91 242.47 482.884C242.505 482.869 242.549 482.858 242.604 482.851L243.171 482.779L243.435 482.749C243.435 482.749 243.437 482.75 243.44 482.752C243.445 482.754 243.451 482.757 243.457 482.762C243.48 482.78 243.504 482.804 243.529 482.835C243.558 482.871 243.582 482.91 243.603 482.952C243.628 483.001 243.675 483.087 243.743 483.21C243.798 483.311 243.844 483.391 243.88 483.449C243.91 483.514 243.937 483.545 243.963 483.541C243.987 483.538 244.003 483.519 244.011 483.484C244.016 483.478 244.021 483.46 244.028 483.43L244.072 483.279C244.076 483.268 244.089 483.226 244.111 483.155C244.117 483.141 244.133 483.092 244.159 483.007L244.201 482.875C244.205 482.859 244.21 482.839 244.217 482.814C244.225 482.789 244.233 482.766 244.244 482.743C244.264 482.699 244.282 482.669 244.295 482.654C244.299 482.643 244.306 482.637 244.317 482.635L244.58 482.598L245.143 482.525L245.19 482.519L245.225 482.515L245.271 482.509C245.282 482.51 245.306 482.508 245.342 482.504C245.344 482.503 245.352 482.52 245.364 482.552C245.389 482.683 245.406 482.789 245.416 482.869C245.434 482.967 245.456 483.115 245.481 483.315L245.506 483.509C245.521 483.625 245.532 483.794 245.54 484.014L245.555 484.13C245.562 484.163 245.569 484.21 245.577 484.269L245.601 484.432C245.608 484.463 245.615 484.504 245.621 484.556C245.627 484.602 245.632 484.633 245.637 484.648L245.642 484.687L245.634 484.716L245.491 484.77L245.46 484.774L245.405 484.781L245.339 484.789C245.324 484.797 245.305 484.802 245.282 484.805C245.181 484.818 245.077 484.827 244.97 484.833C244.863 484.836 244.796 484.838 244.769 484.839L244.754 484.845L244.735 484.847C244.719 484.849 244.709 484.826 244.702 484.776C244.681 484.711 244.655 484.563 244.625 484.332C244.612 484.268 244.598 484.181 244.584 484.069C244.581 484.051 244.571 484.043 244.553 484.046C244.545 484.047 244.539 484.058 244.534 484.08C244.507 484.178 244.491 484.239 244.486 484.263L244.47 484.348L244.447 484.415C244.413 484.524 244.373 484.611 244.326 484.675C244.297 484.713 244.264 484.734 244.228 484.739L244.177 484.745L244.107 484.754C244.074 484.759 244.049 484.76 244.033 484.76C244.005 484.763 243.984 484.765 243.97 484.764C243.862 484.636 243.758 484.492 243.659 484.334C243.644 484.304 243.631 484.28 243.618 484.261C243.607 484.241 243.598 484.224 243.591 484.209C243.57 484.185 243.559 484.173 243.559 484.173C243.541 484.176 243.533 484.186 243.535 484.204L243.555 484.359C243.576 484.517 243.589 484.631 243.595 484.702C243.61 484.813 243.612 484.897 243.604 484.953C243.603 484.964 243.6 484.973 243.596 484.982C243.594 484.99 243.591 484.994 243.586 484.995L243.566 484.997L243.55 484.995C243.527 485.001 243.463 485.016 243.359 485.04C243.256 485.061 243.152 485.078 243.046 485.092ZM246.15 484.685C246.1 484.692 246.075 484.65 246.074 484.561C246.07 484.53 246.072 484.494 246.08 484.453C246.078 484.435 246.077 484.421 246.079 484.41C246.08 484.397 246.08 484.386 246.079 484.379C246.102 484.089 246.132 483.802 246.169 483.518L246.301 482.452C246.3 482.446 246.303 482.439 246.31 482.431C246.317 482.422 246.324 482.414 246.331 482.408L246.358 482.405C246.389 482.401 246.413 482.394 246.43 482.384C246.445 482.379 246.472 482.374 246.511 482.369C246.573 482.361 246.62 482.357 246.652 482.355C246.699 482.357 246.747 482.355 246.797 482.348L246.998 482.319C247.018 482.311 247.042 482.305 247.071 482.301L247.241 482.272L247.369 482.255C247.418 482.249 247.466 482.244 247.513 482.241L247.622 482.227C247.648 482.226 247.686 482.222 247.735 482.216L247.882 482.197C247.89 482.196 247.898 482.196 247.906 482.198C247.914 482.2 247.921 482.201 247.927 482.203C247.938 482.207 247.951 482.208 247.966 482.206L248.001 482.202C248.021 482.212 248.032 482.224 248.034 482.237L248.441 483.227C248.569 483.544 248.672 483.814 248.75 484.036C248.752 484.048 248.759 484.073 248.771 484.108C248.788 484.158 248.799 484.199 248.803 484.23C248.805 484.248 248.806 484.273 248.804 484.305C248.795 484.332 248.778 484.348 248.755 484.351L248.712 484.356C248.679 484.36 248.653 484.362 248.634 484.362L248.549 484.373L248.467 484.384L248.401 484.392C248.383 484.394 248.373 484.394 248.37 484.392L248.156 484.42L248.151 484.412C248.145 484.408 248.137 484.406 248.127 484.408L248.116 484.417C248.117 484.422 248.115 484.425 248.109 484.426L248.098 484.427L248.071 484.431C248.057 484.427 248.033 484.428 248 484.432C247.937 484.435 247.885 484.439 247.843 484.444C247.807 484.388 247.757 484.262 247.692 484.065C247.639 484.08 247.577 484.091 247.507 484.1L247.406 484.113L247.309 484.126C247.304 484.166 247.301 484.199 247.302 484.225C247.301 484.239 247.297 484.284 247.288 484.361C247.28 484.439 247.269 484.491 247.257 484.519L247.235 484.53C247.227 484.534 247.221 484.537 247.216 484.54C247.211 484.541 247.209 484.541 247.209 484.541L247.201 484.542C247.185 484.544 247.175 484.543 247.169 484.539C247.158 484.535 247.151 484.533 247.148 484.533L247.002 484.56L246.893 484.574C246.88 484.578 246.87 484.582 246.863 484.586C246.855 484.587 246.85 484.587 246.847 484.588L246.537 484.628L246.506 484.632C246.483 484.637 246.435 484.645 246.363 484.654L246.269 484.666C246.254 484.671 246.23 484.675 246.196 484.679L246.15 484.685ZM247.604 483.654C247.577 483.568 247.561 483.517 247.557 483.502L247.502 483.32C247.492 483.284 247.482 483.252 247.474 483.225C247.464 483.194 247.457 483.166 247.451 483.141C247.439 483.111 247.429 483.083 247.421 483.058C247.414 483.03 247.407 483.004 247.399 482.982C247.394 482.966 247.389 482.947 247.384 482.924C247.378 482.899 247.372 482.881 247.365 482.871L247.351 482.826C247.35 482.815 247.346 482.807 247.34 482.8L247.333 482.777C247.33 482.793 247.328 482.801 247.328 482.801L247.33 482.817L247.332 482.828C247.332 482.831 247.332 482.836 247.33 482.844C247.328 482.85 247.327 482.861 247.326 482.876C247.325 482.89 247.325 482.907 247.325 482.928C247.325 482.946 247.324 482.968 247.321 482.991L247.315 483.154L247.306 483.337L247.306 483.424C247.303 483.445 247.302 483.479 247.303 483.527C247.295 483.646 247.291 483.701 247.293 483.69L247.463 483.668C247.466 483.665 247.469 483.662 247.474 483.659C247.479 483.653 247.482 483.65 247.485 483.649L247.496 483.648C247.509 483.646 247.52 483.646 247.528 483.648C247.539 483.649 247.548 483.65 247.556 483.652C247.572 483.655 247.588 483.656 247.604 483.654ZM251.046 484.096C250.917 483.999 250.806 483.899 250.711 483.795C250.644 483.728 250.539 483.606 250.396 483.429L250.316 483.333C250.313 483.331 250.31 483.33 250.308 483.33C250.308 483.328 250.307 483.326 250.307 483.326L250.288 483.329L250.273 483.339C250.275 483.373 250.285 483.463 250.304 483.611C250.317 483.707 250.326 483.82 250.332 483.951L250.343 484.068C250.337 484.097 250.332 484.113 250.329 484.113L250.302 484.116L250.291 484.118C250.009 484.175 249.803 484.212 249.673 484.229L249.615 484.236L249.541 484.246C249.513 484.249 249.492 484.251 249.479 484.25L249.451 484.253L249.326 484.23L249.315 484.204C249.31 484.204 249.305 484.2 249.301 484.19C249.3 484.179 249.299 484.172 249.298 484.166C249.276 484.059 249.26 483.981 249.248 483.932C249.22 483.794 249.2 483.692 249.19 483.628C249.176 483.566 249.169 483.527 249.166 483.508L249.12 483.297L249.101 483.181C249.095 483.158 249.09 483.126 249.084 483.085L249.08 483.05C249.083 483.036 249.083 483.015 249.08 482.987L249.071 482.921C249.072 482.91 249.072 482.898 249.071 482.885L249.063 482.855L249.058 482.816C249.055 482.798 249.051 482.784 249.044 482.774L249.041 482.751L249.033 482.653C249.033 482.635 249.031 482.607 249.026 482.571C249.021 482.493 249.015 482.419 249.006 482.349L249.001 482.31C248.997 482.303 248.994 482.286 248.99 482.26L248.983 482.206L248.978 482.167C248.969 482.16 248.965 482.153 248.964 482.145C248.959 482.109 248.988 482.079 249.051 482.055C249.083 482.04 249.13 482.029 249.192 482.021C249.798 481.943 250.254 481.906 250.559 481.909C250.86 481.912 251.076 481.957 251.208 482.042C251.266 482.085 251.31 482.138 251.339 482.203C251.371 482.265 251.393 482.341 251.404 482.432C251.423 482.577 251.397 482.704 251.327 482.813C251.279 482.874 251.222 482.927 251.154 482.973C251.174 483.01 251.23 483.082 251.32 483.188C251.338 483.205 251.354 483.222 251.37 483.241C251.388 483.26 251.409 483.28 251.433 483.3C251.491 483.361 251.557 483.428 251.632 483.5C251.636 483.51 251.649 483.53 251.672 483.562C251.685 483.565 251.693 483.571 251.694 483.578C251.697 483.583 251.697 483.591 251.693 483.602C251.676 483.636 251.621 483.689 251.528 483.762C251.516 483.776 251.502 483.791 251.486 483.806C251.44 483.855 251.374 483.906 251.289 483.962C251.212 484.017 251.145 484.057 251.087 484.083C251.066 484.099 251.052 484.103 251.046 484.096ZM250.163 482.82C250.197 482.816 250.241 482.803 250.297 482.783C250.349 482.76 250.386 482.74 250.407 482.721C250.443 482.693 250.473 482.663 250.498 482.631C250.522 482.593 250.532 482.553 250.526 482.509C250.517 482.436 250.487 482.381 250.438 482.343C250.395 482.316 250.345 482.307 250.288 482.314L250.121 482.336C250.125 482.37 250.129 482.423 250.134 482.496L250.14 482.578C250.142 482.631 250.149 482.711 250.163 482.82ZM253.85 483.68C253.843 483.668 253.836 483.663 253.828 483.664L253.823 483.656C253.821 483.657 253.816 483.656 253.811 483.654C253.808 483.649 253.805 483.647 253.802 483.647L253.451 483.337C253.447 483.332 253.435 483.321 253.415 483.302C253.394 483.284 253.378 483.27 253.366 483.261C253.34 483.241 253.322 483.226 253.313 483.217C253.293 483.206 253.28 483.201 253.275 483.202C253.26 483.204 253.253 483.214 253.255 483.232L253.266 483.313C253.264 483.343 253.267 483.384 253.274 483.439C253.276 483.47 253.28 483.512 253.286 483.563C253.287 483.59 253.289 483.617 253.293 483.645L253.296 483.673L253.301 483.708C253.305 483.744 253.304 483.762 253.296 483.763L253.284 483.765L253.265 483.767L253.246 483.77L253.23 483.772C253.156 483.789 253.045 483.807 252.898 483.826L252.56 483.87L252.502 483.877L252.432 483.886L252.373 483.894L252.346 483.897L252.194 483.881L252.179 483.856L252.174 483.817C252.17 483.802 252.164 483.769 252.158 483.72C252.149 483.669 252.135 483.574 252.117 483.437C252.109 483.372 252.1 483.325 252.091 483.295L252.076 483.178C252.018 482.786 251.962 482.384 251.91 481.972L251.898 481.879C251.889 481.854 251.883 481.825 251.879 481.794L251.877 481.779L251.873 481.752L251.87 481.724C251.869 481.719 251.871 481.715 251.876 481.712C251.879 481.69 251.886 481.675 251.898 481.666C251.912 481.653 251.93 481.643 251.953 481.635C251.963 481.633 251.973 481.634 251.981 481.635C251.991 481.636 252.003 481.636 252.016 481.635C252.053 481.635 252.075 481.635 252.083 481.634L252.743 481.549L253.043 481.515C253.048 481.514 253.052 481.515 253.055 481.517C253.058 481.519 253.06 481.523 253.06 481.528C253.074 481.553 253.083 481.579 253.086 481.608C253.091 481.62 253.094 481.638 253.097 481.662C253.112 481.773 253.121 481.856 253.125 481.911C253.124 481.982 253.128 482.052 253.137 482.122C253.168 482.118 253.191 482.109 253.208 482.093C253.21 482.09 253.214 482.087 253.219 482.084C253.223 482.081 253.227 482.076 253.229 482.071C253.233 482.062 253.243 482.051 253.26 482.035L253.31 481.97C253.391 481.878 253.427 481.835 253.42 481.841L253.693 481.51C253.719 481.483 253.741 481.459 253.759 481.438C253.78 481.417 253.798 481.399 253.812 481.384C253.852 481.348 253.877 481.329 253.887 481.327C253.9 481.326 253.916 481.337 253.935 481.361C253.964 481.383 253.982 481.398 253.988 481.405C254.017 481.446 254.055 481.485 254.101 481.521C254.148 481.554 254.177 481.575 254.189 481.584C254.239 481.628 254.278 481.664 254.305 481.692C254.332 481.72 254.356 481.752 254.377 481.789L254.378 481.797C254.383 481.836 254.359 481.889 254.307 481.956C254.294 481.974 254.281 481.988 254.27 482C254.261 482.012 254.253 482.022 254.246 482.031L254.195 482.097C254.187 482.098 254.178 482.108 254.168 482.128L254.05 482.254C254.006 482.304 253.968 482.346 253.935 482.379L253.908 482.41L253.883 482.433C253.863 482.443 253.851 482.451 253.847 482.457C253.847 482.462 253.847 482.468 253.845 482.473C253.843 482.479 253.842 482.485 253.843 482.493C253.846 482.511 253.853 482.529 253.866 482.546C253.881 482.559 253.896 482.573 253.911 482.587C253.92 482.597 253.938 482.607 253.966 482.62C253.966 482.62 253.981 482.631 254.01 482.653L254.084 482.703L254.226 482.799L254.352 482.89L254.501 483.001C254.551 483.042 254.587 483.075 254.608 483.101C254.632 483.125 254.646 483.145 254.648 483.164C254.651 483.189 254.645 483.21 254.628 483.225C254.592 483.269 254.559 483.304 254.531 483.329C254.484 483.371 254.449 483.405 254.425 483.429C254.339 483.516 254.275 483.576 254.231 483.608C254.221 483.612 254.187 483.632 254.129 483.668L254.07 483.707C254.054 483.72 254.044 483.727 254.041 483.727C254.012 483.746 253.989 483.757 253.971 483.76C253.958 483.761 253.947 483.759 253.938 483.752L253.85 483.68ZM255.22 483.501C255.215 483.501 255.21 483.497 255.206 483.486C255.185 483.466 255.169 483.439 255.157 483.406C255.147 483.394 255.139 483.378 255.131 483.358C255.101 483.314 255.076 483.252 255.055 483.17C255.03 483.053 255.012 482.959 255.003 482.889C254.997 482.858 254.99 482.816 254.983 482.761L254.971 482.668C254.961 482.59 254.952 482.53 254.944 482.486C254.935 482.44 254.922 482.348 254.904 482.211C254.857 481.843 254.829 481.559 254.818 481.358C254.814 481.326 254.855 481.298 254.942 481.271L255.058 481.256L255.155 481.243C255.303 481.224 255.413 481.213 255.486 481.209C255.596 481.202 255.706 481.192 255.818 481.178C255.844 481.175 255.863 481.171 255.875 481.167L255.934 481.159L255.955 481.172C256.038 481.143 256.125 481.12 256.215 481.103C256.305 481.086 256.414 481.07 256.544 481.053C256.549 481.052 256.556 481.055 256.565 481.062L256.689 481.046C256.71 481.044 256.727 481.053 256.74 481.075C256.756 481.097 256.771 481.129 256.784 481.172C256.799 481.205 256.812 481.245 256.823 481.293C256.842 481.357 256.856 481.398 256.867 481.418C256.876 481.491 256.868 481.528 256.842 481.532C256.839 481.532 256.835 481.529 256.829 481.522L256.813 481.52C256.8 481.519 256.785 481.522 256.771 481.529C256.756 481.539 256.74 481.545 256.722 481.547C256.706 481.549 256.693 481.547 256.681 481.541C256.676 481.539 256.664 481.539 256.646 481.541C256.623 481.544 256.596 481.552 256.566 481.563C256.556 481.567 256.536 481.574 256.505 481.583C256.477 481.592 256.444 481.599 256.405 481.604C256.294 481.618 256.214 481.631 256.165 481.642C256.137 481.649 256.111 481.66 256.087 481.676L256.086 481.668C256.076 481.67 256.068 481.684 256.064 481.711C256.051 481.757 256.047 481.819 256.052 481.898C256.053 481.921 256.055 481.947 256.058 481.976C256.062 482.004 256.068 482.023 256.077 482.033C256.089 482.042 256.105 482.045 256.126 482.042C256.142 482.04 256.154 482.033 256.163 482.022C256.168 482.021 256.175 482.021 256.183 482.023C256.191 482.025 256.198 482.028 256.204 482.032L256.534 481.99C256.536 481.984 256.539 481.98 256.544 481.977C256.549 481.973 256.554 481.971 256.559 481.971C256.585 481.967 256.605 481.969 256.619 481.975C256.635 481.981 256.667 481.984 256.715 481.986C256.741 481.983 256.76 481.988 256.772 482.003C256.787 482.019 256.796 482.035 256.798 482.051L256.913 482.296C256.926 482.337 256.89 482.369 256.807 482.393C256.759 482.41 256.665 482.427 256.525 482.445L256.358 482.466L256.242 482.481C256.205 482.486 256.179 482.492 256.161 482.499C256.143 482.504 256.133 482.515 256.13 482.531C256.121 482.545 256.118 482.567 256.122 482.595L256.124 482.611C256.126 482.624 256.128 482.633 256.131 482.637L256.139 482.723C256.138 482.742 256.14 482.769 256.145 482.805L256.15 482.844L256.155 482.879L256.158 482.903C256.274 482.888 256.393 482.868 256.513 482.845C256.631 482.822 256.749 482.803 256.865 482.788C256.873 482.787 256.88 482.793 256.887 482.805C256.894 482.815 256.898 482.827 256.9 482.843C256.907 482.858 256.912 482.874 256.914 482.892C256.924 482.93 256.937 482.966 256.951 482.998L256.993 483.107L257.003 483.185L257.004 483.196L257.008 483.227L256.981 483.259L256.954 483.262L256.942 483.264C256.914 483.267 256.895 483.268 256.887 483.267C256.879 483.262 256.869 483.261 256.859 483.262C256.854 483.266 256.847 483.271 256.837 483.277C256.828 483.284 256.819 483.29 256.812 483.296L256.81 483.277L256.763 483.287L256.705 483.294C256.695 483.295 256.687 483.294 256.681 483.289L256.649 483.289C256.554 483.302 256.487 483.319 256.451 483.342L255.22 483.501ZM258.663 483.086L258.484 483.109L258.283 483.135L258.026 483.168C257.998 483.134 257.974 483.07 257.954 482.976C257.933 482.892 257.912 482.768 257.891 482.605L257.84 482.177C257.829 482.073 257.809 481.909 257.78 481.684L257.767 481.673L257.383 481.723C257.326 481.73 257.28 481.67 257.245 481.543C257.226 481.475 257.208 481.373 257.19 481.238L257.184 481.188C257.187 481.169 257.186 481.14 257.181 481.102L257.171 481.024L257.171 480.992L257.184 480.975L257.255 480.97L257.332 480.96C257.446 480.945 257.533 480.933 257.592 480.922L257.844 480.89L257.914 480.881L258.046 480.864L258.213 480.843L258.38 480.821C258.414 480.819 258.462 480.815 258.524 480.807L258.621 480.794C258.631 480.788 258.648 480.783 258.671 480.78C258.688 480.772 258.705 480.768 258.72 480.766C258.77 480.759 258.807 480.757 258.834 480.759C258.886 480.757 258.926 480.755 258.951 480.752L259.052 480.735L259.203 480.715C259.281 480.705 259.334 480.7 259.363 480.699L259.418 480.696C259.421 480.698 259.425 480.701 259.431 480.706C259.437 480.708 259.439 480.71 259.44 480.713L259.525 481.373C259.527 481.388 259.52 481.406 259.504 481.427C259.491 481.447 259.477 481.461 259.462 481.468C259.374 481.461 259.262 481.466 259.124 481.483L258.977 481.502C258.938 481.507 258.918 481.56 258.918 481.66C258.917 481.689 258.919 481.731 258.926 481.785L258.941 481.902C258.948 481.953 258.954 481.992 258.96 482.018L258.974 482.126C258.988 482.232 258.995 482.331 258.996 482.423C259 482.491 259.004 482.541 259.008 482.572C259.006 482.604 259.009 482.647 259.016 482.701C259.026 482.779 259.032 482.844 259.033 482.896C259.041 482.977 259.017 483.023 258.961 483.036C258.899 483.052 258.864 483.06 258.853 483.061L258.663 483.086ZM260.223 482.925C260.176 482.931 260.14 482.888 260.115 482.797C260.103 482.759 260.094 482.725 260.09 482.693C260.085 482.652 260.08 482.626 260.076 482.616C260.064 482.542 260.042 482.423 260.011 482.262L259.98 482.115C259.936 481.89 259.906 481.722 259.892 481.614L259.771 480.67C259.768 480.649 259.79 480.631 259.835 480.615C259.86 480.603 259.896 480.595 259.942 480.589C259.973 480.585 260.007 480.583 260.044 480.584C260.081 480.582 260.108 480.579 260.126 480.577C260.166 480.577 260.227 480.572 260.31 480.561L260.324 480.548L260.495 480.526C260.503 480.533 260.513 480.535 260.523 480.534L260.539 480.532C260.541 480.529 260.547 480.527 260.558 480.526C260.563 480.522 260.57 480.52 260.581 480.519C260.583 480.516 260.585 480.514 260.588 480.514C260.59 480.514 260.592 480.513 260.592 480.513C260.599 480.512 260.609 480.514 260.62 480.518C260.631 480.519 260.638 480.519 260.644 480.519L260.931 480.482L261.028 481.148C261.029 481.151 261.027 481.16 261.024 481.176C261.023 481.19 261.023 481.208 261.023 481.232C261.028 481.326 261.033 481.4 261.04 481.454L261.137 482.212L261.145 482.361C261.145 482.426 261.149 482.48 261.157 482.521C261.164 482.575 261.167 482.62 261.167 482.654C261.168 482.685 261.163 482.711 261.153 482.731C261.14 482.751 261.116 482.763 261.082 482.767L261.078 482.764L261.066 482.762C261.061 482.762 261.058 482.764 261.059 482.766L261.039 482.769C261.024 482.776 261.016 482.781 261.014 482.784C261.001 482.786 260.97 482.786 260.923 482.784L260.868 482.787C260.855 482.789 260.848 482.795 260.847 482.805L260.555 482.843L260.501 482.85L260.403 482.882L260.311 482.906L260.223 482.925ZM262.02 482.655L261.958 482.663L261.899 482.67L261.868 482.674L261.711 482.651L261.701 482.629C261.698 482.629 261.695 482.616 261.692 482.59C261.687 482.557 261.683 482.53 261.677 482.509L261.655 482.362C261.648 482.332 261.64 482.283 261.632 482.215C261.623 482.15 261.616 482.103 261.609 482.072L261.594 481.956C261.558 481.794 261.529 481.627 261.506 481.454L261.502 481.423L261.495 481.364C261.491 481.333 261.489 481.311 261.49 481.298L261.486 481.267L261.483 481.24C261.479 481.232 261.476 481.219 261.474 481.201L261.468 481.159L261.465 481.135L261.46 481.097L261.452 481.034C261.448 481.003 261.447 480.981 261.448 480.968L261.443 480.929L261.444 480.909L261.438 480.859C261.437 480.832 261.434 480.797 261.428 480.753C261.424 480.72 261.419 480.69 261.413 480.664L261.397 480.576L261.392 480.561C261.383 480.556 261.383 480.553 261.39 480.549C261.395 480.506 261.424 480.472 261.476 480.447C261.5 480.434 261.542 480.423 261.602 480.415C261.646 480.41 261.761 480.391 261.946 480.359C262.038 480.342 262.096 480.332 262.12 480.329C262.158 480.321 262.205 480.314 262.259 480.307C262.285 480.306 262.304 480.309 262.315 480.316C262.326 480.32 262.337 480.329 262.347 480.343C262.359 480.357 262.368 480.368 262.374 480.375L262.466 480.478C262.464 480.476 262.502 480.518 262.581 480.605C262.657 480.698 262.746 480.802 262.851 480.918C262.866 480.937 262.885 480.958 262.906 480.982C262.928 481.005 262.951 481.033 262.976 481.064L262.958 480.928C262.956 480.891 262.951 480.839 262.942 480.772C262.931 480.684 262.921 480.585 262.912 480.476C262.91 480.455 262.908 480.437 262.909 480.421C262.909 480.403 262.909 480.388 262.907 480.378C262.904 480.352 262.904 480.339 262.906 480.338C262.915 480.322 262.931 480.302 262.954 480.281C262.983 480.256 263.014 480.243 263.048 480.241L263.242 480.216L263.281 480.211C263.32 480.206 263.352 480.204 263.378 480.203L263.495 480.188C263.521 480.187 263.56 480.183 263.612 480.177L263.697 480.166L263.736 480.161C263.788 480.154 263.828 480.158 263.856 480.173C263.873 480.181 263.885 480.194 263.893 480.212C263.9 480.227 263.906 480.251 263.91 480.285C263.914 480.318 263.917 480.347 263.917 480.37C263.918 480.397 263.92 480.428 263.925 480.464L263.929 480.491C263.932 480.499 263.935 480.51 263.937 480.526L263.95 480.627L264.003 481.074L264.06 481.513L264.073 481.617C264.109 481.897 264.129 482.075 264.134 482.15L264.139 482.28C264.133 482.341 264.119 482.375 264.096 482.38C264.091 482.381 264.083 482.383 264.073 482.387C264.066 482.391 264.057 482.393 264.047 482.394C263.954 482.406 263.885 482.413 263.84 482.413L263.638 482.439L263.436 482.465L263.386 482.471C263.378 482.475 263.368 482.478 263.355 482.479C263.324 482.483 263.291 482.481 263.255 482.472C263.234 482.47 263.21 482.458 263.184 482.438L262.78 482.001C262.765 481.984 262.737 481.957 262.695 481.921L262.639 481.881C262.624 481.869 262.613 481.864 262.605 481.865C262.597 481.866 262.591 481.871 262.587 481.879C262.583 481.885 262.581 481.891 262.581 481.896L262.59 481.962C262.59 481.983 262.593 482.015 262.599 482.059L262.613 482.172C262.614 482.201 262.618 482.24 262.624 482.289L262.636 482.382L262.644 482.44C262.642 482.446 262.641 482.454 262.643 482.464C262.643 482.467 262.642 482.488 262.639 482.528C262.635 482.539 262.632 482.546 262.63 482.549C262.628 482.552 262.619 482.554 262.603 482.556C262.598 482.554 262.592 482.554 262.587 482.554C262.584 482.555 262.582 482.555 262.579 482.555C262.377 482.6 262.209 482.631 262.074 482.648L262.02 482.655ZM265.597 482.274C265.431 482.296 265.272 482.275 265.119 482.213C264.943 482.152 264.796 482.044 264.679 481.891C264.546 481.713 264.462 481.487 264.427 481.213C264.402 481.024 264.414 480.849 264.462 480.687C264.512 480.526 264.592 480.384 264.703 480.262C264.811 480.142 264.945 480.045 265.104 479.969C265.262 479.894 265.439 479.843 265.633 479.819C265.91 479.783 266.216 479.819 266.551 479.926L266.488 480.514C266.44 480.51 266.396 480.503 266.355 480.495C266.251 480.48 266.156 480.471 266.072 480.469C266.013 480.466 265.969 480.466 265.938 480.47C265.803 480.487 265.703 480.538 265.638 480.623C265.562 480.728 265.537 480.882 265.563 481.087C265.585 481.26 265.629 481.39 265.696 481.476C265.757 481.542 265.83 481.569 265.916 481.558C265.985 481.549 266.051 481.527 266.112 481.49C266.106 481.464 266.1 481.435 266.093 481.401C266.086 481.366 266.079 481.324 266.073 481.278C266.051 481.186 266.032 481.121 266.016 481.084L265.997 480.932C265.995 480.914 266.001 480.904 266.017 480.902L266.036 480.9C266.044 480.899 266.052 480.896 266.059 480.893C266.066 480.889 266.074 480.887 266.082 480.886C266.107 480.877 266.122 480.873 266.127 480.872C266.146 480.87 266.17 480.869 266.202 480.87C266.213 480.869 266.224 480.869 266.238 480.87C266.251 480.871 266.264 480.87 266.277 480.869C266.286 480.857 266.318 480.848 266.372 480.841C266.413 480.835 266.446 480.83 266.469 480.824C266.483 480.817 266.503 480.812 266.526 480.809L266.571 480.791C266.595 480.791 266.628 480.788 266.672 480.782C266.691 480.783 266.716 480.781 266.747 480.777C266.754 480.776 266.761 480.776 266.767 480.778C266.772 480.777 266.776 480.777 266.778 480.777L266.864 480.766L266.88 480.771L266.894 480.88C266.898 480.893 266.902 480.912 266.906 480.938L266.913 480.992L266.925 481.093L266.969 481.435L266.971 481.45C266.97 481.459 266.97 481.469 266.971 481.482C266.97 481.493 266.97 481.505 266.972 481.517L266.975 481.537C266.992 481.674 267.002 481.771 267.004 481.829C267.01 481.915 267.008 481.975 266.999 482.007C266.945 482.014 266.903 482.022 266.872 482.032L266.795 482.042L266.787 482.043L266.752 482.047L266.747 482.04L266.733 482.049L266.395 482.093L266.379 482.095L266.344 482.099L266.305 482.104C266.301 482.108 266.292 482.11 266.279 482.112C266.261 482.114 266.244 482.09 266.23 482.039C266.21 481.984 266.195 481.917 266.185 481.84C266.173 481.957 266.113 482.054 266.005 482.131C265.899 482.205 265.763 482.253 265.597 482.274Z" fill="white"/>
<path d="M252.191 500.251L252.1 500.247C252.012 500.245 251.939 500.239 251.88 500.228C251.849 500.23 251.82 500.224 251.795 500.212C251.773 500.206 251.759 500.198 251.752 500.185L251.605 499.715L251.602 499.696C251.6 499.677 251.6 499.664 251.601 499.656C251.605 499.645 251.613 499.638 251.626 499.633C251.803 499.676 251.972 499.687 252.135 499.667C252.187 499.66 252.227 499.656 252.256 499.655C252.355 499.642 252.424 499.62 252.465 499.589C252.486 499.57 252.495 499.547 252.491 499.518C252.486 499.477 252.469 499.445 252.44 499.422C252.41 499.397 252.369 499.377 252.317 499.363L252.187 499.332C252.15 499.329 252.107 499.32 252.057 499.305C252.057 499.303 252.056 499.302 252.053 499.302C252.05 499.3 252.047 499.296 252.044 499.291C252.033 499.29 252.009 499.28 251.973 499.261L251.948 499.252C251.953 499.252 251.956 499.25 251.955 499.248C251.955 499.245 251.951 499.243 251.943 499.241C251.934 499.237 251.918 499.231 251.893 499.224C251.871 499.214 251.851 499.202 251.833 499.188C251.808 499.178 251.795 499.164 251.792 499.146L251.79 499.127C251.725 499.135 251.661 499.075 251.597 498.946C251.54 498.814 251.509 498.719 251.501 498.663C251.47 498.422 251.55 498.223 251.741 498.067C251.895 497.94 252.118 497.839 252.408 497.765C252.597 497.719 252.834 497.678 253.119 497.642C253.157 497.65 253.186 497.654 253.207 497.654C253.254 497.651 253.287 497.662 253.306 497.689C253.316 497.701 253.325 497.726 253.336 497.764C253.349 497.804 253.372 497.924 253.405 498.122C253.411 498.126 253.415 498.134 253.416 498.144C253.419 498.165 253.392 498.185 253.337 498.206C253.276 498.221 253.236 498.23 253.218 498.233L253.13 498.256C253.031 498.282 252.966 498.299 252.936 498.309C252.832 498.34 252.762 498.382 252.727 498.434C252.705 498.468 252.696 498.502 252.701 498.536C252.703 498.554 252.707 498.568 252.714 498.578C252.72 498.587 252.735 498.597 252.757 498.608C252.782 498.618 252.854 498.641 252.972 498.679C253.097 498.715 253.225 498.767 253.355 498.835C253.465 498.892 253.549 498.976 253.608 499.087C253.638 499.133 253.658 499.196 253.668 499.276C253.677 499.349 253.676 499.412 253.665 499.466C253.619 499.646 253.511 499.802 253.338 499.934C253.257 499.997 253.17 500.049 253.078 500.09C252.986 500.134 252.896 500.161 252.808 500.172L252.239 500.257L252.191 500.251ZM255.27 499.789L255.091 499.812L254.889 499.838L254.633 499.871C254.605 499.837 254.581 499.773 254.561 499.679C254.54 499.595 254.518 499.471 254.498 499.308L254.447 498.88C254.436 498.776 254.416 498.612 254.387 498.387L254.374 498.376L253.99 498.426C253.933 498.433 253.887 498.373 253.852 498.246C253.833 498.178 253.814 498.076 253.797 497.941L253.791 497.891C253.793 497.872 253.792 497.843 253.787 497.804L253.777 497.727L253.777 497.695L253.791 497.678L253.861 497.673L253.939 497.663C254.053 497.648 254.139 497.636 254.199 497.625L254.451 497.593L254.521 497.584L254.653 497.567L254.82 497.546L254.987 497.524C255.021 497.522 255.069 497.518 255.131 497.51L255.228 497.497C255.238 497.491 255.254 497.486 255.278 497.483C255.295 497.475 255.311 497.471 255.327 497.469C255.376 497.462 255.414 497.46 255.441 497.462C255.493 497.46 255.532 497.458 255.558 497.455L255.659 497.438L255.81 497.418C255.888 497.408 255.941 497.403 255.97 497.402L256.025 497.399C256.027 497.401 256.032 497.404 256.038 497.409C256.043 497.411 256.046 497.413 256.046 497.416L256.131 498.076C256.133 498.091 256.126 498.109 256.111 498.13C256.097 498.15 256.083 498.163 256.068 498.171C255.981 498.163 255.868 498.169 255.731 498.186L255.583 498.205C255.545 498.21 255.525 498.263 255.525 498.363C255.523 498.392 255.526 498.434 255.533 498.488L255.548 498.605C255.555 498.656 255.561 498.695 255.567 498.721L255.581 498.829C255.594 498.935 255.602 499.034 255.603 499.126C255.607 499.194 255.61 499.244 255.614 499.275C255.613 499.307 255.616 499.35 255.623 499.404C255.633 499.482 255.639 499.547 255.64 499.599C255.648 499.68 255.624 499.726 255.567 499.739C255.506 499.755 255.47 499.763 255.46 499.764L255.27 499.789ZM258.475 499.409C258.346 499.312 258.235 499.212 258.14 499.108C258.073 499.041 257.968 498.919 257.825 498.742L257.745 498.646C257.742 498.644 257.739 498.643 257.737 498.643C257.736 498.641 257.736 498.639 257.736 498.639L257.717 498.642L257.702 498.652C257.704 498.685 257.714 498.776 257.733 498.924C257.746 499.02 257.755 499.133 257.761 499.264L257.772 499.381C257.766 499.41 257.761 499.425 257.758 499.426L257.731 499.429L257.72 499.431C257.437 499.488 257.232 499.525 257.102 499.542L257.044 499.549L256.97 499.559C256.942 499.562 256.921 499.564 256.908 499.563L256.88 499.566L256.755 499.543L256.744 499.517C256.739 499.517 256.734 499.513 256.73 499.503C256.729 499.492 256.728 499.485 256.727 499.479C256.705 499.372 256.689 499.293 256.677 499.245C256.649 499.107 256.629 499.005 256.619 498.941C256.605 498.879 256.598 498.839 256.595 498.821L256.548 498.61L256.53 498.494C256.524 498.471 256.519 498.439 256.513 498.398L256.509 498.363C256.512 498.349 256.512 498.328 256.509 498.3L256.5 498.234C256.501 498.223 256.501 498.211 256.5 498.198L256.492 498.168L256.487 498.129C256.484 498.111 256.48 498.097 256.473 498.087L256.47 498.064L256.462 497.966C256.462 497.948 256.46 497.92 256.455 497.884C256.45 497.806 256.444 497.732 256.435 497.662L256.43 497.623C256.426 497.616 256.423 497.599 256.419 497.573L256.412 497.519L256.407 497.48C256.398 497.473 256.394 497.466 256.393 497.458C256.388 497.422 256.417 497.392 256.48 497.368C256.512 497.353 256.559 497.342 256.621 497.334C257.227 497.256 257.683 497.219 257.988 497.221C258.289 497.225 258.505 497.27 258.637 497.355C258.695 497.398 258.739 497.451 258.768 497.516C258.8 497.578 258.822 497.654 258.833 497.744C258.852 497.889 258.826 498.016 258.756 498.125C258.708 498.187 258.651 498.24 258.583 498.286C258.603 498.323 258.659 498.394 258.749 498.501C258.767 498.517 258.783 498.535 258.799 498.554C258.817 498.573 258.838 498.592 258.862 498.613C258.92 498.674 258.986 498.741 259.061 498.812C259.065 498.823 259.078 498.843 259.101 498.875C259.114 498.878 259.122 498.884 259.123 498.891C259.126 498.896 259.126 498.904 259.122 498.915C259.105 498.949 259.05 499.002 258.957 499.075C258.945 499.089 258.931 499.104 258.915 499.119C258.869 499.167 258.803 499.219 258.718 499.275C258.641 499.33 258.574 499.37 258.516 499.396C258.495 499.412 258.481 499.416 258.475 499.409ZM257.592 498.133C257.626 498.128 257.67 498.116 257.726 498.096C257.778 498.073 257.815 498.053 257.836 498.034C257.872 498.006 257.902 497.976 257.927 497.944C257.951 497.906 257.961 497.866 257.955 497.822C257.946 497.749 257.916 497.694 257.867 497.656C257.824 497.629 257.774 497.62 257.717 497.627L257.55 497.649C257.554 497.682 257.558 497.736 257.563 497.809L257.569 497.891C257.571 497.943 257.578 498.024 257.592 498.133ZM259.627 499.221C259.578 499.228 259.552 499.186 259.552 499.097C259.548 499.066 259.55 499.03 259.557 498.99C259.555 498.971 259.555 498.957 259.556 498.946C259.557 498.933 259.557 498.922 259.556 498.915C259.579 498.625 259.609 498.338 259.647 498.054L259.778 496.988C259.777 496.982 259.78 496.976 259.787 496.967C259.794 496.958 259.801 496.951 259.808 496.944L259.835 496.941C259.866 496.937 259.89 496.93 259.907 496.92C259.923 496.915 259.95 496.91 259.988 496.905C260.051 496.897 260.097 496.893 260.129 496.891C260.176 496.893 260.225 496.891 260.274 496.884L260.475 496.855C260.495 496.847 260.52 496.841 260.548 496.837L260.718 496.808L260.846 496.791C260.895 496.785 260.943 496.78 260.99 496.777L261.099 496.763C261.125 496.762 261.163 496.758 261.212 496.752L261.36 496.733C261.367 496.732 261.375 496.733 261.383 496.734C261.392 496.736 261.398 496.737 261.404 496.739C261.415 496.743 261.428 496.744 261.444 496.742L261.479 496.738C261.498 496.748 261.509 496.76 261.511 496.773L261.918 497.763C262.046 498.08 262.149 498.35 262.227 498.572C262.229 498.585 262.236 498.609 262.248 498.644C262.265 498.694 262.276 498.735 262.28 498.766C262.282 498.784 262.283 498.809 262.282 498.841C262.272 498.868 262.256 498.884 262.232 498.887L262.19 498.892C262.156 498.897 262.13 498.899 262.111 498.898L262.026 498.909L261.944 498.92L261.878 498.928C261.86 498.931 261.85 498.931 261.847 498.928L261.633 498.956L261.628 498.949C261.623 498.944 261.614 498.942 261.604 498.944L261.593 498.953C261.594 498.958 261.592 498.961 261.587 498.962L261.575 498.963L261.548 498.967C261.534 498.963 261.511 498.964 261.477 498.968C261.414 498.971 261.362 498.975 261.321 498.98C261.284 498.924 261.234 498.798 261.169 498.601C261.116 498.616 261.054 498.628 260.984 498.637L260.883 498.649L260.786 498.662C260.781 498.702 260.779 498.735 260.779 498.762C260.778 498.775 260.774 498.82 260.765 498.898C260.757 498.975 260.746 499.028 260.734 499.055L260.712 499.066C260.705 499.07 260.698 499.073 260.694 499.076C260.688 499.077 260.686 499.077 260.686 499.077L260.678 499.078C260.662 499.08 260.652 499.079 260.646 499.075C260.635 499.071 260.628 499.069 260.626 499.069L260.479 499.096L260.37 499.11C260.358 499.114 260.348 499.118 260.34 499.122C260.332 499.123 260.327 499.124 260.325 499.124L260.014 499.164L259.983 499.168C259.96 499.173 259.912 499.181 259.84 499.19L259.747 499.202C259.731 499.207 259.707 499.211 259.673 499.215L259.627 499.221ZM261.081 498.19C261.054 498.104 261.038 498.053 261.034 498.038L260.979 497.856C260.969 497.82 260.96 497.788 260.951 497.761C260.942 497.73 260.934 497.702 260.928 497.677C260.916 497.647 260.906 497.619 260.898 497.594C260.892 497.566 260.884 497.54 260.876 497.518C260.872 497.502 260.867 497.483 260.861 497.46C260.855 497.435 260.849 497.417 260.842 497.407L260.829 497.362C260.827 497.352 260.823 497.343 260.817 497.336L260.81 497.313C260.807 497.329 260.806 497.337 260.806 497.337L260.808 497.353L260.809 497.364C260.809 497.367 260.809 497.372 260.807 497.38C260.805 497.386 260.804 497.397 260.803 497.412C260.803 497.426 260.802 497.443 260.802 497.464C260.802 497.482 260.801 497.504 260.799 497.528L260.792 497.69L260.784 497.873L260.783 497.96C260.78 497.981 260.78 498.015 260.78 498.063C260.772 498.182 260.769 498.237 260.77 498.226L260.941 498.204C260.943 498.201 260.946 498.198 260.951 498.195C260.956 498.189 260.959 498.186 260.962 498.185L260.974 498.184C260.987 498.182 260.997 498.182 261.005 498.184C261.016 498.185 261.025 498.187 261.033 498.188C261.05 498.191 261.065 498.192 261.081 498.19ZM263.855 498.686L263.676 498.709L263.474 498.735L263.218 498.768C263.19 498.735 263.166 498.671 263.146 498.576C263.125 498.492 263.104 498.368 263.083 498.205L263.032 497.778C263.021 497.674 263.001 497.509 262.972 497.284L262.959 497.274L262.575 497.323C262.518 497.33 262.472 497.271 262.437 497.143C262.418 497.075 262.399 496.973 262.382 496.839L262.376 496.788C262.378 496.769 262.377 496.741 262.372 496.702L262.362 496.624L262.362 496.593L262.376 496.575L262.446 496.57L262.524 496.56C262.638 496.545 262.724 496.533 262.784 496.523L263.036 496.49L263.106 496.481L263.238 496.464L263.405 496.443L263.572 496.421C263.606 496.42 263.654 496.415 263.716 496.407L263.813 496.394C263.823 496.388 263.839 496.383 263.863 496.38C263.88 496.373 263.897 496.368 263.912 496.366C263.961 496.36 263.999 496.357 264.026 496.359C264.078 496.358 264.117 496.355 264.143 496.352L264.244 496.335L264.395 496.316C264.473 496.306 264.526 496.3 264.555 496.299L264.61 496.296C264.613 496.298 264.617 496.302 264.623 496.306C264.628 496.308 264.631 496.31 264.631 496.313L264.716 496.973C264.718 496.989 264.711 497.007 264.696 497.027C264.682 497.047 264.668 497.061 264.653 497.068C264.566 497.061 264.453 497.066 264.316 497.084L264.168 497.103C264.13 497.108 264.11 497.16 264.11 497.26C264.108 497.289 264.111 497.331 264.118 497.385L264.133 497.502C264.14 497.554 264.146 497.592 264.152 497.618L264.166 497.727C264.179 497.833 264.187 497.932 264.188 498.024C264.192 498.092 264.195 498.141 264.199 498.172C264.198 498.204 264.201 498.247 264.208 498.301C264.218 498.379 264.224 498.444 264.225 498.497C264.233 498.577 264.209 498.624 264.152 498.636C264.091 498.652 264.055 498.66 264.045 498.662L263.855 498.686ZM265.406 498.459C265.401 498.46 265.396 498.455 265.392 498.445C265.371 498.424 265.354 498.398 265.342 498.365C265.333 498.353 265.324 498.337 265.316 498.317C265.287 498.273 265.262 498.211 265.241 498.129C265.215 498.012 265.198 497.918 265.189 497.848C265.182 497.817 265.176 497.775 265.169 497.72L265.157 497.627C265.147 497.549 265.138 497.489 265.129 497.445C265.121 497.399 265.108 497.307 265.09 497.17C265.043 496.802 265.014 496.518 265.004 496.316C265 496.285 265.041 496.256 265.127 496.23L265.244 496.215L265.341 496.202C265.488 496.183 265.599 496.172 265.672 496.167C265.782 496.161 265.892 496.151 266.003 496.137C266.029 496.133 266.049 496.13 266.061 496.125L266.119 496.118L266.141 496.131C266.224 496.102 266.31 496.079 266.4 496.062C266.49 496.045 266.6 496.029 266.729 496.012C266.735 496.011 266.742 496.014 266.75 496.021L266.875 496.005C266.895 496.002 266.912 496.012 266.926 496.034C266.942 496.056 266.956 496.088 266.97 496.131C266.984 496.163 266.997 496.204 267.009 496.252C267.028 496.316 267.042 496.357 267.053 496.377C267.062 496.449 267.054 496.487 267.028 496.491C267.025 496.491 267.021 496.488 267.015 496.481L266.999 496.479C266.985 496.478 266.971 496.481 266.956 496.488C266.942 496.498 266.926 496.504 266.907 496.506C266.892 496.508 266.878 496.506 266.867 496.499C266.862 496.498 266.85 496.498 266.832 496.5C266.808 496.503 266.782 496.51 266.752 496.522C266.742 496.526 266.721 496.533 266.691 496.542C266.663 496.551 266.63 496.558 266.591 496.563C266.48 496.577 266.4 496.59 266.351 496.601C266.323 496.607 266.297 496.619 266.273 496.635L266.272 496.627C266.261 496.629 266.254 496.643 266.249 496.67C266.237 496.716 266.233 496.778 266.238 496.857C266.238 496.88 266.24 496.906 266.244 496.935C266.248 496.963 266.254 496.982 266.263 496.991C266.275 497 266.291 497.004 266.312 497.001C266.327 496.999 266.34 496.992 266.349 496.981C266.354 496.98 266.36 496.98 266.369 496.982C266.377 496.983 266.384 496.987 266.389 496.991L266.72 496.949C266.721 496.943 266.725 496.939 266.73 496.936C266.735 496.932 266.74 496.93 266.745 496.93C266.771 496.926 266.79 496.928 266.804 496.934C266.821 496.94 266.853 496.943 266.901 496.945C266.927 496.942 266.946 496.947 266.958 496.961C266.973 496.978 266.982 496.994 266.984 497.009L267.098 497.255C267.111 497.296 267.076 497.328 266.992 497.352C266.944 497.368 266.851 497.386 266.711 497.404L266.544 497.425L266.427 497.44C266.391 497.445 266.364 497.451 266.347 497.458C266.329 497.463 266.319 497.474 266.315 497.49C266.307 497.504 266.304 497.526 266.308 497.554L266.31 497.57C266.311 497.583 266.314 497.591 266.317 497.596L266.324 497.682C266.324 497.701 266.326 497.728 266.331 497.764L266.336 497.803L266.34 497.838L266.343 497.861C266.46 497.846 266.578 497.827 266.699 497.804C266.817 497.781 266.934 497.762 267.051 497.747C267.059 497.746 267.066 497.751 267.073 497.764C267.079 497.773 267.084 497.786 267.086 497.802C267.093 497.816 267.098 497.833 267.1 497.851C267.11 497.889 267.122 497.924 267.137 497.957L267.179 498.066L267.189 498.144L267.19 498.155L267.194 498.186L267.167 498.217L267.139 498.221L267.128 498.222C267.099 498.226 267.081 498.227 267.073 498.226C267.065 498.221 267.055 498.22 267.045 498.221C267.04 498.224 267.033 498.229 267.023 498.236C267.013 498.242 267.005 498.249 266.998 498.255L266.995 498.235L266.949 498.245L266.891 498.253C266.881 498.254 266.873 498.253 266.867 498.248L266.835 498.248C266.739 498.26 266.673 498.278 266.637 498.301L265.406 498.459ZM268.688 498.144C268.522 498.166 268.363 498.145 268.21 498.083C268.034 498.022 267.887 497.914 267.77 497.761C267.637 497.583 267.553 497.357 267.518 497.083C267.493 496.894 267.505 496.719 267.553 496.557C267.603 496.396 267.683 496.254 267.794 496.132C267.902 496.013 268.036 495.915 268.195 495.84C268.353 495.764 268.53 495.714 268.724 495.689C269.001 495.653 269.307 495.689 269.641 495.796L269.579 496.384C269.531 496.38 269.487 496.374 269.446 496.366C269.342 496.35 269.247 496.341 269.163 496.339C269.104 496.336 269.06 496.336 269.029 496.34C268.894 496.358 268.794 496.409 268.729 496.493C268.652 496.598 268.628 496.752 268.654 496.957C268.676 497.13 268.72 497.26 268.787 497.346C268.848 497.412 268.921 497.44 269.007 497.429C269.076 497.42 269.142 497.397 269.203 497.36C269.197 497.334 269.191 497.305 269.184 497.272C269.176 497.236 269.17 497.194 269.164 497.148C269.142 497.056 269.123 496.991 269.107 496.954L269.088 496.802C269.086 496.784 269.092 496.774 269.108 496.772L269.127 496.77C269.135 496.769 269.143 496.766 269.15 496.763C269.157 496.759 269.165 496.757 269.173 496.756C269.198 496.747 269.213 496.743 269.218 496.742C269.236 496.74 269.261 496.739 269.293 496.74C269.303 496.739 269.315 496.739 269.329 496.74C269.342 496.741 269.355 496.74 269.368 496.739C269.377 496.727 269.409 496.718 269.463 496.711C269.504 496.705 269.537 496.7 269.56 496.694C269.574 496.687 269.594 496.682 269.617 496.679L269.662 496.662C269.686 496.661 269.719 496.658 269.763 496.652C269.782 496.653 269.807 496.651 269.838 496.647C269.845 496.646 269.852 496.646 269.858 496.648C269.863 496.648 269.867 496.647 269.869 496.647L269.955 496.636L269.971 496.642L269.985 496.75C269.989 496.763 269.993 496.782 269.996 496.808L270.003 496.862L270.016 496.963L270.06 497.305L270.062 497.321C270.061 497.329 270.061 497.339 270.062 497.352C270.061 497.363 270.061 497.375 270.063 497.388L270.066 497.407C270.083 497.544 270.093 497.642 270.095 497.699C270.101 497.785 270.099 497.845 270.09 497.877C270.036 497.884 269.994 497.892 269.963 497.902L269.886 497.912L269.878 497.913L269.843 497.917L269.838 497.91L269.823 497.92L269.486 497.963L269.47 497.965L269.435 497.969L269.396 497.974C269.392 497.978 269.383 497.98 269.37 497.982C269.352 497.984 269.335 497.96 269.321 497.909C269.301 497.854 269.286 497.787 269.276 497.71C269.264 497.827 269.204 497.924 269.096 498.001C268.99 498.075 268.854 498.123 268.688 498.144ZM271.898 498.131C271.882 498.133 271.842 498.127 271.777 498.115C271.766 498.113 271.75 498.109 271.728 498.101C271.709 498.096 271.691 498.094 271.676 498.096C271.666 498.097 271.647 498.093 271.619 498.084C271.599 498.073 271.582 498.069 271.566 498.071L271.518 498.065C271.503 498.067 271.492 498.067 271.486 498.065C271.479 498.066 271.475 498.065 271.474 498.063C271.389 498.055 271.301 498.036 271.21 498.006L270.945 497.933C270.925 497.928 270.915 497.916 270.912 497.898C270.91 497.883 270.912 497.867 270.918 497.85L271 497.654C271.019 497.602 271.048 497.539 271.086 497.465C271.102 497.445 271.116 497.41 271.128 497.361C271.139 497.323 271.143 497.3 271.143 497.292C271.094 497.222 271.035 497.148 270.964 497.071C270.891 496.975 270.834 496.912 270.794 496.883C270.787 496.871 270.773 496.852 270.751 496.826C270.7 496.758 270.677 496.727 270.68 496.732L270.599 496.624C270.577 496.601 270.55 496.565 270.518 496.516C270.499 496.492 270.478 496.462 270.455 496.425C270.427 496.39 270.411 496.368 270.407 496.361C270.383 496.34 270.34 496.282 270.278 496.188C270.218 496.09 270.187 496.031 270.184 496.01C270.183 496 270.192 495.986 270.211 495.967C270.229 495.947 270.25 495.926 270.273 495.904C270.351 495.855 270.403 495.824 270.428 495.813C270.459 495.793 270.486 495.777 270.508 495.763C270.533 495.75 270.552 495.738 270.567 495.728C270.623 495.692 270.701 495.647 270.802 495.592C270.821 495.578 270.868 495.551 270.941 495.51C270.969 495.499 270.994 495.492 271.017 495.489C271.033 495.487 271.047 495.49 271.058 495.499C271.069 495.503 271.087 495.522 271.113 495.555L271.287 495.833C271.385 495.986 271.454 496.089 271.492 496.142C271.498 496.149 271.505 496.159 271.512 496.171C271.518 496.181 271.524 496.188 271.53 496.193C271.548 496.211 271.564 496.22 271.577 496.218C271.585 496.217 271.591 496.212 271.595 496.204C271.602 496.195 271.606 496.188 271.608 496.183L271.783 495.454C271.789 495.419 271.807 495.39 271.839 495.368C271.865 495.346 271.899 495.335 271.941 495.335C272.116 495.367 272.246 495.395 272.331 495.419C272.497 495.463 272.621 495.505 272.702 495.545C272.73 495.554 272.749 495.569 272.759 495.589C272.772 495.606 272.775 495.624 272.77 495.643C272.77 495.666 272.766 495.687 272.758 495.703L272.741 495.753L272.292 497.18L272.271 497.262L271.984 498.037C271.97 498.07 271.956 498.093 271.942 498.105C271.93 498.12 271.916 498.128 271.898 498.131Z" fill="white"/>
<path d="M243.595 522.344L238.73 479.406L239.575 479.291L349.179 464.359L343.41 510.055L342.735 510.138L243.595 522.344ZM240.662 480.91L245.134 520.392L341.85 508.48L347.16 466.399L240.662 480.91Z" fill="white"/>
<path d="M234.806 469.615L231.323 469.957L242.625 585.081L246.108 584.739L234.806 469.615Z" fill="#000F47"/>
<path d="M244.797 465.955L243.932 464.435C246.488 462.983 306.773 429.037 332.426 443.81L331.554 445.329C306.757 431.033 245.412 465.606 244.797 465.955Z" fill="white"/>
<path d="M249.162 467.318L248.317 465.783C250.789 464.422 309.142 432.606 336.085 448.506L335.196 450.01C309.103 434.646 249.757 466.985 249.162 467.318Z" fill="white"/>
<path d="M259.606 464.221C259.427 464.221 259.328 464.153 259.181 464.058L259.673 463.332L259.554 462.471C259.772 462.419 260.895 461.991 262.193 461.491C294.77 448.987 317.63 445.214 330.137 450.285L329.478 451.904C317.396 447.015 294.965 450.781 262.824 463.125C260.677 463.947 259.971 464.221 259.606 464.221Z" fill="white"/>
<path d="M236.417 468.264C235.929 467.701 187.309 412.335 161.946 425.021L161.164 423.454C187.698 410.188 235.711 464.784 237.739 467.117L236.417 468.264Z" fill="white"/>
<path d="M231.167 467.123C230.703 466.584 184.297 413.615 153.049 429.419L152.26 427.86C184.698 411.405 230.552 463.739 232.489 465.973L231.167 467.123Z" fill="white"/>
<path d="M222.465 463.965C222.025 463.528 178.059 420.261 155.87 433.181L154.989 431.669C178.317 418.075 221.858 460.894 223.695 462.723L222.465 463.965Z" fill="white"/>
<path d="M331.99 622.553L309.246 599.808C309.246 599.808 269.879 628.676 251.071 567.437L312.745 550.379L319.745 584.936H327.181C327.181 584.936 331.994 595.126 318.868 596.158L331.99 622.553Z" fill="#000F47"/>
<path d="M291.528 601.563C272.851 601.563 258.645 567.184 258.05 565.72L261.288 564.402C261.427 564.74 275.188 598.059 291.524 598.059L291.528 601.563Z" fill="#007AE8"/>
<path d="M301.964 593.229C279.414 589.558 272.47 562.699 272.188 561.556L275.581 560.707C275.645 560.965 282.267 586.479 302.528 589.773L301.964 593.229Z" fill="#007AE8"/>
<path d="M313.095 585.81C294.54 584.882 286.699 556.701 286.374 555.503L289.755 554.59C289.826 554.856 297.25 581.513 313.269 582.314L313.095 585.81Z" fill="#007AE8"/>
<path d="M337.74 562.718C337.74 562.718 339.427 523.696 389.729 542.945L373.111 575.312C373.111 575.312 408.978 591.061 401.542 630.86C394.106 670.671 333.308 651.426 306.623 625.618L330.681 596.16C330.681 596.16 376.174 643.55 364.802 584.938L337.74 562.718Z" fill="#F73E4C"/>
<path d="M366.52 584.641L367.211 588.803C367.468 590.168 367.58 591.648 367.77 593.065C368.103 595.93 368.266 598.798 368.207 601.723C368.143 603.183 368.048 604.659 367.786 606.139C367.556 607.619 367.127 609.111 366.496 610.572C365.75 611.988 364.834 613.484 363.294 614.405C361.846 615.42 360.044 615.766 358.449 615.702C356.81 615.698 355.315 615.282 353.886 614.813C352.458 614.329 351.12 613.706 349.827 613.032C347.248 611.663 344.859 610.048 342.565 608.338C337.994 604.889 333.788 601.096 329.8 596.997L331.61 596.926L307.318 626.19L307.246 624.964C313.944 631.507 321.801 636.86 330.074 641.324C338.367 645.764 347.196 649.303 356.378 651.426C358.671 651.958 360.989 652.414 363.322 652.708C365.647 653.045 368 653.255 370.353 653.287C372.702 653.366 375.063 653.247 377.393 652.954C379.73 652.692 382.023 652.14 384.269 651.442C386.475 650.652 388.646 649.7 390.586 648.367C392.566 647.101 394.312 645.478 395.804 643.661C397.324 641.855 398.466 639.776 399.474 637.637L400.681 634.3L401.534 630.856L400.736 634.316L399.578 637.681C398.601 639.843 397.486 641.954 395.979 643.804C394.502 645.661 392.761 647.335 390.773 648.652C388.824 650.033 386.642 651.037 384.416 651.878C382.15 652.624 379.833 653.22 377.468 653.521C375.111 653.858 372.722 654.013 370.345 653.97C367.965 653.974 365.58 653.799 363.223 653.501C360.858 653.235 358.509 652.815 356.187 652.315C346.875 650.315 337.907 646.891 329.447 642.53C321.003 638.149 312.96 632.864 305.988 626.265L305.389 625.698L305.917 625.039L329.741 595.386L330.578 594.342L331.554 595.315C335.467 599.211 339.704 602.913 344.164 606.159C346.402 607.774 348.716 609.282 351.128 610.512C352.335 611.115 353.561 611.663 354.803 612.06C356.037 612.444 357.306 612.766 358.489 612.734C359.679 612.754 360.782 612.508 361.628 611.873C362.548 611.341 363.139 610.314 363.687 609.274C364.143 608.139 364.489 606.917 364.667 605.612C364.873 604.33 364.941 602.977 364.977 601.636C364.989 598.937 364.794 596.184 364.429 593.469C364.219 592.1 364.112 590.771 363.826 589.378L363.072 585.228L366.52 584.641Z" fill="#000F47"/>
<path d="M336.173 601.667L314.193 632.18L317.033 634.225L339.013 603.713L336.173 601.667Z" fill="#000F47"/>
</svg>
