<svg width="924" height="924" viewBox="0 0 924 924" fill="none" xmlns="http://www.w3.org/2000/svg">
<path d="M692.738 692.741C820.268 565.211 820.268 358.445 692.738 230.915C565.209 103.386 358.442 103.386 230.913 230.915C103.383 358.445 103.383 565.211 230.913 692.741C358.442 820.271 565.209 820.271 692.738 692.741Z" fill="#238BC3"/>
<path d="M336.608 638.812C336.608 638.812 336.141 617.5 338.172 593.585C373.618 549.097 404.544 544.043 404.544 544.043" stroke="#3E7A84" stroke-miterlimit="10"/>
<path d="M289.708 599.583C289.708 599.583 310.171 595.771 338.172 593.586C319.499 610.834 305.071 629.624 305.071 629.624" stroke="#3E7A84" stroke-miterlimit="10"/>
<path d="M522.228 714.256C522.228 714.256 505.984 700.454 489.452 683.054C479.729 627.009 496.485 600.531 496.485 600.531" stroke="#3E7A84" stroke-miterlimit="10"/>
<path d="M461.75 723.274C461.75 723.274 472.49 705.442 489.452 683.055C489.948 708.47 494.416 731.734 494.416 731.734" stroke="#3E7A84" stroke-miterlimit="10"/>
<path d="M414.163 518.922C414.163 518.922 401.204 421.282 405.478 398.113C405.478 398.113 328.866 462.103 404.613 526.092L414.163 518.922Z" fill="#E6FDFF"/>
<path d="M527.8 587.88C527.8 587.88 610.545 575.744 643.643 564.711C643.643 564.711 600.616 632.994 527.8 600.507V587.88Z" fill="#E6FDFF"/>
<path d="M412.865 518.372C410.111 498.56 407.658 478.717 405.602 458.81C404.605 448.732 403.645 438.647 403.029 428.51C402.841 425.981 402.768 423.434 402.631 420.895C402.479 418.361 402.448 415.805 402.404 413.251C402.313 410.707 402.374 408.132 402.465 405.549C402.443 402.997 402.863 400.317 403.122 397.682L407.017 399.957C404.796 401.842 402.565 404.021 400.458 406.194C398.344 408.393 396.323 410.683 394.368 413.027C390.483 417.736 386.961 422.745 383.909 428.017C382.375 430.646 380.969 433.351 379.726 436.122C378.45 438.881 377.358 441.719 376.419 444.6C375.461 447.479 374.74 450.423 374.137 453.388L373.426 457.869L373.052 462.388C372.983 465.406 372.964 468.436 373.316 471.442C373.391 472.955 373.665 474.443 373.939 475.931C374.2 477.422 374.423 478.922 374.877 480.371C375.295 481.828 375.625 483.311 376.111 484.746L377.695 489.017C378.193 490.454 378.961 491.781 379.579 493.172C380.222 494.552 380.867 495.933 381.685 497.226L384 501.178C384.84 502.453 385.749 503.687 386.619 504.943C388.288 507.514 390.378 509.78 392.299 512.172C394.273 514.52 396.507 516.651 398.599 518.904L405.402 525.163L403.88 525.119L412.865 518.372ZM415.46 519.479L405.346 527.071L404.542 527.675L403.823 527.027L396.795 520.764C394.62 518.496 392.308 516.356 390.243 513.978C388.232 511.554 386.055 509.261 384.286 506.634C383.367 505.351 382.409 504.09 381.519 502.785L379.051 498.726C378.184 497.397 377.487 495.97 376.793 494.543C376.123 493.103 375.307 491.732 374.757 490.237L373.027 485.787C372.494 484.289 372.116 482.735 371.656 481.207C371.158 479.687 370.894 478.111 370.593 476.545C370.278 474.978 369.968 473.409 369.86 471.813C369.44 468.639 369.406 465.438 369.432 462.241L369.755 457.456L370.432 452.713C371.016 449.575 371.73 446.46 372.688 443.419C373.626 440.375 374.728 437.381 376.016 434.473C377.272 431.55 378.697 428.703 380.251 425.939C383.347 420.397 386.92 415.138 390.874 410.189C392.863 407.726 394.923 405.317 397.083 402.997C399.273 400.676 401.453 398.459 403.943 396.28L408.503 392.465L407.838 398.552C407.577 400.945 407.135 403.264 407.108 405.778C406.973 408.247 406.866 410.725 406.907 413.234C406.902 415.734 406.883 418.237 406.986 420.751C407.071 423.263 407.095 425.773 407.232 428.288C407.65 438.346 408.41 448.415 409.209 458.475C410.893 478.595 412.978 498.704 415.38 518.765L415.46 519.479Z" fill="#3E7A84"/>
<path d="M527.619 586.674C537.347 585.142 547.046 583.495 556.748 581.806L571.279 579.186L585.775 576.405C590.614 575.504 595.425 574.492 600.23 573.456C605.027 572.39 609.875 571.511 614.628 570.294L628.927 566.814L642.954 562.659L648.555 561L645.473 565.868L645.471 565.873C643.841 568.329 642.145 570.504 640.356 572.703C638.58 574.888 636.7 576.98 634.772 579.025C632.827 581.053 630.848 583.048 628.758 584.927C626.693 586.83 624.548 588.649 622.338 590.389C620.134 592.128 617.866 593.798 615.52 595.349C614.369 596.156 613.169 596.894 611.967 597.622C610.777 598.375 609.565 599.086 608.321 599.746C605.875 601.139 603.331 602.353 600.765 603.512L596.867 605.141L592.886 606.559C590.196 607.387 587.503 608.233 584.736 608.785C582.002 609.469 579.196 609.814 576.413 610.222C573.608 610.474 570.805 610.755 567.987 610.725C565.172 610.865 562.366 610.562 559.561 610.452C556.782 610.056 553.965 609.89 551.228 609.259L547.103 608.443L543.046 607.353C540.316 606.71 537.716 605.652 535.06 604.79C532.433 603.837 529.891 602.673 527.303 601.625L526.58 601.329V600.511V586.838L527.619 586.674ZM529.021 588.932V600.508L528.298 599.391C530.844 600.379 533.349 601.483 535.927 602.378C538.532 603.182 541.081 604.181 543.747 604.765L547.706 605.77L551.719 606.503C554.38 607.082 557.107 607.194 559.798 607.544C562.511 607.607 565.221 607.869 567.928 607.69C570.641 607.683 573.334 607.368 576.027 607.092C578.698 606.659 581.386 606.292 584.003 605.596C586.65 605.032 589.226 604.176 591.799 603.348L595.604 601.93L599.328 600.31C601.777 599.162 604.208 597.959 606.544 596.583C607.732 595.933 608.893 595.232 610.027 594.489C611.175 593.771 612.322 593.045 613.421 592.251C615.66 590.723 617.825 589.084 619.929 587.371C622.038 585.662 624.086 583.878 626.053 582.009C628.047 580.166 629.934 578.209 631.783 576.225C633.616 574.223 635.403 572.178 637.082 570.052C638.751 567.945 640.415 565.726 641.808 563.559L641.81 563.554L644.327 566.762L629.948 570.775L615.474 574.055C610.66 575.203 605.792 576.007 600.953 577.002C596.11 577.965 591.266 578.903 586.403 579.729L571.829 582.285L557.23 584.678C547.841 586.161 538.432 587.595 529.021 588.932Z" fill="#3E7A84"/>
<path d="M537.724 575.222L461.051 502.379C461.051 502.379 386.58 520.582 376.651 527.203C366.722 533.823 383.271 639.737 376.651 644.7C370.031 649.666 351.828 643.046 343.553 652.975C335.279 662.904 381.617 709.242 402.303 694.348C422.99 679.453 401.815 666.215 401.815 666.215C401.815 666.215 522.284 644.7 527.25 638.083C532.213 631.46 537.724 575.222 537.724 575.222ZM443.891 600.508C442.173 600.508 440.536 600.158 439.043 599.535C421.152 619.662 384.728 661.208 366.322 686.269L361.488 682.447C361.488 682.447 409.578 624.781 435.201 597.003C432.787 594.704 431.267 591.476 431.267 587.878C431.267 580.904 436.919 575.252 443.894 575.252C450.868 575.252 456.523 580.904 456.523 587.878C456.518 594.855 450.866 600.508 443.891 600.508Z" fill="#CCF5FF"/>
<path d="M536.421 575.667L460.21 503.261L461.342 503.562C446.938 507.184 432.557 510.954 418.254 514.945C411.103 516.942 403.963 518.977 396.893 521.194C393.357 522.293 389.826 523.425 386.37 524.678C384.623 525.282 382.912 525.932 381.255 526.651C380.4 526.985 379.576 527.345 378.86 527.767C378.125 528.168 377.199 528.569 377.113 528.916C376.429 529.932 375.962 531.809 375.691 533.51C375.403 535.265 375.236 537.078 375.119 538.899C374.892 542.545 374.875 546.237 374.916 549.93C375.021 557.32 375.41 564.729 375.864 572.136L378.968 616.634C379.366 624.083 379.87 631.497 379.447 639.097C379.388 640.048 379.273 641.016 379.122 641.996C378.907 642.995 378.802 643.965 378.005 645.194C377.861 645.363 377.705 645.527 377.541 645.678C377.612 645.639 377.301 645.864 377.311 645.852L377.235 645.896L377.084 645.984L376.483 646.336C376.126 646.58 375.618 646.79 375.07 646.978C373.978 647.43 373.042 647.538 372.05 647.76C368.162 648.293 364.428 648.151 360.755 648.276C357.104 648.398 353.467 648.721 350.207 649.925C349.359 650.16 348.661 650.656 347.874 651.001C347.177 651.475 346.454 651.929 345.828 652.489L344.939 653.383L344.714 653.606L344.602 653.716L344.545 653.772C344.748 653.474 344.577 653.733 344.609 653.684L344.25 654.28C343.91 654.732 344.042 654.94 343.932 655.214C343.822 655.436 343.9 655.927 343.861 656.272C344.066 659.466 345.916 662.811 347.881 665.783C349.892 668.796 352.275 671.592 354.792 674.243C359.851 679.529 365.554 684.246 371.749 688.097C377.91 691.875 384.738 695.084 391.739 695.428C395.202 695.577 398.623 694.839 401.399 692.992C404.344 690.834 406.692 688.537 407.829 685.448C408.967 682.423 408.611 678.896 407.144 675.714C405.786 672.506 403.506 669.544 400.996 667.122L399.268 665.453L401.6 665.006C417.364 661.981 433.129 658.916 448.823 655.534C464.519 652.171 480.203 648.75 495.772 644.996C503.541 643.137 511.37 641.28 518.858 638.907C520.71 638.315 522.575 637.655 524.134 636.932L524.647 636.661C524.772 636.588 525.107 636.446 525.021 636.446C525.021 636.424 525.036 636.434 525.082 636.458L525.092 636.463C525.266 636.204 524.865 636.827 524.916 636.741L524.96 636.658L525.048 636.492L525.224 636.16C525.441 635.725 525.73 635.253 525.886 634.848L526.236 633.709C526.355 633.315 526.49 632.995 526.614 632.543L526.979 631.14C527.216 630.202 527.484 629.286 527.675 628.311C528.1 626.39 528.506 624.464 528.868 622.507C529.647 618.619 530.302 614.677 530.945 610.735C531.627 606.798 532.257 602.844 532.868 598.885L536.421 575.667ZM538.941 575.337C538.784 579.37 538.491 583.38 538.205 587.397C537.946 591.417 537.538 595.42 537.135 599.428C536.338 607.446 535.39 615.449 534.007 623.452C533.687 625.454 533.259 627.455 532.841 629.462C532.653 630.461 532.372 631.478 532.125 632.487L531.744 634.002C531.607 634.52 531.382 635.138 531.196 635.7L530.588 637.418C530.371 637.941 530.131 638.332 529.904 638.794L529.733 639.129L529.645 639.295L529.601 639.378C529.64 639.325 529.212 639.965 529.364 639.728L529.3 639.794C528.96 640.138 528.589 640.468 528.203 640.769C527.758 641.133 527.594 641.14 527.289 641.324L526.468 641.746C524.376 642.692 522.431 643.327 520.456 643.946C512.602 646.338 504.765 648.102 496.898 649.901C481.146 653.291 465.345 656.25 449.522 659.085L402.032 667.415L402.633 665.299C405.49 668.007 407.804 671.057 409.588 674.59C411.355 678.051 412.235 682.435 410.842 686.472L410.314 687.958C410.084 688.422 409.796 688.854 409.537 689.302L408.728 690.631C408.413 691.047 408.039 691.423 407.694 691.819C406.233 693.573 404.874 694.372 403.208 695.697C399.737 697.967 395.529 698.776 391.597 698.554C383.643 698.038 376.598 694.517 370.222 690.531C363.839 686.452 358.052 681.545 352.898 676.032C350.325 673.271 347.93 670.336 345.804 667.171C343.746 663.987 341.671 660.636 341.329 656.348C341.373 655.771 341.266 655.307 341.461 654.637C341.623 654.026 341.823 653.266 342.075 652.97L342.431 652.372C342.5 652.276 342.343 652.477 342.593 652.142L342.659 652.074L342.793 651.937L343.06 651.665L344.135 650.583C344.887 649.908 345.748 649.349 346.583 648.792C347.488 648.374 348.35 647.799 349.298 647.523C353.032 646.138 356.918 645.818 360.672 645.673C364.423 645.541 368.152 645.647 371.639 645.153C372.46 644.967 373.379 644.825 374.01 644.552C374.349 644.454 374.711 644.339 375.129 644.056L375.73 643.704L375.879 643.616L375.955 643.572C376.018 643.535 375.74 643.709 375.855 643.63C375.852 643.613 375.855 643.611 375.872 643.613C376.104 643.279 376.358 642.369 376.49 641.558C376.617 640.7 376.722 639.821 376.773 638.916C377.16 631.661 376.646 624.2 376.224 616.813L372.961 572.329C372.477 564.9 372.059 557.459 371.925 549.981C371.869 546.242 371.874 542.493 372.094 538.72C372.211 536.831 372.375 534.937 372.68 533.024C373.047 531.093 373.294 529.207 374.652 527.088C374.86 526.822 375.205 526.396 375.344 526.306L375.608 526.079C375.693 526.015 375.51 526.145 375.818 525.92L375.901 525.876L376.067 525.785L377.402 525.074C378.298 524.566 379.181 524.19 380.06 523.85C381.82 523.102 383.587 522.442 385.361 521.844C388.899 520.585 392.46 519.468 396.028 518.383C403.161 516.199 410.333 514.205 417.513 512.245C431.885 508.359 446.301 504.706 460.765 501.194L461.415 501.035L461.899 501.495L538.97 574.719L538.941 575.337Z" fill="#3E7A84"/>
<path d="M443.769 601.722L441.301 601.444C440.401 601.194 439.487 600.901 438.598 600.608L439.91 600.307C433.569 607.287 427.327 614.361 421.198 621.526L412.027 632.296C408.98 635.896 405.908 639.471 402.897 643.097L384.953 664.947C383.442 666.755 382.03 668.632 380.561 670.472L376.199 676.02L367.472 687.114L366.551 688.285L365.43 687.39L360.61 683.549L359.472 682.64L360.403 681.542L378.675 660.035L387.809 649.28C390.932 645.761 393.98 642.176 397.037 638.598L406.14 627.804C409.243 624.266 412.198 620.595 415.534 617.265C417.169 615.571 418.83 613.899 420.36 612.113L424.898 606.703C427.906 603.081 430.959 599.494 433.916 595.821L433.994 598.262L432.315 596.441C431.772 595.816 431.411 595.053 430.959 594.354C430.467 593.665 430.277 592.837 429.969 592.055C429.832 591.656 429.681 591.263 429.563 590.86L429.382 589.611L429.216 588.352L429.18 588.037L429.16 587.878L429.18 587.531L429.219 586.989C429.299 586.236 429.253 585.606 429.439 584.753C429.656 583.868 429.903 582.976 430.174 582.096L431.335 579.804C432.276 578.377 433.363 577.016 434.739 575.953C435.362 575.34 436.139 574.944 436.895 574.511C437.276 574.303 437.652 574.081 438.043 573.893L439.282 573.477C440.113 573.201 440.939 572.908 441.819 572.862L443.121 572.712L443.774 572.647L443.854 572.639L443.874 572.637L444.155 572.651L444.189 572.654L444.324 572.666L444.595 572.688C445.325 572.752 446.02 572.8 446.782 572.901C447.701 573.135 448.629 573.404 449.538 573.7C451.188 574.426 452.708 575.269 454.018 576.471C454.744 576.984 455.247 577.717 455.807 578.392C456.076 578.739 456.369 579.069 456.608 579.433L457.234 580.591C457.666 581.358 458.033 582.153 458.224 583.013C458.424 583.863 458.776 584.68 458.771 585.559L458.832 586.859L458.856 587.504L458.866 587.827V587.866L458.852 588.14L458.839 588.208L458.817 588.343L458.458 590.493C458.248 591.302 457.896 592.221 457.591 593.052C457.297 593.924 456.75 594.54 456.337 595.276C455.941 596.016 455.313 596.585 454.758 597.196C454.228 597.834 453.58 598.343 452.899 598.802C452.244 599.296 451.591 599.77 450.831 600.08C450.093 600.415 449.402 600.847 448.598 600.994C447.816 601.177 447.065 601.502 446.266 601.556L443.881 601.727L443.769 601.722ZM443.891 599.283L445.836 599.019C446.484 598.944 447.075 598.624 447.691 598.443C448.321 598.279 448.835 597.846 449.387 597.529C449.959 597.236 450.443 596.81 450.88 596.344C451.354 595.921 451.794 595.471 452.114 594.919C452.459 594.393 452.879 593.932 453.075 593.328C453.676 592.165 453.852 591.146 454.091 590.048L454.167 587.869L454.172 587.732L454.174 587.663V587.646C454.177 587.588 454.15 588.086 454.162 587.869L454.157 587.842L454.113 587.622L454.028 587.184L453.871 586.319C453.857 585.728 453.527 585.212 453.368 584.662C453.231 584.095 452.904 583.616 452.613 583.123L452.2 582.37C452.036 582.136 451.826 581.935 451.645 581.715C451.266 581.288 450.944 580.806 450.462 580.481C449.644 579.685 448.598 579.127 447.618 578.651C447.141 578.516 446.682 578.355 446.217 578.16L444.079 577.908L443.808 577.876L443.674 577.859L443.639 577.854C443.397 577.842 443.95 577.869 443.889 577.866L443.876 577.869L443.823 577.874L443.392 577.915L442.53 577.986C441.941 577.969 441.396 578.172 440.844 578.333L440.005 578.563L439.236 578.961C438.725 579.235 438.16 579.428 437.733 579.838C436.748 580.489 435.966 581.38 435.24 582.314L434.331 583.846C434.172 584.352 433.986 584.846 433.776 585.347C433.583 585.889 433.559 586.737 433.444 587.417L433.373 587.957L433.363 588.025L433.358 588.059L433.356 588.076C433.361 587.988 433.344 588.299 433.366 587.881L433.376 587.993L433.395 588.218L433.456 589.122L433.505 590.036L433.749 590.914C433.94 591.488 433.999 592.128 434.346 592.646C434.654 593.174 434.859 593.78 435.238 594.271L436.403 595.742L437.493 597.118L436.482 598.184C433.248 601.59 430.108 605.085 426.927 608.54L422.178 613.748C420.614 615.5 419.18 617.37 417.721 619.215C414.867 622.966 411.631 626.372 408.545 629.913L399.075 640.358C395.942 643.86 392.797 647.354 389.733 650.915L380.676 661.726L362.568 683.348L362.36 681.345L367.209 685.149L365.168 685.426L373.851 674.204L378.193 668.593C379.657 666.736 381.052 664.82 382.572 663.014L400.874 641.382L419.517 620.063C425.751 612.973 432.068 605.965 438.178 598.765L438.63 598.233L439.492 598.465C440.186 598.653 440.853 598.866 441.543 599.073L444.018 599.291L443.891 599.283Z" fill="#3E7A84"/>
<path d="M509.212 894.001C487.568 894.001 468.304 890.057 454.187 885.993C398.095 869.827 349.819 830.664 339.384 792.866C319.927 722.369 357.478 681.859 359.088 680.168L363.885 684.728C363.523 685.117 327.349 724.368 345.772 791.107C355.63 826.832 401.993 864.063 456.024 879.632C490.097 889.448 555.338 898.544 609.421 849.119C706.303 760.56 830.842 852.944 832.095 853.887L828.1 859.168C826.897 858.256 706.685 769.196 613.881 854.007C579.927 885.032 541.863 894.001 509.212 894.001Z" fill="black"/>
<path d="M528.853 904.466H501.649V877.262H528.853V904.466ZM513.103 893.012H517.399V888.716H513.103V893.012Z" fill="#F3FDFF"/>
<path d="M356.177 808.942H328.974V781.738H356.177V808.942ZM340.428 797.488H344.724V793.192H340.428V797.488Z" fill="#F3FDFF"/>
<path d="M802.917 846.444H780.051V823.578H802.917V846.444ZM789.679 836.816H793.289V833.207H789.679V836.816Z" fill="#F3FDFF"/>
<path d="M431.264 495.757C431.264 495.757 456.088 461.005 467.671 456.039C467.671 456.039 550.417 533.819 568.62 547.059L548.762 581.812C548.762 581.812 449.468 523.89 431.264 495.757Z" fill="#E6FDFF"/>
<path d="M430.272 495.044C435.592 487.69 441.151 480.545 447.007 473.602C449.959 470.154 452.989 466.76 456.198 463.512L458.678 461.134C459.494 460.333 460.413 459.617 461.276 458.854C462.119 458.075 463.128 457.437 464.062 456.733C464.973 456.012 466.151 455.521 467.19 454.917L467.192 454.915L467.862 454.551L468.509 455.147L493.492 478.179L518.616 501.055C527 508.67 535.456 516.197 543.933 523.699C548.158 527.467 552.484 531.096 556.756 534.801C558.887 536.663 561.037 538.491 563.244 540.197L569.808 545.429L571.22 546.556L570.372 548.058V548.061L550.829 582.992L549.666 585.069L547.565 583.864L547.562 583.862C526.607 571.242 506.043 558.092 485.95 544.163C475.926 537.176 466.034 529.982 456.469 522.333C454.096 520.398 451.716 518.469 449.397 516.463C447.068 514.469 444.763 512.443 442.537 510.32C440.294 508.218 438.099 506.055 436.032 503.748C433.916 501.498 432.005 499.02 430.238 496.415L429.771 495.728L430.272 495.044ZM432.789 495.757C434.355 497.93 436.032 500.044 437.933 501.999C439.969 504.2 442.156 506.287 444.392 508.318C446.611 510.368 448.918 512.331 451.249 514.266C453.571 516.211 455.958 518.086 458.338 519.965C467.937 527.396 477.891 534.398 487.979 541.194C508.184 554.735 528.936 567.547 549.955 579.754L549.957 579.756L546.695 580.631L566.868 546.059V546.057L567.432 548.686L560.766 543.252C558.513 541.465 556.369 539.598 554.256 537.707C550.011 533.938 545.698 530.234 541.511 526.412C533.107 518.797 524.725 511.16 516.426 503.443L491.556 480.261L466.83 456.929L468.148 457.161L468.145 457.163C467.246 457.713 466.293 458.067 465.428 458.754C464.56 459.414 463.644 459.978 462.825 460.736C461.997 461.469 461.127 462.141 460.33 462.925L457.918 465.237C454.778 468.417 451.784 471.767 448.862 475.183C443.263 481.83 437.906 488.722 432.789 495.757Z" fill="#3E7A84"/>
<path d="M461.75 532.718L440.145 518.926C440.145 518.926 386.365 529.512 383.23 536.565C380.094 543.62 387.15 612.595 387.15 624.352C387.15 636.108 419.285 599.711 419.285 599.711C419.285 599.711 410.663 550.673 457.693 560.863C457.693 560.863 483.358 546.511 461.75 532.718Z" fill="white"/>
<path d="M445.543 500.169C454.949 485.616 470.403 472.293 470.403 472.293L492.908 491.926L461.75 518.925L445.543 500.169Z" fill="white"/>
<path d="M481.097 507.375C479.443 509.562 476.613 510.207 474.778 508.817C472.942 507.426 472.798 504.528 474.453 502.343C476.107 500.156 478.937 499.511 480.772 500.901C482.607 502.289 482.754 505.188 481.097 507.375Z" fill="#103B3F"/>
<path d="M513.193 530.543C511.539 532.73 508.709 533.375 506.874 531.985C505.039 530.594 504.894 527.696 506.549 525.511C508.203 523.324 511.033 522.679 512.868 524.069C514.703 525.46 514.848 528.358 513.193 530.543Z" fill="#103B3F"/>
<path d="M482.251 518.926C475.946 524.717 482.979 536.303 492.91 528.029" stroke="#103B3F" stroke-miterlimit="10" stroke-linecap="round"/>
</svg>
