<svg width="221" height="91" viewBox="0 0 221 91" fill="none" xmlns="http://www.w3.org/2000/svg">
<g clip-path="url(#clip0_113_1757)">
<path d="M11.0101 6.58742H12.5201L12.6401 6.64742L17.9201 13.0074H18.0001L23.2601 6.64742L23.3801 6.58742H24.9101C25.0101 6.58742 25.0601 6.64742 25.0601 6.75742V17.5874C25.0601 17.6974 25.0101 17.7574 24.9101 17.7574H23.1201C23.0201 17.7574 22.9701 17.6974 22.9701 17.5874V10.4574L22.9201 10.4074L22.8701 10.4274L18.5401 15.6374L18.4201 15.6974H17.4901L17.3501 15.6374L13.0201 10.4274L12.9901 10.4074L12.9401 10.4574V17.5874C12.9401 17.6974 12.8801 17.7574 12.7701 17.7574H11.0001C10.8901 17.7574 10.8301 17.6974 10.8301 17.5874V6.75742C10.8301 6.64742 10.8901 6.58742 11.0001 6.58742" fill="#BC7229"/>
<path d="M42.5 6.74742C42.5 6.65742 42.55 6.60742 42.64 6.60742H44.46C44.56 6.60742 44.61 6.65742 44.61 6.74742V10.9874C44.61 11.0874 44.66 11.1374 44.75 11.1374H52.15C52.25 11.1374 52.3 11.0874 52.3 10.9874V6.74742C52.3 6.65742 52.35 6.60742 52.44 6.60742H54.26C54.35 6.60742 54.4 6.65742 54.4 6.74742V17.6174C54.4 17.7174 54.35 17.7674 54.26 17.7674H52.44C52.35 17.7674 52.3 17.7174 52.3 17.6174V13.3774C52.3 13.2874 52.25 13.2374 52.15 13.2374H44.75C44.66 13.2374 44.61 13.2874 44.61 13.3774V17.6174C44.61 17.7174 44.56 17.7674 44.46 17.7674H42.64C42.55 17.7674 42.5 17.7174 42.5 17.6174V6.74742Z" fill="#BC7229"/>
<path d="M57.1499 6.78742C57.1499 6.67742 57.2099 6.61742 57.3299 6.61742H67.5699L67.6799 6.69742L68.2799 8.57742V8.68742L68.1699 8.73742H59.4199C59.3099 8.73742 59.2499 8.79742 59.2499 8.90742V10.9974L59.3599 11.1174H65.8999L65.9899 11.1674L66.0099 11.2574L65.4099 13.1374L65.2899 13.2274H59.3599L59.2499 13.3374V15.4274L59.2999 15.5574L59.4199 15.6074H68.1699L68.2699 15.6574V15.7474L67.6799 17.6274L67.5699 17.7074H57.3299C57.2099 17.7074 57.1499 17.6574 57.1499 17.5374V6.78742Z" fill="#BC7229"/>
<path d="M76.72 17.9974C75.82 17.9974 75.01 17.9474 74.3 17.8574C73.58 17.7674 72.96 17.6574 72.44 17.5474C71.91 17.4274 71.5 17.3174 71.19 17.2074C70.88 17.0974 70.68 17.0274 70.59 16.9874L70.54 16.9274L70.31 14.5674L70.39 14.4574H70.41L70.43 14.4774C70.57 14.5574 70.81 14.6774 71.15 14.8374C71.49 14.9974 71.92 15.1474 72.45 15.3074C72.98 15.4574 73.6 15.5974 74.31 15.7174C75.02 15.8374 75.83 15.8974 76.73 15.8974C77.9 15.8974 78.82 15.7674 79.49 15.5074C80.16 15.2474 80.49 14.9074 80.49 14.4774C80.49 14.3274 80.41 14.1774 80.25 14.0374C80.09 13.8974 79.83 13.7774 79.47 13.6674C79.11 13.5574 78.66 13.4774 78.11 13.4174C77.56 13.3574 76.89 13.3274 76.11 13.3274C75.13 13.3274 74.3 13.2674 73.63 13.1474C72.95 13.0274 72.39 12.8674 71.93 12.6674C71.48 12.4674 71.12 12.2474 70.86 11.9974C70.6 11.7574 70.41 11.5074 70.28 11.2574C70.15 11.0074 70.07 10.7674 70.04 10.5474C70.01 10.3274 69.99 10.1374 69.99 9.99742C69.99 9.27742 70.19 8.67742 70.59 8.20742C70.99 7.73742 71.51 7.36742 72.14 7.09742C72.77 6.82742 73.48 6.63742 74.27 6.52742C75.06 6.41742 75.84 6.36742 76.6 6.36742C77.29 6.36742 77.93 6.40742 78.5 6.49742C79.08 6.58742 79.58 6.68742 80.02 6.79742C80.46 6.90742 80.82 7.01742 81.09 7.12742C81.37 7.23742 81.54 7.30742 81.63 7.34742L81.68 7.40742L81.83 9.68742L81.75 9.77742H81.73L81.71 9.76742C81.53 9.65742 81.27 9.52742 80.94 9.37742C80.61 9.22742 80.22 9.08742 79.77 8.95742C79.32 8.82742 78.83 8.71742 78.29 8.61742C77.75 8.52742 77.19 8.47742 76.6 8.47742C75.64 8.47742 74.87 8.52742 74.28 8.62742C73.69 8.72742 73.23 8.85742 72.9 9.00742C72.57 9.15742 72.36 9.31742 72.25 9.49742C72.14 9.67742 72.09 9.83742 72.09 9.99742C72.09 10.4274 72.45 10.7374 73.16 10.9274C73.87 11.1174 74.85 11.2174 76.1 11.2174C76.48 11.2174 76.9 11.2274 77.37 11.2474C77.84 11.2674 78.32 11.3174 78.81 11.3974C79.3 11.4774 79.78 11.5874 80.25 11.7274C80.72 11.8674 81.14 12.0674 81.5 12.3174C81.87 12.5674 82.16 12.8774 82.39 13.2474C82.62 13.6174 82.73 14.0574 82.73 14.5574C82.73 14.6674 82.71 14.8374 82.67 15.0574C82.63 15.2774 82.54 15.5174 82.4 15.7674C82.26 16.0274 82.06 16.2874 81.8 16.5474C81.54 16.8174 81.18 17.0574 80.74 17.2774C80.3 17.4974 79.75 17.6774 79.1 17.8074C78.45 17.9474 77.66 18.0174 76.75 18.0174" fill="#BC7229"/>
<path d="M84.8601 6.74742C84.8601 6.65742 84.9101 6.60742 85.0001 6.60742H86.8201C86.9201 6.60742 86.9701 6.65742 86.9701 6.74742V10.9874C86.9701 11.0874 87.0201 11.1374 87.1101 11.1374H94.5101C94.6101 11.1374 94.6601 11.0874 94.6601 10.9874V6.74742C94.6601 6.65742 94.7101 6.60742 94.8001 6.60742H96.6201C96.7101 6.60742 96.7601 6.65742 96.7601 6.74742V17.6174C96.7601 17.7174 96.7101 17.7674 96.6201 17.7674H94.8001C94.7101 17.7674 94.6601 17.7174 94.6601 17.6174V13.3774C94.6601 13.2874 94.6101 13.2374 94.5101 13.2374H87.1101C87.0201 13.2374 86.9701 13.2874 86.9701 13.3774V17.6174C86.9701 17.7174 86.9201 17.7674 86.8201 17.7674H85.0001C84.9101 17.7674 84.8601 17.7174 84.8601 17.6174V6.74742Z" fill="#BC7229"/>
<path d="M99.51 6.74742C99.51 6.65742 99.56 6.60742 99.65 6.60742H101.47C101.57 6.60742 101.62 6.65742 101.62 6.74742V10.9874C101.62 11.0874 101.67 11.1374 101.76 11.1374H109.16C109.26 11.1374 109.31 11.0874 109.31 10.9874V6.74742C109.31 6.65742 109.36 6.60742 109.45 6.60742H111.27C111.36 6.60742 111.41 6.65742 111.41 6.74742V17.6174C111.41 17.7174 111.36 17.7674 111.27 17.7674H109.45C109.36 17.7674 109.31 17.7174 109.31 17.6174V13.3774C109.31 13.2874 109.26 13.2374 109.16 13.2374H101.76C101.67 13.2374 101.62 13.2874 101.62 13.3774V17.6174C101.62 17.7174 101.57 17.7674 101.47 17.7674H99.65C99.56 17.7674 99.51 17.7174 99.51 17.6174V6.74742Z" fill="#BC7229"/>
<path d="M113.45 6.60742H115.62L115.68 6.64742L119.03 14.0874L119.09 14.1274L119.16 14.0874L122.17 6.64742L122.23 6.60742H123.68L123.74 6.64742L126.76 14.0874L126.82 14.1274L126.88 14.0874L130.23 6.64742L130.29 6.60742H132.46L132.52 6.69742L127.55 17.7274L127.49 17.7674H126.01L125.94 17.7274L123.02 10.4774L122.96 10.4274L122.89 10.4774L119.97 17.7274L119.91 17.7674H118.42L118.36 17.7274L113.39 6.69742L113.45 6.60742Z" fill="#BC7229"/>
<path d="M146.68 6.69742L146.77 6.60742H155.36C155.86 6.60742 156.32 6.70742 156.74 6.90742C157.16 7.10742 157.53 7.37742 157.84 7.70742C158.15 8.04742 158.39 8.42742 158.57 8.85742C158.75 9.28742 158.84 9.73742 158.84 10.1974C158.84 10.6574 158.75 11.0974 158.58 11.4974C158.41 11.8974 158.17 12.2374 157.86 12.5374C157.55 12.8374 157.19 13.0674 156.77 13.2374C156.35 13.4074 155.89 13.4974 155.4 13.5074L155.38 13.5574L159.13 17.6374V17.7174L159.07 17.7674H156.59L156.53 17.7374L152.68 13.5474L152.62 13.5174H148.87L148.78 13.6074V17.6574L148.69 17.7474H146.76L146.67 17.6574V6.69742H146.68ZM148.88 11.3974H155.36C155.52 11.3974 155.69 11.3774 155.85 11.3274C156.01 11.2774 156.16 11.2074 156.29 11.1174C156.42 11.0174 156.53 10.8974 156.61 10.7374C156.69 10.5874 156.73 10.4074 156.73 10.1974C156.73 9.98742 156.69 9.79742 156.62 9.62742C156.54 9.44742 156.44 9.29742 156.31 9.15742C156.18 9.02742 156.03 8.91742 155.87 8.83742C155.71 8.75742 155.54 8.71742 155.36 8.71742H148.88L148.79 8.80742V11.2974L148.88 11.3874V11.3974Z" fill="#BC7229"/>
<path d="M161.36 17.7574L161.25 17.6474V6.71742L161.36 6.60742H163.25L163.36 6.71742V17.6474L163.25 17.7574H161.36Z" fill="#BC7229"/>
<path d="M144.7 17.7174L144.6 17.7674H142.51L142.4 17.7074L138.03 10.4374H137.95L133.76 17.3974L133.58 17.7074L133.47 17.7674H131.38L131.27 17.7174V17.6174L137.99 6.35742L144.71 17.6174L144.7 17.7174Z" fill="#BC7229"/>
<path d="M40.44 17.7274L40.34 17.7774H38.24L38.14 17.7074L33.76 10.4674H33.68L29.31 17.7074L29.2 17.7774H27.11L27 17.7274V17.6274L33.72 6.40742L40.44 17.6274V17.7274Z" fill="#BC7229"/>
<path d="M47.7999 86.3474C47.9599 86.6474 48.1799 86.8474 48.4899 86.9474V87.0074C48.3599 86.9974 48.2199 86.9874 48.0899 86.9674C47.9699 86.9574 47.8399 86.9474 47.7099 86.9374C47.5799 86.9374 47.4599 86.9374 47.3499 86.9374C47.2399 86.9374 47.1199 86.9374 46.9699 86.9374C46.8299 86.9374 46.6899 86.9574 46.5599 86.9674C46.3999 86.9774 46.2399 86.9974 46.0699 87.0074V86.9374C46.2299 86.9074 46.3499 86.8674 46.4499 86.7874C46.5499 86.7274 46.6199 86.6474 46.6799 86.5574C46.7299 86.4574 46.7299 86.3274 46.6799 86.1574L45.8699 84.1374C45.6299 83.5474 45.3899 83.0674 45.1499 82.6874C44.9099 82.3074 44.6499 82.0074 44.3799 81.7874C44.1099 81.5674 43.8199 81.4074 43.5099 81.3274C43.1999 81.2474 42.8599 81.1974 42.4699 81.1774H41.2799V85.9874C41.2799 86.2374 41.3099 86.4274 41.3799 86.5574C41.4499 86.6874 41.5199 86.7774 41.6099 86.8374C41.6899 86.9074 41.7999 86.9474 41.9199 86.9474V87.0174C41.7599 87.0074 41.6099 86.9974 41.4699 86.9774C41.3499 86.9674 41.2299 86.9574 41.0999 86.9474C40.9699 86.9474 40.8699 86.9474 40.7999 86.9474C40.7299 86.9474 40.6299 86.9474 40.4999 86.9474C40.3699 86.9474 40.2399 86.9674 40.1099 86.9774C39.9699 86.9874 39.8099 87.0074 39.6399 87.0174V86.9474C39.7599 86.9474 39.8699 86.9174 39.9699 86.8574C40.0399 86.7974 40.1099 86.6974 40.1799 86.5674C40.2499 86.4374 40.2799 86.2474 40.2799 86.0074V75.9474C40.2799 75.6974 40.2499 75.5074 40.1799 75.3774C40.1099 75.2474 40.0399 75.1574 39.9699 75.0974C39.8699 75.0374 39.7599 75.0074 39.6399 75.0074V74.9574L45.0199 74.9774C45.4399 74.9774 45.8299 75.0674 46.1899 75.2374C46.5499 75.4174 46.8599 75.6474 47.1299 75.9374C47.3899 76.2274 47.6099 76.5574 47.7599 76.9174C47.9199 77.2874 47.9899 77.6674 47.9899 78.0674C47.9899 78.4974 47.8999 78.9074 47.7199 79.2874C47.5399 79.6674 47.2899 79.9974 46.9699 80.2774C46.6499 80.5574 46.2799 80.7874 45.8599 80.9474C45.4399 81.1074 44.9899 81.1874 44.5099 81.1874H44.1499C44.5199 81.2974 44.8499 81.4274 45.1199 81.5974C45.3899 81.7574 45.6199 81.9374 45.8099 82.1174C45.9999 82.3074 46.1499 82.4874 46.2699 82.6774C46.3899 82.8674 46.4899 83.0274 46.5599 83.1574C46.6199 83.2874 46.6699 83.4074 46.6999 83.5174L47.8199 86.3674L47.7999 86.3474ZM44.4899 80.9674C44.6199 80.9674 44.7499 80.9574 44.8799 80.9374C45.0099 80.9174 45.1299 80.8874 45.2499 80.8374C45.6099 80.7174 45.9199 80.5374 46.1599 80.3074C46.3999 80.0774 46.5899 79.7974 46.7199 79.4874C46.8499 79.1774 46.9099 78.8274 46.9099 78.4574C46.9099 78.0874 46.8399 77.6974 46.6899 77.2974C46.4899 76.7274 46.1799 76.2574 45.7899 75.8874C45.3899 75.5174 44.8399 75.3274 44.1499 75.3274H41.2599V80.9674H44.4899Z" fill="#BC7229"/>
<path d="M55.76 86.7174C56.13 86.6174 56.47 86.4674 56.77 86.2574C57.07 86.0474 57.28 85.8574 57.38 85.6874H57.65C57.36 86.0574 57.07 86.3474 56.77 86.5474C56.48 86.7474 56.18 86.8874 55.89 86.9774C55.6 87.0674 55.32 87.1274 55.06 87.1374C54.79 87.1574 54.54 87.1674 54.3 87.1674C53.75 87.1674 53.22 87.0474 52.74 86.8174C52.26 86.5874 51.83 86.2674 51.46 85.8574C51.09 85.4574 50.8 84.9774 50.59 84.4274C50.38 83.8774 50.27 83.2974 50.27 82.6874C50.27 82.0774 50.38 81.4874 50.59 80.9474C50.8 80.3974 51.09 79.9174 51.46 79.5074C51.83 79.0974 52.25 78.7774 52.74 78.5374C53.23 78.2974 53.75 78.1874 54.3 78.1874C54.85 78.1874 55.35 78.2574 55.76 78.4074C56.17 78.5574 56.52 78.7674 56.81 79.0374C57.1 79.3074 57.33 79.6274 57.5 79.9974C57.67 80.3674 57.78 80.7674 57.84 81.1974H51.3C51.22 81.7074 51.2 82.2174 51.26 82.7474C51.32 83.2674 51.43 83.7474 51.6 84.1674C51.78 84.5974 52.01 84.9974 52.3 85.3474C52.58 85.7074 52.9 85.9974 53.27 86.2374C53.63 86.4674 54.02 86.6374 54.44 86.7374C54.86 86.8374 55.3 86.8274 55.74 86.7174M52.93 78.7674C52.51 78.9674 52.17 79.2674 51.91 79.6574C51.65 80.0474 51.47 80.4674 51.38 80.9274H56.56C56.49 80.2874 56.33 79.7874 56.07 79.4274C55.82 79.0674 55.52 78.8074 55.17 78.6574C54.82 78.5074 54.45 78.4474 54.05 78.4874C53.65 78.5274 53.28 78.6174 52.93 78.7774" fill="#BC7229"/>
<path d="M65.6999 82.7174C65.9199 82.8274 66.1299 82.9474 66.3299 83.0674C66.5299 83.1974 66.7099 83.3474 66.8599 83.5274C67.0099 83.7074 67.1199 83.9274 67.1899 84.1774C67.2599 84.4274 67.2599 84.7274 67.1899 85.0774C67.1499 85.3074 67.0599 85.5474 66.9099 85.7874C66.7599 86.0374 66.5399 86.2574 66.2599 86.4674C65.9799 86.6674 65.6199 86.8374 65.1799 86.9674C64.7399 87.0974 64.2099 87.1574 63.5799 87.1574C62.9499 87.1574 62.3699 87.0474 61.8199 86.8274C61.2699 86.6074 60.8499 86.2874 60.5499 85.8674C60.3699 85.6174 60.2899 85.3874 60.3199 85.1774C60.3499 84.9774 60.4199 84.8074 60.5299 84.6674C60.6599 84.4974 60.8399 84.3574 61.0499 84.2374C61.0499 84.2974 61.0699 84.4174 61.0999 84.5774C61.1399 84.7474 61.1999 84.9374 61.2999 85.1574C61.3899 85.3774 61.5299 85.5974 61.7099 85.8374C61.8899 86.0674 62.1199 86.2774 62.4099 86.4574C62.6499 86.5974 62.8999 86.6974 63.1599 86.7574C63.4199 86.8074 63.6899 86.8374 63.9599 86.8374C64.5299 86.8374 64.9999 86.7274 65.3799 86.4974C65.7599 86.2674 66.0299 85.9974 66.1799 85.6974C66.3399 85.3874 66.3799 85.0774 66.2999 84.7474C66.2199 84.4174 66.0199 84.1674 65.6999 83.9674C65.5099 83.8474 65.2199 83.6974 64.8499 83.5274C64.4799 83.3474 64.0799 83.1774 63.6599 82.9874C63.2399 82.7974 62.8299 82.6074 62.4199 82.4174C62.0199 82.2274 61.6799 82.0574 61.4199 81.9074C61.1499 81.7674 60.9499 81.5774 60.7999 81.3574C60.6499 81.1374 60.5599 80.8974 60.5399 80.6374C60.5199 80.3774 60.5499 80.1174 60.6499 79.8374C60.7499 79.5574 60.9099 79.3174 61.1399 79.0874C61.2399 78.9874 61.3599 78.8874 61.5099 78.7774C61.6599 78.6674 61.8399 78.5674 62.0399 78.4774C62.2399 78.3874 62.4899 78.3074 62.7699 78.2574C63.0499 78.1974 63.3799 78.1674 63.7399 78.1674C64.3499 78.1674 64.9299 78.2774 65.4599 78.4974C65.9899 78.7174 66.4099 79.0374 66.7199 79.4674C66.8999 79.7174 66.9799 79.9474 66.9499 80.1474C66.9199 80.3474 66.8499 80.5074 66.7399 80.6474C66.6099 80.8174 66.4299 80.9574 66.2199 81.0774C66.2199 81.0174 66.1999 80.9074 66.1799 80.7374C66.1499 80.5674 66.0899 80.3774 65.9899 80.1474C65.8899 79.9274 65.7599 79.6974 65.5699 79.4574C65.3899 79.2174 65.1499 79.0174 64.8499 78.8374C64.3899 78.5474 63.8799 78.4174 63.2999 78.4574C63.0599 78.4674 62.8199 78.5074 62.5799 78.5774C62.3399 78.6474 62.1199 78.7574 61.9299 78.9274C61.7499 79.1074 61.6099 79.3274 61.5199 79.5874C61.4299 79.8474 61.4399 80.0974 61.5599 80.3374C61.6599 80.5774 61.8099 80.7774 62.0299 80.9474C62.2499 81.1074 62.4699 81.2474 62.6999 81.3574C62.9799 81.4774 63.2399 81.5874 63.4799 81.6974C63.7199 81.8074 63.9599 81.9174 64.1899 82.0174C64.4199 82.1274 64.6599 82.2374 64.9099 82.3474C65.1599 82.4574 65.4199 82.5774 65.6999 82.7074" fill="#BC7229"/>
<path d="M73.7401 78.4074C74.1401 78.3674 74.5501 78.4374 74.9901 78.6074C75.4201 78.7774 75.8201 79.0474 76.1801 79.4174C76.5401 79.7874 76.8401 80.2674 77.0701 80.8574C77.3001 81.4474 77.4201 82.1274 77.4201 82.9274C77.4201 83.7274 77.3101 84.3574 77.0901 84.9174C76.8701 85.4674 76.5801 85.9174 76.2401 86.2674C75.9001 86.6074 75.5201 86.8574 75.1001 86.9974C74.6801 87.1374 74.2801 87.1974 73.9001 87.1774C73.5701 87.1574 73.2801 87.0874 73.0101 86.9674C72.7401 86.8574 72.5001 86.7174 72.2901 86.5674C72.0801 86.4174 71.9001 86.2574 71.7601 86.0874C71.6201 85.9174 71.5101 85.7674 71.4501 85.6174V89.6074C71.4501 89.8574 71.4801 90.0474 71.5501 90.1874C71.6201 90.3174 71.6901 90.4174 71.7801 90.4774C71.8601 90.5474 71.9701 90.5874 72.0901 90.5874V90.6374C71.9301 90.6274 71.7801 90.6174 71.6401 90.5974C71.5201 90.5874 71.4001 90.5774 71.2701 90.5674C71.1401 90.5674 71.0401 90.5674 70.9701 90.5674C70.9001 90.5674 70.8001 90.5674 70.6701 90.5674C70.5401 90.5674 70.4101 90.5874 70.2801 90.5974C70.1401 90.6074 69.9801 90.6174 69.8101 90.6374V90.5874C69.9301 90.5874 70.0401 90.5474 70.1401 90.4774C70.2101 90.4174 70.2801 90.3274 70.3501 90.1974C70.4201 90.0774 70.4501 89.8874 70.4501 89.6274V79.8674C70.4501 79.5374 70.4201 79.2974 70.3601 79.1374C70.3001 78.9774 70.2301 78.8674 70.1601 78.8074C70.0601 78.7474 69.9601 78.7274 69.8501 78.7374V78.6474C69.9701 78.6374 70.0901 78.6274 70.2101 78.6274C70.3101 78.6174 70.4001 78.6074 70.4901 78.5974C70.5801 78.5974 70.6601 78.5874 70.7201 78.5674L70.9101 78.5174L71.1501 78.4574C71.2501 78.4374 71.3501 78.4074 71.4601 78.3874V80.5574C71.5001 80.3774 71.5701 80.1674 71.6801 79.9274C71.7901 79.6874 71.9401 79.4574 72.1301 79.2374C72.3201 79.0174 72.5501 78.8374 72.8301 78.6774C73.1001 78.5174 73.4101 78.4274 73.7601 78.4074M73.7701 86.7674C74.2001 86.7374 74.5901 86.6174 74.9201 86.3774C75.2501 86.1474 75.5301 85.8374 75.7601 85.4574C75.9901 85.0774 76.1601 84.6474 76.2701 84.1774C76.3801 83.7074 76.4201 83.2274 76.4001 82.7374C76.3901 82.2474 76.3001 81.7674 76.1401 81.2974C75.9801 80.8374 75.7701 80.4274 75.5101 80.0674C75.2501 79.7174 74.9601 79.4274 74.6301 79.2174C74.3001 79.0074 73.9701 78.9074 73.6201 78.9174C73.2101 78.9274 72.8701 79.0674 72.5901 79.3274C72.3101 79.5874 72.0901 79.9174 71.9201 80.3074C71.7501 80.6974 71.6301 81.1274 71.5601 81.5974C71.4901 82.0674 71.4501 82.5274 71.4501 82.9874V85.0474C71.5601 85.2874 71.6901 85.5174 71.8601 85.7374C72.0201 85.9574 72.2001 86.1374 72.4101 86.2874C72.6101 86.4374 72.8301 86.5574 73.0701 86.6474C73.3001 86.7374 73.5401 86.7774 73.7801 86.7674" fill="#BC7229"/>
<path d="M84.52 78.1874C85.13 78.1874 85.72 78.3074 86.26 78.5374C86.8 78.7674 87.28 79.0974 87.69 79.5074C88.09 79.9174 88.41 80.3974 88.65 80.9474C88.89 81.4974 89 82.0774 89 82.6874C89 83.2974 88.88 83.8974 88.65 84.4374C88.42 84.9774 88.1 85.4574 87.69 85.8674C87.29 86.2774 86.81 86.5974 86.26 86.8374C85.71 87.0774 85.13 87.1874 84.52 87.1874C83.91 87.1874 83.32 87.0674 82.78 86.8374C82.24 86.6074 81.76 86.2774 81.35 85.8674C80.95 85.4574 80.63 84.9774 80.39 84.4374C80.16 83.8974 80.04 83.3174 80.04 82.6874C80.04 82.0574 80.16 81.4874 80.39 80.9474C80.63 80.3974 80.94 79.9174 81.35 79.5074C81.75 79.0974 82.23 78.7774 82.78 78.5374C83.33 78.2974 83.91 78.1874 84.52 78.1874ZM86.07 86.5474C86.62 86.3674 87.06 86.0874 87.38 85.7174C87.7 85.3474 87.91 84.9174 88.01 84.4274C88.11 83.9374 88.11 83.4074 88.01 82.8274C87.91 82.2474 87.73 81.6474 87.45 81.0374C87.22 80.5474 86.93 80.1174 86.58 79.7574C86.23 79.3974 85.85 79.1174 85.44 78.9174C85.03 78.7174 84.61 78.5974 84.18 78.5674C83.75 78.5274 83.35 78.5974 82.96 78.7674C82.44 78.9874 82.04 79.3074 81.75 79.7474C81.46 80.1774 81.26 80.6574 81.15 81.1874C81.04 81.7074 81.02 82.2374 81.08 82.7774C81.14 83.3174 81.27 83.7974 81.46 84.2274C81.65 84.6574 81.91 85.0574 82.23 85.4174C82.55 85.7774 82.91 86.0674 83.31 86.2974C83.71 86.5274 84.15 86.6574 84.62 86.7174C85.09 86.7774 85.57 86.7174 86.05 86.5574" fill="#BC7229"/>
<path d="M99.1901 85.9874C99.1901 86.2374 99.2201 86.4274 99.2901 86.5574C99.3601 86.6874 99.4301 86.7774 99.5201 86.8374C99.6001 86.9074 99.7101 86.9474 99.8301 86.9474V87.0174C99.6701 87.0074 99.5201 86.9974 99.3801 86.9774C99.2501 86.9674 99.1201 86.9574 99.0001 86.9474C98.8801 86.9374 98.7801 86.9474 98.7101 86.9474C98.6401 86.9474 98.5401 86.9474 98.4101 86.9474C98.2801 86.9474 98.1501 86.9674 98.0201 86.9774C97.8801 86.9874 97.7201 86.9974 97.5501 87.0174V86.9474C97.6701 86.9474 97.7701 86.9174 97.8601 86.8574C97.9401 86.7974 98.0201 86.6974 98.0901 86.5674C98.1601 86.4374 98.1901 86.2474 98.1901 86.0074V82.6274C98.1901 82.1574 98.1501 81.6974 98.0801 81.2374C98.0101 80.7774 97.8701 80.3674 97.6801 80.0074C97.4901 79.6474 97.2201 79.3574 96.8801 79.1274C96.5401 78.9074 96.1001 78.7974 95.5501 78.7974C95.0601 78.7974 94.6001 78.9574 94.1701 79.2874C93.7401 79.6174 93.4301 80.0174 93.2201 80.5174V85.9874C93.2201 86.2374 93.2501 86.4274 93.3201 86.5574C93.3901 86.6874 93.4601 86.7774 93.5501 86.8374C93.6301 86.9074 93.7401 86.9474 93.8601 86.9474V87.0174C93.7001 87.0074 93.5501 86.9974 93.4101 86.9774C93.2901 86.9674 93.1701 86.9574 93.0401 86.9474C92.9101 86.9474 92.8101 86.9474 92.7401 86.9474C92.6701 86.9474 92.5701 86.9474 92.4401 86.9474C92.3101 86.9474 92.1801 86.9674 92.0501 86.9774C91.9101 86.9874 91.7501 86.9974 91.5801 87.0174V86.9474C91.7001 86.9474 91.8101 86.9174 91.9101 86.8574C91.9801 86.7974 92.0501 86.6974 92.1201 86.5674C92.1901 86.4374 92.2201 86.2474 92.2201 86.0074V79.8274C92.2201 79.5774 92.1901 79.3874 92.1201 79.2674C92.0501 79.1474 91.9801 79.0674 91.9101 79.0174C91.8201 78.9674 91.7301 78.9474 91.6201 78.9674V78.8774L93.2301 78.3874V79.9374C93.3001 79.7974 93.4101 79.6374 93.5601 79.4674C93.7101 79.2974 93.8801 79.1374 94.0801 78.9874C94.2801 78.8374 94.5201 78.7074 94.7901 78.5874C95.0601 78.4774 95.3601 78.4074 95.6901 78.3774C96.1101 78.3574 96.5701 78.4274 97.0801 78.6074C97.5901 78.7774 98.0201 79.0774 98.3801 79.4874C98.6801 79.8374 98.9001 80.2674 99.0201 80.7774C99.1501 81.2874 99.2101 81.9074 99.2101 82.6274V85.9874H99.1901Z" fill="#BC7229"/>
<path d="M110.71 75.3174C110.53 75.2574 110.33 75.2274 110.11 75.2174C109.89 75.2174 109.67 75.2374 109.45 75.3074C109.23 75.3774 109.01 75.4774 108.79 75.6274C108.57 75.7774 108.38 75.9774 108.21 76.2374C108.03 76.4974 107.92 76.7674 107.88 77.0374C107.84 77.3074 107.84 77.5674 107.88 77.8174C107.92 78.0674 107.98 78.2974 108.06 78.5174C108.14 78.7374 108.23 78.9174 108.31 79.0774L108.49 79.2674L108.67 79.4974C108.85 79.7474 108.93 79.9774 108.9 80.1774C108.87 80.3774 108.8 80.5374 108.69 80.6774C108.56 80.8474 108.38 80.9874 108.17 81.1074C108.17 81.0474 108.15 80.9374 108.12 80.7674C108.09 80.5974 108.03 80.4074 107.93 80.1774C107.83 79.9574 107.7 79.7274 107.52 79.4874C107.34 79.2574 107.1 79.0474 106.8 78.8674C106.34 78.5774 105.82 78.4574 105.25 78.4874C105.01 78.4974 104.77 78.5374 104.53 78.6074C104.29 78.6774 104.07 78.7874 103.88 78.9574C103.7 79.1374 103.56 79.3574 103.47 79.6174C103.38 79.8774 103.39 80.1274 103.51 80.3674C103.61 80.6074 103.76 80.8074 103.98 80.9674C104.2 81.1274 104.42 81.2674 104.65 81.3774C104.93 81.4974 105.19 81.6174 105.43 81.7174C105.67 81.8274 105.91 81.9374 106.14 82.0474C106.38 82.1574 106.62 82.2674 106.86 82.3774C107.11 82.4874 107.37 82.6074 107.64 82.7374C107.86 82.8474 108.07 82.9674 108.27 83.0874C108.47 83.2174 108.65 83.3674 108.8 83.5474C108.95 83.7274 109.06 83.9474 109.13 84.1974C109.2 84.4474 109.2 84.7474 109.13 85.0974C109.09 85.3274 109 85.5674 108.85 85.8074C108.7 86.0574 108.48 86.2774 108.2 86.4874C107.92 86.6974 107.56 86.8574 107.12 86.9874C106.68 87.1174 106.15 87.1774 105.52 87.1774C104.89 87.1774 104.31 87.0674 103.76 86.8474C103.21 86.6274 102.79 86.3074 102.49 85.8874C102.31 85.6374 102.23 85.4074 102.26 85.1974C102.29 84.9874 102.36 84.8274 102.47 84.6874C102.6 84.5174 102.78 84.3774 102.99 84.2574C102.99 84.3174 103.01 84.4274 103.04 84.5974C103.08 84.7674 103.14 84.9574 103.24 85.1774C103.34 85.3974 103.47 85.6174 103.65 85.8574C103.83 86.0874 104.07 86.2974 104.35 86.4774C104.59 86.6274 104.84 86.7174 105.1 86.7774C105.36 86.8274 105.63 86.8574 105.9 86.8574C106.47 86.8574 106.94 86.7474 107.32 86.5174C107.7 86.2874 107.97 86.0174 108.12 85.7174C108.28 85.4074 108.32 85.0974 108.24 84.7674C108.16 84.4474 107.96 84.1874 107.63 83.9874C107.44 83.8674 107.15 83.7174 106.78 83.5474C106.41 83.3774 106.01 83.1974 105.59 83.0074C105.17 82.8174 104.76 82.6274 104.35 82.4374C103.95 82.2474 103.61 82.0774 103.35 81.9274C103.09 81.7874 102.88 81.5974 102.73 81.3774C102.58 81.1574 102.49 80.9174 102.47 80.6574C102.45 80.3974 102.48 80.1274 102.58 79.8574C102.68 79.5874 102.84 79.3374 103.07 79.1074C103.17 79.0074 103.29 78.9074 103.44 78.7974C103.59 78.6874 103.77 78.5874 103.97 78.4974C104.18 78.4074 104.42 78.3274 104.7 78.2674C104.98 78.2074 105.31 78.1774 105.67 78.1774C106.13 78.1774 106.56 78.2374 106.97 78.3474C107.38 78.4574 107.74 78.6374 108.05 78.8774L107.97 78.6574L107.89 78.4374C107.73 78.0174 107.68 77.6074 107.72 77.2174C107.76 76.8274 107.89 76.4774 108.11 76.1574C108.29 75.8774 108.49 75.6674 108.71 75.5074C108.93 75.3474 109.16 75.2374 109.4 75.1774C109.63 75.1074 109.87 75.0774 110.1 75.0874C110.33 75.0874 110.53 75.1274 110.71 75.1874C111.07 75.2974 111.36 75.4674 111.59 75.7074C111.81 75.9474 111.95 76.2274 112.01 76.5374L112.03 76.7174V76.9174L111.99 77.1074L111.94 77.2974V77.3174L111.92 77.3374L111.9 77.3574V77.3774L111.88 77.3974L111.81 77.4874C111.73 77.5574 111.63 77.5974 111.52 77.6174C111.41 77.6274 111.31 77.6074 111.21 77.5474C111.11 77.4874 111.04 77.4074 111 77.3074C110.96 77.2074 110.95 77.0974 110.97 76.9874C110.99 76.8774 111.05 76.7874 111.13 76.7174C111.21 76.6474 111.31 76.6074 111.42 76.6074L111.56 76.5874C111.68 76.5374 111.75 76.4774 111.76 76.4074C111.78 76.2674 111.73 76.0974 111.6 75.9174C111.37 75.6174 111.06 75.4074 110.68 75.3074M112.07 85.9774C112.07 86.2274 112.1 86.4174 112.17 86.5474C112.24 86.6774 112.31 86.7674 112.4 86.8274C112.48 86.8974 112.59 86.9374 112.71 86.9374V87.0074C112.55 86.9974 112.4 86.9874 112.26 86.9674C112.14 86.9574 112.02 86.9474 111.89 86.9374C111.76 86.9374 111.66 86.9374 111.59 86.9374C111.52 86.9374 111.42 86.9374 111.29 86.9374C111.16 86.9374 111.03 86.9574 110.9 86.9674C110.76 86.9774 110.6 86.9874 110.43 87.0074V86.9374C110.55 86.9374 110.66 86.9074 110.76 86.8474C110.83 86.7874 110.9 86.6874 110.97 86.5574C111.04 86.4274 111.07 86.2374 111.07 85.9974V79.8374C111.07 79.5874 111.04 79.3974 110.97 79.2774C110.9 79.1574 110.83 79.0774 110.76 79.0274C110.68 78.9774 110.58 78.9574 110.47 78.9674V78.8774L112.08 78.3874V85.9774H112.07Z" fill="#BC7229"/>
<path d="M122.29 78.4374C122.37 78.4274 122.46 78.4174 122.55 78.4174C122.64 78.4174 122.72 78.4174 122.79 78.3974L123.04 78.3774V78.4274C122.91 78.4474 122.77 78.5074 122.64 78.5874C122.53 78.6474 122.42 78.7474 122.31 78.8774C122.2 79.0074 122.09 79.1974 121.99 79.4374C121.81 79.8874 121.59 80.4174 121.35 81.0374C121.1 81.6574 120.85 82.2874 120.6 82.9274C120.35 83.5674 120.1 84.1774 119.87 84.7674C119.64 85.3574 119.44 85.8474 119.28 86.2274C119.23 86.3474 119.19 86.4574 119.15 86.5474C119.11 86.6374 119.07 86.7174 119.05 86.7874L118.98 86.9874H118.6L115.49 79.2174C115.43 79.0374 115.36 78.8974 115.27 78.7874C115.19 78.6874 115.11 78.6074 115.03 78.5474L114.78 78.4174V78.3674L114.96 78.3874H115.13L115.34 78.4074C115.43 78.4174 115.53 78.4274 115.62 78.4374C115.71 78.4374 115.78 78.4374 115.85 78.4374H116.07C116.15 78.4274 116.24 78.4174 116.34 78.3974L116.88 78.3574V78.4074C116.77 78.4174 116.68 78.4574 116.61 78.5174C116.55 78.5774 116.51 78.6674 116.5 78.7774C116.49 78.8874 116.52 79.0474 116.61 79.2574C116.77 79.6274 116.9 79.9674 117.02 80.2674C117.14 80.5674 117.28 80.9174 117.43 81.2974C117.58 81.6874 117.73 82.0774 117.89 82.4674C118.28 83.4074 118.7 84.4674 119.17 85.6474L121.68 79.3274C121.76 79.1174 121.77 78.9674 121.71 78.8474C121.64 78.7374 121.55 78.6374 121.43 78.5674C121.3 78.4974 121.13 78.4374 120.94 78.4074V78.3574C121.07 78.3674 121.2 78.3774 121.32 78.3974C121.42 78.3974 121.52 78.3974 121.64 78.3974C121.75 78.3974 121.85 78.4174 121.94 78.4274H122.12L122.28 78.4074L122.29 78.4374Z" fill="#BC7229"/>
<path d="M129.92 86.7174C130.29 86.6174 130.63 86.4674 130.93 86.2574C131.23 86.0474 131.44 85.8574 131.54 85.6874H131.81C131.52 86.0574 131.23 86.3474 130.93 86.5474C130.63 86.7474 130.34 86.8874 130.05 86.9774C129.76 87.0674 129.48 87.1274 129.22 87.1374C128.95 87.1574 128.7 87.1674 128.46 87.1674C127.91 87.1674 127.39 87.0474 126.9 86.8174C126.41 86.5874 125.99 86.2674 125.62 85.8574C125.25 85.4574 124.96 84.9774 124.75 84.4274C124.54 83.8774 124.43 83.2974 124.43 82.6874C124.43 82.0774 124.54 81.4874 124.75 80.9474C124.96 80.3974 125.25 79.9174 125.62 79.5074C125.99 79.0974 126.41 78.7774 126.9 78.5374C127.39 78.2974 127.91 78.1874 128.46 78.1874C129.01 78.1874 129.51 78.2574 129.92 78.4074C130.33 78.5574 130.68 78.7674 130.97 79.0374C131.26 79.3074 131.49 79.6274 131.66 79.9974C131.83 80.3674 131.94 80.7674 132 81.1974H125.46C125.38 81.7074 125.36 82.2174 125.42 82.7474C125.48 83.2674 125.59 83.7474 125.76 84.1674C125.94 84.5974 126.17 84.9974 126.46 85.3474C126.74 85.7074 127.06 85.9974 127.43 86.2374C127.79 86.4674 128.18 86.6374 128.6 86.7374C129.02 86.8374 129.46 86.8274 129.9 86.7174M127.08 78.7674C126.66 78.9674 126.32 79.2674 126.06 79.6574C125.8 80.0474 125.62 80.4674 125.53 80.9274H130.71C130.64 80.2874 130.48 79.7874 130.22 79.4274C129.97 79.0674 129.67 78.8074 129.32 78.6574C128.97 78.5074 128.6 78.4474 128.2 78.4874C127.8 78.5274 127.43 78.6174 127.08 78.7774" fill="#BC7229"/>
<path d="M148.76 75.0074C148.89 74.9974 149.02 74.9874 149.15 74.9774C149.28 74.9774 149.39 74.9774 149.5 74.9774C149.63 74.9674 149.76 74.9574 149.88 74.9374V75.0274C149.69 75.0674 149.49 75.1374 149.3 75.2474C149.14 75.3474 148.98 75.4874 148.8 75.6774C148.63 75.8674 148.47 76.1174 148.34 76.4474C148.17 76.8574 147.97 77.3274 147.74 77.8574C147.51 78.3874 147.27 78.9474 147.03 79.5274C146.78 80.1074 146.53 80.7074 146.28 81.3174C146.03 81.9274 145.78 82.5174 145.54 83.0774C145.3 83.6474 145.08 84.1774 144.87 84.6674C144.66 85.1574 144.48 85.5874 144.33 85.9474L143.88 87.0174H143.46C142.83 85.5274 142.23 84.0874 141.65 82.7174C141.4 82.1274 141.14 81.5274 140.88 80.9074C140.62 80.2974 140.37 79.6974 140.13 79.1174C139.89 78.5374 139.66 77.9974 139.44 77.4774C139.22 76.9574 139.03 76.5174 138.86 76.1374C138.75 75.8574 138.63 75.6474 138.49 75.5074C138.35 75.3574 138.22 75.2574 138.1 75.1774C137.97 75.0974 137.83 75.0474 137.69 75.0274V74.9374L137.94 74.9574C138.01 74.9674 138.1 74.9774 138.2 74.9774C138.3 74.9774 138.4 74.9774 138.5 74.9974C138.66 75.0074 138.8 75.0174 138.93 75.0274C139.06 75.0374 139.17 75.0274 139.26 75.0274C139.35 75.0274 139.45 75.0274 139.58 75.0274C139.71 75.0274 139.84 75.0074 139.97 74.9974C140.08 74.9874 140.18 74.9774 140.28 74.9774C140.38 74.9774 140.46 74.9774 140.53 74.9574L140.78 74.9374V75.0274C140.56 75.0374 140.38 75.0874 140.24 75.1774C140.12 75.2474 140.03 75.3674 139.97 75.5174C139.91 75.6774 139.95 75.9074 140.08 76.2074C140.08 76.2174 140.14 76.3574 140.25 76.6274C140.36 76.8974 140.52 77.2574 140.7 77.7074C140.89 78.1574 141.1 78.6574 141.33 79.2174C141.56 79.7774 141.8 80.3574 142.04 80.9474C142.62 82.3174 143.27 83.8774 143.99 85.6274L147.87 76.3274C147.99 76.0474 148 75.8274 147.9 75.6674C147.8 75.5074 147.66 75.3774 147.49 75.2774C147.3 75.1674 147.06 75.0874 146.77 75.0374V74.9474C146.96 74.9574 147.15 74.9774 147.33 74.9874C147.49 74.9974 147.65 75.0074 147.82 75.0174C147.99 75.0174 148.13 75.0374 148.24 75.0474H148.52L148.75 75.0274L148.76 75.0074Z" fill="#BC7229"/>
<path d="M153.45 85.9774C153.45 86.2274 153.48 86.4174 153.55 86.5474C153.62 86.6774 153.69 86.7674 153.78 86.8274C153.86 86.8974 153.97 86.9374 154.09 86.9374V87.0074C153.93 86.9974 153.78 86.9874 153.64 86.9674C153.52 86.9574 153.4 86.9474 153.27 86.9374C153.14 86.9374 153.04 86.9374 152.97 86.9374C152.9 86.9374 152.8 86.9374 152.67 86.9374C152.54 86.9374 152.41 86.9574 152.28 86.9674C152.13 86.9774 151.98 86.9874 151.81 87.0074V86.9374C151.93 86.9374 152.04 86.9074 152.14 86.8474C152.21 86.7874 152.28 86.6874 152.35 86.5574C152.42 86.4274 152.45 86.2374 152.45 85.9974V79.8374C152.45 79.5874 152.42 79.3974 152.35 79.2774C152.28 79.1574 152.21 79.0774 152.14 79.0274C152.06 78.9774 151.96 78.9574 151.85 78.9674V78.8774L153.46 78.3874V85.9774H153.45ZM156.36 85.9774C156.36 86.2274 156.39 86.4174 156.46 86.5474C156.53 86.6774 156.6 86.7674 156.69 86.8274C156.77 86.8974 156.88 86.9374 157 86.9374V87.0074C156.84 86.9974 156.69 86.9874 156.55 86.9674C156.43 86.9574 156.3 86.9474 156.18 86.9374C156.05 86.9374 155.95 86.9374 155.88 86.9374C155.81 86.9374 155.71 86.9374 155.58 86.9374C155.45 86.9374 155.32 86.9574 155.19 86.9674C155.05 86.9774 154.89 86.9874 154.72 87.0074V86.9374C154.84 86.9374 154.95 86.9074 155.05 86.8474C155.12 86.7874 155.19 86.6874 155.26 86.5574C155.33 86.4274 155.36 86.2374 155.36 85.9974V76.7474C155.35 76.6374 155.34 76.5274 155.32 76.4174C155.31 76.3074 155.29 76.1874 155.27 76.0674C155.21 75.7874 155.09 75.5574 154.9 75.3774C154.71 75.1974 154.46 75.1074 154.15 75.1074C153.93 75.1074 153.73 75.1574 153.54 75.2574C153.35 75.3574 153.19 75.4774 153.05 75.6374C152.91 75.7974 152.8 75.9674 152.72 76.1674C152.64 76.3674 152.59 76.5774 152.58 76.7874C152.66 76.6874 152.77 76.6374 152.89 76.6274C153.01 76.6174 153.12 76.6374 153.23 76.6974C153.33 76.7574 153.39 76.8474 153.44 76.9574C153.48 77.0674 153.48 77.1874 153.43 77.3074C153.39 77.4274 153.32 77.5174 153.21 77.5774C153.1 77.6374 152.99 77.6574 152.87 77.6274C152.75 77.6074 152.65 77.5474 152.57 77.4474C152.49 77.3474 152.45 77.2374 152.45 77.1174C152.45 76.8374 152.49 76.5774 152.56 76.3374C152.63 76.0874 152.74 75.8674 152.89 75.6674C153.04 75.4674 153.23 75.3074 153.46 75.1774C153.69 75.0474 153.95 74.9674 154.25 74.9374C154.46 74.9174 154.66 74.9074 154.86 74.9374C155.06 74.9574 155.25 74.9974 155.43 75.0674C155.61 75.1374 155.77 75.2274 155.91 75.3474C156.06 75.4674 156.17 75.6274 156.25 75.8174L156.3 75.9574C156.32 76.0874 156.34 76.2274 156.35 76.3774C156.35 76.5274 156.35 76.6574 156.35 76.7774V85.9874L156.36 85.9774Z" fill="#BC7229"/>
<path d="M160.68 85.9774C160.68 86.2274 160.71 86.4174 160.78 86.5474C160.85 86.6774 160.92 86.7674 161.01 86.8274C161.09 86.8974 161.2 86.9374 161.32 86.9374V87.0074C161.16 86.9974 161.01 86.9874 160.87 86.9674C160.75 86.9574 160.63 86.9474 160.5 86.9374C160.37 86.9374 160.27 86.9374 160.2 86.9374C160.13 86.9374 160.03 86.9374 159.9 86.9374C159.77 86.9374 159.64 86.9574 159.51 86.9674C159.37 86.9774 159.21 86.9874 159.04 87.0074V86.9374C159.16 86.9374 159.27 86.9074 159.37 86.8474C159.44 86.7874 159.51 86.6874 159.58 86.5574C159.65 86.4274 159.68 86.2374 159.68 85.9974V76.3674C159.68 76.1174 159.65 75.9274 159.58 75.8074C159.51 75.6874 159.44 75.6074 159.37 75.5574C159.29 75.5074 159.19 75.4874 159.08 75.5074V75.4174L160.69 74.9274V85.9874L160.68 85.9774Z" fill="#BC7229"/>
<path d="M170.52 85.9874C170.53 86.2274 170.57 86.4174 170.63 86.5474C170.69 86.6774 170.76 86.7774 170.85 86.8374C170.93 86.8974 171.04 86.9274 171.16 86.9274V86.9974C171 86.9874 170.85 86.9774 170.71 86.9574C170.58 86.9374 170.45 86.9174 170.33 86.9174C170.21 86.9174 170.11 86.9174 170.04 86.9174H169.91L169.73 86.9374L169.51 86.9774V83.5474C169.41 83.8874 169.27 84.2674 169.08 84.6874C168.89 85.1074 168.65 85.5074 168.38 85.8774C168.1 86.2474 167.78 86.5574 167.41 86.8074C167.04 87.0574 166.64 87.1774 166.19 87.1774C165.66 87.1774 165.24 87.0974 164.92 86.9374C164.61 86.7774 164.37 86.5874 164.21 86.3574C164.05 86.1374 163.94 85.9074 163.9 85.6874C163.86 85.4674 163.84 85.2974 163.84 85.1674C163.84 85.0674 163.86 84.9074 163.89 84.6774C163.92 84.4474 164.03 84.1974 164.2 83.9174C164.37 83.6374 164.63 83.3574 164.98 83.0674C165.33 82.7774 165.82 82.5374 166.44 82.3474C166.72 82.2674 167.03 82.1674 167.39 82.0674C167.75 81.9674 168.08 81.8374 168.39 81.6874C168.7 81.5374 168.96 81.3474 169.18 81.1274C169.39 80.9074 169.5 80.6274 169.5 80.3074C169.5 80.0974 169.46 79.9074 169.38 79.7074C169.3 79.5174 169.18 79.3474 169.03 79.1874C168.87 79.0374 168.68 78.9174 168.44 78.8374C168.2 78.7574 167.93 78.7174 167.62 78.7274C167.13 78.7374 166.71 78.8274 166.36 79.0074C166.02 79.1774 165.73 79.3874 165.51 79.6274C165.29 79.8674 165.12 80.1174 165.01 80.3874C164.9 80.6574 164.84 80.8774 164.83 81.0774C164.61 80.9674 164.44 80.8374 164.32 80.6774C164.21 80.5474 164.14 80.3874 164.11 80.1974C164.08 80.0074 164.15 79.7874 164.33 79.5374C164.49 79.3174 164.68 79.1374 164.91 78.9874C165.14 78.8374 165.38 78.7174 165.64 78.6274C165.9 78.5374 166.16 78.4774 166.41 78.4374C166.66 78.3974 166.89 78.3874 167.1 78.3874C167.95 78.3874 168.61 78.5274 169.08 78.7974C169.54 79.0674 169.88 79.4074 170.09 79.8274C170.3 80.2474 170.42 80.7074 170.46 81.2074C170.5 81.7174 170.51 82.2074 170.51 82.6874V85.9774L170.52 85.9874ZM169.04 84.1874C169.23 83.6774 169.36 83.1774 169.42 82.6874C169.48 82.1974 169.51 81.6674 169.51 81.0974C169.51 81.1074 169.48 81.1674 169.42 81.2574C169.36 81.3574 169.26 81.4674 169.12 81.5974C168.98 81.7274 168.8 81.8674 168.57 82.0174C168.34 82.1674 168.05 82.2974 167.7 82.4174C167.37 82.5274 167.05 82.6474 166.73 82.7774C166.41 82.9074 166.12 83.0874 165.85 83.2974C165.49 83.5774 165.22 83.9174 165.04 84.3274C164.86 84.7374 164.83 85.1574 164.97 85.5974C165.05 85.8874 165.23 86.1274 165.5 86.3274C165.77 86.5274 166.07 86.6274 166.39 86.6274C166.79 86.6274 167.1 86.5574 167.32 86.4274C167.54 86.2974 167.77 86.1074 168 85.8674C168.24 85.6274 168.45 85.3574 168.61 85.0574C168.78 84.7574 168.92 84.4674 169.03 84.1874" fill="#BC7229"/>
<path d="M178.98 82.7174C179.2 82.8274 179.41 82.9474 179.61 83.0674C179.81 83.1974 179.99 83.3474 180.14 83.5274C180.29 83.7074 180.4 83.9274 180.47 84.1774C180.54 84.4274 180.54 84.7274 180.47 85.0774C180.43 85.3074 180.34 85.5474 180.19 85.7874C180.04 86.0374 179.82 86.2574 179.54 86.4674C179.26 86.6674 178.9 86.8374 178.46 86.9674C178.02 87.0974 177.49 87.1574 176.86 87.1574C176.23 87.1574 175.65 87.0474 175.1 86.8274C174.55 86.6074 174.13 86.2874 173.83 85.8674C173.65 85.6174 173.57 85.3874 173.6 85.1774C173.63 84.9774 173.7 84.8074 173.81 84.6674C173.94 84.4974 174.12 84.3574 174.33 84.2374C174.33 84.2974 174.35 84.4174 174.38 84.5774C174.42 84.7474 174.48 84.9374 174.58 85.1574C174.68 85.3774 174.81 85.5974 174.99 85.8374C175.17 86.0674 175.41 86.2774 175.69 86.4574C175.93 86.5974 176.18 86.6974 176.44 86.7574C176.7 86.8074 176.97 86.8374 177.24 86.8374C177.81 86.8374 178.28 86.7274 178.66 86.4974C179.04 86.2674 179.31 85.9974 179.46 85.6974C179.62 85.3874 179.66 85.0774 179.58 84.7474C179.5 84.4174 179.3 84.1674 178.98 83.9674C178.79 83.8474 178.5 83.6974 178.13 83.5274C177.76 83.3474 177.36 83.1774 176.94 82.9874C176.52 82.7974 176.11 82.6074 175.7 82.4174C175.3 82.2274 174.96 82.0574 174.7 81.9074C174.43 81.7674 174.23 81.5774 174.08 81.3574C173.93 81.1374 173.84 80.8974 173.82 80.6374C173.8 80.3774 173.83 80.1174 173.93 79.8374C174.03 79.5674 174.19 79.3174 174.42 79.0874C174.52 78.9874 174.64 78.8874 174.79 78.7774C174.94 78.6674 175.12 78.5674 175.32 78.4774C175.52 78.3874 175.77 78.3074 176.05 78.2574C176.33 78.1974 176.65 78.1674 177.02 78.1674C177.63 78.1674 178.21 78.2774 178.74 78.4974C179.27 78.7174 179.69 79.0374 180 79.4674C180.18 79.7174 180.26 79.9474 180.23 80.1474C180.2 80.3474 180.13 80.5074 180.02 80.6474C179.89 80.8174 179.71 80.9574 179.5 81.0774C179.5 81.0174 179.48 80.9074 179.46 80.7374C179.43 80.5674 179.37 80.3774 179.27 80.1474C179.17 79.9274 179.04 79.6974 178.85 79.4574C178.67 79.2174 178.43 79.0174 178.13 78.8374C177.67 78.5474 177.15 78.4174 176.58 78.4574C176.34 78.4674 176.1 78.5074 175.86 78.5774C175.62 78.6474 175.4 78.7574 175.21 78.9274C175.03 79.1074 174.89 79.3274 174.8 79.5874C174.71 79.8474 174.72 80.0974 174.84 80.3374C174.94 80.5774 175.09 80.7774 175.31 80.9474C175.53 81.1074 175.75 81.2474 175.98 81.3574C176.26 81.4774 176.51 81.5874 176.76 81.6974C177 81.8074 177.24 81.9174 177.47 82.0174C177.7 82.1274 177.94 82.2374 178.19 82.3474C178.44 82.4574 178.7 82.5774 178.98 82.7074" fill="#BC7229"/>
<mask id="mask0_113_1757" style="mask-type:luminance" maskUnits="userSpaceOnUse" x="0" y="2" width="220" height="66">
<path d="M196.15 49.9374L202.07 64.0874H209.39L202.45 47.5374C200.67 48.0274 198.51 48.7874 196.14 49.9374M86.6801 49.7174L92.6001 63.8674H99.9201L92.9801 47.3174C91.2001 47.8074 89.0401 48.5674 86.6701 49.7174M77.2001 33.6574C77.7101 32.4374 79.4401 32.4374 79.9501 33.6574L85.0101 45.7374L85.4501 46.7574C77.7801 50.1874 70.2801 56.3974 65.9801 60.3074L77.2201 33.6574H77.2001ZM74.0001 27.6274V28.0974C75.3601 28.4674 74.8301 33.8774 72.8101 38.5974L62.2601 63.8574C62.2601 63.8574 63.0201 63.8374 64.4001 63.8274C65.5001 63.8274 67.0001 63.7974 68.8201 63.7974C74.0901 55.3774 80.6201 50.7374 86.0301 48.1674C92.0801 45.3174 96.7401 45.0574 96.7401 45.0574V44.3174C95.1801 44.1774 93.5501 44.2974 91.8901 44.6174L84.7701 27.6174H74.0201L74.0001 27.6274ZM130.5 31.9374V51.3374L114.87 33.2674C111.77 29.6874 107.27 27.6274 102.54 27.6274H99.5601V28.0574C100.98 28.4274 102.35 33.3274 102.35 38.6874V64.3074C104.73 64.3074 106.65 62.3774 106.65 59.9974V34.2174L130.49 61.8074L130.68 62.0274L132.65 64.3074H134.8V27.6274C132.42 27.6274 130.49 29.5574 130.49 31.9374M5.69009 27.1774V27.6074C7.12009 27.9774 8.49009 32.8874 8.49009 38.2474V42.8374C8.00009 53.1774 10.1601 65.0374 0.590088 67.3474L0.740088 67.7174C14.5901 64.0274 15.3301 57.9074 15.3301 42.8374V28.2574C15.3301 27.6674 14.8501 27.1874 14.2601 27.1874H5.69009V27.1774ZM18.5001 27.1774V27.6074C19.9201 27.9774 21.2901 32.8874 21.2901 38.2474V63.8574H28.1401V33.5074C28.1401 30.0074 25.3101 27.1774 21.8201 27.1774H18.4901H18.5001ZM67.0801 27.1774L54.5301 57.0674L44.1601 32.2374C42.8801 29.1774 39.8901 27.1774 36.5701 27.1774H31.3101V27.6074C33.9401 27.6074 37.7901 34.6774 39.3701 38.4674L50.0101 63.8674H54.0701L69.4101 27.1874H67.0901L67.0801 27.1774ZM137.58 27.1774V32.1374H138C138.38 30.7174 143.27 29.2874 148.7 29.2874H153.5V63.8574H160.34V29.2874H165.19C170.57 29.2874 175.46 30.7174 175.84 32.1374H176.31V27.1774H137.58ZM186.66 33.8874C187.17 32.6674 188.9 32.6674 189.41 33.8874L194.47 45.9674L194.91 46.9874H194.9C187.23 50.4174 179.73 56.6274 175.43 60.5474L186.67 33.8974L186.66 33.8874ZM183.37 27.1774V27.6574C184.75 28.0374 184.22 33.5374 182.16 38.3574L171.42 64.0774C171.42 64.0774 172.19 64.0674 173.6 64.0574C174.72 64.0474 176.24 64.0274 178.1 64.0274C183.47 55.4474 190.12 50.7274 195.62 48.1074C201.78 45.2074 206.52 44.9374 206.52 44.9374V44.1874C204.93 44.0474 203.27 44.1674 201.58 44.4974L194.33 27.1774H183.38H183.37ZM184.71 24.9874H187.76C188.83 22.0874 191.61 20.0174 194.87 20.0174C199.04 20.0174 202.44 23.4174 202.44 27.5874C202.44 28.9174 202.09 30.1674 201.49 31.2574L203.82 33.0574C204.8 31.4674 205.36 29.5874 205.36 27.5874C205.36 21.7974 200.65 17.0874 194.87 17.0874C189.98 17.0874 185.86 20.4474 184.71 24.9874ZM185.63 12.9574L187.23 15.3974C189.45 13.9974 192.06 13.1974 194.87 13.1974C202.8 13.1974 209.26 19.6574 209.26 27.5874C209.26 32.4574 206.82 36.7774 203.1 39.3874L204.38 42.0474C209.08 38.9574 212.18 33.6274 212.18 27.5874C212.18 18.0374 204.41 10.2774 194.87 10.2774C191.47 10.2774 188.31 11.2574 185.63 12.9574ZM170.34 24.9874H173.28C174.56 14.2174 183.76 5.83742 194.87 5.83742C206.86 5.83742 216.61 15.5974 216.61 27.5874C216.61 32.2274 215.16 36.5274 212.67 40.0674L215.26 41.4574C217.95 37.5074 219.53 32.7274 219.53 27.5974C219.53 13.9874 208.46 2.91742 194.86 2.91742C182.13 2.91742 171.63 12.6074 170.33 24.9974" fill="white"/>
</mask>
<g mask="url(#mask0_113_1757)">
<path d="M219.52 0.932292L-0.000732422 2.92466L0.605426 69.7119L220.126 67.7195L219.52 0.932292Z" fill="url(#paint0_linear_113_1757)"/>
</g>
</g>
<defs>
<linearGradient id="paint0_linear_113_1757" x1="107.361" y1="-19.7129" x2="108.096" y2="61.1938" gradientUnits="userSpaceOnUse">
<stop stop-color="#D2A555"/>
<stop offset="0.22" stop-color="#D2A555"/>
<stop offset="0.38" stop-color="#B4893E"/>
<stop offset="0.5" stop-color="#A27830"/>
<stop offset="0.77" stop-color="#C2944B"/>
<stop offset="1" stop-color="#C2944B"/>
</linearGradient>
<clipPath id="clip0_113_1757">
<rect width="220.13" height="89.72" fill="white" transform="translate(0 0.917419)"/>
</clipPath>
</defs>
</svg>
