<svg width="343" height="33" viewBox="0 0 343 33" fill="none" xmlns="http://www.w3.org/2000/svg">
<path d="M1 3.64314C2.4079 3.64314 8.76478 3.64314 21.6972 3.11518C37.8617 2.45527 57.7747 0.443369 73.427 1.14732C78.2151 1.36266 76.4081 3.25917 72.3337 5.04038C54.0002 13.0553 45.8395 15.717 40.3039 18.3888C29.6393 23.5362 88.4179 21.4126 94.8389 22.1272C101.105 22.8245 110.795 24.6124 148.393 25.327C157.389 25.498 162.312 26.3829 187.201 26.7456C212.089 27.1082 256.79 27.1082 280.698 27.2842C310.303 27.5021 318.098 28.8787 326.988 29.4174C330.897 29.9453 334.118 30.6599 336.956 31.1932C338.385 31.3746 339.793 31.3746 341.243 31.3746" stroke="#9397B4" stroke-width="2" stroke-linecap="round"/>
</svg>
