<svg width="348" height="106" viewBox="0 0 348 106" fill="none" xmlns="http://www.w3.org/2000/svg">
<path d="M0 82.5V9C0 2.6 5.33333 1 8 1H80C86.8 2.2 87.5 8.16667 87 11C87.4 18.2 84.1667 26 82.5 29L57 68L37 50L10 82.5H0Z" fill="black"/>
<path d="M12 91H0V96.5C0 103.3 5.33333 105 8 105H79.5C85.9 104.2 87.1667 99 87 96.5V39C87.4 35 86.1667 35.6667 85.5 36.5L57 80L37 60.5L12 91Z" fill="black"/>
<path d="M125.544 48V3.2H133.224L154.792 35.584V3.2H162.472V48H154.792L133.224 15.68V48H125.544ZM190.618 48.768C186.308 48.768 182.49 47.808 179.162 45.888C175.876 43.9253 173.295 41.216 171.418 37.76C169.54 34.2613 168.602 30.208 168.602 25.6C168.602 21.0347 169.54 17.024 171.418 13.568C173.295 10.0693 175.876 7.33867 179.162 5.376C182.49 3.41333 186.308 2.432 190.618 2.432C195.012 2.432 198.874 3.41333 202.202 5.376C205.53 7.33867 208.111 10.0693 209.946 13.568C211.78 17.024 212.698 21.0347 212.698 25.6C212.698 30.208 211.78 34.2613 209.946 37.76C208.111 41.216 205.53 43.9253 202.202 45.888C198.874 47.808 195.012 48.768 190.618 48.768ZM190.682 41.856C193.54 41.856 196.036 41.216 198.17 39.936C200.303 38.6133 201.946 36.736 203.098 34.304C204.25 31.872 204.826 28.9707 204.826 25.6C204.826 22.2293 204.25 19.328 203.098 16.896C201.946 14.464 200.303 12.608 198.17 11.328C196.036 10.0053 193.54 9.344 190.682 9.344C187.823 9.344 185.327 10.0053 183.194 11.328C181.06 12.608 179.396 14.464 178.202 16.896C177.05 19.328 176.474 22.2293 176.474 25.6C176.474 28.9707 177.05 31.872 178.202 34.304C179.396 36.736 181.06 38.6133 183.194 39.936C185.327 41.216 187.823 41.856 190.682 41.856ZM218.922 48V3.2H234.986C238.527 3.2 241.45 3.81866 243.754 5.056C246.1 6.25067 247.828 7.872 248.938 9.92C250.09 11.9253 250.666 14.208 250.666 16.768C250.666 19.1573 250.111 21.376 249.002 23.424C247.892 25.472 246.164 27.1147 243.818 28.352C241.471 29.5893 238.463 30.208 234.794 30.208H226.602V48H218.922ZM242.282 48L232.874 28.224H241.194L251.05 48H242.282ZM226.602 24.512H234.474C237.332 24.512 239.423 23.8293 240.746 22.464C242.111 21.056 242.794 19.2213 242.794 16.96C242.794 14.7413 242.132 12.9707 240.81 11.648C239.487 10.2827 237.375 9.6 234.474 9.6H226.602V24.512ZM267.761 48V9.408H254.577V3.2H288.561V9.408H275.377V48H267.761ZM321.9 48V3.2H329.58V48H321.9ZM293.612 48V3.2H301.292V48H293.612ZM300.14 28.288V22.016H323.372V28.288H300.14ZM159.272 101L135.912 76.488C133.907 74.3547 132.413 72.4347 131.432 70.728C130.451 68.9787 129.96 67.0587 129.96 64.968C129.96 63.0907 130.387 61.448 131.24 60.04C132.136 58.5893 133.395 57.4587 135.016 56.648C136.637 55.8373 138.557 55.432 140.776 55.432C142.867 55.432 144.701 55.816 146.28 56.584C147.901 57.352 149.16 58.4613 150.056 59.912C150.995 61.32 151.443 62.984 151.4 64.904H148.456C148.456 62.6 147.709 60.872 146.216 59.72C144.765 58.5253 142.952 57.928 140.776 57.928C138.259 57.928 136.317 58.6107 134.952 59.976C133.587 61.2987 132.904 62.9413 132.904 64.904C132.904 66.568 133.352 68.1893 134.248 69.768C135.144 71.304 136.467 73.0107 138.216 74.888L163.112 101H159.272ZM138.088 101.768C135.229 101.768 132.712 101.235 130.536 100.168C128.403 99.0587 126.739 97.5013 125.544 95.496C124.349 93.4907 123.752 91.144 123.752 88.456C123.752 86.2373 124.157 84.2533 124.968 82.504C125.821 80.7547 127.101 79.2187 128.808 77.896C130.515 76.5307 132.605 75.3787 135.08 74.44L136.296 73.992L138.152 75.912L136.168 76.68C132.968 77.96 130.6 79.56 129.064 81.48C127.528 83.3573 126.76 85.6613 126.76 88.392C126.76 90.4827 127.229 92.3387 128.168 93.96C129.149 95.5813 130.493 96.84 132.2 97.736C133.907 98.632 135.891 99.08 138.152 99.08C140.925 99.08 143.357 98.4613 145.448 97.224C147.539 95.9867 149.651 93.9387 151.784 91.08C152.723 89.8853 153.704 88.5413 154.728 87.048C155.752 85.512 156.819 83.8267 157.928 81.992L160.424 77.896H163.624L160.232 83.592C159.08 85.4693 157.971 87.1973 156.904 88.776C155.837 90.3547 154.792 91.8053 153.768 93.128C151.421 96.072 149.011 98.248 146.536 99.656C144.104 101.064 141.288 101.768 138.088 101.768ZM175.647 101V56.2H204.575V62.408H183.327V75.272H202.655V81.352H183.327V94.792H204.575V101H175.647ZM229.35 101.768C224.913 101.768 221.073 100.808 217.83 98.888C214.63 96.9253 212.156 94.216 210.406 90.76C208.7 87.2613 207.846 83.2293 207.846 78.664C207.846 74.056 208.7 70.024 210.406 66.568C212.156 63.0693 214.63 60.3387 217.83 58.376C221.073 56.4133 224.913 55.432 229.35 55.432C234.684 55.432 239.036 56.7547 242.406 59.4C245.777 62.0027 247.91 65.6933 248.806 70.472H240.358C239.761 67.9547 238.545 65.9707 236.71 64.52C234.876 63.0693 232.401 62.344 229.286 62.344C226.47 62.344 224.038 63.0053 221.99 64.328C219.985 65.608 218.428 67.4853 217.318 69.96C216.252 72.392 215.718 75.2933 215.718 78.664C215.718 82.0347 216.252 84.936 217.318 87.368C218.428 89.7573 219.985 91.6133 221.99 92.936C224.038 94.216 226.47 94.856 229.286 94.856C232.401 94.856 234.876 94.1947 236.71 92.872C238.545 91.5067 239.761 89.6293 240.358 87.24H248.806C247.953 91.7627 245.82 95.3253 242.406 97.928C239.036 100.488 234.684 101.768 229.35 101.768ZM281.41 101V56.2H289.09V101H281.41ZM253.121 101V56.2H260.802V101H253.121ZM259.649 81.288V75.016H282.882V81.288H259.649ZM315.4 101.768C311.091 101.768 307.272 100.808 303.944 98.888C300.659 96.9253 298.077 94.216 296.2 90.76C294.323 87.2613 293.384 83.208 293.384 78.6C293.384 74.0347 294.323 70.024 296.2 66.568C298.077 63.0693 300.659 60.3387 303.944 58.376C307.272 56.4133 311.091 55.432 315.4 55.432C319.795 55.432 323.656 56.4133 326.984 58.376C330.312 60.3387 332.893 63.0693 334.728 66.568C336.563 70.024 337.48 74.0347 337.48 78.6C337.48 83.208 336.563 87.2613 334.728 90.76C332.893 94.216 330.312 96.9253 326.984 98.888C323.656 100.808 319.795 101.768 315.4 101.768ZM315.464 94.856C318.323 94.856 320.819 94.216 322.952 92.936C325.085 91.6133 326.728 89.736 327.88 87.304C329.032 84.872 329.608 81.9707 329.608 78.6C329.608 75.2293 329.032 72.328 327.88 69.896C326.728 67.464 325.085 65.608 322.952 64.328C320.819 63.0053 318.323 62.344 315.464 62.344C312.605 62.344 310.109 63.0053 307.976 64.328C305.843 65.608 304.179 67.464 302.984 69.896C301.832 72.328 301.256 75.2293 301.256 78.6C301.256 81.9707 301.832 84.872 302.984 87.304C304.179 89.736 305.843 91.6133 307.976 92.936C310.109 94.216 312.605 94.856 315.464 94.856Z" fill="black"/>
</svg>
