<svg width="10" height="16" viewBox="0 0 10 16" fill="none" xmlns="http://www.w3.org/2000/svg">
<mask id="path-1-inside-1_2163_485" fill="white">
<path d="M0.00972423 1.26572C0.0152031 1.46639 0.0441511 1.63884 0.0695834 1.65004C0.13432 1.67855 0.211244 2.15576 0.236715 2.71218C0.248047 2.96224 0.303321 3.41338 0.353329 3.71352C0.406665 4.01236 0.474621 4.49112 0.496605 4.77341C0.523212 5.05773 0.562717 5.41933 0.583151 5.57977C0.603584 5.74022 0.638504 6.16863 0.654714 6.53924C0.673236 6.91087 0.724314 7.45929 0.768682 7.7597C0.813051 8.0601 0.874565 8.5911 0.89862 8.93762C0.922675 9.28415 0.958892 9.71589 0.975544 9.89119C0.992476 10.0721 0.989226 10.2111 0.975354 10.205C0.961482 10.1989 0.966038 10.245 0.989653 10.3104C1.04392 10.4693 1.05981 11.2418 1.00714 11.4554C0.987043 11.5512 0.97721 11.6487 0.985269 11.6743C0.997671 11.6963 1.1345 11.8557 1.29446 12.0252C1.6314 12.3884 2.17673 13.2123 2.47183 13.8021C2.776 14.4152 3.06864 14.9103 3.25757 15.1395C3.40089 15.3155 3.44769 15.3471 3.54514 15.3515C3.6167 15.3582 3.70428 15.3913 3.783 15.4507C3.85117 15.5028 4.02541 15.596 4.17107 15.6602C4.4069 15.7641 4.44897 15.7688 4.55749 15.723C4.8078 15.6184 4.90226 15.404 5.08722 14.5327C5.16717 14.1631 5.26376 13.7871 5.30743 13.688L5.38259 13.5173L5.519 13.5774C5.5953 13.611 5.77991 13.7308 5.92708 13.848C6.23298 14.0873 6.44382 14.1664 6.61021 14.102C6.7766 14.0376 6.96608 13.6199 7.18187 12.8228C7.37424 12.1227 7.71133 11.1505 7.81784 10.9964C7.92029 10.8515 8.04234 10.8502 8.37065 10.9948C8.7082 11.1434 8.93428 11.1879 9.00525 11.1146C9.06346 11.0576 9.0133 10.9584 8.94009 10.9867C8.91014 10.9983 8.73193 10.9391 8.54466 10.8566C8.13543 10.6764 7.88949 10.6645 7.74062 10.8082C7.60885 10.9319 7.23274 11.8925 7.0424 12.5879C6.96343 12.8863 6.83108 13.2934 6.75659 13.5001C6.58193 13.9656 6.52823 13.9998 6.25881 13.8343C6.16216 13.778 6.02249 13.6752 5.94349 13.6101C5.73222 13.4317 5.41704 13.3012 5.31084 13.348C5.17135 13.4077 5.04359 13.748 4.90408 14.397C4.77794 14.9968 4.59313 15.4853 4.48331 15.5279C4.36684 15.5729 3.8012 15.2715 3.75166 15.1395C3.74129 15.1129 3.8017 14.8504 3.88427 14.5564C3.96584 14.2646 4.0717 13.7798 4.11609 13.4909C4.16252 13.1975 4.26834 12.6438 4.35004 12.264C4.50072 11.5897 4.55198 11.1662 4.50955 11.0181C4.4963 10.9792 4.48294 10.7337 4.47928 10.4788C4.47099 10.2218 4.43327 9.73709 4.38953 9.40392C4.34579 9.07075 4.28903 8.45374 4.2593 8.03862C4.19236 7.08119 4.11579 6.27096 4.00062 5.36664C3.95379 4.97153 3.90285 4.33504 3.88682 3.94523C3.87439 3.55977 3.83722 3.08631 3.8005 2.89391C3.7684 2.70354 3.72241 2.32533 3.70228 2.05763C3.68419 1.78532 3.6408 1.41375 3.60999 1.22671C3.57688 1.03865 3.56744 0.872034 3.58555 0.84972C3.60828 0.829443 3.56127 0.748157 3.46801 0.646508C3.33303 0.501701 3.25386 0.45582 2.78683 0.250135C2.17415 -0.0196982 2.06818 -0.0360777 1.5439 0.0386687C0.911727 0.126478 0.52305 0.313265 0.181083 0.688591C0.0833228 0.791475 0.00321846 0.88561 0.00321846 0.88561C-0.0038914 0.901753 0.0032297 1.06735 0.00972423 1.26572ZM0.352884 0.868884C0.399125 0.889249 0.433322 1.03098 0.395702 1.04745C0.356785 1.0606 0.285982 0.933041 0.306296 0.886916C0.314422 0.868466 0.334388 0.860739 0.352884 0.868884ZM0.240474 1.38111C0.24741 1.38416 0.259463 1.44454 0.264408 1.52107C0.271384 1.59298 0.260599 1.6488 0.242103 1.64066C0.223607 1.63251 0.207491 1.58136 0.206997 1.52607C0.20268 1.41678 0.215041 1.36991 0.240474 1.38111ZM0.382324 1.09663C0.40082 1.10478 0.424048 1.13979 0.431652 1.17893C0.449347 1.23904 0.439082 1.23728 0.387375 1.19798C0.320501 1.14925 0.317587 1.06812 0.382324 1.09663ZM0.618566 0.641697C0.637062 0.649843 0.669817 0.694559 0.691294 0.739814C0.73859 0.826729 0.6968 0.827599 0.612338 0.74359C0.564694 0.695072 0.570014 0.620314 0.618566 0.641697ZM0.46736 1.37364C0.490453 1.49671 0.442008 1.50015 0.388404 1.37742C0.356837 1.3112 0.357465 1.27843 0.397224 1.28218C0.425703 1.28646 0.455867 1.32452 0.46736 1.37364ZM0.553962 1.0015C0.572459 1.00965 0.592463 1.07078 0.60711 1.1378C0.623267 1.25782 0.623267 1.25782 0.551207 1.19579C0.513373 1.16261 0.475714 1.11022 0.470983 1.08336C0.465865 1.02603 0.510034 0.982154 0.553962 1.0015ZM0.666823 0.952079C0.698737 0.979902 0.737696 1.03561 0.748908 1.07909C0.767899 1.14253 0.759666 1.13615 0.680282 1.04061C0.578968 0.913383 0.575986 0.876277 0.666823 0.952079ZM0.741224 0.902237C0.759092 0.943149 0.740875 0.940632 0.686857 0.90032C0.646711 0.866118 0.635325 0.841828 0.667132 0.844821C0.696627 0.846797 0.730853 0.875641 0.741224 0.902237ZM1.06889 0.421487C1.21377 0.424716 1.31775 0.514562 1.19525 0.529452C1.15707 0.534665 1.15216 0.527 1.18183 0.509777C1.24958 0.462513 1.19724 0.455982 1.00893 0.488696C0.914908 0.507868 0.821342 0.513474 0.802846 0.505328C0.740421 0.477835 0.926319 0.419276 1.06889 0.421487ZM0.582988 1.31167C0.62296 1.36507 0.619913 1.37199 0.572657 1.35393C0.510233 1.32644 0.473308 1.26612 0.510929 1.24964C0.523224 1.2468 0.556152 1.27231 0.582988 1.31167ZM0.828573 0.703899C0.853551 0.728667 0.837928 0.732802 0.798624 0.715492C0.757288 0.702795 0.739244 0.681083 0.760507 0.676679C0.773818 0.671527 0.80822 0.681167 0.828573 0.703899ZM0.485347 1.62112C0.504511 1.66536 0.543924 1.7075 0.5627 1.72128C0.583509 1.73044 0.617452 1.75365 0.642884 1.76485C0.697638 1.79723 0.714571 1.97816 0.659082 1.95372C0.640586 1.94558 0.608566 1.89292 0.593464 1.83946C0.5716 1.76375 0.549496 1.75126 0.514468 1.77438C0.479441 1.79751 0.460101 1.77247 0.437676 1.68549C0.400149 1.54505 0.428977 1.51094 0.485347 1.62112ZM0.556406 1.39083C0.600334 1.41018 0.653485 1.54648 0.66141 1.66011C0.669054 1.76812 0.628347 1.72265 0.543738 1.54496C0.494023 1.43219 0.498605 1.36538 0.556406 1.39083ZM0.712515 1.14292C0.751365 1.1738 0.783774 1.25691 0.786126 1.32679C0.793597 1.45399 0.793597 1.45399 0.728647 1.37582C0.664712 1.29534 0.617481 1.1644 0.636499 1.11495C0.643889 1.10444 0.677274 1.11639 0.712515 1.14292ZM0.829909 0.776082C0.848405 0.784228 0.863853 0.799294 0.860806 0.806213C0.855728 0.817744 0.829108 0.828044 0.806549 0.829123C0.780663 0.83149 0.767523 0.817446 0.775648 0.798996C0.787101 0.779258 0.809101 0.766918 0.829909 0.776082ZM0.868315 1.00227C0.882575 1.03884 0.876763 1.0583 0.855955 1.04914C0.835147 1.03998 0.81017 1.01521 0.804704 0.99628C0.79591 0.978639 0.800426 0.955849 0.817064 0.949409C0.832687 0.945275 0.857664 0.970042 0.868315 1.00227ZM0.534233 1.89874C0.549789 1.93863 0.601042 1.99149 0.640346 2.0088C0.732092 2.05746 0.803323 2.28434 0.725102 2.28018C0.696622 2.2759 0.651465 2.2092 0.630617 2.13118C0.605144 2.05112 0.583213 2.01943 0.585177 2.05885C0.570263 2.16793 0.514669 2.11866 0.483797 1.97565C0.450334 1.82599 0.476566 1.78523 0.534233 1.89874ZM0.746447 1.46076C0.780673 1.4896 0.813428 1.53431 0.818159 1.56118C0.821594 1.58472 0.81189 1.59422 0.798472 1.57454C0.785055 1.55486 0.749252 1.51707 0.718635 1.49257C0.644997 1.42159 0.663107 1.39927 0.746447 1.46076ZM0.884581 1.14711C0.914744 1.18517 0.931877 1.23403 0.922735 1.25478C0.913594 1.27554 0.888162 1.26434 0.853094 1.2186C0.822931 1.18054 0.805799 1.13168 0.81494 1.11093C0.824081 1.09017 0.847201 1.10036 0.884581 1.14711ZM1.06532 0.962364C1.11167 1.00756 1.13805 1.06048 1.12891 1.08124C1.10453 1.13659 1.05181 1.0996 1.02837 1.01493C1.01512 0.976057 0.980057 0.93032 0.94972 0.911452C0.917352 0.897197 0.915493 0.882611 0.939348 0.884857C0.964219 0.884796 1.02258 0.921513 1.06532 0.962364ZM0.76068 1.61021C0.830535 1.69605 0.887091 1.96878 0.833915 1.94536C0.813106 1.93619 0.823583 1.98762 0.856727 2.06279C0.900695 2.151 0.900349 2.18939 0.863357 2.1731C0.830988 2.15884 0.840622 2.19338 0.881891 2.25011C0.921864 2.30351 0.960928 2.38404 0.965485 2.43011C0.970149 2.501 0.962478 2.50588 0.906148 2.46455C0.849537 2.41759 0.757004 2.12626 0.803244 2.14663C0.814804 2.15172 0.805903 2.10925 0.783865 2.05273C0.759235 1.98957 0.758741 1.93428 0.776115 1.9199C0.799128 1.90526 0.79699 1.88504 0.77387 1.87485C0.746126 1.86264 0.682913 1.59248 0.702212 1.54866C0.707851 1.54839 0.736157 1.57187 0.76068 1.61021ZM0.953365 1.46102C0.978838 1.54108 0.998456 1.57175 1.00083 1.52874C1.00773 1.46294 1.01236 1.46497 1.09997 1.56689C1.18787 1.67444 1.23843 1.80409 1.21636 1.86046C1.19706 1.90428 1.02628 1.72168 1.02985 1.65717C1.02946 1.62671 1.00319 1.59861 0.970365 1.59792C0.931903 1.5975 0.884715 1.53542 0.857946 1.45204C0.823681 1.35434 0.827075 1.30902 0.859898 1.30971C0.887361 1.3163 0.930205 1.38198 0.953365 1.46102ZM1.01436 1.09688C1.03934 1.12165 1.08439 1.16351 1.11066 1.19161C1.14258 1.21943 1.18966 1.25669 1.21898 1.27786C1.24831 1.29903 1.3088 1.35597 1.35645 1.40449C1.40308 1.45531 1.45636 1.50356 1.47513 1.51734C1.49058 1.5324 1.5596 1.60135 1.62399 1.66826C1.68866 1.74079 1.74611 1.80464 1.75536 1.80872C1.86644 1.88242 2.03057 2.0676 2.02819 2.11061C2.02434 2.16949 1.9361 2.10034 1.81387 1.93912C1.78111 1.89441 1.73708 1.85023 1.72061 1.83747C1.70183 1.8237 1.63513 1.75577 1.57074 1.68886C1.50607 1.61632 1.43012 1.54433 1.4008 1.52315C1.37148 1.50198 1.31098 1.44504 1.26232 1.39883C1.16444 1.29514 1.1786 1.30689 1.03763 1.20075C0.981298 1.15942 0.941327 1.10601 0.947421 1.09217C0.958874 1.07244 0.988369 1.07442 1.01436 1.09688ZM0.586942 2.23035C0.62201 2.27608 0.66678 2.31232 0.683979 2.31714C0.699883 2.31864 0.743639 2.35718 0.776394 2.4019C0.80915 2.44661 0.86937 2.49792 0.904611 2.52445C0.974814 2.57189 1.08395 2.78792 1.04069 2.80467C1.0307 2.80853 1.04118 2.85996 1.06886 2.9162C1.11209 3.01234 1.11006 3.01695 1.0565 2.96308C0.946601 2.86787 0.922705 2.79677 0.990101 2.7879C1.03827 2.77882 1.04131 2.7719 0.999697 2.75357C0.969641 2.74034 0.923748 2.68157 0.899117 2.61841C0.861804 2.52763 0.848948 2.51921 0.810138 2.55719C0.782046 2.58337 0.78734 2.6215 0.827486 2.6557C0.86532 2.68888 0.871909 2.73033 0.851488 2.75163C0.826724 2.77652 0.835623 2.81899 0.866241 2.84349C0.904075 2.87667 0.908633 2.92274 0.880928 2.97938L0.837708 3.06498L0.799444 2.93248C0.779892 2.85778 0.773934 2.78356 0.791027 2.76355C0.807104 2.74585 0.797923 2.69775 0.774415 2.65711C0.744252 2.61904 0.737381 2.57196 0.757067 2.5586C0.777768 2.54294 0.773319 2.5217 0.740951 2.50745C0.713207 2.49523 0.67401 2.50275 0.652293 2.52072C0.624482 2.55253 0.605985 2.54438 0.578027 2.4825C0.558862 2.43827 0.552554 2.40245 0.562537 2.39858C0.574552 2.39011 0.56898 2.34635 0.547958 2.28753C0.499713 2.15889 0.51523 2.12993 0.586942 2.23035ZM1.24627 0.827281C1.28439 0.866096 1.29938 0.89473 1.27395 0.88353C1.21874 0.864723 1.12836 0.775351 1.15166 0.766335C1.16469 0.755552 1.20585 0.787448 1.24627 0.827281ZM1.0878 1.29994C1.12795 1.33414 1.1634 1.41034 1.1675 1.46997L1.17154 1.57362L1.07671 1.46302C0.932371 1.28931 0.9386 1.18742 1.0878 1.29994ZM1.25849 0.686724C1.28206 0.683338 1.29751 0.698399 1.28939 0.716849C1.28025 0.737605 1.25363 0.74791 1.23513 0.739764C1.21432 0.7306 1.20118 0.716557 1.20423 0.709638C1.21162 0.699125 1.23362 0.686785 1.25849 0.686724ZM1.37222 0.541306C1.39303 0.55047 1.39156 0.566346 1.36984 0.584317C1.35016 0.597676 1.31429 0.603904 1.29579 0.595758C1.27498 0.586594 1.27848 0.56611 1.29817 0.552751C1.31757 0.533762 1.35372 0.53316 1.37222 0.541306ZM1.18732 0.892185C1.19889 0.897276 1.24162 0.93813 1.28825 0.988955C1.33229 1.03313 1.39223 1.0788 1.41506 1.08335C1.44253 1.08994 1.49914 1.1369 1.54447 1.1844C1.5911 1.23523 1.66288 1.29162 1.69914 1.31585C1.73641 1.33777 1.80616 1.39878 1.8551 1.45062C1.95529 1.55533 1.94345 1.5446 2.07979 1.64871C2.13612 1.69004 2.19357 1.75389 2.20118 1.79304C2.2098 1.82988 2.24865 1.86075 2.27713 1.86504C2.34407 1.86974 2.45565 1.99873 2.48252 2.10694C2.49763 2.1604 2.50715 2.1701 2.52369 2.13884C2.55416 2.06965 2.69832 2.26256 2.72383 2.41147L2.74461 2.53352L2.65181 2.4183C2.60129 2.35751 2.5589 2.27826 2.55158 2.24474C2.54888 2.21326 2.51798 2.18313 2.48848 2.18116C2.41692 2.17442 2.30432 2.04774 2.28078 1.93824C2.26799 1.88579 2.25615 1.87507 2.23961 1.90634C2.21727 1.95708 2.00652 1.72107 1.98945 1.62819C1.98675 1.59672 1.96825 1.58857 1.94524 1.60322C1.92324 1.61556 1.85535 1.56914 1.77754 1.48255C1.70464 1.40364 1.6076 1.31684 1.56441 1.28956C1.52122 1.26228 1.46026 1.21891 1.435 1.18851C1.37986 1.12568 1.38578 1.13104 1.25074 1.03026C1.19441 0.988928 1.15443 0.935526 1.16256 0.917076C1.16505 0.898896 1.17808 0.888112 1.18732 0.892185ZM0.950266 1.69371C0.978397 1.73639 0.992657 1.77296 0.97833 1.78041C0.964004 1.78787 0.969576 1.83163 0.989021 1.8815C1.01411 1.93109 1.04042 2.02804 1.04841 2.09765L1.06846 2.22764L0.997868 2.14974C0.91414 2.05779 0.849699 1.74029 0.91906 1.77083C0.946804 1.78305 0.945681 1.76053 0.91783 1.72348C0.856662 1.63046 0.881426 1.60556 0.950266 1.69371ZM1.86727 0.288475C1.89733 0.301712 1.82531 0.308545 1.70964 0.301661C1.59065 0.296064 1.49088 0.290674 1.48034 0.283276C1.44408 0.259047 1.81641 0.266073 1.86727 0.288475ZM0.511447 2.62115C0.518383 2.6242 0.535234 2.66742 0.546446 2.71091C0.567294 2.78893 0.562951 2.79252 0.52648 2.71864C0.487697 2.64373 0.481391 2.60791 0.511447 2.62115ZM1.29453 1.13766C1.34494 1.17363 1.38344 1.2429 1.38439 1.28462C1.38934 1.36115 1.38471 1.35911 1.29461 1.27537C1.13346 1.1273 1.13784 1.01082 1.29453 1.13766ZM1.38684 0.721219C1.41227 0.73242 1.45659 0.782226 1.48269 0.829518C1.51341 0.878845 1.55125 0.912029 1.56557 0.904571C1.62215 0.882675 1.78329 1.03075 1.79213 1.11724C1.80762 1.20117 1.80068 1.19811 1.70725 1.11566C1.65165 1.06639 1.60012 1.0079 1.58975 0.981304C1.57735 0.959321 1.54701 0.940454 1.52315 0.938209C1.45159 0.931473 1.30533 0.787205 1.32666 0.738774C1.33247 0.719305 1.36141 0.710018 1.38684 0.721219ZM0.668903 2.62716C0.71525 2.67236 0.800195 3.10628 0.774802 3.16394C0.766677 3.18239 0.776313 3.21692 0.796386 3.23402C0.822661 3.26211 0.812676 3.26598 0.775684 3.24969C0.723804 3.22959 0.571625 2.60359 0.614885 2.58685C0.620525 2.58658 0.643925 2.60239 0.668903 2.62716ZM1.66741 0.497838C1.68591 0.505984 1.67084 0.52138 1.63266 0.526593C1.59679 0.532824 1.54474 0.531925 1.52624 0.523779C1.50544 0.514615 1.52281 0.50024 1.56099 0.495027C1.59686 0.488796 1.64429 0.487655 1.66741 0.497838ZM0.558432 2.81532C0.565368 2.81837 0.579175 2.86851 0.580685 2.92149C0.586472 3.01491 0.585455 3.01722 0.552592 2.94767C0.516121 2.87378 0.519128 2.79801 0.558432 2.81532ZM1.45902 0.989815C1.51174 1.0268 1.55736 1.07993 1.56773 1.10653C1.58041 1.13414 1.54313 1.11222 1.47959 1.06221C1.42399 1.01294 1.36637 0.968284 1.36637 0.968284C1.35943 0.965229 1.35988 0.951664 1.36394 0.942439C1.36801 0.933214 1.40963 0.95154 1.45902 0.989815ZM1.17647 1.94478C1.2775 2.06637 1.27873 2.11372 1.17504 2.02951C1.12925 1.99557 1.13602 2.01783 1.19505 2.09063C1.2799 2.2051 1.41205 2.58823 1.35425 2.56278C1.22783 2.49884 1.02581 2.02987 1.10123 1.97773C1.12091 1.96437 1.11156 1.93547 1.08427 1.90968C1.05799 1.88159 1.04762 1.85499 1.06426 1.84855C1.07859 1.84109 1.12928 1.88269 1.17647 1.94478ZM1.34062 1.5407C1.4385 1.64439 1.52497 1.83667 1.50014 1.90559C1.47983 1.95171 1.26851 1.70445 1.23267 1.59779C1.18838 1.4351 1.226 1.41863 1.34062 1.5407ZM1.63041 0.776171C1.67822 0.805491 1.71791 0.853262 1.72163 0.882434C1.72433 0.913912 1.70842 0.912417 1.67623 0.878963C1.64533 0.848834 1.59955 0.814897 1.5718 0.802678C1.54406 0.790459 1.52703 0.766439 1.53516 0.747989C1.54227 0.731845 1.58462 0.742239 1.63041 0.776171ZM1.75983 0.582596C1.77832 0.590742 1.76326 0.606135 1.72508 0.611347C1.68921 0.617579 1.63715 0.616684 1.61866 0.608538C1.59785 0.599374 1.61522 0.584995 1.6534 0.579782C1.68927 0.573551 1.7367 0.572414 1.75983 0.582596ZM0.589036 3.13444C0.612651 3.19991 0.609696 3.52629 0.588888 3.51712C0.570392 3.50898 0.560825 3.43041 0.559663 3.33903C0.559022 3.19006 0.5732 3.08892 0.589036 3.13444ZM1.08146 2.32974C1.11607 2.38904 1.13321 2.43789 1.12119 2.44636C1.10455 2.4528 1.11661 2.51318 1.15178 2.58375C1.19964 2.68192 1.19845 2.70343 1.15018 2.68767C1.07157 2.65305 0.990917 2.44131 1.056 2.43142C1.0829 2.42675 1.07068 2.38557 1.02867 2.33678C0.984637 2.2926 0.963161 2.24735 0.980816 2.2386C0.997454 2.23216 1.04019 2.27301 1.08146 2.32974ZM1.53699 1.35183C1.62782 1.42763 1.70697 1.5864 1.66038 1.60443C1.6284 1.62063 1.43484 1.38945 1.43565 1.33749C1.43526 1.30703 1.43718 1.27758 1.43921 1.27297C1.4356 1.26863 1.48269 1.30588 1.53699 1.35183ZM1.8626 0.512208C1.88757 0.536977 1.87195 0.541108 1.83265 0.523798C1.79233 0.508794 1.77327 0.489388 1.79453 0.484984C1.80784 0.479832 1.84224 0.489476 1.8626 0.512208ZM1.30638 1.80649C1.41967 1.85638 1.6371 2.27155 1.56851 2.30192C1.53394 2.31148 1.3065 2.01306 1.28667 1.93273C1.26554 1.84908 1.27402 1.79224 1.30638 1.80649ZM1.91663 0.734258C2.0391 0.832253 2.02233 0.926751 1.89782 0.833369C1.77795 0.742024 1.76064 0.712373 1.7977 0.684637C1.81766 0.676909 1.86955 0.697001 1.91663 0.734258ZM1.73503 1.19674C1.79368 1.23908 1.84983 1.29961 1.86252 1.32723C1.88326 1.38042 1.68144 1.25574 1.62935 1.18599C1.58549 1.12261 1.63551 1.12812 1.73503 1.19674ZM1.93052 0.922109C2.00258 0.984134 2.0492 1.03496 2.03922 1.03883C2.0272 1.0473 1.95802 0.997554 1.88725 0.938854C1.81519 0.876828 1.76857 0.826005 1.77855 0.822141C1.79158 0.811358 1.86077 0.861101 1.93052 0.922109ZM0.77821 3.30036C0.808266 3.3136 0.820213 3.34915 0.807009 3.37913C0.781616 3.43679 0.731593 3.43128 0.710571 3.37246C0.688253 3.31031 0.720409 3.2749 0.77821 3.30036ZM2.13652 0.473141C2.17419 0.525523 2.14 0.565541 2.0664 0.563417C1.95998 0.560606 1.92887 0.480818 2.02853 0.461376C2.07771 0.449993 2.12773 0.4555 2.13652 0.473141ZM0.873724 3.15243C0.893343 3.1831 0.903046 3.1736 0.906441 3.12829C0.913685 3.02409 0.933023 3.04913 0.956958 3.18909C0.968839 3.26866 0.96432 3.29146 0.942389 3.25977C0.922771 3.2291 0.894184 3.19999 0.877719 3.18723C0.829621 3.15228 0.82139 3.1459 0.831547 3.12284C0.837922 3.11463 0.855402 3.12508 0.873724 3.15243ZM0.652838 3.77934C0.680127 3.80512 0.708325 3.80377 0.724576 3.76687C0.743875 3.72305 0.837398 3.6486 0.969839 3.56099C0.979822 3.55712 1.01195 3.6346 1.04159 3.73026C1.07253 3.82925 1.20251 4.1233 1.32314 4.38845C1.50504 4.77146 1.5495 4.91495 1.55182 5.09771C1.55005 5.22084 1.54771 5.3327 1.54161 5.34654C1.53653 5.35807 1.41507 5.07603 1.26711 4.71624C1.12147 4.35746 0.956768 3.97928 0.89707 3.87038C0.835341 3.76609 0.872479 3.87607 0.981999 4.12256C1.32797 4.91651 1.5432 5.53723 1.56676 5.82847C1.57564 5.98383 1.57025 6.10261 1.54944 6.09345C1.52863 6.08429 1.33818 5.62042 1.13196 5.06699C0.92111 4.51154 0.734265 4.05201 0.718081 4.04488C0.685713 4.03062 1.11698 5.2201 1.31983 5.70596C1.37992 5.84531 1.48341 6.06162 1.5519 6.18816C1.67491 6.4103 1.73819 6.63642 1.68726 6.65804C1.64399 6.67479 1.21857 5.82933 1.05005 5.39714C0.965504 5.17542 0.881204 4.89047 0.854783 4.76869C0.834002 4.64664 0.809543 4.56428 0.800401 4.58504C0.769931 4.65423 0.91345 5.17453 1.05762 5.54917C1.13772 5.74966 1.31702 6.12602 1.45818 6.3947C1.703 6.86048 1.71235 6.88938 1.72783 7.26793C1.73951 7.47959 1.73721 7.66031 1.72926 7.65957C1.71927 7.66343 1.62661 7.46016 1.52374 7.21109C1.41958 6.9587 1.21644 6.46722 1.07136 6.11971C0.87961 5.65251 0.800321 5.40006 0.775223 5.16872C0.75626 4.9924 0.722609 4.6802 0.700666 4.46677C0.681034 4.25436 0.670478 4.06522 0.68165 4.03985C0.692823 4.01448 0.677895 3.94182 0.65428 3.87635C0.593179 3.7393 0.594369 3.71779 0.652838 3.77934ZM1.25743 2.52564C1.37307 2.64541 1.40317 2.7275 1.29835 2.62076C1.19742 2.52399 1.16235 2.47826 1.1715 2.4575C1.17556 2.44828 1.21339 2.48146 1.25743 2.52564ZM1.43256 2.22828C1.5531 2.35572 1.65721 2.35751 1.61895 2.22501C1.58801 2.12602 1.62398 2.14462 1.7624 2.31297C1.87657 2.44861 1.95481 2.63451 1.92969 2.6978C1.92157 2.71625 1.84765 2.63964 1.76438 2.53413C1.60477 2.32615 1.53309 2.29459 1.61178 2.46692C1.64465 2.53647 1.6045 2.50226 1.48311 2.35793C1.29215 2.1334 1.25484 2.04262 1.43256 2.22828ZM1.97582 1.08249C2.03891 1.14608 2.07398 1.19181 2.05317 1.18265C1.99565 1.16282 1.80953 0.989984 1.83615 0.97968C1.84613 0.975816 1.90709 1.01918 1.97582 1.08249ZM1.02091 2.97494C1.07871 3.00039 1.1424 3.1441 1.12422 3.21044C1.10125 3.29394 1.07424 3.27378 1.01314 3.13673C0.965458 3.01936 0.96773 2.95152 1.02091 2.97494ZM1.15383 2.76087C1.25087 2.84767 1.29578 2.97759 1.23837 2.9826C1.20944 2.99188 1.22212 3.0195 1.2692 3.05675C1.36207 3.12794 1.35822 3.18683 1.25846 3.18144C1.22563 3.18075 1.21148 3.16901 1.23218 3.15335C1.25288 3.13768 1.24381 3.11441 1.21607 3.10219C1.1652 3.07979 1.16369 3.02681 1.20646 2.95477C1.21255 2.94093 1.19682 2.92024 1.16677 2.907C1.14133 2.8958 1.11061 2.84648 1.10735 2.80374C1.09434 2.70163 1.09333 2.70394 1.15383 2.76087ZM1.5484 1.7396C1.664 1.79051 1.86051 2.17169 1.81785 2.26855C1.79754 2.31467 1.5838 2.04156 1.55072 1.92236C1.51404 1.79881 1.51603 1.72534 1.5484 1.7396ZM1.94489 1.16525C1.9966 1.20454 2.05969 1.26813 2.09087 1.30389C2.12103 1.34195 2.17071 1.38586 2.19873 1.40371C2.22445 1.42054 2.27892 1.44728 2.30926 1.46615C2.34422 1.48706 2.37291 1.541 2.37673 1.595C2.38326 1.68048 2.37761 1.68075 2.30815 1.62537C2.27031 1.59219 2.22341 1.53573 2.20711 1.50377C2.18981 1.47412 2.12265 1.41976 2.05532 1.3846C1.98799 1.34944 1.91204 1.27745 1.88797 1.22554C1.83279 1.09385 1.84018 1.08334 1.94489 1.16525ZM2.18597 0.762014C2.19764 0.791935 2.1748 0.787385 2.11052 0.745306C2.04235 0.693254 2.03846 0.683279 2.0944 0.694149C2.13444 0.703522 2.17532 0.729788 2.18597 0.762014ZM1.52656 2.50373C1.6807 2.69278 1.82529 2.985 1.74437 2.94936C1.64264 2.90456 1.47294 2.67562 1.4194 2.50886C1.38615 2.40886 1.36271 2.32418 1.36114 2.31523C1.36548 2.31163 1.44098 2.3972 1.52656 2.50373ZM1.85798 1.64464C1.92006 1.71053 1.98095 1.79793 1.99013 1.84603C2.00134 1.88952 2.01679 1.90458 2.03028 1.88023C2.05465 1.82488 2.21913 1.97166 2.25034 2.07628C2.25998 2.11081 2.28625 2.1389 2.30881 2.13783C2.37288 2.13025 2.50807 2.32471 2.53015 2.45009C2.53814 2.51969 2.53937 2.56704 2.52781 2.56195C2.47233 2.53751 2.37682 2.39082 2.3358 2.27087C2.30875 2.18186 2.29302 2.16116 2.28759 2.21109C2.2807 2.27689 2.27015 2.26949 2.17013 2.14559C2.1111 2.07278 2.05614 1.99075 2.05603 1.96592C2.0513 1.93905 2.03224 1.91964 2.00867 1.92303C1.91668 1.93759 1.64223 1.55789 1.72339 1.5303C1.73439 1.52413 1.79128 1.57672 1.85798 1.64464ZM1.37101 2.7629C1.43309 2.82879 1.49629 2.9172 1.51213 2.96273C1.54064 3.03587 1.53269 3.03512 1.44242 2.97058C1.32716 2.88127 1.22241 2.7305 1.24273 2.68438C1.25187 2.66362 1.31023 2.70034 1.37101 2.7629ZM2.16213 0.941511C2.22235 0.992814 2.26418 1.0608 2.26457 1.09126C2.26219 1.13427 2.24268 1.12843 2.17857 1.06715C2.10493 0.996172 2.03367 0.882183 2.04281 0.861426C2.04919 0.85322 2.10321 0.893532 2.16213 0.941511ZM2.0438 1.44837C2.11327 1.50375 2.171 1.57323 2.16908 1.60267C2.16568 1.64799 2.14488 1.63882 2.0669 1.57144C1.97911 1.48872 1.90277 1.38626 1.91394 1.36089C1.91699 1.35397 1.97462 1.39862 2.0438 1.44837ZM2.30608 0.608391C2.33151 0.619591 2.36427 0.664308 2.3765 0.70549C2.38872 0.746671 2.415 0.774766 2.43654 0.775993C2.50597 0.762512 2.63807 0.895038 2.64663 0.975905C2.64999 1.04347 2.64001 1.04734 2.58007 1.00167C2.54122 0.970789 2.49172 0.907681 2.46793 0.861408C2.44516 0.812829 2.42277 0.794714 2.4116 0.820083C2.39941 0.847758 2.37167 0.835538 2.30192 0.774531C2.21052 0.687467 2.21129 0.566643 2.30608 0.608391ZM1.18134 3.49443C1.23441 3.49302 1.27102 3.47885 1.26916 3.46426C1.26268 3.44764 1.28236 3.43428 1.31417 3.43728C1.35162 3.44 1.40053 3.60473 1.45888 3.93607C1.61871 4.85181 1.5799 4.88979 1.26206 4.13852C1.13124 3.82757 1.03955 3.55314 1.05562 3.53543C1.07272 3.51543 1.12827 3.49584 1.18134 3.49443ZM2.228 1.17428C2.33513 1.28204 2.31268 1.30795 2.19529 1.19843C2.14663 1.15221 2.11286 1.10981 2.12284 1.10594C2.13717 1.09848 2.18295 1.13241 2.228 1.17428ZM1.45706 3.03761C1.52016 3.10119 1.52489 3.12806 1.48496 3.14351C1.43837 3.16154 1.41136 3.14139 1.38053 3.06723C1.31999 2.94144 1.35022 2.93548 1.45706 3.03761ZM2.34515 0.87067C2.37938 0.899511 2.41214 0.944226 2.41687 0.971092C2.4203 0.994633 2.41162 1.00182 2.39718 0.984449C2.38377 0.964772 2.34796 0.926975 2.31735 0.902476C2.24602 0.832514 2.26413 0.810202 2.34515 0.87067ZM2.2437 1.30786C2.28182 1.34668 2.29681 1.37531 2.27138 1.36411C2.21386 1.34429 2.12348 1.25491 2.14909 1.24692C2.1611 1.23844 2.20457 1.27135 2.2437 1.30786ZM2.57346 0.596733C2.62132 0.69491 2.59249 0.729023 2.51609 0.670592C2.46438 0.631299 2.46585 0.615425 2.513 0.608655C2.56116 0.599578 2.55727 0.589603 2.50382 0.560553C2.46451 0.543243 2.45803 0.526623 2.48753 0.528599C2.51804 0.528268 2.55587 0.561452 2.57346 0.596733ZM1.96045 2.15788C2.04863 2.27106 2.10381 2.40275 2.11962 2.56116C2.13746 2.71495 1.90771 2.41552 1.86591 2.23465C1.84653 2.14075 1.83566 2.05886 1.84666 2.05269C1.85665 2.04883 1.90531 2.09504 1.96045 2.15788ZM2.43275 1.08547C2.4483 1.12537 2.4324 1.12387 2.37838 1.08356C2.33823 1.04936 2.32685 1.02507 2.35865 1.02806C2.38713 1.03234 2.42238 1.05888 2.43275 1.08547ZM1.74389 2.59945C1.77276 2.63419 1.84797 2.71413 1.91005 2.78002C1.97444 2.84692 2.01368 2.90826 1.99907 2.91009C1.96912 2.92168 1.75486 2.70616 1.71117 2.62359C1.67081 2.53973 1.6905 2.52637 1.74389 2.59945ZM2.39534 1.15161C2.42725 1.17943 2.46621 1.23514 2.47815 1.27069C2.49585 1.3308 2.48559 1.32903 2.44054 1.28716C2.38235 1.23125 2.3196 1.12926 2.32671 1.11312C2.32976 1.1062 2.36111 1.12276 2.39534 1.15161ZM1.69446 2.96868C1.7222 2.9809 1.71712 2.99243 1.67561 2.99893C1.62716 3.00238 1.62237 3.01954 1.66511 3.06039C1.6924 3.08618 1.70175 3.11508 1.6841 3.12383C1.63852 3.13955 1.57511 3.00148 1.6155 2.97246C1.63648 2.96242 1.67134 2.9585 1.69446 2.96868ZM2.32567 1.70468C2.37997 1.75062 2.42355 1.80837 2.42467 1.83089C2.4281 1.85443 2.44587 1.87051 2.46944 1.86712C2.49302 1.86374 2.55425 1.91274 2.60274 1.97815C2.65325 2.03895 2.72689 2.10993 2.76315 2.13416C2.85213 2.19537 2.94171 2.33671 2.95166 2.44573C2.95819 2.53121 2.95356 2.52917 2.85761 2.39604C2.80061 2.31862 2.75433 2.2294 2.747 2.19589C2.7443 2.16441 2.71239 2.13658 2.67522 2.13949C2.6424 2.1388 2.5832 2.08519 2.54063 2.02515C2.50139 1.96381 2.4555 1.90504 2.43701 1.8969C2.33139 1.84212 2.21045 1.68423 2.23354 1.62555C2.23325 1.61992 2.27571 1.65514 2.32567 1.70468ZM2.58446 1.06693C2.63227 1.09625 2.67298 1.14171 2.67743 1.16295C2.68199 1.20901 2.65323 1.1991 2.54981 1.12051C2.45306 1.03935 2.48031 0.996276 2.58446 1.06693ZM2.79629 0.780233C2.85886 0.901411 2.80201 0.917673 2.71124 0.797844C2.64139 0.712007 2.63796 0.688469 2.6939 0.699339C2.73163 0.707694 2.77538 0.74624 2.79629 0.780233ZM2.48664 1.39558C2.51292 1.42367 2.52791 1.4523 2.5133 1.45413C2.49666 1.46057 2.46198 1.4453 2.43441 1.41388C2.40814 1.38579 2.39314 1.35716 2.40775 1.35533C2.42439 1.34889 2.46138 1.36518 2.48664 1.39558ZM1.91864 2.92974C2.03039 3.03953 2.03225 3.05412 1.95617 3.07018C1.88572 3.08596 1.86362 3.07348 1.82242 2.97272C1.75067 2.80344 1.78062 2.79185 1.91864 2.92974ZM2.60415 1.23531C2.65688 1.2723 2.7035 1.32312 2.71489 1.34741C2.72526 1.37401 2.68336 1.35005 2.62083 1.29773C2.48393 1.18236 2.47475 1.13426 2.60415 1.23531ZM1.8463 3.33845C1.87635 3.35169 1.89107 3.37469 1.88091 3.39775C1.87279 3.4162 1.88316 3.4428 1.90397 3.45196C1.93171 3.46418 1.93752 3.44471 1.92372 3.39457C1.9125 3.35108 1.91184 3.315 1.92182 3.31113C1.99965 3.28483 2.32252 3.29761 2.43931 3.32701L2.58255 3.36532L2.63944 3.89428C2.66735 4.18192 2.72128 4.56089 2.7592 4.73179C2.85097 5.14394 2.86727 5.35763 2.86759 5.90849C2.86589 6.16933 2.90218 6.55704 2.95428 6.80853C3.0025 7.05005 3.05929 7.55418 3.0742 7.92147C3.0881 8.29106 3.11863 8.65421 3.14151 8.72762C3.21128 8.97037 3.29539 10.0455 3.24446 10.0671C3.22782 10.0736 3.23164 10.1276 3.24905 10.1821C3.26906 10.2432 3.29412 10.4057 3.3101 10.5449L3.33327 10.8057L3.11594 10.7099C2.73908 10.544 2.60033 10.5958 2.4429 10.9532C2.33828 11.1908 2.28048 11.1653 2.26876 10.8848C2.26806 10.7798 2.22617 10.4613 2.17904 10.1734C2.13653 9.88759 2.09029 9.39086 2.08151 9.07859C2.07476 8.76171 2.03686 8.29619 2.00399 8.0449C1.97111 7.79362 1.93906 7.37748 1.93078 7.12051C1.92452 6.85892 1.88519 6.47812 1.84458 6.27575C1.76966 5.90682 1.75584 5.67494 1.75435 4.85096C1.7544 4.62519 1.72369 4.28124 1.68697 4.08884C1.65024 3.89644 1.6133 3.65438 1.6016 3.5556L1.58235 3.37365L1.68709 3.34268C1.74986 3.33177 1.81855 3.32623 1.8463 3.33845ZM2.04189 2.61229C2.08851 2.66311 2.13903 2.72391 2.15532 2.75587C2.17624 2.78986 2.22129 2.83173 2.25755 2.85596C2.41284 2.95464 2.4785 3.13776 2.33515 3.07463C2.30278 3.06037 2.26614 3.00568 2.26001 2.95066C2.25387 2.89564 2.23064 2.86063 2.21401 2.86707C2.19737 2.87351 2.19471 2.91089 2.20592 2.95438C2.25224 3.11246 2.08811 2.92728 1.99517 2.71837C1.96202 2.6432 1.94377 2.57183 1.95189 2.55338C1.95697 2.54185 1.99554 2.56709 2.04189 2.61229ZM2.21995 2.28318C2.2751 2.34601 2.31563 2.41068 2.3075 2.42913C2.29024 2.46834 2.26582 2.45483 2.17302 2.33961C2.05829 2.1927 2.09986 2.14218 2.21995 2.28318ZM2.51777 1.65711C2.57207 1.70305 2.61446 1.7823 2.61772 1.82504C2.62729 1.9036 2.61934 1.90285 2.54671 1.82957C2.479 1.76395 2.41096 1.62384 2.42332 1.57696C2.42332 1.57696 2.46911 1.6109 2.51777 1.65711ZM2.23717 2.46974C2.33589 2.59032 2.41952 2.83918 2.37062 2.85619C2.3074 2.88066 2.19904 2.72555 2.16676 2.55439C2.1435 2.45052 2.12976 2.35635 2.12818 2.3474C2.12818 2.3474 2.17814 2.39694 2.23717 2.46974ZM2.58997 1.33645C2.64084 1.35885 2.76685 1.50522 2.74485 1.51756C2.7039 1.53532 2.54563 1.39953 2.56188 1.36263C2.57001 1.34418 2.58304 1.3334 2.58997 1.33645ZM2.7898 1.05824C2.82995 1.09244 2.86964 1.14021 2.88001 1.1668C2.91343 1.24761 2.84852 1.2383 2.76203 1.1589C2.66776 1.05956 2.68842 0.975036 2.7898 1.05824ZM2.81738 1.27139C2.92756 1.37223 2.95303 1.45229 2.8486 1.37601C2.77913 1.32064 2.70872 1.22354 2.72091 1.19586C2.72294 1.19125 2.76872 1.22518 2.81738 1.27139ZM2.98214 0.947441C3.04341 1.0653 2.99017 1.0859 2.92252 0.976253C2.88125 0.919528 2.87669 0.873466 2.90055 0.875711C2.9257 0.881281 2.96122 0.913448 2.98214 0.947441ZM2.7291 1.60975C2.83623 1.71751 2.81377 1.74342 2.69638 1.63389C2.64772 1.58768 2.61395 1.54527 2.62393 1.5414C2.63826 1.53395 2.68405 1.56788 2.7291 1.60975ZM0.94265 5.94186C1.47119 7.15491 1.77092 7.92849 1.81028 8.1964C1.86558 8.53466 1.89787 9.36394 1.85461 9.38068C1.83464 9.38841 1.78205 9.26337 1.44153 8.3066C1.35902 8.08027 1.27504 7.86981 1.2557 7.84477C1.23637 7.81973 1.27305 7.94328 1.33972 8.12409C1.40409 8.30388 1.50198 8.5893 1.55986 8.75247C1.61571 8.92026 1.71192 9.1719 1.77358 9.32021C1.83293 9.46751 1.89694 9.6857 1.91412 9.8034L1.94661 10.0242L1.76531 9.72134C1.66896 9.55776 1.47844 9.13792 1.34362 8.79217C1.21213 8.44514 1.11992 8.2283 1.14336 8.31297C1.25223 8.70511 1.54527 9.41241 1.75305 9.79305C1.95306 10.1537 1.99279 10.2704 2.04161 10.592C2.08637 10.9229 2.08297 10.9682 2.02065 10.9655C1.94012 10.9603 1.91273 10.9097 1.46544 9.98855C1.34177 9.73032 1.25078 9.56083 1.26459 9.61097C1.27839 9.6611 1.41716 9.9728 1.5737 10.3006C1.8379 10.8603 1.87357 10.9861 1.74178 10.9281C1.64699 10.8863 1.19623 9.87274 1.18077 9.67593C1.1734 9.57356 1.17224 9.48218 1.17269 9.46861C1.17777 9.45708 1.16568 9.32785 1.14913 9.17737C1.13259 9.0269 1.12354 8.89074 1.1337 8.86768C1.14182 8.84923 1.13446 8.74686 1.11813 8.64605C1.01012 7.97617 0.924176 7.24993 0.879568 6.53639C0.850181 6.08287 0.825738 5.70588 0.826473 5.69795C0.831832 5.69205 0.88358 5.8002 0.94265 5.94186ZM2.1406 3.02749C2.15485 3.06406 2.15135 3.08454 2.12823 3.07436C2.10511 3.06418 2.08245 3.04043 2.07698 3.0215C2.06819 3.00386 2.0727 2.98107 2.08934 2.97463C2.10395 2.9728 2.12662 2.99655 2.1406 3.02749ZM2.75303 1.74971C2.86016 1.85747 2.83771 1.88338 2.72032 1.77385C2.67166 1.72764 2.63788 1.68523 2.64787 1.68137C2.66219 1.67391 2.70798 1.70784 2.75303 1.74971ZM2.87852 1.4773C2.93874 1.52861 2.98334 1.58404 2.97724 1.59788C2.96912 1.61633 2.92722 1.59237 2.8855 1.54921C2.72278 1.39219 2.71664 1.33717 2.87852 1.4773ZM3.17087 0.832303C3.19291 0.888819 3.12957 0.888463 3.07342 0.827934C3.01985 0.774055 3.02188 0.769441 3.08606 0.78669C3.1261 0.796063 3.16337 0.817986 3.17087 0.832303ZM3.00566 1.16982C3.02178 1.22098 3.01614 1.22125 2.97673 1.17911C2.94481 1.15129 2.93777 1.1234 2.95209 1.11595C2.96642 1.10849 2.9914 1.13326 3.00566 1.16982ZM2.39242 2.49957C2.43866 2.51993 2.59792 2.7663 2.57361 2.77763C2.5616 2.7861 2.50544 2.72557 2.45307 2.65019C2.35841 2.52039 2.33924 2.47615 2.39242 2.49957ZM2.74144 1.8575C2.78159 1.8917 2.83628 1.96811 2.85832 2.02462C2.88988 2.09084 2.91717 2.11663 2.9399 2.09635C3.00624 2.02093 3.23592 2.3644 3.19512 2.47585C3.17582 2.51967 3.00865 2.3414 2.9754 2.2414C2.95928 2.19025 2.91756 2.14709 2.88908 2.14281C2.787 2.1364 2.64894 1.92965 2.67254 1.81338C2.67096 1.80443 2.70259 1.82662 2.74144 1.8575ZM2.94113 1.66734C2.99673 1.7166 3.02948 1.76132 3.01849 1.76749C3.0085 1.77136 2.95578 1.73436 2.90019 1.6851C2.84459 1.63583 2.81183 1.59112 2.82283 1.58495C2.83282 1.58109 2.88554 1.61807 2.94113 1.66734ZM2.98601 1.25204C3.03688 1.27444 3.09195 1.3813 3.062 1.39289C3.02105 1.41065 2.9291 1.31233 2.94636 1.27312C2.95449 1.25467 2.97214 1.24593 2.98601 1.25204ZM3.143 1.08988C3.18185 1.12076 3.21055 1.1747 3.21121 1.21079C3.20477 1.26302 3.20043 1.26662 3.16914 1.20603C3.15257 1.16844 3.13019 1.15032 3.12409 1.16416C3.118 1.178 3.09561 1.15987 3.07673 1.12127C3.03609 1.03178 3.05707 1.02174 3.143 1.08988ZM2.52584 2.81716C2.65574 2.9735 2.69162 3.14901 2.58527 3.10217C2.54827 3.08588 2.50813 3.05167 2.49674 3.02738C2.46602 2.97806 2.39643 2.71611 2.4076 2.69074C2.40963 2.68613 2.46449 2.74333 2.52584 2.81716ZM2.93158 1.77052C2.98329 1.80981 3.02991 1.86064 3.0426 1.88825C3.06075 1.93479 2.89953 1.83075 2.84642 1.7633C2.80284 1.70556 2.85055 1.71005 2.93158 1.77052ZM3.30297 0.964831C3.31643 1.05336 3.27131 1.05552 3.22836 0.965011C3.20328 0.915414 3.20447 0.893909 3.24191 0.896633C3.27141 0.898608 3.29565 0.931316 3.30297 0.964831ZM2.6894 2.51471C2.76185 2.6072 2.84633 2.87295 2.82093 2.9306C2.80163 2.97442 2.66707 2.74719 2.61945 2.58579C2.55712 2.40139 2.57985 2.38111 2.6894 2.51471ZM3.09501 1.55612C3.11113 1.60728 3.1078 1.60857 3.06608 1.56541C3.03417 1.53759 3.02481 1.50869 3.04145 1.50225C3.05577 1.49479 3.08075 1.51955 3.09501 1.55612ZM3.15023 1.28031C3.16873 1.28845 3.20148 1.33317 3.22758 1.38046C3.26998 1.45971 3.26767 1.45869 3.18912 1.38004C3.11132 1.29345 3.09706 1.25689 3.15023 1.28031ZM2.9916 1.9539C3.06856 2.02359 3.13187 2.13684 3.081 2.11444C3.02552 2.09 2.87684 1.91989 2.88598 1.89913C2.8941 1.88068 2.94396 1.90538 2.9916 1.9539ZM3.14336 1.70959C3.17815 1.74969 3.19038 1.79088 3.17836 1.79935C3.16376 1.80118 3.12491 1.7703 3.09243 1.73121C3.05996 1.69213 3.04542 1.64993 3.05743 1.64146C3.07204 1.63963 3.10858 1.66949 3.14336 1.70959ZM2.88707 2.5109C2.95462 2.59572 3.036 2.79953 3.08327 2.99933C3.15612 3.30402 3.15651 3.33448 3.08309 3.31315C3.04074 3.30276 2.98514 3.2535 2.96366 3.20824C2.90747 3.07886 2.82596 2.66847 2.86982 2.73185C2.88713 2.7615 2.87146 2.69678 2.82665 2.59168C2.7885 2.48401 2.75655 2.38733 2.76061 2.3781C2.76467 2.36888 2.82416 2.42812 2.88707 2.5109ZM3.31977 1.23382C3.33753 1.2499 3.35439 1.29312 3.35218 1.31693C3.34795 1.34535 3.329 1.35077 3.29911 1.31834C3.24453 1.26677 3.26187 1.18353 3.31977 1.23382ZM3.25271 1.49891C3.25965 1.50197 3.2765 1.54519 3.28771 1.58868C3.30856 1.6667 3.30422 1.67029 3.26775 1.5964C3.23026 1.52482 3.22497 1.48669 3.25271 1.49891ZM2.76611 2.94226C2.8084 2.99668 2.85902 3.0823 2.87671 3.14241C2.91256 3.24907 2.91256 3.24907 2.8247 3.21038C2.77846 3.19001 2.72377 3.11361 2.70292 3.03559C2.65215 2.85627 2.66869 2.825 2.76611 2.94226ZM3.37374 1.4999C3.388 1.53646 3.38218 1.55594 3.36138 1.54677C3.34057 1.53761 3.31559 1.51284 3.31012 1.49391C3.30133 1.47627 3.30585 1.45347 3.32249 1.44703C3.33709 1.44521 3.36207 1.46998 3.37374 1.4999ZM3.2953 1.92244C3.2012 1.8039 3.20933 1.78545 3.31376 1.86173C3.38859 1.91121 3.52113 2.3248 3.48964 2.39629C3.48355 2.41013 3.51243 2.62661 3.55529 2.87403C3.62478 3.29289 3.65731 3.58257 3.63801 3.62639C3.63293 3.63792 3.59205 3.61166 3.54931 3.5708C3.50759 3.52765 3.41297 3.4667 3.34231 3.43283C3.21515 3.37683 3.20348 3.34691 3.10106 2.90253C3.04636 2.64439 3.00028 2.42308 3.00638 2.40924C3.01146 2.39771 3.05262 2.42961 3.09722 2.48505C3.1408 2.54279 3.19019 2.58107 3.20119 2.5749C3.2158 2.57307 3.26685 2.75801 3.3158 2.9916C3.36374 3.22749 3.41146 3.41372 3.42144 3.40985C3.44806 3.39955 3.35033 2.91318 3.2381 2.45347C3.19483 2.28847 3.17828 2.138 3.2013 2.12336C3.222 2.10769 3.20311 2.06909 3.1663 2.0336C3.09581 1.98053 3.09914 1.97924 3.22998 1.99556L3.37136 2.01927L3.2953 1.92244ZM3.40843 1.69691C3.42693 1.70506 3.44767 1.75825 3.45019 1.80892L3.45756 1.91129L3.41275 1.8062C3.36145 1.68449 3.36219 1.67654 3.40843 1.69691ZM2.85965 3.5259C2.87814 3.53405 3.05395 3.93089 3.25421 4.41009C3.45346 4.8916 3.62667 5.2818 3.63869 5.27332C3.65533 5.26688 3.62625 5.18248 3.57839 5.08431C3.52822 4.98511 3.35963 4.59696 3.20519 4.22054C3.04974 3.84643 2.91244 3.51886 2.89975 3.49125C2.87597 3.44497 3.27115 3.63829 3.50848 3.79514C3.645 3.88004 3.65379 3.89768 3.65728 4.17182C3.66283 4.32847 3.64424 4.47723 3.62613 4.49954C3.6034 4.51982 3.60683 4.54336 3.63068 4.54561C3.65815 4.5522 3.67157 4.57187 3.66372 4.59596C3.6556 4.6144 3.66212 4.69988 3.67964 4.77919C3.69614 4.86081 3.70396 4.94961 3.69973 4.97803C3.69346 5.01107 3.70247 5.07837 3.72016 5.13848C3.77342 5.29961 3.8194 5.67783 3.78472 5.66256C3.67605 5.6147 3.31026 4.92216 3.0661 4.31072C2.81461 3.66577 2.76485 3.48416 2.85965 3.5259ZM3.11077 4.50388C3.33679 5.06877 3.53347 5.43075 3.74952 5.70488C3.83482 5.80578 3.88458 5.9874 3.83596 6.01004C3.82135 6.01187 3.7152 5.83295 3.59422 5.6062C3.25103 4.98144 3.24252 4.96943 3.25457 5.02981C3.25727 5.06128 3.36252 5.26734 3.4809 5.48744C3.7892 6.04727 3.86957 6.25339 3.89127 6.53005L3.90999 6.76959L3.66481 6.16046C3.37511 5.45187 3.07748 4.81138 3.04753 4.82297C3.03292 4.8248 3.11764 5.02732 3.23455 5.2633C3.34481 5.50185 3.55646 6.00535 3.70294 6.38102C3.9161 6.9375 3.96974 7.12909 3.99387 7.43159L4.02136 7.80166L3.84559 7.47367C3.28588 6.40661 3.07987 5.90285 3.08293 5.6013L3.08733 5.37194L3.41558 6.21866C3.6004 6.6828 3.77298 7.10576 3.805 7.15841C3.908 7.31943 3.91998 7.24209 3.82002 7.07416C3.54487 6.58951 2.96708 4.95551 3.03174 4.84631C3.04144 4.83681 3.00966 4.72093 2.96548 4.58307C2.9249 4.44955 2.90717 4.32059 2.92759 4.29929C2.95032 4.27901 2.95382 4.25852 2.9369 4.25933C2.921 4.25784 2.90962 4.23355 2.91081 4.21204C2.91301 4.18823 2.90039 4.11659 2.88371 4.05417C2.81469 3.80349 2.88087 3.92901 3.11077 4.50388ZM1.32873 10.2175C1.39029 10.3409 1.45528 10.488 1.47325 10.5537C1.50605 10.6673 1.50605 10.6673 1.43829 10.5328C1.37572 10.4116 1.37471 10.4139 1.43185 10.585C1.5001 10.7748 1.58439 10.878 1.54704 10.7184C1.53583 10.6749 1.55127 10.69 1.58414 10.7595C1.64653 10.8999 1.61663 10.9803 1.49599 11.0098C1.45245 11.0209 1.42435 11.0471 1.43213 11.067C1.43991 11.087 1.424 11.0855 1.39931 11.0664C1.37664 11.0426 1.3647 11.0071 1.37846 10.9883C1.39454 10.9706 1.38112 10.951 1.3483 10.9503C1.31779 10.9506 1.28198 10.9128 1.27077 10.8693C1.25854 10.8281 1.26176 10.802 1.27564 10.8081C1.29413 10.8163 1.29346 10.7802 1.27864 10.7323C1.25475 10.6612 1.20216 10.0598 1.21452 10.013C1.21988 10.0071 1.27079 10.0983 1.32873 10.2175ZM3.27804 6.43069C3.5402 6.99498 3.90221 7.70237 3.96976 7.78719C4.02027 7.84799 4.08203 8.31576 4.05054 8.38725C4.04242 8.4057 3.95076 8.20013 3.84503 7.93878C3.74594 7.67486 3.537 7.20284 3.38722 6.89732C3.16598 6.42815 3.03855 6.07189 3.06902 6.0027C3.07207 5.99578 3.1688 6.18983 3.27804 6.43069ZM3.30609 6.81202C3.39402 6.98843 3.56706 7.39782 3.69946 7.71772C3.83085 8.03993 3.97018 8.36288 4.00305 8.43242C4.07469 8.57687 4.1191 8.94613 4.05359 8.8567C3.89212 8.63414 3.75142 8.35189 3.52309 7.78598C3.28208 7.19246 3.07893 6.51923 3.1355 6.49734C3.1478 6.49449 3.22379 6.63535 3.30609 6.81202ZM1.30739 11.0369C1.32627 11.0755 1.32908 11.1318 1.31486 11.1641C1.29223 11.2092 1.28298 11.2051 1.26676 11.1291C1.23803 11.0063 1.26342 10.9487 1.30739 11.0369ZM1.34214 11.4845C1.37913 11.5008 1.77385 12.184 1.76268 12.2094C1.75455 12.2279 1.32064 11.7339 1.27853 11.6603C1.24595 11.5963 1.2959 11.4641 1.34214 11.4845ZM1.52008 11.4252C1.56755 11.4929 1.74248 11.804 1.90454 12.1067C2.19953 12.6717 2.60841 13.3666 2.79209 13.6265C2.97938 13.8907 2.90875 13.744 2.66842 13.3683C2.54191 13.1666 2.31461 12.7802 2.17143 12.5161C2.02695 12.2487 1.82175 11.8747 1.71605 11.6822C1.60934 11.492 1.524 11.3223 1.52519 11.3008C1.52875 11.2363 1.83372 11.1393 1.91695 11.1759C1.96088 11.1953 2.01749 11.2422 2.04765 11.2803C2.08966 11.3291 2.12434 11.3444 2.1712 11.332C2.2214 11.3183 2.24897 11.3497 2.30534 11.4599C2.38088 11.6143 2.48334 11.6512 2.53006 11.5451C2.54631 11.5082 2.56862 11.3886 2.58122 11.2785C2.62841 10.8642 2.7467 10.7649 3.02877 10.8891C3.12356 10.9308 3.21846 10.9974 3.23965 11.037C3.26547 11.0787 3.30159 11.4856 3.3233 11.944C3.34502 12.4024 3.37324 12.7645 3.3834 12.7415C3.39152 12.723 3.38512 12.3677 3.36666 11.9521L3.33368 11.1996L3.42733 11.3317L3.52328 11.4648L3.60145 11.2184C3.67815 10.9878 3.68656 10.975 3.80314 10.9548C3.87127 10.938 3.92766 10.9353 3.92823 10.9465C3.93082 10.9532 3.91058 11.137 3.88047 11.3495C3.856 11.5618 3.8098 12.0867 3.78139 12.5147C3.75297 12.9428 3.72558 13.3685 3.71241 13.4674C3.70128 13.5616 3.69929 13.6351 3.71389 13.6332C3.74153 13.6206 3.7905 13.0832 3.82828 12.3894C3.84595 12.0861 3.87816 11.8249 3.90089 11.8046C3.92667 11.7774 3.91816 11.7654 3.88663 11.768C3.85076 11.7743 3.85122 11.7607 3.88236 11.7276C3.90814 11.7004 3.91976 11.6615 3.90505 11.6385C3.88932 11.6178 3.89226 11.586 3.91167 11.567C3.92978 11.5447 3.94553 11.4525 3.94409 11.3555C3.94625 11.2629 3.95976 11.1256 3.97202 11.0539C3.9994 10.9228 4.00403 10.9248 4.11455 10.9873C4.2112 11.0436 4.2249 11.0689 4.2026 11.1885C4.19062 11.2658 4.20418 11.3792 4.23085 11.4378C4.2751 11.5316 4.26186 11.6745 4.11146 12.3544C4.01954 12.8013 3.9287 13.2019 3.9094 13.2457C3.89371 13.2939 3.8844 13.3338 3.89364 13.3379C3.9052 13.343 3.89673 13.3998 3.87162 13.4631C3.84651 13.5264 3.83306 13.6196 3.8366 13.668C3.84116 13.7141 3.8135 13.8396 3.77473 13.9464C3.70938 14.1324 3.70503 14.136 3.69276 14.0259C3.68393 13.9394 3.67339 13.932 3.65798 13.9858C3.6446 14.035 3.61262 14.0512 3.55307 14.036C3.48557 14.0201 3.45817 13.9694 3.43192 13.8285C3.41198 13.7233 3.39187 13.6373 3.38262 13.6333C3.36412 13.6251 3.3698 13.6937 3.40439 13.8659C3.43036 14.0012 3.39064 14.0664 3.30278 14.0277C3.27735 14.0165 3.2069 14.0323 3.14396 14.0624L3.036 14.1194L2.87572 13.8754C2.78975 13.7384 2.70648 13.6329 2.68984 13.6393C2.67782 13.6478 2.74835 13.7697 2.85282 13.9149C2.99004 14.1047 3.03096 14.1998 3.00659 14.2552C2.96799 14.3428 2.97391 14.3482 2.75148 13.9005C2.56061 13.5191 2.55858 13.5237 2.62962 13.588C2.73055 13.6848 2.66724 13.5715 2.33919 13.0691C2.16809 12.812 1.91006 12.3762 1.76891 12.1075C1.62313 11.8368 1.47865 11.5694 1.4371 11.507C1.39583 11.4503 1.37859 11.3766 1.39078 11.349C1.42497 11.309 1.44374 11.3227 1.52008 11.4252ZM3.54156 7.90701C3.66601 8.22617 3.84458 8.61046 3.93676 8.75844C4.02459 8.91002 4.11523 9.1179 4.13415 9.22536C4.15538 9.33384 4.15413 9.39938 4.1322 9.36769C4.02514 9.2159 3.65216 8.58353 3.54506 8.36289C3.4463 8.17346 3.43057 8.15276 3.47419 8.27936C3.50355 8.3694 3.6796 8.70301 3.86248 9.01485C4.14429 9.49693 4.19789 9.61966 4.21493 9.82542L4.2393 10.0647L4.08654 9.72207C4.00368 9.53413 3.81078 9.15729 3.66038 8.88454C3.34819 8.31474 3.25468 8.09457 3.31262 8.03197C3.33073 8.00966 3.33717 7.95743 3.32596 7.91394C3.28622 7.79731 3.25379 7.35072 3.28273 7.34143C3.29705 7.33397 3.41277 7.59146 3.54156 7.90701ZM3.5974 8.84579C3.9915 9.5618 4.23622 10.1845 4.25369 10.4896C4.27025 10.8218 4.25879 10.8415 4.09583 10.7477C4.01795 10.7052 3.96173 10.6887 3.96257 10.7056C3.96443 10.7202 3.92783 10.7343 3.87983 10.7242C3.81391 10.7172 3.75081 10.6536 3.64753 10.487C3.52334 10.2863 3.50452 10.2037 3.48166 9.83566C3.46384 9.56898 3.47025 9.44789 3.49996 9.49952C3.52374 9.5458 3.63631 9.78537 3.75017 10.0283C3.97429 10.5097 4.19161 10.9001 4.0432 10.5538C4.00431 10.4541 3.85398 10.1373 3.7166 9.85377C3.54147 9.49302 3.44988 9.24342 3.41722 9.04179C3.39475 8.88596 3.38165 8.75903 3.39321 8.76412C3.43251 8.78143 3.82315 9.58679 3.98435 9.98546C4.07407 10.2205 4.16793 10.4022 4.18355 10.3981C4.22478 10.386 3.96916 9.79428 3.66769 9.21268C3.22535 8.36802 3.17608 8.05995 3.5974 8.84579ZM3.61065 10.4955C3.72504 10.6808 3.72637 10.753 3.61424 10.7945C3.56867 10.8102 3.54758 10.7954 3.52758 10.7343C3.51265 10.6616 3.51367 10.6593 3.56233 10.7055C3.59323 10.7356 3.61505 10.7425 3.6093 10.7179C3.60586 10.6944 3.63322 10.6762 3.65809 10.6761C3.6886 10.6758 3.67473 10.6697 3.62776 10.6572C3.57875 10.6494 3.53787 10.6232 3.53212 10.5986C3.52942 10.5671 3.55097 10.5683 3.58418 10.5995C3.63154 10.6424 3.63458 10.6355 3.59349 10.5595C3.4503 10.2955 3.45832 10.2522 3.61065 10.4955Z"/>
</mask>
<path d="M0.00972423 1.26572C0.0152031 1.46639 0.0441511 1.63884 0.0695834 1.65004C0.13432 1.67855 0.211244 2.15576 0.236715 2.71218C0.248047 2.96224 0.303321 3.41338 0.353329 3.71352C0.406665 4.01236 0.474621 4.49112 0.496605 4.77341C0.523212 5.05773 0.562717 5.41933 0.583151 5.57977C0.603584 5.74022 0.638504 6.16863 0.654714 6.53924C0.673236 6.91087 0.724314 7.45929 0.768682 7.7597C0.813051 8.0601 0.874565 8.5911 0.89862 8.93762C0.922675 9.28415 0.958892 9.71589 0.975544 9.89119C0.992476 10.0721 0.989226 10.2111 0.975354 10.205C0.961482 10.1989 0.966038 10.245 0.989653 10.3104C1.04392 10.4693 1.05981 11.2418 1.00714 11.4554C0.987043 11.5512 0.97721 11.6487 0.985269 11.6743C0.997671 11.6963 1.1345 11.8557 1.29446 12.0252C1.6314 12.3884 2.17673 13.2123 2.47183 13.8021C2.776 14.4152 3.06864 14.9103 3.25757 15.1395C3.40089 15.3155 3.44769 15.3471 3.54514 15.3515C3.6167 15.3582 3.70428 15.3913 3.783 15.4507C3.85117 15.5028 4.02541 15.596 4.17107 15.6602C4.4069 15.7641 4.44897 15.7688 4.55749 15.723C4.8078 15.6184 4.90226 15.404 5.08722 14.5327C5.16717 14.1631 5.26376 13.7871 5.30743 13.688L5.38259 13.5173L5.519 13.5774C5.5953 13.611 5.77991 13.7308 5.92708 13.848C6.23298 14.0873 6.44382 14.1664 6.61021 14.102C6.7766 14.0376 6.96608 13.6199 7.18187 12.8228C7.37424 12.1227 7.71133 11.1505 7.81784 10.9964C7.92029 10.8515 8.04234 10.8502 8.37065 10.9948C8.7082 11.1434 8.93428 11.1879 9.00525 11.1146C9.06346 11.0576 9.0133 10.9584 8.94009 10.9867C8.91014 10.9983 8.73193 10.9391 8.54466 10.8566C8.13543 10.6764 7.88949 10.6645 7.74062 10.8082C7.60885 10.9319 7.23274 11.8925 7.0424 12.5879C6.96343 12.8863 6.83108 13.2934 6.75659 13.5001C6.58193 13.9656 6.52823 13.9998 6.25881 13.8343C6.16216 13.778 6.02249 13.6752 5.94349 13.6101C5.73222 13.4317 5.41704 13.3012 5.31084 13.348C5.17135 13.4077 5.04359 13.748 4.90408 14.397C4.77794 14.9968 4.59313 15.4853 4.48331 15.5279C4.36684 15.5729 3.8012 15.2715 3.75166 15.1395C3.74129 15.1129 3.8017 14.8504 3.88427 14.5564C3.96584 14.2646 4.0717 13.7798 4.11609 13.4909C4.16252 13.1975 4.26834 12.6438 4.35004 12.264C4.50072 11.5897 4.55198 11.1662 4.50955 11.0181C4.4963 10.9792 4.48294 10.7337 4.47928 10.4788C4.47099 10.2218 4.43327 9.73709 4.38953 9.40392C4.34579 9.07075 4.28903 8.45374 4.2593 8.03862C4.19236 7.08119 4.11579 6.27096 4.00062 5.36664C3.95379 4.97153 3.90285 4.33504 3.88682 3.94523C3.87439 3.55977 3.83722 3.08631 3.8005 2.89391C3.7684 2.70354 3.72241 2.32533 3.70228 2.05763C3.68419 1.78532 3.6408 1.41375 3.60999 1.22671C3.57688 1.03865 3.56744 0.872034 3.58555 0.84972C3.60828 0.829443 3.56127 0.748157 3.46801 0.646508C3.33303 0.501701 3.25386 0.45582 2.78683 0.250135C2.17415 -0.0196982 2.06818 -0.0360777 1.5439 0.0386687C0.911727 0.126478 0.52305 0.313265 0.181083 0.688591C0.0833228 0.791475 0.00321846 0.88561 0.00321846 0.88561C-0.0038914 0.901753 0.0032297 1.06735 0.00972423 1.26572ZM0.352884 0.868884C0.399125 0.889249 0.433322 1.03098 0.395702 1.04745C0.356785 1.0606 0.285982 0.933041 0.306296 0.886916C0.314422 0.868466 0.334388 0.860739 0.352884 0.868884ZM0.240474 1.38111C0.24741 1.38416 0.259463 1.44454 0.264408 1.52107C0.271384 1.59298 0.260599 1.6488 0.242103 1.64066C0.223607 1.63251 0.207491 1.58136 0.206997 1.52607C0.20268 1.41678 0.215041 1.36991 0.240474 1.38111ZM0.382324 1.09663C0.40082 1.10478 0.424048 1.13979 0.431652 1.17893C0.449347 1.23904 0.439082 1.23728 0.387375 1.19798C0.320501 1.14925 0.317587 1.06812 0.382324 1.09663ZM0.618566 0.641697C0.637062 0.649843 0.669817 0.694559 0.691294 0.739814C0.73859 0.826729 0.6968 0.827599 0.612338 0.74359C0.564694 0.695072 0.570014 0.620314 0.618566 0.641697ZM0.46736 1.37364C0.490453 1.49671 0.442008 1.50015 0.388404 1.37742C0.356837 1.3112 0.357465 1.27843 0.397224 1.28218C0.425703 1.28646 0.455867 1.32452 0.46736 1.37364ZM0.553962 1.0015C0.572459 1.00965 0.592463 1.07078 0.60711 1.1378C0.623267 1.25782 0.623267 1.25782 0.551207 1.19579C0.513373 1.16261 0.475714 1.11022 0.470983 1.08336C0.465865 1.02603 0.510034 0.982154 0.553962 1.0015ZM0.666823 0.952079C0.698737 0.979902 0.737696 1.03561 0.748908 1.07909C0.767899 1.14253 0.759666 1.13615 0.680282 1.04061C0.578968 0.913383 0.575986 0.876277 0.666823 0.952079ZM0.741224 0.902237C0.759092 0.943149 0.740875 0.940632 0.686857 0.90032C0.646711 0.866118 0.635325 0.841828 0.667132 0.844821C0.696627 0.846797 0.730853 0.875641 0.741224 0.902237ZM1.06889 0.421487C1.21377 0.424716 1.31775 0.514562 1.19525 0.529452C1.15707 0.534665 1.15216 0.527 1.18183 0.509777C1.24958 0.462513 1.19724 0.455982 1.00893 0.488696C0.914908 0.507868 0.821342 0.513474 0.802846 0.505328C0.740421 0.477835 0.926319 0.419276 1.06889 0.421487ZM0.582988 1.31167C0.62296 1.36507 0.619913 1.37199 0.572657 1.35393C0.510233 1.32644 0.473308 1.26612 0.510929 1.24964C0.523224 1.2468 0.556152 1.27231 0.582988 1.31167ZM0.828573 0.703899C0.853551 0.728667 0.837928 0.732802 0.798624 0.715492C0.757288 0.702795 0.739244 0.681083 0.760507 0.676679C0.773818 0.671527 0.80822 0.681167 0.828573 0.703899ZM0.485347 1.62112C0.504511 1.66536 0.543924 1.7075 0.5627 1.72128C0.583509 1.73044 0.617452 1.75365 0.642884 1.76485C0.697638 1.79723 0.714571 1.97816 0.659082 1.95372C0.640586 1.94558 0.608566 1.89292 0.593464 1.83946C0.5716 1.76375 0.549496 1.75126 0.514468 1.77438C0.479441 1.79751 0.460101 1.77247 0.437676 1.68549C0.400149 1.54505 0.428977 1.51094 0.485347 1.62112ZM0.556406 1.39083C0.600334 1.41018 0.653485 1.54648 0.66141 1.66011C0.669054 1.76812 0.628347 1.72265 0.543738 1.54496C0.494023 1.43219 0.498605 1.36538 0.556406 1.39083ZM0.712515 1.14292C0.751365 1.1738 0.783774 1.25691 0.786126 1.32679C0.793597 1.45399 0.793597 1.45399 0.728647 1.37582C0.664712 1.29534 0.617481 1.1644 0.636499 1.11495C0.643889 1.10444 0.677274 1.11639 0.712515 1.14292ZM0.829909 0.776082C0.848405 0.784228 0.863853 0.799294 0.860806 0.806213C0.855728 0.817744 0.829108 0.828044 0.806549 0.829123C0.780663 0.83149 0.767523 0.817446 0.775648 0.798996C0.787101 0.779258 0.809101 0.766918 0.829909 0.776082ZM0.868315 1.00227C0.882575 1.03884 0.876763 1.0583 0.855955 1.04914C0.835147 1.03998 0.81017 1.01521 0.804704 0.99628C0.79591 0.978639 0.800426 0.955849 0.817064 0.949409C0.832687 0.945275 0.857664 0.970042 0.868315 1.00227ZM0.534233 1.89874C0.549789 1.93863 0.601042 1.99149 0.640346 2.0088C0.732092 2.05746 0.803323 2.28434 0.725102 2.28018C0.696622 2.2759 0.651465 2.2092 0.630617 2.13118C0.605144 2.05112 0.583213 2.01943 0.585177 2.05885C0.570263 2.16793 0.514669 2.11866 0.483797 1.97565C0.450334 1.82599 0.476566 1.78523 0.534233 1.89874ZM0.746447 1.46076C0.780673 1.4896 0.813428 1.53431 0.818159 1.56118C0.821594 1.58472 0.81189 1.59422 0.798472 1.57454C0.785055 1.55486 0.749252 1.51707 0.718635 1.49257C0.644997 1.42159 0.663107 1.39927 0.746447 1.46076ZM0.884581 1.14711C0.914744 1.18517 0.931877 1.23403 0.922735 1.25478C0.913594 1.27554 0.888162 1.26434 0.853094 1.2186C0.822931 1.18054 0.805799 1.13168 0.81494 1.11093C0.824081 1.09017 0.847201 1.10036 0.884581 1.14711ZM1.06532 0.962364C1.11167 1.00756 1.13805 1.06048 1.12891 1.08124C1.10453 1.13659 1.05181 1.0996 1.02837 1.01493C1.01512 0.976057 0.980057 0.93032 0.94972 0.911452C0.917352 0.897197 0.915493 0.882611 0.939348 0.884857C0.964219 0.884796 1.02258 0.921513 1.06532 0.962364ZM0.76068 1.61021C0.830535 1.69605 0.887091 1.96878 0.833915 1.94536C0.813106 1.93619 0.823583 1.98762 0.856727 2.06279C0.900695 2.151 0.900349 2.18939 0.863357 2.1731C0.830988 2.15884 0.840622 2.19338 0.881891 2.25011C0.921864 2.30351 0.960928 2.38404 0.965485 2.43011C0.970149 2.501 0.962478 2.50588 0.906148 2.46455C0.849537 2.41759 0.757004 2.12626 0.803244 2.14663C0.814804 2.15172 0.805903 2.10925 0.783865 2.05273C0.759235 1.98957 0.758741 1.93428 0.776115 1.9199C0.799128 1.90526 0.79699 1.88504 0.77387 1.87485C0.746126 1.86264 0.682913 1.59248 0.702212 1.54866C0.707851 1.54839 0.736157 1.57187 0.76068 1.61021ZM0.953365 1.46102C0.978838 1.54108 0.998456 1.57175 1.00083 1.52874C1.00773 1.46294 1.01236 1.46497 1.09997 1.56689C1.18787 1.67444 1.23843 1.80409 1.21636 1.86046C1.19706 1.90428 1.02628 1.72168 1.02985 1.65717C1.02946 1.62671 1.00319 1.59861 0.970365 1.59792C0.931903 1.5975 0.884715 1.53542 0.857946 1.45204C0.823681 1.35434 0.827075 1.30902 0.859898 1.30971C0.887361 1.3163 0.930205 1.38198 0.953365 1.46102ZM1.01436 1.09688C1.03934 1.12165 1.08439 1.16351 1.11066 1.19161C1.14258 1.21943 1.18966 1.25669 1.21898 1.27786C1.24831 1.29903 1.3088 1.35597 1.35645 1.40449C1.40308 1.45531 1.45636 1.50356 1.47513 1.51734C1.49058 1.5324 1.5596 1.60135 1.62399 1.66826C1.68866 1.74079 1.74611 1.80464 1.75536 1.80872C1.86644 1.88242 2.03057 2.0676 2.02819 2.11061C2.02434 2.16949 1.9361 2.10034 1.81387 1.93912C1.78111 1.89441 1.73708 1.85023 1.72061 1.83747C1.70183 1.8237 1.63513 1.75577 1.57074 1.68886C1.50607 1.61632 1.43012 1.54433 1.4008 1.52315C1.37148 1.50198 1.31098 1.44504 1.26232 1.39883C1.16444 1.29514 1.1786 1.30689 1.03763 1.20075C0.981298 1.15942 0.941327 1.10601 0.947421 1.09217C0.958874 1.07244 0.988369 1.07442 1.01436 1.09688ZM0.586942 2.23035C0.62201 2.27608 0.66678 2.31232 0.683979 2.31714C0.699883 2.31864 0.743639 2.35718 0.776394 2.4019C0.80915 2.44661 0.86937 2.49792 0.904611 2.52445C0.974814 2.57189 1.08395 2.78792 1.04069 2.80467C1.0307 2.80853 1.04118 2.85996 1.06886 2.9162C1.11209 3.01234 1.11006 3.01695 1.0565 2.96308C0.946601 2.86787 0.922705 2.79677 0.990101 2.7879C1.03827 2.77882 1.04131 2.7719 0.999697 2.75357C0.969641 2.74034 0.923748 2.68157 0.899117 2.61841C0.861804 2.52763 0.848948 2.51921 0.810138 2.55719C0.782046 2.58337 0.78734 2.6215 0.827486 2.6557C0.86532 2.68888 0.871909 2.73033 0.851488 2.75163C0.826724 2.77652 0.835623 2.81899 0.866241 2.84349C0.904075 2.87667 0.908633 2.92274 0.880928 2.97938L0.837708 3.06498L0.799444 2.93248C0.779892 2.85778 0.773934 2.78356 0.791027 2.76355C0.807104 2.74585 0.797923 2.69775 0.774415 2.65711C0.744252 2.61904 0.737381 2.57196 0.757067 2.5586C0.777768 2.54294 0.773319 2.5217 0.740951 2.50745C0.713207 2.49523 0.67401 2.50275 0.652293 2.52072C0.624482 2.55253 0.605985 2.54438 0.578027 2.4825C0.558862 2.43827 0.552554 2.40245 0.562537 2.39858C0.574552 2.39011 0.56898 2.34635 0.547958 2.28753C0.499713 2.15889 0.51523 2.12993 0.586942 2.23035ZM1.24627 0.827281C1.28439 0.866096 1.29938 0.89473 1.27395 0.88353C1.21874 0.864723 1.12836 0.775351 1.15166 0.766335C1.16469 0.755552 1.20585 0.787448 1.24627 0.827281ZM1.0878 1.29994C1.12795 1.33414 1.1634 1.41034 1.1675 1.46997L1.17154 1.57362L1.07671 1.46302C0.932371 1.28931 0.9386 1.18742 1.0878 1.29994ZM1.25849 0.686724C1.28206 0.683338 1.29751 0.698399 1.28939 0.716849C1.28025 0.737605 1.25363 0.74791 1.23513 0.739764C1.21432 0.7306 1.20118 0.716557 1.20423 0.709638C1.21162 0.699125 1.23362 0.686785 1.25849 0.686724ZM1.37222 0.541306C1.39303 0.55047 1.39156 0.566346 1.36984 0.584317C1.35016 0.597676 1.31429 0.603904 1.29579 0.595758C1.27498 0.586594 1.27848 0.56611 1.29817 0.552751C1.31757 0.533762 1.35372 0.53316 1.37222 0.541306ZM1.18732 0.892185C1.19889 0.897276 1.24162 0.93813 1.28825 0.988955C1.33229 1.03313 1.39223 1.0788 1.41506 1.08335C1.44253 1.08994 1.49914 1.1369 1.54447 1.1844C1.5911 1.23523 1.66288 1.29162 1.69914 1.31585C1.73641 1.33777 1.80616 1.39878 1.8551 1.45062C1.95529 1.55533 1.94345 1.5446 2.07979 1.64871C2.13612 1.69004 2.19357 1.75389 2.20118 1.79304C2.2098 1.82988 2.24865 1.86075 2.27713 1.86504C2.34407 1.86974 2.45565 1.99873 2.48252 2.10694C2.49763 2.1604 2.50715 2.1701 2.52369 2.13884C2.55416 2.06965 2.69832 2.26256 2.72383 2.41147L2.74461 2.53352L2.65181 2.4183C2.60129 2.35751 2.5589 2.27826 2.55158 2.24474C2.54888 2.21326 2.51798 2.18313 2.48848 2.18116C2.41692 2.17442 2.30432 2.04774 2.28078 1.93824C2.26799 1.88579 2.25615 1.87507 2.23961 1.90634C2.21727 1.95708 2.00652 1.72107 1.98945 1.62819C1.98675 1.59672 1.96825 1.58857 1.94524 1.60322C1.92324 1.61556 1.85535 1.56914 1.77754 1.48255C1.70464 1.40364 1.6076 1.31684 1.56441 1.28956C1.52122 1.26228 1.46026 1.21891 1.435 1.18851C1.37986 1.12568 1.38578 1.13104 1.25074 1.03026C1.19441 0.988928 1.15443 0.935526 1.16256 0.917076C1.16505 0.898896 1.17808 0.888112 1.18732 0.892185ZM0.950266 1.69371C0.978397 1.73639 0.992657 1.77296 0.97833 1.78041C0.964004 1.78787 0.969576 1.83163 0.989021 1.8815C1.01411 1.93109 1.04042 2.02804 1.04841 2.09765L1.06846 2.22764L0.997868 2.14974C0.91414 2.05779 0.849699 1.74029 0.91906 1.77083C0.946804 1.78305 0.945681 1.76053 0.91783 1.72348C0.856662 1.63046 0.881426 1.60556 0.950266 1.69371ZM1.86727 0.288475C1.89733 0.301712 1.82531 0.308545 1.70964 0.301661C1.59065 0.296064 1.49088 0.290674 1.48034 0.283276C1.44408 0.259047 1.81641 0.266073 1.86727 0.288475ZM0.511447 2.62115C0.518383 2.6242 0.535234 2.66742 0.546446 2.71091C0.567294 2.78893 0.562951 2.79252 0.52648 2.71864C0.487697 2.64373 0.481391 2.60791 0.511447 2.62115ZM1.29453 1.13766C1.34494 1.17363 1.38344 1.2429 1.38439 1.28462C1.38934 1.36115 1.38471 1.35911 1.29461 1.27537C1.13346 1.1273 1.13784 1.01082 1.29453 1.13766ZM1.38684 0.721219C1.41227 0.73242 1.45659 0.782226 1.48269 0.829518C1.51341 0.878845 1.55125 0.912029 1.56557 0.904571C1.62215 0.882675 1.78329 1.03075 1.79213 1.11724C1.80762 1.20117 1.80068 1.19811 1.70725 1.11566C1.65165 1.06639 1.60012 1.0079 1.58975 0.981304C1.57735 0.959321 1.54701 0.940454 1.52315 0.938209C1.45159 0.931473 1.30533 0.787205 1.32666 0.738774C1.33247 0.719305 1.36141 0.710018 1.38684 0.721219ZM0.668903 2.62716C0.71525 2.67236 0.800195 3.10628 0.774802 3.16394C0.766677 3.18239 0.776313 3.21692 0.796386 3.23402C0.822661 3.26211 0.812676 3.26598 0.775684 3.24969C0.723804 3.22959 0.571625 2.60359 0.614885 2.58685C0.620525 2.58658 0.643925 2.60239 0.668903 2.62716ZM1.66741 0.497838C1.68591 0.505984 1.67084 0.52138 1.63266 0.526593C1.59679 0.532824 1.54474 0.531925 1.52624 0.523779C1.50544 0.514615 1.52281 0.50024 1.56099 0.495027C1.59686 0.488796 1.64429 0.487655 1.66741 0.497838ZM0.558432 2.81532C0.565368 2.81837 0.579175 2.86851 0.580685 2.92149C0.586472 3.01491 0.585455 3.01722 0.552592 2.94767C0.516121 2.87378 0.519128 2.79801 0.558432 2.81532ZM1.45902 0.989815C1.51174 1.0268 1.55736 1.07993 1.56773 1.10653C1.58041 1.13414 1.54313 1.11222 1.47959 1.06221C1.42399 1.01294 1.36637 0.968284 1.36637 0.968284C1.35943 0.965229 1.35988 0.951664 1.36394 0.942439C1.36801 0.933214 1.40963 0.95154 1.45902 0.989815ZM1.17647 1.94478C1.2775 2.06637 1.27873 2.11372 1.17504 2.02951C1.12925 1.99557 1.13602 2.01783 1.19505 2.09063C1.2799 2.2051 1.41205 2.58823 1.35425 2.56278C1.22783 2.49884 1.02581 2.02987 1.10123 1.97773C1.12091 1.96437 1.11156 1.93547 1.08427 1.90968C1.05799 1.88159 1.04762 1.85499 1.06426 1.84855C1.07859 1.84109 1.12928 1.88269 1.17647 1.94478ZM1.34062 1.5407C1.4385 1.64439 1.52497 1.83667 1.50014 1.90559C1.47983 1.95171 1.26851 1.70445 1.23267 1.59779C1.18838 1.4351 1.226 1.41863 1.34062 1.5407ZM1.63041 0.776171C1.67822 0.805491 1.71791 0.853262 1.72163 0.882434C1.72433 0.913912 1.70842 0.912417 1.67623 0.878963C1.64533 0.848834 1.59955 0.814897 1.5718 0.802678C1.54406 0.790459 1.52703 0.766439 1.53516 0.747989C1.54227 0.731845 1.58462 0.742239 1.63041 0.776171ZM1.75983 0.582596C1.77832 0.590742 1.76326 0.606135 1.72508 0.611347C1.68921 0.617579 1.63715 0.616684 1.61866 0.608538C1.59785 0.599374 1.61522 0.584995 1.6534 0.579782C1.68927 0.573551 1.7367 0.572414 1.75983 0.582596ZM0.589036 3.13444C0.612651 3.19991 0.609696 3.52629 0.588888 3.51712C0.570392 3.50898 0.560825 3.43041 0.559663 3.33903C0.559022 3.19006 0.5732 3.08892 0.589036 3.13444ZM1.08146 2.32974C1.11607 2.38904 1.13321 2.43789 1.12119 2.44636C1.10455 2.4528 1.11661 2.51318 1.15178 2.58375C1.19964 2.68192 1.19845 2.70343 1.15018 2.68767C1.07157 2.65305 0.990917 2.44131 1.056 2.43142C1.0829 2.42675 1.07068 2.38557 1.02867 2.33678C0.984637 2.2926 0.963161 2.24735 0.980816 2.2386C0.997454 2.23216 1.04019 2.27301 1.08146 2.32974ZM1.53699 1.35183C1.62782 1.42763 1.70697 1.5864 1.66038 1.60443C1.6284 1.62063 1.43484 1.38945 1.43565 1.33749C1.43526 1.30703 1.43718 1.27758 1.43921 1.27297C1.4356 1.26863 1.48269 1.30588 1.53699 1.35183ZM1.8626 0.512208C1.88757 0.536977 1.87195 0.541108 1.83265 0.523798C1.79233 0.508794 1.77327 0.489388 1.79453 0.484984C1.80784 0.479832 1.84224 0.489476 1.8626 0.512208ZM1.30638 1.80649C1.41967 1.85638 1.6371 2.27155 1.56851 2.30192C1.53394 2.31148 1.3065 2.01306 1.28667 1.93273C1.26554 1.84908 1.27402 1.79224 1.30638 1.80649ZM1.91663 0.734258C2.0391 0.832253 2.02233 0.926751 1.89782 0.833369C1.77795 0.742024 1.76064 0.712373 1.7977 0.684637C1.81766 0.676909 1.86955 0.697001 1.91663 0.734258ZM1.73503 1.19674C1.79368 1.23908 1.84983 1.29961 1.86252 1.32723C1.88326 1.38042 1.68144 1.25574 1.62935 1.18599C1.58549 1.12261 1.63551 1.12812 1.73503 1.19674ZM1.93052 0.922109C2.00258 0.984134 2.0492 1.03496 2.03922 1.03883C2.0272 1.0473 1.95802 0.997554 1.88725 0.938854C1.81519 0.876828 1.76857 0.826005 1.77855 0.822141C1.79158 0.811358 1.86077 0.861101 1.93052 0.922109ZM0.77821 3.30036C0.808266 3.3136 0.820213 3.34915 0.807009 3.37913C0.781616 3.43679 0.731593 3.43128 0.710571 3.37246C0.688253 3.31031 0.720409 3.2749 0.77821 3.30036ZM2.13652 0.473141C2.17419 0.525523 2.14 0.565541 2.0664 0.563417C1.95998 0.560606 1.92887 0.480818 2.02853 0.461376C2.07771 0.449993 2.12773 0.4555 2.13652 0.473141ZM0.873724 3.15243C0.893343 3.1831 0.903046 3.1736 0.906441 3.12829C0.913685 3.02409 0.933023 3.04913 0.956958 3.18909C0.968839 3.26866 0.96432 3.29146 0.942389 3.25977C0.922771 3.2291 0.894184 3.19999 0.877719 3.18723C0.829621 3.15228 0.82139 3.1459 0.831547 3.12284C0.837922 3.11463 0.855402 3.12508 0.873724 3.15243ZM0.652838 3.77934C0.680127 3.80512 0.708325 3.80377 0.724576 3.76687C0.743875 3.72305 0.837398 3.6486 0.969839 3.56099C0.979822 3.55712 1.01195 3.6346 1.04159 3.73026C1.07253 3.82925 1.20251 4.1233 1.32314 4.38845C1.50504 4.77146 1.5495 4.91495 1.55182 5.09771C1.55005 5.22084 1.54771 5.3327 1.54161 5.34654C1.53653 5.35807 1.41507 5.07603 1.26711 4.71624C1.12147 4.35746 0.956768 3.97928 0.89707 3.87038C0.835341 3.76609 0.872479 3.87607 0.981999 4.12256C1.32797 4.91651 1.5432 5.53723 1.56676 5.82847C1.57564 5.98383 1.57025 6.10261 1.54944 6.09345C1.52863 6.08429 1.33818 5.62042 1.13196 5.06699C0.92111 4.51154 0.734265 4.05201 0.718081 4.04488C0.685713 4.03062 1.11698 5.2201 1.31983 5.70596C1.37992 5.84531 1.48341 6.06162 1.5519 6.18816C1.67491 6.4103 1.73819 6.63642 1.68726 6.65804C1.64399 6.67479 1.21857 5.82933 1.05005 5.39714C0.965504 5.17542 0.881204 4.89047 0.854783 4.76869C0.834002 4.64664 0.809543 4.56428 0.800401 4.58504C0.769931 4.65423 0.91345 5.17453 1.05762 5.54917C1.13772 5.74966 1.31702 6.12602 1.45818 6.3947C1.703 6.86048 1.71235 6.88938 1.72783 7.26793C1.73951 7.47959 1.73721 7.66031 1.72926 7.65957C1.71927 7.66343 1.62661 7.46016 1.52374 7.21109C1.41958 6.9587 1.21644 6.46722 1.07136 6.11971C0.87961 5.65251 0.800321 5.40006 0.775223 5.16872C0.75626 4.9924 0.722609 4.6802 0.700666 4.46677C0.681034 4.25436 0.670478 4.06522 0.68165 4.03985C0.692823 4.01448 0.677895 3.94182 0.65428 3.87635C0.593179 3.7393 0.594369 3.71779 0.652838 3.77934ZM1.25743 2.52564C1.37307 2.64541 1.40317 2.7275 1.29835 2.62076C1.19742 2.52399 1.16235 2.47826 1.1715 2.4575C1.17556 2.44828 1.21339 2.48146 1.25743 2.52564ZM1.43256 2.22828C1.5531 2.35572 1.65721 2.35751 1.61895 2.22501C1.58801 2.12602 1.62398 2.14462 1.7624 2.31297C1.87657 2.44861 1.95481 2.63451 1.92969 2.6978C1.92157 2.71625 1.84765 2.63964 1.76438 2.53413C1.60477 2.32615 1.53309 2.29459 1.61178 2.46692C1.64465 2.53647 1.6045 2.50226 1.48311 2.35793C1.29215 2.1334 1.25484 2.04262 1.43256 2.22828ZM1.97582 1.08249C2.03891 1.14608 2.07398 1.19181 2.05317 1.18265C1.99565 1.16282 1.80953 0.989984 1.83615 0.97968C1.84613 0.975816 1.90709 1.01918 1.97582 1.08249ZM1.02091 2.97494C1.07871 3.00039 1.1424 3.1441 1.12422 3.21044C1.10125 3.29394 1.07424 3.27378 1.01314 3.13673C0.965458 3.01936 0.96773 2.95152 1.02091 2.97494ZM1.15383 2.76087C1.25087 2.84767 1.29578 2.97759 1.23837 2.9826C1.20944 2.99188 1.22212 3.0195 1.2692 3.05675C1.36207 3.12794 1.35822 3.18683 1.25846 3.18144C1.22563 3.18075 1.21148 3.16901 1.23218 3.15335C1.25288 3.13768 1.24381 3.11441 1.21607 3.10219C1.1652 3.07979 1.16369 3.02681 1.20646 2.95477C1.21255 2.94093 1.19682 2.92024 1.16677 2.907C1.14133 2.8958 1.11061 2.84648 1.10735 2.80374C1.09434 2.70163 1.09333 2.70394 1.15383 2.76087ZM1.5484 1.7396C1.664 1.79051 1.86051 2.17169 1.81785 2.26855C1.79754 2.31467 1.5838 2.04156 1.55072 1.92236C1.51404 1.79881 1.51603 1.72534 1.5484 1.7396ZM1.94489 1.16525C1.9966 1.20454 2.05969 1.26813 2.09087 1.30389C2.12103 1.34195 2.17071 1.38586 2.19873 1.40371C2.22445 1.42054 2.27892 1.44728 2.30926 1.46615C2.34422 1.48706 2.37291 1.541 2.37673 1.595C2.38326 1.68048 2.37761 1.68075 2.30815 1.62537C2.27031 1.59219 2.22341 1.53573 2.20711 1.50377C2.18981 1.47412 2.12265 1.41976 2.05532 1.3846C1.98799 1.34944 1.91204 1.27745 1.88797 1.22554C1.83279 1.09385 1.84018 1.08334 1.94489 1.16525ZM2.18597 0.762014C2.19764 0.791935 2.1748 0.787385 2.11052 0.745306C2.04235 0.693254 2.03846 0.683279 2.0944 0.694149C2.13444 0.703522 2.17532 0.729788 2.18597 0.762014ZM1.52656 2.50373C1.6807 2.69278 1.82529 2.985 1.74437 2.94936C1.64264 2.90456 1.47294 2.67562 1.4194 2.50886C1.38615 2.40886 1.36271 2.32418 1.36114 2.31523C1.36548 2.31163 1.44098 2.3972 1.52656 2.50373ZM1.85798 1.64464C1.92006 1.71053 1.98095 1.79793 1.99013 1.84603C2.00134 1.88952 2.01679 1.90458 2.03028 1.88023C2.05465 1.82488 2.21913 1.97166 2.25034 2.07628C2.25998 2.11081 2.28625 2.1389 2.30881 2.13783C2.37288 2.13025 2.50807 2.32471 2.53015 2.45009C2.53814 2.51969 2.53937 2.56704 2.52781 2.56195C2.47233 2.53751 2.37682 2.39082 2.3358 2.27087C2.30875 2.18186 2.29302 2.16116 2.28759 2.21109C2.2807 2.27689 2.27015 2.26949 2.17013 2.14559C2.1111 2.07278 2.05614 1.99075 2.05603 1.96592C2.0513 1.93905 2.03224 1.91964 2.00867 1.92303C1.91668 1.93759 1.64223 1.55789 1.72339 1.5303C1.73439 1.52413 1.79128 1.57672 1.85798 1.64464ZM1.37101 2.7629C1.43309 2.82879 1.49629 2.9172 1.51213 2.96273C1.54064 3.03587 1.53269 3.03512 1.44242 2.97058C1.32716 2.88127 1.22241 2.7305 1.24273 2.68438C1.25187 2.66362 1.31023 2.70034 1.37101 2.7629ZM2.16213 0.941511C2.22235 0.992814 2.26418 1.0608 2.26457 1.09126C2.26219 1.13427 2.24268 1.12843 2.17857 1.06715C2.10493 0.996172 2.03367 0.882183 2.04281 0.861426C2.04919 0.85322 2.10321 0.893532 2.16213 0.941511ZM2.0438 1.44837C2.11327 1.50375 2.171 1.57323 2.16908 1.60267C2.16568 1.64799 2.14488 1.63882 2.0669 1.57144C1.97911 1.48872 1.90277 1.38626 1.91394 1.36089C1.91699 1.35397 1.97462 1.39862 2.0438 1.44837ZM2.30608 0.608391C2.33151 0.619591 2.36427 0.664308 2.3765 0.70549C2.38872 0.746671 2.415 0.774766 2.43654 0.775993C2.50597 0.762512 2.63807 0.895038 2.64663 0.975905C2.64999 1.04347 2.64001 1.04734 2.58007 1.00167C2.54122 0.970789 2.49172 0.907681 2.46793 0.861408C2.44516 0.812829 2.42277 0.794714 2.4116 0.820083C2.39941 0.847758 2.37167 0.835538 2.30192 0.774531C2.21052 0.687467 2.21129 0.566643 2.30608 0.608391ZM1.18134 3.49443C1.23441 3.49302 1.27102 3.47885 1.26916 3.46426C1.26268 3.44764 1.28236 3.43428 1.31417 3.43728C1.35162 3.44 1.40053 3.60473 1.45888 3.93607C1.61871 4.85181 1.5799 4.88979 1.26206 4.13852C1.13124 3.82757 1.03955 3.55314 1.05562 3.53543C1.07272 3.51543 1.12827 3.49584 1.18134 3.49443ZM2.228 1.17428C2.33513 1.28204 2.31268 1.30795 2.19529 1.19843C2.14663 1.15221 2.11286 1.10981 2.12284 1.10594C2.13717 1.09848 2.18295 1.13241 2.228 1.17428ZM1.45706 3.03761C1.52016 3.10119 1.52489 3.12806 1.48496 3.14351C1.43837 3.16154 1.41136 3.14139 1.38053 3.06723C1.31999 2.94144 1.35022 2.93548 1.45706 3.03761ZM2.34515 0.87067C2.37938 0.899511 2.41214 0.944226 2.41687 0.971092C2.4203 0.994633 2.41162 1.00182 2.39718 0.984449C2.38377 0.964772 2.34796 0.926975 2.31735 0.902476C2.24602 0.832514 2.26413 0.810202 2.34515 0.87067ZM2.2437 1.30786C2.28182 1.34668 2.29681 1.37531 2.27138 1.36411C2.21386 1.34429 2.12348 1.25491 2.14909 1.24692C2.1611 1.23844 2.20457 1.27135 2.2437 1.30786ZM2.57346 0.596733C2.62132 0.69491 2.59249 0.729023 2.51609 0.670592C2.46438 0.631299 2.46585 0.615425 2.513 0.608655C2.56116 0.599578 2.55727 0.589603 2.50382 0.560553C2.46451 0.543243 2.45803 0.526623 2.48753 0.528599C2.51804 0.528268 2.55587 0.561452 2.57346 0.596733ZM1.96045 2.15788C2.04863 2.27106 2.10381 2.40275 2.11962 2.56116C2.13746 2.71495 1.90771 2.41552 1.86591 2.23465C1.84653 2.14075 1.83566 2.05886 1.84666 2.05269C1.85665 2.04883 1.90531 2.09504 1.96045 2.15788ZM2.43275 1.08547C2.4483 1.12537 2.4324 1.12387 2.37838 1.08356C2.33823 1.04936 2.32685 1.02507 2.35865 1.02806C2.38713 1.03234 2.42238 1.05888 2.43275 1.08547ZM1.74389 2.59945C1.77276 2.63419 1.84797 2.71413 1.91005 2.78002C1.97444 2.84692 2.01368 2.90826 1.99907 2.91009C1.96912 2.92168 1.75486 2.70616 1.71117 2.62359C1.67081 2.53973 1.6905 2.52637 1.74389 2.59945ZM2.39534 1.15161C2.42725 1.17943 2.46621 1.23514 2.47815 1.27069C2.49585 1.3308 2.48559 1.32903 2.44054 1.28716C2.38235 1.23125 2.3196 1.12926 2.32671 1.11312C2.32976 1.1062 2.36111 1.12276 2.39534 1.15161ZM1.69446 2.96868C1.7222 2.9809 1.71712 2.99243 1.67561 2.99893C1.62716 3.00238 1.62237 3.01954 1.66511 3.06039C1.6924 3.08618 1.70175 3.11508 1.6841 3.12383C1.63852 3.13955 1.57511 3.00148 1.6155 2.97246C1.63648 2.96242 1.67134 2.9585 1.69446 2.96868ZM2.32567 1.70468C2.37997 1.75062 2.42355 1.80837 2.42467 1.83089C2.4281 1.85443 2.44587 1.87051 2.46944 1.86712C2.49302 1.86374 2.55425 1.91274 2.60274 1.97815C2.65325 2.03895 2.72689 2.10993 2.76315 2.13416C2.85213 2.19537 2.94171 2.33671 2.95166 2.44573C2.95819 2.53121 2.95356 2.52917 2.85761 2.39604C2.80061 2.31862 2.75433 2.2294 2.747 2.19589C2.7443 2.16441 2.71239 2.13658 2.67522 2.13949C2.6424 2.1388 2.5832 2.08519 2.54063 2.02515C2.50139 1.96381 2.4555 1.90504 2.43701 1.8969C2.33139 1.84212 2.21045 1.68423 2.23354 1.62555C2.23325 1.61992 2.27571 1.65514 2.32567 1.70468ZM2.58446 1.06693C2.63227 1.09625 2.67298 1.14171 2.67743 1.16295C2.68199 1.20901 2.65323 1.1991 2.54981 1.12051C2.45306 1.03935 2.48031 0.996276 2.58446 1.06693ZM2.79629 0.780233C2.85886 0.901411 2.80201 0.917673 2.71124 0.797844C2.64139 0.712007 2.63796 0.688469 2.6939 0.699339C2.73163 0.707694 2.77538 0.74624 2.79629 0.780233ZM2.48664 1.39558C2.51292 1.42367 2.52791 1.4523 2.5133 1.45413C2.49666 1.46057 2.46198 1.4453 2.43441 1.41388C2.40814 1.38579 2.39314 1.35716 2.40775 1.35533C2.42439 1.34889 2.46138 1.36518 2.48664 1.39558ZM1.91864 2.92974C2.03039 3.03953 2.03225 3.05412 1.95617 3.07018C1.88572 3.08596 1.86362 3.07348 1.82242 2.97272C1.75067 2.80344 1.78062 2.79185 1.91864 2.92974ZM2.60415 1.23531C2.65688 1.2723 2.7035 1.32312 2.71489 1.34741C2.72526 1.37401 2.68336 1.35005 2.62083 1.29773C2.48393 1.18236 2.47475 1.13426 2.60415 1.23531ZM1.8463 3.33845C1.87635 3.35169 1.89107 3.37469 1.88091 3.39775C1.87279 3.4162 1.88316 3.4428 1.90397 3.45196C1.93171 3.46418 1.93752 3.44471 1.92372 3.39457C1.9125 3.35108 1.91184 3.315 1.92182 3.31113C1.99965 3.28483 2.32252 3.29761 2.43931 3.32701L2.58255 3.36532L2.63944 3.89428C2.66735 4.18192 2.72128 4.56089 2.7592 4.73179C2.85097 5.14394 2.86727 5.35763 2.86759 5.90849C2.86589 6.16933 2.90218 6.55704 2.95428 6.80853C3.0025 7.05005 3.05929 7.55418 3.0742 7.92147C3.0881 8.29106 3.11863 8.65421 3.14151 8.72762C3.21128 8.97037 3.29539 10.0455 3.24446 10.0671C3.22782 10.0736 3.23164 10.1276 3.24905 10.1821C3.26906 10.2432 3.29412 10.4057 3.3101 10.5449L3.33327 10.8057L3.11594 10.7099C2.73908 10.544 2.60033 10.5958 2.4429 10.9532C2.33828 11.1908 2.28048 11.1653 2.26876 10.8848C2.26806 10.7798 2.22617 10.4613 2.17904 10.1734C2.13653 9.88759 2.09029 9.39086 2.08151 9.07859C2.07476 8.76171 2.03686 8.29619 2.00399 8.0449C1.97111 7.79362 1.93906 7.37748 1.93078 7.12051C1.92452 6.85892 1.88519 6.47812 1.84458 6.27575C1.76966 5.90682 1.75584 5.67494 1.75435 4.85096C1.7544 4.62519 1.72369 4.28124 1.68697 4.08884C1.65024 3.89644 1.6133 3.65438 1.6016 3.5556L1.58235 3.37365L1.68709 3.34268C1.74986 3.33177 1.81855 3.32623 1.8463 3.33845ZM2.04189 2.61229C2.08851 2.66311 2.13903 2.72391 2.15532 2.75587C2.17624 2.78986 2.22129 2.83173 2.25755 2.85596C2.41284 2.95464 2.4785 3.13776 2.33515 3.07463C2.30278 3.06037 2.26614 3.00568 2.26001 2.95066C2.25387 2.89564 2.23064 2.86063 2.21401 2.86707C2.19737 2.87351 2.19471 2.91089 2.20592 2.95438C2.25224 3.11246 2.08811 2.92728 1.99517 2.71837C1.96202 2.6432 1.94377 2.57183 1.95189 2.55338C1.95697 2.54185 1.99554 2.56709 2.04189 2.61229ZM2.21995 2.28318C2.2751 2.34601 2.31563 2.41068 2.3075 2.42913C2.29024 2.46834 2.26582 2.45483 2.17302 2.33961C2.05829 2.1927 2.09986 2.14218 2.21995 2.28318ZM2.51777 1.65711C2.57207 1.70305 2.61446 1.7823 2.61772 1.82504C2.62729 1.9036 2.61934 1.90285 2.54671 1.82957C2.479 1.76395 2.41096 1.62384 2.42332 1.57696C2.42332 1.57696 2.46911 1.6109 2.51777 1.65711ZM2.23717 2.46974C2.33589 2.59032 2.41952 2.83918 2.37062 2.85619C2.3074 2.88066 2.19904 2.72555 2.16676 2.55439C2.1435 2.45052 2.12976 2.35635 2.12818 2.3474C2.12818 2.3474 2.17814 2.39694 2.23717 2.46974ZM2.58997 1.33645C2.64084 1.35885 2.76685 1.50522 2.74485 1.51756C2.7039 1.53532 2.54563 1.39953 2.56188 1.36263C2.57001 1.34418 2.58304 1.3334 2.58997 1.33645ZM2.7898 1.05824C2.82995 1.09244 2.86964 1.14021 2.88001 1.1668C2.91343 1.24761 2.84852 1.2383 2.76203 1.1589C2.66776 1.05956 2.68842 0.975036 2.7898 1.05824ZM2.81738 1.27139C2.92756 1.37223 2.95303 1.45229 2.8486 1.37601C2.77913 1.32064 2.70872 1.22354 2.72091 1.19586C2.72294 1.19125 2.76872 1.22518 2.81738 1.27139ZM2.98214 0.947441C3.04341 1.0653 2.99017 1.0859 2.92252 0.976253C2.88125 0.919528 2.87669 0.873466 2.90055 0.875711C2.9257 0.881281 2.96122 0.913448 2.98214 0.947441ZM2.7291 1.60975C2.83623 1.71751 2.81377 1.74342 2.69638 1.63389C2.64772 1.58768 2.61395 1.54527 2.62393 1.5414C2.63826 1.53395 2.68405 1.56788 2.7291 1.60975ZM0.94265 5.94186C1.47119 7.15491 1.77092 7.92849 1.81028 8.1964C1.86558 8.53466 1.89787 9.36394 1.85461 9.38068C1.83464 9.38841 1.78205 9.26337 1.44153 8.3066C1.35902 8.08027 1.27504 7.86981 1.2557 7.84477C1.23637 7.81973 1.27305 7.94328 1.33972 8.12409C1.40409 8.30388 1.50198 8.5893 1.55986 8.75247C1.61571 8.92026 1.71192 9.1719 1.77358 9.32021C1.83293 9.46751 1.89694 9.6857 1.91412 9.8034L1.94661 10.0242L1.76531 9.72134C1.66896 9.55776 1.47844 9.13792 1.34362 8.79217C1.21213 8.44514 1.11992 8.2283 1.14336 8.31297C1.25223 8.70511 1.54527 9.41241 1.75305 9.79305C1.95306 10.1537 1.99279 10.2704 2.04161 10.592C2.08637 10.9229 2.08297 10.9682 2.02065 10.9655C1.94012 10.9603 1.91273 10.9097 1.46544 9.98855C1.34177 9.73032 1.25078 9.56083 1.26459 9.61097C1.27839 9.6611 1.41716 9.9728 1.5737 10.3006C1.8379 10.8603 1.87357 10.9861 1.74178 10.9281C1.64699 10.8863 1.19623 9.87274 1.18077 9.67593C1.1734 9.57356 1.17224 9.48218 1.17269 9.46861C1.17777 9.45708 1.16568 9.32785 1.14913 9.17737C1.13259 9.0269 1.12354 8.89074 1.1337 8.86768C1.14182 8.84923 1.13446 8.74686 1.11813 8.64605C1.01012 7.97617 0.924176 7.24993 0.879568 6.53639C0.850181 6.08287 0.825738 5.70588 0.826473 5.69795C0.831832 5.69205 0.88358 5.8002 0.94265 5.94186ZM2.1406 3.02749C2.15485 3.06406 2.15135 3.08454 2.12823 3.07436C2.10511 3.06418 2.08245 3.04043 2.07698 3.0215C2.06819 3.00386 2.0727 2.98107 2.08934 2.97463C2.10395 2.9728 2.12662 2.99655 2.1406 3.02749ZM2.75303 1.74971C2.86016 1.85747 2.83771 1.88338 2.72032 1.77385C2.67166 1.72764 2.63788 1.68523 2.64787 1.68137C2.66219 1.67391 2.70798 1.70784 2.75303 1.74971ZM2.87852 1.4773C2.93874 1.52861 2.98334 1.58404 2.97724 1.59788C2.96912 1.61633 2.92722 1.59237 2.8855 1.54921C2.72278 1.39219 2.71664 1.33717 2.87852 1.4773ZM3.17087 0.832303C3.19291 0.888819 3.12957 0.888463 3.07342 0.827934C3.01985 0.774055 3.02188 0.769441 3.08606 0.78669C3.1261 0.796063 3.16337 0.817986 3.17087 0.832303ZM3.00566 1.16982C3.02178 1.22098 3.01614 1.22125 2.97673 1.17911C2.94481 1.15129 2.93777 1.1234 2.95209 1.11595C2.96642 1.10849 2.9914 1.13326 3.00566 1.16982ZM2.39242 2.49957C2.43866 2.51993 2.59792 2.7663 2.57361 2.77763C2.5616 2.7861 2.50544 2.72557 2.45307 2.65019C2.35841 2.52039 2.33924 2.47615 2.39242 2.49957ZM2.74144 1.8575C2.78159 1.8917 2.83628 1.96811 2.85832 2.02462C2.88988 2.09084 2.91717 2.11663 2.9399 2.09635C3.00624 2.02093 3.23592 2.3644 3.19512 2.47585C3.17582 2.51967 3.00865 2.3414 2.9754 2.2414C2.95928 2.19025 2.91756 2.14709 2.88908 2.14281C2.787 2.1364 2.64894 1.92965 2.67254 1.81338C2.67096 1.80443 2.70259 1.82662 2.74144 1.8575ZM2.94113 1.66734C2.99673 1.7166 3.02948 1.76132 3.01849 1.76749C3.0085 1.77136 2.95578 1.73436 2.90019 1.6851C2.84459 1.63583 2.81183 1.59112 2.82283 1.58495C2.83282 1.58109 2.88554 1.61807 2.94113 1.66734ZM2.98601 1.25204C3.03688 1.27444 3.09195 1.3813 3.062 1.39289C3.02105 1.41065 2.9291 1.31233 2.94636 1.27312C2.95449 1.25467 2.97214 1.24593 2.98601 1.25204ZM3.143 1.08988C3.18185 1.12076 3.21055 1.1747 3.21121 1.21079C3.20477 1.26302 3.20043 1.26662 3.16914 1.20603C3.15257 1.16844 3.13019 1.15032 3.12409 1.16416C3.118 1.178 3.09561 1.15987 3.07673 1.12127C3.03609 1.03178 3.05707 1.02174 3.143 1.08988ZM2.52584 2.81716C2.65574 2.9735 2.69162 3.14901 2.58527 3.10217C2.54827 3.08588 2.50813 3.05167 2.49674 3.02738C2.46602 2.97806 2.39643 2.71611 2.4076 2.69074C2.40963 2.68613 2.46449 2.74333 2.52584 2.81716ZM2.93158 1.77052C2.98329 1.80981 3.02991 1.86064 3.0426 1.88825C3.06075 1.93479 2.89953 1.83075 2.84642 1.7633C2.80284 1.70556 2.85055 1.71005 2.93158 1.77052ZM3.30297 0.964831C3.31643 1.05336 3.27131 1.05552 3.22836 0.965011C3.20328 0.915414 3.20447 0.893909 3.24191 0.896633C3.27141 0.898608 3.29565 0.931316 3.30297 0.964831ZM2.6894 2.51471C2.76185 2.6072 2.84633 2.87295 2.82093 2.9306C2.80163 2.97442 2.66707 2.74719 2.61945 2.58579C2.55712 2.40139 2.57985 2.38111 2.6894 2.51471ZM3.09501 1.55612C3.11113 1.60728 3.1078 1.60857 3.06608 1.56541C3.03417 1.53759 3.02481 1.50869 3.04145 1.50225C3.05577 1.49479 3.08075 1.51955 3.09501 1.55612ZM3.15023 1.28031C3.16873 1.28845 3.20148 1.33317 3.22758 1.38046C3.26998 1.45971 3.26767 1.45869 3.18912 1.38004C3.11132 1.29345 3.09706 1.25689 3.15023 1.28031ZM2.9916 1.9539C3.06856 2.02359 3.13187 2.13684 3.081 2.11444C3.02552 2.09 2.87684 1.91989 2.88598 1.89913C2.8941 1.88068 2.94396 1.90538 2.9916 1.9539ZM3.14336 1.70959C3.17815 1.74969 3.19038 1.79088 3.17836 1.79935C3.16376 1.80118 3.12491 1.7703 3.09243 1.73121C3.05996 1.69213 3.04542 1.64993 3.05743 1.64146C3.07204 1.63963 3.10858 1.66949 3.14336 1.70959ZM2.88707 2.5109C2.95462 2.59572 3.036 2.79953 3.08327 2.99933C3.15612 3.30402 3.15651 3.33448 3.08309 3.31315C3.04074 3.30276 2.98514 3.2535 2.96366 3.20824C2.90747 3.07886 2.82596 2.66847 2.86982 2.73185C2.88713 2.7615 2.87146 2.69678 2.82665 2.59168C2.7885 2.48401 2.75655 2.38733 2.76061 2.3781C2.76467 2.36888 2.82416 2.42812 2.88707 2.5109ZM3.31977 1.23382C3.33753 1.2499 3.35439 1.29312 3.35218 1.31693C3.34795 1.34535 3.329 1.35077 3.29911 1.31834C3.24453 1.26677 3.26187 1.18353 3.31977 1.23382ZM3.25271 1.49891C3.25965 1.50197 3.2765 1.54519 3.28771 1.58868C3.30856 1.6667 3.30422 1.67029 3.26775 1.5964C3.23026 1.52482 3.22497 1.48669 3.25271 1.49891ZM2.76611 2.94226C2.8084 2.99668 2.85902 3.0823 2.87671 3.14241C2.91256 3.24907 2.91256 3.24907 2.8247 3.21038C2.77846 3.19001 2.72377 3.11361 2.70292 3.03559C2.65215 2.85627 2.66869 2.825 2.76611 2.94226ZM3.37374 1.4999C3.388 1.53646 3.38218 1.55594 3.36138 1.54677C3.34057 1.53761 3.31559 1.51284 3.31012 1.49391C3.30133 1.47627 3.30585 1.45347 3.32249 1.44703C3.33709 1.44521 3.36207 1.46998 3.37374 1.4999ZM3.2953 1.92244C3.2012 1.8039 3.20933 1.78545 3.31376 1.86173C3.38859 1.91121 3.52113 2.3248 3.48964 2.39629C3.48355 2.41013 3.51243 2.62661 3.55529 2.87403C3.62478 3.29289 3.65731 3.58257 3.63801 3.62639C3.63293 3.63792 3.59205 3.61166 3.54931 3.5708C3.50759 3.52765 3.41297 3.4667 3.34231 3.43283C3.21515 3.37683 3.20348 3.34691 3.10106 2.90253C3.04636 2.64439 3.00028 2.42308 3.00638 2.40924C3.01146 2.39771 3.05262 2.42961 3.09722 2.48505C3.1408 2.54279 3.19019 2.58107 3.20119 2.5749C3.2158 2.57307 3.26685 2.75801 3.3158 2.9916C3.36374 3.22749 3.41146 3.41372 3.42144 3.40985C3.44806 3.39955 3.35033 2.91318 3.2381 2.45347C3.19483 2.28847 3.17828 2.138 3.2013 2.12336C3.222 2.10769 3.20311 2.06909 3.1663 2.0336C3.09581 1.98053 3.09914 1.97924 3.22998 1.99556L3.37136 2.01927L3.2953 1.92244ZM3.40843 1.69691C3.42693 1.70506 3.44767 1.75825 3.45019 1.80892L3.45756 1.91129L3.41275 1.8062C3.36145 1.68449 3.36219 1.67654 3.40843 1.69691ZM2.85965 3.5259C2.87814 3.53405 3.05395 3.93089 3.25421 4.41009C3.45346 4.8916 3.62667 5.2818 3.63869 5.27332C3.65533 5.26688 3.62625 5.18248 3.57839 5.08431C3.52822 4.98511 3.35963 4.59696 3.20519 4.22054C3.04974 3.84643 2.91244 3.51886 2.89975 3.49125C2.87597 3.44497 3.27115 3.63829 3.50848 3.79514C3.645 3.88004 3.65379 3.89768 3.65728 4.17182C3.66283 4.32847 3.64424 4.47723 3.62613 4.49954C3.6034 4.51982 3.60683 4.54336 3.63068 4.54561C3.65815 4.5522 3.67157 4.57187 3.66372 4.59596C3.6556 4.6144 3.66212 4.69988 3.67964 4.77919C3.69614 4.86081 3.70396 4.94961 3.69973 4.97803C3.69346 5.01107 3.70247 5.07837 3.72016 5.13848C3.77342 5.29961 3.8194 5.67783 3.78472 5.66256C3.67605 5.6147 3.31026 4.92216 3.0661 4.31072C2.81461 3.66577 2.76485 3.48416 2.85965 3.5259ZM3.11077 4.50388C3.33679 5.06877 3.53347 5.43075 3.74952 5.70488C3.83482 5.80578 3.88458 5.9874 3.83596 6.01004C3.82135 6.01187 3.7152 5.83295 3.59422 5.6062C3.25103 4.98144 3.24252 4.96943 3.25457 5.02981C3.25727 5.06128 3.36252 5.26734 3.4809 5.48744C3.7892 6.04727 3.86957 6.25339 3.89127 6.53005L3.90999 6.76959L3.66481 6.16046C3.37511 5.45187 3.07748 4.81138 3.04753 4.82297C3.03292 4.8248 3.11764 5.02732 3.23455 5.2633C3.34481 5.50185 3.55646 6.00535 3.70294 6.38102C3.9161 6.9375 3.96974 7.12909 3.99387 7.43159L4.02136 7.80166L3.84559 7.47367C3.28588 6.40661 3.07987 5.90285 3.08293 5.6013L3.08733 5.37194L3.41558 6.21866C3.6004 6.6828 3.77298 7.10576 3.805 7.15841C3.908 7.31943 3.91998 7.24209 3.82002 7.07416C3.54487 6.58951 2.96708 4.95551 3.03174 4.84631C3.04144 4.83681 3.00966 4.72093 2.96548 4.58307C2.9249 4.44955 2.90717 4.32059 2.92759 4.29929C2.95032 4.27901 2.95382 4.25852 2.9369 4.25933C2.921 4.25784 2.90962 4.23355 2.91081 4.21204C2.91301 4.18823 2.90039 4.11659 2.88371 4.05417C2.81469 3.80349 2.88087 3.92901 3.11077 4.50388ZM1.32873 10.2175C1.39029 10.3409 1.45528 10.488 1.47325 10.5537C1.50605 10.6673 1.50605 10.6673 1.43829 10.5328C1.37572 10.4116 1.37471 10.4139 1.43185 10.585C1.5001 10.7748 1.58439 10.878 1.54704 10.7184C1.53583 10.6749 1.55127 10.69 1.58414 10.7595C1.64653 10.8999 1.61663 10.9803 1.49599 11.0098C1.45245 11.0209 1.42435 11.0471 1.43213 11.067C1.43991 11.087 1.424 11.0855 1.39931 11.0664C1.37664 11.0426 1.3647 11.0071 1.37846 10.9883C1.39454 10.9706 1.38112 10.951 1.3483 10.9503C1.31779 10.9506 1.28198 10.9128 1.27077 10.8693C1.25854 10.8281 1.26176 10.802 1.27564 10.8081C1.29413 10.8163 1.29346 10.7802 1.27864 10.7323C1.25475 10.6612 1.20216 10.0598 1.21452 10.013C1.21988 10.0071 1.27079 10.0983 1.32873 10.2175ZM3.27804 6.43069C3.5402 6.99498 3.90221 7.70237 3.96976 7.78719C4.02027 7.84799 4.08203 8.31576 4.05054 8.38725C4.04242 8.4057 3.95076 8.20013 3.84503 7.93878C3.74594 7.67486 3.537 7.20284 3.38722 6.89732C3.16598 6.42815 3.03855 6.07189 3.06902 6.0027C3.07207 5.99578 3.1688 6.18983 3.27804 6.43069ZM3.30609 6.81202C3.39402 6.98843 3.56706 7.39782 3.69946 7.71772C3.83085 8.03993 3.97018 8.36288 4.00305 8.43242C4.07469 8.57687 4.1191 8.94613 4.05359 8.8567C3.89212 8.63414 3.75142 8.35189 3.52309 7.78598C3.28208 7.19246 3.07893 6.51923 3.1355 6.49734C3.1478 6.49449 3.22379 6.63535 3.30609 6.81202ZM1.30739 11.0369C1.32627 11.0755 1.32908 11.1318 1.31486 11.1641C1.29223 11.2092 1.28298 11.2051 1.26676 11.1291C1.23803 11.0063 1.26342 10.9487 1.30739 11.0369ZM1.34214 11.4845C1.37913 11.5008 1.77385 12.184 1.76268 12.2094C1.75455 12.2279 1.32064 11.7339 1.27853 11.6603C1.24595 11.5963 1.2959 11.4641 1.34214 11.4845ZM1.52008 11.4252C1.56755 11.4929 1.74248 11.804 1.90454 12.1067C2.19953 12.6717 2.60841 13.3666 2.79209 13.6265C2.97938 13.8907 2.90875 13.744 2.66842 13.3683C2.54191 13.1666 2.31461 12.7802 2.17143 12.5161C2.02695 12.2487 1.82175 11.8747 1.71605 11.6822C1.60934 11.492 1.524 11.3223 1.52519 11.3008C1.52875 11.2363 1.83372 11.1393 1.91695 11.1759C1.96088 11.1953 2.01749 11.2422 2.04765 11.2803C2.08966 11.3291 2.12434 11.3444 2.1712 11.332C2.2214 11.3183 2.24897 11.3497 2.30534 11.4599C2.38088 11.6143 2.48334 11.6512 2.53006 11.5451C2.54631 11.5082 2.56862 11.3886 2.58122 11.2785C2.62841 10.8642 2.7467 10.7649 3.02877 10.8891C3.12356 10.9308 3.21846 10.9974 3.23965 11.037C3.26547 11.0787 3.30159 11.4856 3.3233 11.944C3.34502 12.4024 3.37324 12.7645 3.3834 12.7415C3.39152 12.723 3.38512 12.3677 3.36666 11.9521L3.33368 11.1996L3.42733 11.3317L3.52328 11.4648L3.60145 11.2184C3.67815 10.9878 3.68656 10.975 3.80314 10.9548C3.87127 10.938 3.92766 10.9353 3.92823 10.9465C3.93082 10.9532 3.91058 11.137 3.88047 11.3495C3.856 11.5618 3.8098 12.0867 3.78139 12.5147C3.75297 12.9428 3.72558 13.3685 3.71241 13.4674C3.70128 13.5616 3.69929 13.6351 3.71389 13.6332C3.74153 13.6206 3.7905 13.0832 3.82828 12.3894C3.84595 12.0861 3.87816 11.8249 3.90089 11.8046C3.92667 11.7774 3.91816 11.7654 3.88663 11.768C3.85076 11.7743 3.85122 11.7607 3.88236 11.7276C3.90814 11.7004 3.91976 11.6615 3.90505 11.6385C3.88932 11.6178 3.89226 11.586 3.91167 11.567C3.92978 11.5447 3.94553 11.4525 3.94409 11.3555C3.94625 11.2629 3.95976 11.1256 3.97202 11.0539C3.9994 10.9228 4.00403 10.9248 4.11455 10.9873C4.2112 11.0436 4.2249 11.0689 4.2026 11.1885C4.19062 11.2658 4.20418 11.3792 4.23085 11.4378C4.2751 11.5316 4.26186 11.6745 4.11146 12.3544C4.01954 12.8013 3.9287 13.2019 3.9094 13.2457C3.89371 13.2939 3.8844 13.3338 3.89364 13.3379C3.9052 13.343 3.89673 13.3998 3.87162 13.4631C3.84651 13.5264 3.83306 13.6196 3.8366 13.668C3.84116 13.7141 3.8135 13.8396 3.77473 13.9464C3.70938 14.1324 3.70503 14.136 3.69276 14.0259C3.68393 13.9394 3.67339 13.932 3.65798 13.9858C3.6446 14.035 3.61262 14.0512 3.55307 14.036C3.48557 14.0201 3.45817 13.9694 3.43192 13.8285C3.41198 13.7233 3.39187 13.6373 3.38262 13.6333C3.36412 13.6251 3.3698 13.6937 3.40439 13.8659C3.43036 14.0012 3.39064 14.0664 3.30278 14.0277C3.27735 14.0165 3.2069 14.0323 3.14396 14.0624L3.036 14.1194L2.87572 13.8754C2.78975 13.7384 2.70648 13.6329 2.68984 13.6393C2.67782 13.6478 2.74835 13.7697 2.85282 13.9149C2.99004 14.1047 3.03096 14.1998 3.00659 14.2552C2.96799 14.3428 2.97391 14.3482 2.75148 13.9005C2.56061 13.5191 2.55858 13.5237 2.62962 13.588C2.73055 13.6848 2.66724 13.5715 2.33919 13.0691C2.16809 12.812 1.91006 12.3762 1.76891 12.1075C1.62313 11.8368 1.47865 11.5694 1.4371 11.507C1.39583 11.4503 1.37859 11.3766 1.39078 11.349C1.42497 11.309 1.44374 11.3227 1.52008 11.4252ZM3.54156 7.90701C3.66601 8.22617 3.84458 8.61046 3.93676 8.75844C4.02459 8.91002 4.11523 9.1179 4.13415 9.22536C4.15538 9.33384 4.15413 9.39938 4.1322 9.36769C4.02514 9.2159 3.65216 8.58353 3.54506 8.36289C3.4463 8.17346 3.43057 8.15276 3.47419 8.27936C3.50355 8.3694 3.6796 8.70301 3.86248 9.01485C4.14429 9.49693 4.19789 9.61966 4.21493 9.82542L4.2393 10.0647L4.08654 9.72207C4.00368 9.53413 3.81078 9.15729 3.66038 8.88454C3.34819 8.31474 3.25468 8.09457 3.31262 8.03197C3.33073 8.00966 3.33717 7.95743 3.32596 7.91394C3.28622 7.79731 3.25379 7.35072 3.28273 7.34143C3.29705 7.33397 3.41277 7.59146 3.54156 7.90701ZM3.5974 8.84579C3.9915 9.5618 4.23622 10.1845 4.25369 10.4896C4.27025 10.8218 4.25879 10.8415 4.09583 10.7477C4.01795 10.7052 3.96173 10.6887 3.96257 10.7056C3.96443 10.7202 3.92783 10.7343 3.87983 10.7242C3.81391 10.7172 3.75081 10.6536 3.64753 10.487C3.52334 10.2863 3.50452 10.2037 3.48166 9.83566C3.46384 9.56898 3.47025 9.44789 3.49996 9.49952C3.52374 9.5458 3.63631 9.78537 3.75017 10.0283C3.97429 10.5097 4.19161 10.9001 4.0432 10.5538C4.00431 10.4541 3.85398 10.1373 3.7166 9.85377C3.54147 9.49302 3.44988 9.24342 3.41722 9.04179C3.39475 8.88596 3.38165 8.75903 3.39321 8.76412C3.43251 8.78143 3.82315 9.58679 3.98435 9.98546C4.07407 10.2205 4.16793 10.4022 4.18355 10.3981C4.22478 10.386 3.96916 9.79428 3.66769 9.21268C3.22535 8.36802 3.17608 8.05995 3.5974 8.84579ZM3.61065 10.4955C3.72504 10.6808 3.72637 10.753 3.61424 10.7945C3.56867 10.8102 3.54758 10.7954 3.52758 10.7343C3.51265 10.6616 3.51367 10.6593 3.56233 10.7055C3.59323 10.7356 3.61505 10.7425 3.6093 10.7179C3.60586 10.6944 3.63322 10.6762 3.65809 10.6761C3.6886 10.6758 3.67473 10.6697 3.62776 10.6572C3.57875 10.6494 3.53787 10.6232 3.53212 10.5986C3.52942 10.5671 3.55097 10.5683 3.58418 10.5995C3.63154 10.6424 3.63458 10.6355 3.59349 10.5595C3.4503 10.2955 3.45832 10.2522 3.61065 10.4955Z" fill="black" stroke="black" stroke-width="2" mask="url(#path-1-inside-1_2163_485)"/>
</svg>
