<svg width="458" height="106" viewBox="0 0 458 106" fill="none" xmlns="http://www.w3.org/2000/svg">
<path d="M70 54V44L81 40V58.5L70 54Z" fill="#FFAC00"/>
<g filter="url(#filter0_d_2247_457)">
<path d="M70.3838 37.0879L88.001 29.0391V68.958L70.3838 60.3008V70.7363H24V58.4531H30.7881L34.5049 64.1104H61.6562L63.5957 60.8779V52.4736H24V27.2617H70.3838V37.0879ZM30.7881 37.1201V45.8477H70.3838V53.9072L81.0518 58.292V39.8672L69.2539 44.3926V39.8682H63.5957V36.3125L60.8486 34.2109H33.5352L30.7881 37.1201Z" fill="white"/>
</g>
<path d="M132.447 56.1821C132.447 63.3747 127.124 66.971 116.479 66.971C112.595 66.971 109.203 66.5514 106.302 65.7123L107.524 58.6276C110.521 59.7065 113.506 60.2459 116.479 60.2459C119.356 60.2459 121.346 60.0061 122.449 59.5266C123.576 59.0471 124.139 58.244 124.139 57.1171C124.139 55.3669 122.125 53.7006 118.098 52.1182C114.573 50.7277 112.008 49.3611 110.401 48.0184C108.196 46.1484 107.093 43.8587 107.093 41.1495C107.093 37.9608 108.28 35.3954 110.653 33.4534C113.027 31.5114 116.479 30.5404 121.011 30.5404C125.254 30.5404 128.587 30.912 131.008 31.6552L129.786 38.7759C127.076 37.721 124.151 37.1935 121.011 37.1935C117.174 37.1935 115.256 38.1765 115.256 40.1425C115.256 41.1495 115.664 41.9647 116.479 42.588C117.294 43.1874 118.961 43.9546 121.478 44.8897C124.955 46.1603 127.484 47.467 129.066 48.8096C131.32 50.7277 132.447 53.1851 132.447 56.1821ZM147.464 66H137.646C138.005 57.7764 138.185 48.8696 138.185 39.2794C138.185 29.929 137.813 21.9811 137.07 15.4359L147.464 14.8605C147.104 21.6455 146.924 29.7851 146.924 39.2794C146.924 48.9175 147.104 57.8244 147.464 66ZM182.764 65.964L174.276 66.2517C173.893 65.2448 173.701 64.3337 173.701 63.5185H173.233C170.596 65.7722 167.036 66.8991 162.552 66.8991C159.555 66.8991 157.062 66.0719 155.072 64.4176C153.106 62.7393 152.123 60.5216 152.123 57.7644C152.123 54.1202 153.657 51.1352 156.726 48.8096C159.819 46.484 165.226 45.2493 172.946 45.1054C172.994 44.6739 173.018 44.2663 173.018 43.8827C173.018 41.2933 172.394 39.5911 171.147 38.7759C169.901 37.9368 167.611 37.5172 164.278 37.5172C160.658 37.5172 157.122 37.9967 153.669 38.9557L154.461 32.3385C157.721 31.2117 162.324 30.6483 168.27 30.6483C172.61 30.6483 175.955 31.5593 178.304 33.3815C180.678 35.2036 181.864 38.3923 181.864 42.9476C181.864 43.9546 181.817 45.7887 181.721 48.45C181.649 51.1113 181.613 52.8855 181.613 53.7725C181.613 58.7355 181.996 62.7993 182.764 65.964ZM173.161 58.4837C173.018 55.247 172.946 52.4539 172.946 50.1043C164.77 50.1043 160.682 52.1782 160.682 56.3259C160.682 59.179 162.48 60.6055 166.077 60.6055C168.906 60.6055 171.267 59.8983 173.161 58.4837ZM208.785 59.2749L208.174 65.6763C206.495 66.3956 204.386 66.7552 201.844 66.7552C197.96 66.7552 195.035 65.7003 193.069 63.5905C191.103 61.4806 190.12 57.4168 190.12 51.399C190.12 47.7787 190.144 43.6789 190.192 39.0996C188.969 39.0996 187.315 39.1715 185.229 39.3154L185.481 32.2306C187.327 32.3745 189.041 32.4464 190.624 32.4464C190.648 31.1757 190.744 27.8311 190.911 22.4127L199.435 21.3698C199.075 26.1409 198.895 29.8331 198.895 32.4464C200.909 32.4464 203.918 32.3505 207.922 32.1587L207.634 39.3154C203.99 39.1715 201.029 39.0996 198.751 39.0996C198.703 42.2883 198.679 45.6329 198.679 49.1333C198.679 53.4009 199.111 56.266 199.974 57.7285C200.837 59.167 202.36 59.8863 204.541 59.8863C205.86 59.8863 207.275 59.6825 208.785 59.2749ZM243.258 45.2493C243.258 46.472 243.186 48.0664 243.042 50.0324L219.882 50.428C220.217 53.1372 221.38 55.3909 223.37 57.189C225.36 58.9872 227.973 59.8863 231.21 59.8863C234.806 59.8863 238.631 59.3468 242.682 58.2679L241.963 65.2448C238.655 66.4435 234.555 67.0429 229.664 67.0429C223.478 67.0429 218.731 65.3047 215.422 61.8283C212.138 58.3518 210.495 54.1681 210.495 49.2772C210.495 44.1704 212.054 39.7469 215.171 36.0068C218.311 32.2426 222.663 30.3606 228.225 30.3606C233.308 30.3606 237.084 31.7391 239.554 34.4963C242.023 37.2535 243.258 40.8378 243.258 45.2493ZM234.842 44.9256C234.842 39.4113 232.493 36.6541 227.794 36.6541C223.31 36.6541 220.649 39.5072 219.81 45.2133L234.842 44.9256Z" fill="#FFAC00"/>
<path d="M311.289 66H301.759C302.262 59.9342 302.514 54.0363 302.514 48.3061C302.514 44.0145 301.963 41.2094 300.86 39.8908C299.757 38.5721 297.995 37.9128 295.573 37.9128C293.631 37.9128 291.581 38.6201 289.424 40.0346C289.328 43.0316 289.28 45.7168 289.28 48.0904C289.28 52.0943 289.352 58.0641 289.496 66H279.857C280.385 59.4307 280.649 53.0413 280.649 46.8317C280.649 43.619 280.193 41.3293 279.282 39.9627C278.395 38.5961 276.537 37.9128 273.708 37.9128C271.094 37.9128 268.925 38.7879 267.198 40.5381C267.318 50.0324 267.378 58.5197 267.378 66H257.704C258.136 58.5197 258.352 52.6217 258.352 48.3061C258.352 42.6959 257.764 37.2894 256.589 32.0868L265.796 31.0798L266.407 34.8919H266.983C270.099 32.0628 273.612 30.6483 277.52 30.6483C282.411 30.6483 285.851 32.0628 287.841 34.8919H288.417C291.965 32.0628 295.477 30.6483 298.954 30.6483C303.03 30.6483 306.099 31.5353 308.16 33.3095C310.246 35.0597 311.289 38.2485 311.289 42.8757C311.289 43.3313 311.265 44.2064 311.217 45.501C311.169 46.7717 311.145 47.6348 311.145 48.0904C311.145 52.0943 311.193 58.0641 311.289 66ZM348.315 45.2493C348.315 46.472 348.243 48.0664 348.1 50.0324L324.939 50.428C325.275 53.1372 326.438 55.3909 328.428 57.189C330.418 58.9872 333.031 59.8863 336.268 59.8863C339.864 59.8863 343.688 59.3468 347.74 58.2679L347.021 65.2448C343.712 66.4435 339.612 67.0429 334.721 67.0429C328.536 67.0429 323.789 65.3047 320.48 61.8283C317.195 58.3518 315.553 54.1681 315.553 49.2772C315.553 44.1704 317.111 39.7469 320.228 36.0068C323.369 32.2426 327.721 30.3606 333.283 30.3606C338.366 30.3606 342.142 31.7391 344.611 34.4963C347.081 37.2535 348.315 40.8378 348.315 45.2493ZM339.9 44.9256C339.9 39.4113 337.55 36.6541 332.851 36.6541C328.368 36.6541 325.707 39.5072 324.867 45.2133L339.9 44.9256ZM385.557 65.964L377.034 66.2517C376.866 65.4126 376.782 64.5375 376.782 63.6264H376.243C373.606 65.9041 370.237 67.0429 366.137 67.0429C361.534 67.0429 357.878 65.3766 355.169 62.0441C352.459 58.7115 351.105 54.7555 351.105 50.1762C351.105 44.9256 352.579 40.3583 355.528 36.4743C358.477 32.5663 362.577 30.6123 367.828 30.6123C371.232 30.6123 373.785 31.2476 375.488 32.5183H375.991C375.991 26.8601 375.715 21.166 375.164 15.4359L385.342 15.1482C384.958 20.7344 384.766 28.7662 384.766 39.2434C384.766 49.8645 385.03 58.7714 385.557 65.964ZM376.531 57.8004C376.531 50.1523 376.351 43.8227 375.991 38.8119C374.337 37.6611 372.359 37.0857 370.057 37.0857C366.893 37.0857 364.543 38.2605 363.009 40.61C361.474 42.9596 360.707 45.8367 360.707 49.2412C360.707 52.2621 361.45 54.8754 362.937 57.0811C364.423 59.2629 366.485 60.3538 369.122 60.3538C372.647 60.3538 375.116 59.5027 376.531 57.8004ZM401.186 66H391.511C391.847 61.0371 392.015 55.3429 392.015 48.9175C392.015 42.5401 391.607 36.9538 390.792 32.1587L401.15 31.1158C400.838 35.767 400.682 41.7009 400.682 48.9175C400.682 55.0792 400.85 60.7734 401.186 66ZM402.84 20.9742C402.84 22.6045 402.276 24.031 401.15 25.2538C400.047 26.4765 398.5 27.0879 396.51 27.0879C394.832 27.0879 393.513 26.5605 392.554 25.5055C391.619 24.4506 391.152 23.1799 391.152 21.6934C391.152 20.0631 391.703 18.6486 392.806 17.4498C393.933 16.251 395.503 15.6516 397.517 15.6516C399.22 15.6516 400.526 16.1791 401.437 17.234C402.372 18.265 402.84 19.5117 402.84 20.9742ZM436.378 65.964L427.89 66.2517C427.507 65.2448 427.315 64.3337 427.315 63.5185H426.847C424.21 65.7722 420.65 66.8991 416.166 66.8991C413.169 66.8991 410.676 66.0719 408.686 64.4176C406.72 62.7393 405.737 60.5216 405.737 57.7644C405.737 54.1202 407.271 51.1352 410.34 48.8096C413.433 46.484 418.84 45.2493 426.56 45.1054C426.608 44.6739 426.632 44.2663 426.632 43.8827C426.632 41.2933 426.008 39.5911 424.762 38.7759C423.515 37.9368 421.225 37.5172 417.893 37.5172C414.272 37.5172 410.736 37.9967 407.283 38.9557L408.075 32.3385C411.335 31.2117 415.939 30.6483 421.884 30.6483C426.224 30.6483 429.569 31.5593 431.918 33.3815C434.292 35.2036 435.479 38.3923 435.479 42.9476C435.479 43.9546 435.431 45.7887 435.335 48.45C435.263 51.1113 435.227 52.8855 435.227 53.7725C435.227 58.7355 435.61 62.7993 436.378 65.964ZM426.775 58.4837C426.632 55.247 426.56 52.4539 426.56 50.1043C418.384 50.1043 414.296 52.1782 414.296 56.3259C414.296 59.179 416.094 60.6055 419.691 60.6055C422.52 60.6055 424.881 59.8983 426.775 58.4837Z" fill="white"/>
<path d="M363.473 90H361.34C361.512 87.9453 361.598 85.7344 361.598 83.3672C361.598 82.1016 361.359 81.25 360.883 80.8125C360.414 80.3672 359.762 80.1445 358.926 80.1445C357.754 80.1445 356.656 80.5469 355.633 81.3516C355.633 85.6172 355.664 88.5 355.727 90H353.664C353.734 87.9375 353.77 85.0234 353.77 81.2578C353.77 77.9609 353.656 75.3789 353.43 73.5117L355.656 73.3945C355.594 75.7773 355.562 77.9883 355.562 80.0273H355.633C356.805 78.9961 358.09 78.4805 359.488 78.4805C360.738 78.4805 361.715 78.7734 362.418 79.3594C363.121 79.9375 363.473 80.957 363.473 82.418C363.473 82.5664 363.465 82.8594 363.449 83.2969C363.434 83.7266 363.426 84.1055 363.426 84.4336C363.426 85.5586 363.441 87.4141 363.473 90ZM383.734 84.0938C383.734 86.0938 383.16 87.6562 382.011 88.7812C380.863 89.8984 379.511 90.457 377.957 90.457C376.503 90.457 375.253 89.9609 374.207 88.9688C373.167 87.9766 372.648 86.5781 372.648 84.7734C372.648 82.7578 373.222 81.1836 374.371 80.0508C375.527 78.918 376.882 78.3516 378.437 78.3516C379.89 78.3516 381.136 78.8555 382.175 79.8633C383.214 80.8633 383.734 82.2734 383.734 84.0938ZM381.707 84.5039C381.707 83.2852 381.398 82.2031 380.781 81.2578C380.171 80.3047 379.3 79.8281 378.167 79.8281C377.042 79.8281 376.175 80.2773 375.566 81.1758C374.964 82.0742 374.664 83.1172 374.664 84.3047C374.664 85.5312 374.968 86.6172 375.578 87.5625C376.195 88.5078 377.074 88.9805 378.214 88.9805C379.339 88.9805 380.203 88.5312 380.804 87.6328C381.406 86.7266 381.707 85.6836 381.707 84.5039ZM402.8 89.9883L400.983 90.0586C400.874 89.6211 400.819 89.2617 400.819 88.9805H400.702C399.663 89.8555 398.401 90.293 396.917 90.293C395.565 90.293 394.581 89.9688 393.964 89.3203C393.355 88.6641 393.05 87.3477 393.05 85.3711C393.05 85.0898 393.058 84.6719 393.073 84.1172C393.089 83.5625 393.097 83.1836 393.097 82.9805C393.097 81.832 393.03 80.4805 392.897 78.9258L395.077 78.8438C394.983 80.3516 394.937 81.6406 394.937 82.7109C394.937 85.1719 395.093 86.7773 395.405 87.5273C395.726 88.2695 396.44 88.6406 397.55 88.6406C398.8 88.6406 399.831 88.3281 400.644 87.7031C400.644 83.3594 400.605 80.4336 400.526 78.9258L402.636 78.8438C402.573 80.3125 402.542 82.3438 402.542 84.9375C402.542 86.6016 402.628 88.2852 402.8 89.9883ZM419.71 86.8242C419.71 89.1055 418.252 90.2461 415.338 90.2461C414.049 90.2461 412.846 90.1172 411.729 89.8594L412.092 88.1367C413.108 88.5273 414.21 88.7227 415.397 88.7227C417.1 88.7227 417.952 88.2383 417.952 87.2695C417.952 86.8008 417.76 86.4297 417.377 86.1562C417.002 85.875 416.377 85.5625 415.502 85.2188C414.393 84.7812 413.588 84.3594 413.088 83.9531C412.354 83.3516 411.987 82.625 411.987 81.7734C411.987 80.8828 412.323 80.1211 412.995 79.4883C413.667 78.8477 414.69 78.5273 416.065 78.5273C417.409 78.5273 418.487 78.6406 419.299 78.8672L418.936 80.5547C418.092 80.2188 417.116 80.0508 416.006 80.0508C414.506 80.0508 413.756 80.4844 413.756 81.3516C413.756 81.7891 413.924 82.1445 414.26 82.418C414.596 82.6836 415.252 83.0078 416.229 83.3906C417.284 83.8047 418.065 84.2109 418.573 84.6094C419.331 85.2266 419.71 85.9648 419.71 86.8242ZM438.412 83.1211C438.412 83.4492 438.397 83.9023 438.365 84.4805L430.315 84.6211C430.393 85.7617 430.834 86.7188 431.639 87.4922C432.443 88.2578 433.51 88.6406 434.838 88.6406C436.025 88.6406 437.139 88.4961 438.178 88.207L437.979 89.8594C437.213 90.1641 436.107 90.3164 434.662 90.3164C432.631 90.3164 431.08 89.7617 430.01 88.6523C428.947 87.543 428.416 86.1914 428.416 84.5977C428.416 82.8945 428.9 81.4297 429.869 80.2031C430.846 78.9688 432.154 78.3516 433.795 78.3516C435.303 78.3516 436.447 78.7969 437.229 79.6875C438.018 80.5781 438.412 81.7227 438.412 83.1211ZM436.455 83.1445C436.455 80.9492 435.537 79.8516 433.701 79.8516C431.826 79.8516 430.721 80.9922 430.385 83.2734L436.455 83.1445Z" fill="white"/>
<circle cx="397.5" cy="21.5" r="6.5" fill="#FFAC00"/>
<defs>
<filter id="filter0_d_2247_457" x="21.7" y="27.2617" width="68.6" height="48.7746" filterUnits="userSpaceOnUse" color-interpolation-filters="sRGB">
<feFlood flood-opacity="0" result="BackgroundImageFix"/>
<feColorMatrix in="SourceAlpha" type="matrix" values="0 0 0 0 0 0 0 0 0 0 0 0 0 0 0 0 0 0 127 0" result="hardAlpha"/>
<feOffset dy="3"/>
<feGaussianBlur stdDeviation="1.15"/>
<feComposite in2="hardAlpha" operator="out"/>
<feColorMatrix type="matrix" values="0 0 0 0 0 0 0 0 0 0 0 0 0 0 0 0 0 0 0.25 0"/>
<feBlend mode="normal" in2="BackgroundImageFix" result="effect1_dropShadow_2247_457"/>
<feBlend mode="normal" in="SourceGraphic" in2="effect1_dropShadow_2247_457" result="shape"/>
</filter>
</defs>
</svg>
