<svg width="122" height="29" viewBox="0 0 122 29" fill="none" xmlns="http://www.w3.org/2000/svg">
<path d="M13.4922 14.6644V11.7317L16.7181 10.5586V15.9841L13.4922 14.6644Z" fill="#FFAC00"/>
<g filter="url(#filter0_d_2157_301)">
<path d="M13.6025 9.7041L18.7695 7.34277V19.0498L13.6025 16.5107V19.5713H0V15.9697H1.99023L3.08105 17.6289H11.0439L11.6123 16.6807V14.2158H0V6.82227H13.6025V9.7041ZM1.99023 9.71289V12.2725H13.6025V14.6357L16.7314 15.9219V10.5186L13.2715 11.8457V10.5186H11.6123V9.47656L10.8066 8.86035H2.79688L1.99023 9.71289Z" fill="black"/>
</g>
<path d="M31.8035 15.1207C31.8035 17.2301 30.2426 18.2848 27.1207 18.2848C25.9816 18.2848 24.9867 18.1617 24.1359 17.9156L24.4945 15.8379C25.3734 16.1543 26.2488 16.3125 27.1207 16.3125C27.9645 16.3125 28.548 16.2422 28.8715 16.1016C29.202 15.9609 29.3672 15.7254 29.3672 15.3949C29.3672 14.8816 28.7766 14.393 27.5953 13.9289C26.5617 13.5211 25.8094 13.1203 25.3383 12.7266C24.6914 12.1781 24.368 11.5066 24.368 10.7121C24.368 9.77695 24.716 9.02461 25.4121 8.45508C26.1082 7.88555 27.1207 7.60078 28.4496 7.60078C29.6941 7.60078 30.6715 7.70977 31.3816 7.92773L31.023 10.016C30.2285 9.70664 29.3707 9.55195 28.4496 9.55195C27.3246 9.55195 26.7621 9.84023 26.7621 10.4168C26.7621 10.7121 26.8816 10.9512 27.1207 11.134C27.3598 11.3098 27.8484 11.5348 28.5867 11.809C29.6063 12.1816 30.348 12.5648 30.8121 12.9586C31.473 13.5211 31.8035 14.2418 31.8035 15.1207ZM36.2075 18H33.3282C33.4336 15.5883 33.4864 12.9762 33.4864 10.1637C33.4864 7.42148 33.3774 5.09062 33.1594 3.17109L36.2075 3.00234C36.102 4.99219 36.0493 7.3793 36.0493 10.1637C36.0493 12.9902 36.102 15.6023 36.2075 18ZM46.5599 17.9895L44.0708 18.0738C43.9583 17.7785 43.902 17.5113 43.902 17.2723H43.7649C42.9915 17.9332 41.9474 18.2637 40.6325 18.2637C39.7536 18.2637 39.0224 18.0211 38.4388 17.5359C37.8622 17.0437 37.5739 16.3934 37.5739 15.5848C37.5739 14.516 38.0239 13.6406 38.9239 12.9586C39.831 12.2766 41.4165 11.9145 43.6806 11.8723C43.6946 11.7457 43.7017 11.6262 43.7017 11.5137C43.7017 10.7543 43.5188 10.2551 43.1532 10.016C42.7876 9.76992 42.1161 9.64687 41.1388 9.64687C40.077 9.64687 39.0399 9.7875 38.0274 10.0687L38.2595 8.12812C39.2157 7.79766 40.5657 7.63242 42.3095 7.63242C43.5821 7.63242 44.563 7.89961 45.252 8.43398C45.9481 8.96836 46.2962 9.90352 46.2962 11.2395C46.2962 11.5348 46.2821 12.0727 46.254 12.8531C46.2329 13.6336 46.2224 14.1539 46.2224 14.4141C46.2224 15.8695 46.3349 17.0613 46.5599 17.9895ZM43.7438 15.7957C43.7017 14.8465 43.6806 14.0273 43.6806 13.3383C41.2829 13.3383 40.0841 13.9465 40.0841 15.1629C40.0841 15.9996 40.6114 16.418 41.6661 16.418C42.4958 16.418 43.1884 16.2105 43.7438 15.7957ZM54.1912 16.0277L54.0119 17.9051C53.5197 18.116 52.9009 18.2215 52.1556 18.2215C51.0165 18.2215 50.1587 17.9121 49.5822 17.2934C49.0056 16.6746 48.7173 15.4828 48.7173 13.718C48.7173 12.6562 48.7244 11.4539 48.7384 10.1109C48.3798 10.1109 47.8947 10.132 47.283 10.1742L47.3568 8.09648C47.8982 8.13867 48.4009 8.15977 48.865 8.15977C48.872 7.78711 48.9001 6.80625 48.9494 5.21719L51.449 4.91133C51.3435 6.31055 51.2908 7.39336 51.2908 8.15977C51.8814 8.15977 52.7638 8.13164 53.938 8.07539L53.8537 10.1742C52.7849 10.132 51.9165 10.1109 51.2486 10.1109C51.2345 11.0461 51.2275 12.027 51.2275 13.0535C51.2275 14.3051 51.354 15.1453 51.6072 15.5742C51.8603 15.9961 52.3068 16.207 52.9466 16.207C53.3333 16.207 53.7482 16.1473 54.1912 16.0277ZM64.301 11.9145C64.301 12.273 64.2799 12.7406 64.2377 13.3172L57.4455 13.4332C57.5439 14.2277 57.885 14.8887 58.4685 15.416C59.0521 15.9434 59.8185 16.207 60.7678 16.207C61.8225 16.207 62.9439 16.0488 64.1322 15.7324L63.9213 17.7785C62.951 18.1301 61.7486 18.3059 60.3142 18.3059C58.5002 18.3059 57.108 17.7961 56.1377 16.7766C55.1744 15.757 54.6928 14.5301 54.6928 13.0957C54.6928 11.598 55.1498 10.3008 56.0639 9.20391C56.985 8.1 58.2611 7.54805 59.8924 7.54805C61.383 7.54805 62.4904 7.95234 63.2146 8.76094C63.9389 9.56953 64.301 10.6207 64.301 11.9145ZM61.833 11.8195C61.833 10.2023 61.1439 9.39375 59.7658 9.39375C58.451 9.39375 57.6705 10.2305 57.4244 11.9039L61.833 11.8195Z" fill="#FFAC00"/>
<g filter="url(#filter1_n_2157_301)">
<path d="M84.2543 18H81.4594C81.607 16.2211 81.6809 14.4914 81.6809 12.8109C81.6809 11.5523 81.5191 10.7297 81.1957 10.343C80.8723 9.95625 80.3555 9.76289 79.6453 9.76289C79.0758 9.76289 78.4746 9.97031 77.8418 10.3852C77.8137 11.2641 77.7996 12.0516 77.7996 12.7477C77.7996 13.9219 77.8207 15.6727 77.8629 18H75.0363C75.191 16.0734 75.2684 14.1996 75.2684 12.3785C75.2684 11.4363 75.1348 10.7648 74.8676 10.3641C74.6074 9.96328 74.0625 9.76289 73.2328 9.76289C72.4664 9.76289 71.8301 10.0195 71.3238 10.5328C71.359 13.3172 71.3766 15.8062 71.3766 18H68.5395C68.666 15.8062 68.7293 14.0766 68.7293 12.8109C68.7293 11.1656 68.557 9.58008 68.2125 8.0543L70.9125 7.75898L71.0918 8.87695H71.2605C72.1746 8.04727 73.2047 7.63242 74.3508 7.63242C75.7852 7.63242 76.7941 8.04727 77.3777 8.87695H77.5465C78.5871 8.04727 79.6172 7.63242 80.6367 7.63242C81.832 7.63242 82.732 7.89258 83.3367 8.41289C83.9484 8.92617 84.2543 9.86133 84.2543 11.2184C84.2543 11.352 84.2473 11.6086 84.2332 11.9883C84.2191 12.3609 84.2121 12.6141 84.2121 12.7477C84.2121 13.9219 84.2262 15.6727 84.2543 18ZM95.1129 11.9145C95.1129 12.273 95.0918 12.7406 95.0497 13.3172L88.2575 13.4332C88.3559 14.2277 88.6969 14.8887 89.2805 15.416C89.8641 15.9434 90.6305 16.207 91.5797 16.207C92.6344 16.207 93.7559 16.0488 94.9442 15.7324L94.7333 17.7785C93.7629 18.1301 92.5606 18.3059 91.1262 18.3059C89.3122 18.3059 87.92 17.7961 86.9497 16.7766C85.9864 15.757 85.5047 14.5301 85.5047 13.0957C85.5047 11.598 85.9618 10.3008 86.8758 9.20391C87.7969 8.1 89.0731 7.54805 90.7043 7.54805C92.195 7.54805 93.3024 7.95234 94.0266 8.76094C94.7508 9.56953 95.1129 10.6207 95.1129 11.9145ZM92.645 11.8195C92.645 10.2023 91.9559 9.39375 90.5778 9.39375C89.2629 9.39375 88.4825 10.2305 88.2364 11.9039L92.645 11.8195ZM106.035 17.9895L103.535 18.0738C103.486 17.8277 103.461 17.5711 103.461 17.3039H103.303C102.53 17.9719 101.542 18.3059 100.34 18.3059C98.9895 18.3059 97.9173 17.8172 97.1228 16.8398C96.3282 15.8625 95.931 14.7023 95.931 13.3594C95.931 11.8195 96.3634 10.4801 97.2282 9.34102C98.0931 8.19492 99.2954 7.62187 100.835 7.62187C101.834 7.62187 102.583 7.8082 103.082 8.18086H103.229C103.229 6.52148 103.149 4.85156 102.987 3.17109L105.972 3.08672C105.859 4.725 105.803 7.08047 105.803 10.1531C105.803 13.268 105.88 15.8801 106.035 17.9895ZM103.388 15.5953C103.388 13.3523 103.335 11.4961 103.229 10.0266C102.744 9.68906 102.164 9.52031 101.489 9.52031C100.561 9.52031 99.872 9.86484 99.422 10.5539C98.972 11.243 98.747 12.0867 98.747 13.0852C98.747 13.9711 98.9649 14.7375 99.4009 15.3844C99.8368 16.0242 100.442 16.3441 101.215 16.3441C102.249 16.3441 102.973 16.0945 103.388 15.5953ZM110.618 18H107.781C107.879 16.5445 107.929 14.8746 107.929 12.9902C107.929 11.1199 107.809 9.48164 107.57 8.07539L110.608 7.76953C110.516 9.13359 110.47 10.8738 110.47 12.9902C110.47 14.7973 110.52 16.4672 110.618 18ZM111.103 4.79531C111.103 5.27344 110.938 5.6918 110.608 6.05039C110.284 6.40898 109.831 6.58828 109.247 6.58828C108.755 6.58828 108.368 6.43359 108.087 6.12422C107.813 5.81484 107.676 5.44219 107.676 5.00625C107.676 4.52812 107.837 4.11328 108.161 3.76172C108.491 3.41016 108.952 3.23437 109.542 3.23437C110.042 3.23437 110.425 3.38906 110.692 3.69844C110.966 4.00078 111.103 4.36641 111.103 4.79531ZM120.939 17.9895L118.45 18.0738C118.337 17.7785 118.281 17.5113 118.281 17.2723H118.144C117.371 17.9332 116.326 18.2637 115.012 18.2637C114.133 18.2637 113.401 18.0211 112.818 17.5359C112.241 17.0437 111.953 16.3934 111.953 15.5848C111.953 14.516 112.403 13.6406 113.303 12.9586C114.21 12.2766 115.796 11.9145 118.06 11.8723C118.074 11.7457 118.081 11.6262 118.081 11.5137C118.081 10.7543 117.898 10.2551 117.532 10.016C117.167 9.76992 116.495 9.64687 115.518 9.64687C114.456 9.64687 113.419 9.7875 112.406 10.0687L112.638 8.12812C113.595 7.79766 114.945 7.63242 116.688 7.63242C117.961 7.63242 118.942 7.89961 119.631 8.43398C120.327 8.96836 120.675 9.90352 120.675 11.2395C120.675 11.5348 120.661 12.0727 120.633 12.8531C120.612 13.6336 120.601 14.1539 120.601 14.4141C120.601 15.8695 120.714 17.0613 120.939 17.9895ZM118.123 15.7957C118.081 14.8465 118.06 14.0273 118.06 13.3383C115.662 13.3383 114.463 13.9465 114.463 15.1629C114.463 15.9996 114.99 16.418 116.045 16.418C116.875 16.418 117.567 16.2105 118.123 15.7957Z" fill="black"/>
</g>
<path d="M99.556 25.3555H98.9305C98.9809 24.7529 99.0061 24.1045 99.0061 23.4103C99.0061 23.0391 98.9362 22.7894 98.7965 22.6611C98.659 22.5305 98.4677 22.4652 98.2225 22.4652C97.8788 22.4652 97.5569 22.5832 97.2568 22.8191C97.2568 24.0701 97.266 24.9156 97.2843 25.3555H96.6794C96.7 24.7506 96.7104 23.896 96.7104 22.7917C96.7104 21.8248 96.6771 21.0676 96.6107 20.52L97.2637 20.4856C97.2453 21.1844 97.2362 21.8328 97.2362 22.4308H97.2568C97.6005 22.1284 97.9774 21.9771 98.3875 21.9771C98.7541 21.9771 99.0405 22.0631 99.2467 22.2349C99.4529 22.4044 99.556 22.7034 99.556 23.1319C99.556 23.1754 99.5537 23.2613 99.5491 23.3896C99.5445 23.5157 99.5422 23.6268 99.5422 23.723C99.5422 24.0529 99.5468 24.5971 99.556 25.3555ZM105.498 23.6233C105.498 24.2099 105.33 24.6681 104.993 24.998C104.656 25.3257 104.26 25.4895 103.804 25.4895C103.378 25.4895 103.011 25.344 102.704 25.053C102.399 24.7621 102.247 24.3519 102.247 23.8227C102.247 23.2316 102.415 22.7699 102.752 22.4377C103.091 22.1054 103.489 21.9393 103.945 21.9393C104.371 21.9393 104.736 22.0871 105.041 22.3827C105.346 22.676 105.498 23.0895 105.498 23.6233ZM104.903 23.7436C104.903 23.3862 104.813 23.0689 104.632 22.7917C104.453 22.5121 104.198 22.3724 103.866 22.3724C103.536 22.3724 103.281 22.5041 103.103 22.7676C102.926 23.0311 102.838 23.337 102.838 23.6852C102.838 24.0449 102.927 24.3634 103.106 24.6406C103.287 24.9179 103.545 25.0565 103.879 25.0565C104.209 25.0565 104.462 24.9247 104.639 24.6612C104.815 24.3955 104.903 24.0896 104.903 23.7436ZM111.089 25.352L110.557 25.3727C110.525 25.2443 110.509 25.139 110.509 25.0565H110.474C110.17 25.3131 109.8 25.4414 109.364 25.4414C108.968 25.4414 108.679 25.3463 108.498 25.1561C108.319 24.9637 108.23 24.5776 108.23 23.998C108.23 23.9155 108.232 23.7929 108.237 23.6302C108.242 23.4675 108.244 23.3564 108.244 23.2969C108.244 22.9601 108.224 22.5637 108.185 22.1077L108.825 22.0837C108.797 22.5259 108.783 22.9039 108.783 23.2178C108.783 23.9395 108.829 24.4104 108.921 24.6303C109.015 24.848 109.224 24.9568 109.55 24.9568C109.916 24.9568 110.219 24.8652 110.457 24.6819C110.457 23.408 110.446 22.5499 110.423 22.1077L111.041 22.0837C111.023 22.5144 111.014 23.1101 111.014 23.8708C111.014 24.3588 111.039 24.8526 111.089 25.352ZM116.049 24.4241C116.049 25.0931 115.621 25.4276 114.767 25.4276C114.389 25.4276 114.036 25.3898 113.708 25.3142L113.815 24.809C114.112 24.9236 114.436 24.9809 114.784 24.9809C115.283 24.9809 115.533 24.8388 115.533 24.5547C115.533 24.4172 115.477 24.3084 115.365 24.2282C115.255 24.1457 115.071 24.0541 114.815 23.9533C114.489 23.825 114.253 23.7012 114.107 23.5821C113.891 23.4057 113.784 23.1926 113.784 22.9429C113.784 22.6817 113.882 22.4583 114.079 22.2727C114.276 22.0848 114.576 21.9909 114.98 21.9909C115.374 21.9909 115.69 22.0241 115.928 22.0906L115.822 22.5854C115.574 22.4869 115.288 22.4377 114.963 22.4377C114.523 22.4377 114.303 22.5648 114.303 22.8191C114.303 22.9475 114.352 23.0517 114.45 23.1319C114.549 23.2098 114.741 23.3049 115.028 23.4171C115.337 23.5386 115.566 23.6577 115.715 23.7746C115.937 23.9556 116.049 24.1721 116.049 24.4241ZM121.533 23.3381C121.533 23.4343 121.529 23.5672 121.52 23.7368L119.159 23.778C119.182 24.1125 119.311 24.3932 119.547 24.62C119.783 24.8445 120.096 24.9568 120.485 24.9568C120.833 24.9568 121.16 24.9144 121.465 24.8296L121.406 25.3142C121.182 25.4036 120.858 25.4483 120.434 25.4483C119.838 25.4483 119.383 25.2856 119.069 24.9602C118.758 24.6349 118.602 24.2385 118.602 23.7711C118.602 23.2717 118.744 22.8421 119.028 22.4823C119.314 22.1203 119.698 21.9393 120.179 21.9393C120.622 21.9393 120.957 22.0699 121.186 22.3311C121.418 22.5923 121.533 22.928 121.533 23.3381ZM120.96 23.345C120.96 22.7012 120.69 22.3792 120.152 22.3792C119.602 22.3792 119.278 22.7138 119.179 23.3828L120.96 23.345Z" fill="black"/>
<circle cx="109.535" cy="5.13281" r="1.90625" fill="#FFAC00"/>
<defs>
<filter id="filter0_d_2157_301" x="-0.674519" y="6.82227" width="20.1186" height="14.3024" filterUnits="userSpaceOnUse" color-interpolation-filters="sRGB">
<feFlood flood-opacity="0" result="BackgroundImageFix"/>
<feColorMatrix in="SourceAlpha" type="matrix" values="0 0 0 0 0 0 0 0 0 0 0 0 0 0 0 0 0 0 127 0" result="hardAlpha"/>
<feOffset dy="0.879808"/>
<feGaussianBlur stdDeviation="0.33726"/>
<feComposite in2="hardAlpha" operator="out"/>
<feColorMatrix type="matrix" values="0 0 0 0 0 0 0 0 0 0 0 0 0 0 0 0 0 0 0.25 0"/>
<feBlend mode="normal" in2="BackgroundImageFix" result="effect1_dropShadow_2157_301"/>
<feBlend mode="normal" in="SourceGraphic" in2="effect1_dropShadow_2157_301" result="shape"/>
</filter>
<filter id="filter1_n_2157_301" x="68.2109" y="3.08594" width="52.7266" height="15.2207" filterUnits="userSpaceOnUse" color-interpolation-filters="sRGB">
<feFlood flood-opacity="0" result="BackgroundImageFix"/>
<feBlend mode="normal" in="SourceGraphic" in2="BackgroundImageFix" result="shape"/>
<feTurbulence type="fractalNoise" baseFrequency="0.27434843778610229 0.27434843778610229" stitchTiles="stitch" numOctaves="3" result="noise" seed="7735" />
<feColorMatrix in="noise" type="luminanceToAlpha" result="alphaNoise" />
<feComponentTransfer in="alphaNoise" result="coloredNoise1">
<feFuncA type="discrete" tableValues="0 0 0 0 0 0 0 0 0 0 0 0 0 0 0 0 0 0 0 1 1 1 1 1 1 1 1 1 1 1 1 0 0 0 0 0 0 0 0 0 0 0 0 0 0 0 0 0 0 0 0 0 0 0 0 0 0 0 0 0 0 0 0 0 0 0 0 0 0 0 0 0 0 0 0 0 0 0 0 0 0 0 0 0 0 0 0 0 0 0 0 0 0 0 0 0 0 0 0 0 "/>
</feComponentTransfer>
<feComposite operator="in" in2="shape" in="coloredNoise1" result="noise1Clipped" />
<feFlood flood-color="rgba(0, 0, 0, 0.25)" result="color1Flood" />
<feComposite operator="in" in2="noise1Clipped" in="color1Flood" result="color1" />
<feMerge result="effect1_noise_2157_301">
<feMergeNode in="shape" />
<feMergeNode in="color1" />
</feMerge>
</filter>
</defs>
</svg>
